<svg xmlns="http://www.w3.org/2000/svg" width="247" height="208" viewBox="0 0 247 208" fill="none"><g id="Vector"><path fill-rule="evenodd" clip-rule="evenodd" d="M146.622 62.7718C146.631 62.7599 146.64 62.7481 146.648 62.7362L146.649 62.7354C146.64 62.7475 146.631 62.7596 146.622 62.7718Z" fill="#0D0D0D"></path><path d="M236.943 49.9006C239.431 39.0564 241.903 28.2102 244.399 17.37C244.966 14.8977 246.04 12.3242 246.03 9.77766V7.33647C246.03 6.5008 245.775 5.87895 245.413 5.11601C244.516 3.22954 242.905 2.2139 241.026 1.58843C239.763 1.16726 238.494 0.830922 237.22 0.579066C235.431 0.169145 233.612 -0.0656013 231.758 0.0161587C229.582 -0.0047991 227.392 0.214152 225.192 0.671335C224.925 0.726669 224.659 0.782147 224.392 0.837802C223.658 0.954628 222.925 1.08098 222.195 1.21621C217.065 2.16548 211.985 3.36413 207.353 5.91831C198.993 10.5279 191.144 15.952 183.899 22.1384C177.871 27.2849 172.308 32.9926 166.653 38.5696C163.59 41.5903 160.531 44.6674 157.88 48.0442C157.542 48.4741 157.205 48.9045 156.869 49.3354C153.422 53.5058 150.21 57.8728 147.009 62.2442C144.62 65.433 142.249 68.6358 139.889 71.8463C136.945 75.8522 133.741 79.7318 131.971 84.4999L131.962 84.5227C131.93 84.6082 131.862 84.6401 131.784 84.583C130.76 83.318 130.712 82.9158 131.445 81.6789C133.074 78.9276 131.766 75.394 128.733 74.4146C128.144 74.2235 127.517 74.1511 126.846 74.0123C126.962 73.3708 126.89 72.6307 127.214 72.1721C128.5 70.352 129.806 68.5259 131.295 66.8747C134.514 63.3069 137.93 59.9161 141.111 56.3161C143.467 53.6473 145.853 50.9342 147.73 47.9275C149.713 44.7499 151.121 41.2042 152.746 37.8053C153.235 36.7857 153.705 35.8829 154.12 34.829C154.345 34.2586 154.628 32.7932 153.784 32.5077C153.166 32.2987 152.5 32.9265 152.137 33.9298C151.594 35.4342 151.093 36.9586 150.662 38.4992C149.529 42.5356 148.25 46.5459 145.668 49.8824C142.914 53.4421 139.961 56.8551 136.94 60.1896C133.643 63.8278 130.245 67.3654 127.457 71.434C127.352 71.5869 127.188 71.6995 127.058 71.8222C126.181 71.1314 124.872 70.7801 123.542 70.7662C122.206 70.7774 120.89 71.1288 120.01 71.8223C119.976 71.7907 119.94 71.7598 119.904 71.7286C119.799 71.6389 119.689 71.5476 119.61 71.4342C116.823 67.3656 113.424 63.828 110.128 60.1898C107.107 56.8552 104.154 53.4423 101.4 49.8825C98.8182 46.546 97.5383 42.5357 96.4062 38.4993C95.9749 36.9588 95.4737 35.4343 94.9306 33.93C94.5292 32.8198 93.9013 32.0968 93.2249 32.4615C92.4246 32.8931 92.7182 33.8817 93.0257 34.662C93.441 35.7159 93.8324 36.7858 94.3216 37.8055C95.9469 41.2044 97.3546 44.75 99.3374 47.9277C101.214 50.9344 103.6 53.6474 105.957 56.3162C109.137 59.9162 112.554 63.3071 115.773 66.8749C117.262 68.526 118.568 70.3522 119.854 72.1723C120.177 72.6308 120.105 73.3709 120.221 74.0125C119.55 74.1513 118.923 74.2237 118.334 74.4147C115.301 75.3942 113.993 78.9278 115.623 81.6791C116.356 82.9159 116.308 83.3182 115.283 84.5832C115.202 84.6843 115.08 84.658 115.032 84.5609C114.327 83.1491 113.768 81.6286 112.885 80.3334C109.674 75.6193 106.444 70.9111 103.055 66.3257C102.175 65.1335 101.299 63.9371 100.423 62.7405L100.418 62.7345L100.069 62.2578C96.8173 57.9175 93.5318 53.603 90.1946 49.3299C88.0863 46.7792 85.8903 44.302 83.5552 41.9423C77.0538 35.3718 70.4865 28.8436 63.6257 22.6613C57.7573 17.3739 51.1541 12.9916 44.461 8.7983C40.4815 6.30445 36.4002 3.98759 31.7897 2.86737C28.7677 2.13367 25.7254 1.47469 22.6815 0.838937C20.3652 0.470512 18.0284 0.196713 15.6939 0.0378181C15.5637 0.0289797 15.4337 0.0217431 15.3038 0.0160597C13.4787 0.0339861 11.6628 0.220627 9.85732 0.576971C8.37201 0.916721 6.90735 1.37736 5.46065 1.87803C2.92326 2.75669 1.43388 4.62174 1.03788 7.33662C0.880606 8.41482 1.00115 9.21873 1.2036 10.1218C4.11685 22.8203 7.02609 35.5208 9.93734 48.2233C12.1637 57.9272 14.426 67.623 16.6025 77.337C17.3812 80.8082 18.2278 84.2051 20.2525 87.2178C22.8351 91.0631 25.8787 94.4123 30.2913 95.8118C32.687 96.5122 35.2279 96.8456 37.726 97.0301C38.1804 97.0637 38.6347 97.092 39.089 97.1155C39.6106 97.1307 40.1311 97.1358 40.6492 97.1308C46.4597 97.0725 52.2662 96.6039 58.0748 96.3043L58.3052 96.2922C59.8632 96.1863 61.4228 96.0985 62.9808 95.9944L62.9886 96.0311L63.1764 96.0207C63.1924 96.1072 63.2064 96.1936 63.2224 96.2801C62.833 96.4249 62.4516 96.5979 62.0523 96.7085C55.7565 98.4421 49.6904 100.769 43.9598 103.923C42.7777 104.574 41.7794 105.564 40.6971 106.398L40.5988 106.483C20.3102 124.056 38.8524 141.866 35.5339 154C35.3202 155.508 34.4593 156.715 34.2677 158.171C34.06 159.754 34.4074 161.18 35.5995 162.296C36.5728 163.207 37.5789 164.083 38.5841 164.959L38.8102 165.156C40.9268 166.998 41.6296 169.088 40.5893 171.712C39.8106 173.679 38.6844 175.517 37.6282 177.363C34.2537 183.268 30.8013 189.131 27.4588 195.056C26.2667 197.167 25.1346 199.348 24.2819 201.612C23.0759 204.818 23.619 205.896 26.5922 207.336L27.5905 207.336C30.7413 206.292 32.1211 203.706 33.0855 200.816C33.6226 199.207 33.9701 197.533 34.4493 195.902C35.7491 191.478 38.5466 188.041 41.8672 185.052C44.1147 183.026 46.8765 182.682 49.6363 183.192C52.1558 183.505 54.512 184.379 56.8608 185.362C60.6466 186.945 62.9828 189.69 63.8813 193.708C63.9141 193.854 63.9638 193.998 64.0245 194.139C64.2569 194.475 64.4917 194.81 64.7256 195.145C64.7664 195.174 64.8071 195.198 64.8477 195.216C65.1872 195.373 65.5182 195.171 65.8081 194.601C66.2454 193.74 66.5809 192.831 66.9882 191.954C67.1902 191.517 67.3259 190.928 67.6644 190.623C67.8265 190.504 67.9985 190.427 68.1223 190.448C68.4637 190.508 68.9429 190.907 69.0009 191.228C69.1406 192.001 69.1406 192.819 69.0648 193.605C68.939 194.901 68.6514 196.182 68.5356 197.479C68.4298 198.65 68.8731 198.911 69.8774 198.322C70.0704 198.208 70.2603 198.093 70.4466 197.975C72.9233 196.404 74.7646 194.383 74.9392 191.134C74.9891 190.213 75.2427 189.281 75.5322 188.399C76.2171 186.303 77.5169 185.436 79.7034 185.346C81.2928 185.279 82.8902 185.177 84.4596 184.931C86.4803 184.616 87.9759 183.536 88.8684 181.589C90.969 177.009 92.0752 172.191 92.4765 167.185C92.944 161.363 92.7065 155.459 95.0688 150.078C103.449 130.992 113.035 151.5 123.534 151.5C134.035 151.5 143.116 129.847 152 150.08C152.583 151.41 153.447 152.83 153.555 154.277C153.898 158.581 154.246 162.883 154.591 167.185C154.993 172.191 156.099 177.01 158.199 181.589C159.092 183.536 160.587 184.616 162.608 184.931C164.178 185.177 165.775 185.279 167.364 185.346C169.551 185.436 170.851 186.303 171.536 188.399C171.825 189.282 172.079 190.213 172.129 191.134C172.303 194.382 174.144 196.403 176.62 197.974C176.807 198.092 176.997 198.208 177.19 198.322C178.195 198.911 178.638 198.65 178.532 197.479C178.416 196.182 178.129 194.901 178.003 193.606C177.927 192.819 177.927 192.001 178.067 191.228C178.125 190.907 178.604 190.508 178.945 190.448C179.07 190.427 179.243 190.504 179.405 190.624C179.742 190.93 179.878 191.518 180.08 191.954C180.487 192.831 180.822 193.74 181.26 194.601C181.549 195.171 181.88 195.373 182.22 195.216C182.261 195.198 182.302 195.174 182.343 195.144C182.492 195.039 182.641 194.865 182.789 194.623C182.882 194.47 182.97 194.308 183.043 194.14C183.104 193.999 183.154 193.854 183.186 193.708C184.085 189.69 186.421 186.945 190.207 185.362C192.557 184.379 194.915 183.504 197.436 183.192C200.195 182.683 202.954 183.028 205.201 185.052C208.521 188.041 211.319 191.478 212.618 195.902C213.098 197.533 213.445 199.207 213.982 200.816C214.886 203.525 216.156 205.968 218.907 207.122C222.384 208.582 223.762 204.205 222.786 201.612C221.933 199.347 220.801 197.167 219.609 195.056C216.266 189.131 212.814 183.268 209.44 177.363C208.383 175.517 207.257 173.679 206.478 171.712C205.438 169.087 206.141 166.998 208.258 165.156L208.484 164.958C209.489 164.083 210.495 163.207 211.468 162.296C212.66 161.179 213.008 159.754 212.8 158.171C212.608 156.715 212.393 155.265 212.179 153.756C208.858 141.611 226.79 124.024 206.413 106.435L206.371 106.398C205.288 105.564 204.29 104.574 203.108 103.922C199.674 102.16 191.547 98.3299 186.507 97.1027C185.67 96.8694 184.85 96.5697 184.021 96.3002C184.04 96.2098 184.06 96.121 184.079 96.031L184.087 95.9945C185.638 96.0983 187.191 96.1857 188.742 96.291C189.567 96.347 190.392 96.408 191.215 96.4792C196.801 96.9633 202.392 97.4059 207.992 97.1149C208.442 97.0916 208.892 97.0635 209.342 97.0303C211.836 96.8461 214.372 96.5135 216.764 95.8156L216.873 95.7834C220.705 94.643 223.521 91.94 225.861 88.7684C227.444 86.6205 228.976 84.3841 229.597 81.7414C232.089 71.1385 234.507 60.5176 236.943 49.9006Z" fill="#0D0D0D"></path></g></svg>