<?xml version="1.0" encoding="UTF-8"?> <svg xmlns="http://www.w3.org/2000/svg" width="1540" height="211" viewBox="0 0 1540 211" fill="none"><path d="M12.924 27.87L12.629 28.165C11.6457 25.0183 10.4657 21.97 9.08899 19.02C7.90899 15.8733 6.63065 13.0217 5.25399 10.465C3.68065 7.51499 2.10732 4.76166 0.533984 2.20499H31.509C31.1157 3.77833 30.8207 5.64666 30.624 7.80999C30.4273 9.57999 30.329 11.645 30.329 14.005C30.329 16.365 30.5257 18.9217 30.919 21.675L66.614 200.445L101.424 45.275C102.014 42.325 102.604 38.9817 103.194 35.245C103.784 31.5083 104.177 27.7717 104.374 24.035C104.767 20.1017 104.866 16.2667 104.669 12.53C104.669 8.59666 104.276 5.15499 103.489 2.20499H123.549C122.369 3.77833 120.894 6.13833 119.124 9.28499C117.551 12.235 115.879 15.5783 114.109 19.315C112.339 23.0517 110.569 27.0833 108.799 31.41C107.226 35.7367 105.947 40.0633 104.964 44.39L68.089 208.41V209H48.619L12.924 27.87ZM176.739 183.04C176.739 186.383 177.034 189.53 177.624 192.48C178.214 195.43 178.902 198.183 179.689 200.74C180.476 203.69 181.459 206.443 182.639 209H151.664C152.844 206.443 153.827 203.69 154.614 200.74C155.401 198.183 156.089 195.43 156.679 192.48C157.269 189.53 157.564 186.383 157.564 183.04V28.165C157.564 25.0183 157.269 21.97 156.679 19.02C156.089 15.8733 155.401 13.0217 154.614 10.465C153.827 7.51499 152.844 4.76166 151.664 2.20499H182.639C181.459 4.76166 180.476 7.51499 179.689 10.465C178.902 13.0217 178.214 15.8733 177.624 19.02C177.034 21.97 176.739 25.0183 176.739 28.165V183.04ZM289.666 2.20499H314.741C314.348 3.77833 313.561 5.94166 312.381 8.69499C311.398 11.2517 310.12 14.1033 308.546 17.25C307.17 20.2 305.695 23.15 304.121 26.1C302.548 29.05 301.171 31.705 299.991 34.065C295.861 42.1283 291.633 49.405 287.306 55.895C283.176 62.1883 278.063 68.9733 271.966 76.25L313.266 183.04C314.446 185.99 315.725 188.94 317.101 191.89C318.675 194.643 320.15 197.2 321.526 199.56C322.903 201.92 324.083 203.985 325.066 205.755C326.246 207.328 327.033 208.41 327.426 209H293.796C293.993 209 294.19 208.213 294.386 206.64C294.78 205.067 295.075 203.1 295.271 200.74C295.468 198.183 295.37 195.332 294.976 192.185C294.78 189.038 294.091 185.99 292.911 183.04L258.101 93.95C252.398 102.21 247.383 111.748 243.056 122.565C238.926 133.382 236.468 146.853 235.681 162.98V183.04C235.681 186.383 235.976 189.53 236.566 192.48C237.156 195.43 237.845 198.183 238.631 200.74C239.418 203.69 240.401 206.443 241.581 209H210.606C211.786 206.443 212.77 203.69 213.556 200.74C214.343 198.183 215.031 195.43 215.621 192.48C216.211 189.53 216.506 186.383 216.506 183.04V28.165C216.506 25.0183 216.211 21.97 215.621 19.02C215.031 15.8733 214.343 13.0217 213.556 10.465C212.77 7.51499 211.786 4.76166 210.606 2.20499H241.581C240.401 4.76166 239.418 7.51499 238.631 10.465C237.845 13.0217 237.156 15.8733 236.566 19.02C235.976 21.97 235.681 25.0183 235.681 28.165V136.725C237.255 129.645 239.221 123.253 241.581 117.55C243.941 111.847 246.596 106.537 249.546 101.62C252.496 96.5067 255.741 91.6883 259.281 87.165C262.821 82.445 266.656 77.6267 270.786 72.71C272.556 70.35 274.72 67.5967 277.276 64.45C279.833 61.3033 282.291 57.96 284.651 54.42C287.208 50.88 289.47 47.4383 291.436 44.095C293.403 40.555 294.681 37.31 295.271 34.36C296.255 29.8367 296.451 25.6083 295.861 21.675C295.468 17.7417 294.78 14.3 293.796 11.35C292.813 8.00666 291.436 4.95832 289.666 2.20499ZM380.473 183.04C380.473 186.383 380.768 189.53 381.358 192.48C381.948 195.43 382.637 198.183 383.423 200.74C384.21 203.69 385.193 206.443 386.373 209H355.398C356.578 206.443 357.562 203.69 358.348 200.74C359.135 198.183 359.823 195.43 360.413 192.48C361.003 189.53 361.298 186.383 361.298 183.04V28.165C361.298 25.0183 361.003 21.97 360.413 19.02C359.823 15.8733 359.135 13.0217 358.348 10.465C357.562 7.51499 356.578 4.76166 355.398 2.20499H386.373C385.193 4.76166 384.21 7.51499 383.423 10.465C382.637 13.0217 381.948 15.8733 381.358 19.02C380.768 21.97 380.473 25.0183 380.473 28.165V183.04ZM505.698 2.49999C504.518 5.05665 503.535 7.71166 502.748 10.465C501.962 12.825 501.273 15.5783 500.683 18.725C500.093 21.8717 499.798 25.0183 499.798 28.165V205.755H547.588C554.472 205.755 560.47 204.673 565.583 202.51C570.697 200.15 575.023 197.593 578.563 194.84C582.693 191.497 586.233 187.76 589.183 183.63L584.168 209H474.723C475.903 206.64 476.887 203.985 477.673 201.035C478.46 198.675 479.148 195.922 479.738 192.775C480.328 189.628 480.623 186.383 480.623 183.04V28.165C480.623 25.0183 480.328 21.8717 479.738 18.725C479.148 15.5783 478.46 12.825 477.673 10.465C476.887 7.71166 475.903 5.05665 474.723 2.49999H505.698ZM728.131 183.04C728.917 186.187 729.999 189.333 731.376 192.48C732.752 195.43 734.129 198.183 735.506 200.74C737.079 203.69 738.652 206.443 740.226 209H709.251C709.644 207.427 709.939 205.558 710.136 203.395C710.332 201.625 710.431 199.56 710.431 197.2C710.431 194.84 710.234 192.283 709.841 189.53L695.976 119.615C693.026 120.598 688.896 122.368 683.586 124.925C678.472 127.285 673.064 130.727 667.361 135.25C661.854 139.773 656.446 145.477 651.136 152.36C645.826 159.047 641.401 167.208 637.861 176.845C636.681 184.318 636.091 190.907 636.091 196.61C636.287 202.117 636.779 206.247 637.566 209H617.211C618.391 207.427 619.866 205.165 621.636 202.215C623.406 199.068 625.176 195.627 626.946 191.89C628.716 188.153 630.387 184.122 631.961 179.795C633.534 175.468 634.812 171.142 635.796 166.815L670.901 11.055C670.114 9.67833 669.426 8.49832 668.836 7.51499C668.246 6.335 667.754 5.35166 667.361 4.56499C666.771 3.77833 666.181 2.99166 665.591 2.20499H696.566C695.976 4.36832 695.582 7.80999 695.386 12.53C695.189 17.25 695.779 22.4617 697.156 28.165L728.131 183.04ZM677.686 27.87C677.292 25.7067 676.702 23.6417 675.916 21.675C675.129 19.7083 674.244 17.7417 673.261 15.775L639.631 164.16C643.761 156.293 648.382 149.607 653.496 144.1C658.806 138.397 664.116 133.677 669.426 129.94C674.736 126.203 679.652 123.253 684.176 121.09C688.896 118.927 692.632 117.353 695.386 116.37L677.686 27.87ZM785.156 178.32C785.156 181.073 785.549 184.122 786.336 187.465C787.122 190.612 788.106 193.758 789.286 196.905C790.466 199.855 791.744 202.51 793.121 204.87C794.694 207.033 796.071 208.41 797.251 209H770.111C771.291 208.41 772.569 207.033 773.946 204.87C775.519 202.51 776.896 199.855 778.076 196.905C779.256 193.758 780.239 190.612 781.026 187.465C781.812 184.122 782.206 181.073 782.206 178.32V23.15C780.239 19.02 778.076 15.185 775.716 11.645C773.356 7.90833 770.897 4.85999 768.341 2.49999H807.281C804.921 3.87666 803.544 7.71166 803.151 14.005C802.954 20.2983 804.527 28.165 807.871 37.605L849.761 161.505C848.384 149.902 847.991 138.987 848.581 128.76C849.171 118.533 850.449 108.897 852.416 99.85C854.776 88.2467 858.021 77.725 862.151 68.285C866.281 58.6483 870.607 50.29 875.131 43.21C879.654 35.9333 884.177 29.935 888.701 25.215C893.224 20.495 897.059 17.0533 900.206 14.89C899.222 11.35 898.337 8.39999 897.551 6.03999C896.961 4.86 896.469 3.67999 896.076 2.49999H927.051C925.871 5.05665 924.887 7.71166 924.101 10.465C923.314 12.825 922.626 15.5783 922.036 18.725C921.446 21.8717 921.151 25.0183 921.151 28.165V183.04C921.151 186.383 921.446 189.628 922.036 192.775C922.626 195.922 923.314 198.675 924.101 201.035C924.887 203.985 925.871 206.64 927.051 209H896.076C897.256 206.64 898.239 203.985 899.026 201.035C899.812 198.675 900.501 195.922 901.091 192.775C901.681 189.628 901.976 186.383 901.976 183.04V28.165C901.976 24.8217 901.681 21.4783 901.091 18.135C897.944 20.2983 894.207 23.74 889.881 28.46C885.554 33.18 881.227 38.9817 876.901 45.865C872.574 52.7483 868.444 60.8117 864.511 70.055C860.774 79.1017 857.726 89.23 855.366 100.44C853.006 111.65 851.727 123.843 851.531 137.02C851.334 150.197 852.809 164.258 855.956 179.205L860.971 194.545C862.151 196.512 863.232 198.478 864.216 200.445C865.199 202.018 866.182 203.69 867.166 205.46C868.149 207.033 869.132 208.213 870.116 209H837.666C838.649 207.427 839.436 204.87 840.026 201.33C840.812 197.79 840.812 194.643 840.026 191.89L785.156 30.82V178.32ZM980.268 183.04C980.268 186.383 980.563 189.628 981.153 192.775C981.743 195.922 982.431 198.675 983.218 201.035C984.005 203.985 984.988 206.64 986.168 209H955.193C956.373 206.64 957.356 203.985 958.143 201.035C958.93 198.675 959.618 195.922 960.208 192.775C960.798 189.628 961.093 186.383 961.093 183.04V28.165C961.093 25.0183 960.798 21.8717 960.208 18.725C959.618 15.5783 958.93 12.825 958.143 10.465C957.356 7.71166 956.373 5.05665 955.193 2.49999H1009.18C1020.98 2.49999 1030.81 5.64665 1038.68 11.94C1046.54 18.2333 1052.44 26.1 1056.38 35.54C1060.31 44.98 1062.28 55.2067 1062.28 66.22C1062.47 77.2333 1060.61 87.46 1056.67 96.9C1052.74 106.34 1046.74 114.207 1038.68 120.5C1030.81 126.793 1020.98 129.94 1009.18 129.94C999.935 129.94 992.756 131.907 987.643 135.84C982.726 139.773 980.268 146.46 980.268 155.9V183.04ZM980.268 5.745V140.56C983.021 135.447 986.856 131.907 991.773 129.94C996.886 127.777 1002.69 126.695 1009.18 126.695C1016.65 126.695 1022.75 123.745 1027.47 117.845C1032.38 111.748 1035.83 104.275 1037.79 95.425C1039.96 86.3783 1040.84 76.6433 1040.45 66.22C1040.25 55.7967 1038.87 46.16 1036.32 37.31C1033.76 28.2633 1030.12 20.79 1025.4 14.89C1020.88 8.79333 1015.47 5.745 1009.18 5.745H980.268ZM1169.24 0.729991C1180.26 0.729991 1190.48 3.48332 1199.92 8.98999C1209.56 14.4967 1217.92 22.0683 1225 31.705C1232.67 41.9317 1238.37 53.535 1242.11 66.515C1246.04 79.2983 1248.01 92.3767 1248.01 105.75C1248.01 119.123 1246.04 132.3 1242.11 145.28C1238.37 158.063 1232.67 169.568 1225 179.795C1217.33 190.218 1208.58 197.987 1198.74 203.1C1189.11 208.213 1179.27 210.77 1169.24 210.77C1159.21 210.77 1149.28 208.213 1139.45 203.1C1129.81 197.987 1121.16 190.218 1113.49 179.795C1105.82 169.568 1100.11 158.063 1096.38 145.28C1092.64 132.3 1090.77 119.123 1090.77 105.75C1090.77 92.3767 1092.64 79.2983 1096.38 66.515C1100.11 53.535 1105.82 41.9317 1113.49 31.705C1120.57 22.0683 1128.83 14.4967 1138.27 8.98999C1147.9 3.48332 1158.23 0.729991 1169.24 0.729991ZM1211.13 33.475C1205.23 23.6417 1198.64 16.2667 1191.37 11.35C1184.09 6.43332 1176.72 3.97498 1169.24 3.97498C1161.77 3.97498 1154.39 6.43332 1147.12 11.35C1139.84 16.2667 1133.25 23.6417 1127.35 33.475C1121.45 43.505 1117.03 54.8133 1114.08 67.4C1111.13 79.79 1109.65 92.5733 1109.65 105.75C1109.65 118.927 1111.13 131.808 1114.08 144.395C1117.03 156.785 1121.45 167.995 1127.35 178.025C1133.25 187.858 1139.84 195.233 1147.12 200.15C1154.39 205.067 1161.77 207.525 1169.24 207.525C1176.72 207.525 1184.09 205.067 1191.37 200.15C1198.64 195.233 1205.23 187.858 1211.13 178.025C1217.03 167.995 1221.46 156.785 1224.41 144.395C1227.36 131.808 1228.83 118.927 1228.83 105.75C1228.83 92.5733 1227.36 79.79 1224.41 67.4C1221.46 54.8133 1217.03 43.505 1211.13 33.475ZM1384.93 175.96C1384.93 178.91 1385.22 182.253 1385.81 185.99C1386.4 189.727 1387.09 193.267 1387.88 196.61C1388.66 199.953 1389.45 202.805 1390.24 205.165C1391.02 207.525 1391.61 208.803 1392.01 209H1370.18L1283.74 24.92V178.32C1283.74 181.073 1284.13 184.122 1284.92 187.465C1285.71 190.612 1286.69 193.758 1287.87 196.905C1289.05 199.855 1290.33 202.51 1291.71 204.87C1293.08 207.033 1294.36 208.41 1295.54 209H1268.4C1269.58 208.41 1270.86 207.033 1272.24 204.87C1273.81 202.51 1275.19 199.855 1276.37 196.905C1277.55 193.758 1278.53 190.612 1279.32 187.465C1280.1 184.122 1280.5 181.073 1280.5 178.32V36.13C1280.5 32.1967 1279.91 27.0833 1278.73 20.79C1277.74 14.4967 1275.87 8.39999 1273.12 2.49999H1294.07L1381.68 188.94V33.18C1381.68 30.4267 1381.29 27.4767 1380.5 24.33C1379.71 20.9867 1378.73 17.84 1377.55 14.89C1376.37 11.7433 1374.99 9.08832 1373.42 6.92498C1372.04 4.56499 1370.77 3.08999 1369.59 2.49999H1397.02C1395.84 3.08999 1394.46 4.56499 1392.89 6.92498C1391.51 9.08832 1390.24 11.7433 1389.06 14.89C1387.88 17.84 1386.89 20.9867 1386.11 24.33C1385.32 27.4767 1384.93 30.4267 1384.93 33.18V175.96ZM1509.08 80.97V99.26C1506.33 95.9167 1503.28 93.065 1499.93 90.705C1496.98 88.7383 1493.54 87.165 1489.61 85.985C1485.68 84.6083 1481.25 84.6083 1476.33 85.985C1473.78 86.7717 1471.02 88.1483 1468.07 90.115C1458.44 96.4083 1452.44 105.16 1450.08 116.37V205.755H1497.57C1504.46 205.755 1510.46 204.673 1515.57 202.51C1520.88 200.15 1525.3 197.593 1528.84 194.84C1532.97 191.497 1536.51 187.76 1539.46 183.63L1534.45 209H1425C1426.18 206.443 1427.17 203.69 1427.95 200.74C1428.74 198.183 1429.43 195.43 1430.02 192.48C1430.61 189.53 1430.9 186.383 1430.9 183.04V28.165C1430.9 25.0183 1430.61 21.97 1430.02 19.02C1429.43 15.8733 1428.74 13.0217 1427.95 10.465C1427.17 7.51499 1426.18 4.76166 1425 2.20499H1534.45L1539.46 27.575C1536.51 23.6417 1532.97 20.0033 1528.84 16.66C1525.3 13.9067 1520.88 11.35 1515.57 8.98999C1510.46 6.62999 1504.46 5.44998 1497.57 5.44998H1450.08V106.34C1452.64 100.637 1456.08 95.8183 1460.4 91.885C1464.93 87.9517 1469.84 84.9033 1475.15 82.74C1480.46 80.5767 1486.07 79.3967 1491.97 79.2C1497.87 78.8067 1503.57 79.3967 1509.08 80.97Z" fill="white"></path></svg> 