<svg width="24" height="25" viewBox="0 0 24 25" fill="none" xmlns="http://www.w3.org/2000/svg">
<path d="M4.09253 6.52725C4.91414 13.7903 11.1005 19.9767 18.3636 20.7983C19.3109 20.9054 20.1346 20.2179 20.3216 19.283L20.7004 17.3887C20.8773 16.5043 20.4404 15.611 19.6337 15.2076L18.3983 14.59C17.5886 14.1851 16.6052 14.4173 16.062 15.1415C15.7082 15.6132 15.14 15.9008 14.5962 15.6728C12.7272 14.8894 10.0014 12.1636 9.21796 10.2946C8.99002 9.75084 9.27761 9.1826 9.7493 8.82883C10.4736 8.28564 10.7057 7.30223 10.3008 6.49249L9.68316 5.25713C9.27982 4.45044 8.38646 4.01352 7.50207 4.19039L5.60777 4.56925C4.67292 4.75622 3.98537 5.57993 4.09253 6.52725Z" stroke="#646464" stroke-linecap="round" stroke-linejoin="round"/>
</svg>
