<svg width="24" height="25" viewBox="0 0 24 25" fill="none" xmlns="http://www.w3.org/2000/svg">
<path d="M18 19.5991C17.4832 17.2658 15.5357 15.8908 12.0001 15.8908C8.46459 15.8908 6.51676 17.2658 6 19.5991M12 21.8908C16.9706 21.8908 21 17.8614 21 12.8908C21 7.92025 16.9706 3.89081 12 3.89081C7.02944 3.89081 3 7.92025 3 12.8908C3 17.8614 7.02944 21.8908 12 21.8908ZM12 12.8908C13.3333 12.8908 14 12.1765 14 10.3908C14 8.60509 13.3333 7.89081 12 7.89081C10.6667 7.89081 10 8.60509 10 10.3908C10 12.1765 10.6667 12.8908 12 12.8908Z" stroke="#646464" stroke-linecap="round" stroke-linejoin="round"/>
</svg>
