<?xml version="1.0" encoding="UTF-8"?> <svg xmlns="http://www.w3.org/2000/svg" width="1296" height="148" viewBox="0 0 1296 148" fill="none"><path d="M1273.97 56.1827V68.9937C1272.02 66.6519 1269.86 64.6545 1267.49 63.0015C1265.4 61.6239 1262.96 60.5219 1260.18 59.6954C1257.39 58.7311 1254.26 58.7311 1250.77 59.6954C1248.96 60.2464 1247.01 61.2107 1244.92 62.5882C1238.09 66.9963 1233.84 73.1263 1232.17 80.9782V143.587H1265.82C1270.7 143.587 1274.95 142.829 1278.57 141.314C1282.33 139.661 1285.47 137.87 1287.98 135.942C1290.9 133.6 1293.41 130.982 1295.5 128.09L1291.95 145.86H1214.4C1215.24 144.069 1215.94 142.14 1216.49 140.074C1217.05 138.283 1217.54 136.355 1217.96 134.289C1218.38 132.222 1218.58 130.018 1218.58 127.676V19.1961C1218.58 16.992 1218.38 14.8569 1217.96 12.7906C1217.54 10.5865 1217.05 8.5891 1216.49 6.79831C1215.94 4.73202 1215.24 2.80348 1214.4 1.0127H1291.95L1295.5 18.7828C1293.41 16.0278 1290.9 13.4793 1287.98 11.1375C1285.47 9.20899 1282.33 7.4182 1278.57 5.76517C1274.95 4.11213 1270.7 3.28561 1265.82 3.28561H1232.17V73.9528C1233.98 69.958 1236.42 66.583 1239.49 63.828C1242.69 61.0729 1246.17 58.9378 1249.94 57.4225C1253.7 55.9072 1257.67 55.0807 1261.85 54.9429C1266.03 54.6674 1270.07 55.0807 1273.97 56.1827Z" fill="black"></path><path d="M1188.78 122.846C1188.78 124.901 1188.99 127.23 1189.4 129.832C1189.8 132.435 1190.28 134.901 1190.83 137.229C1191.37 139.558 1191.92 141.545 1192.46 143.188C1193.01 144.832 1193.42 145.723 1193.69 145.86H1178.55L1118.6 17.6417V124.49C1118.6 126.408 1118.88 128.531 1119.42 130.86C1119.97 133.051 1120.65 135.243 1121.47 137.435C1122.29 139.49 1123.17 141.339 1124.13 142.983C1125.08 144.49 1125.97 145.449 1126.79 145.86H1107.96C1108.78 145.449 1109.67 144.49 1110.62 142.983C1111.72 141.339 1112.67 139.49 1113.49 137.435C1114.31 135.243 1114.99 133.051 1115.54 130.86C1116.08 128.531 1116.35 126.408 1116.35 124.49V25.4498C1116.35 22.7101 1115.94 19.1485 1115.13 14.765C1114.44 10.3815 1113.15 6.13494 1111.24 2.02539H1125.76L1186.53 131.887V23.395C1186.53 21.4773 1186.26 19.4225 1185.71 17.2307C1185.17 14.902 1184.49 12.7102 1183.67 10.6554C1182.85 8.46368 1181.89 6.61439 1180.8 5.10755C1179.85 3.46373 1178.96 2.43635 1178.14 2.02539H1197.17C1196.35 2.43635 1195.4 3.46373 1194.31 5.10755C1193.35 6.61439 1192.46 8.46368 1191.65 10.6554C1190.83 12.7102 1190.15 14.902 1189.6 17.2307C1189.05 19.4225 1188.78 21.4773 1188.78 23.395V122.846Z" fill="black"></path><path d="M1036.9 0C1044.57 0 1051.69 1.93858 1058.27 5.81573C1064.98 9.69289 1070.79 15.024 1075.72 21.809C1081.07 29.0094 1085.04 37.1792 1087.64 46.3182C1090.38 55.3187 1091.75 64.5269 1091.75 73.9429C1091.75 83.3588 1090.38 92.6363 1087.64 101.775C1085.04 110.776 1081.07 118.876 1075.72 126.077C1070.38 133.416 1064.29 138.885 1057.44 142.485C1050.73 146.086 1043.89 147.886 1036.9 147.886C1029.92 147.886 1023 146.086 1016.16 142.485C1009.45 138.885 1003.42 133.416 998.083 126.077C992.742 118.876 988.771 110.776 986.169 101.775C983.567 92.6363 982.267 83.3588 982.267 73.9429C982.267 64.5269 983.567 55.3187 986.169 46.3182C988.771 37.1792 992.742 29.0094 998.083 21.809C1003.01 15.024 1008.76 9.69289 1015.34 5.81573C1022.05 1.93858 1029.24 0 1036.9 0ZM1066.07 23.0552C1061.96 16.1317 1057.38 10.9391 1052.31 7.47737C1047.24 4.01562 1042.11 2.28475 1036.9 2.28475C1031.7 2.28475 1026.56 4.01562 1021.5 7.47737C1016.43 10.9391 1011.84 16.1317 1007.74 23.0552C1003.63 30.1172 1000.55 38.0792 998.493 46.9413C996.439 55.6649 995.412 64.6654 995.412 73.9429C995.412 83.2204 996.439 92.2902 998.493 101.152C1000.55 109.876 1003.63 117.769 1007.74 124.831C1011.84 131.754 1016.43 136.947 1021.5 140.408C1026.56 143.87 1031.7 145.601 1036.9 145.601C1042.11 145.601 1047.24 143.87 1052.31 140.408C1057.38 136.947 1061.96 131.754 1066.07 124.831C1070.18 117.769 1073.26 109.876 1075.31 101.152C1077.37 92.2902 1078.39 83.2204 1078.39 73.9429C1078.39 64.6654 1077.37 55.6649 1075.31 46.9413C1073.26 38.0792 1070.18 30.1172 1066.07 23.0552Z" fill="black"></path><path d="M906.03 127.778C906.03 130.106 906.242 132.367 906.666 134.558C907.091 136.75 907.586 138.668 908.152 140.312C908.718 142.366 909.425 144.216 910.274 145.86H887.992C888.841 144.216 889.548 142.366 890.114 140.312C890.68 138.668 891.175 136.75 891.6 134.558C892.024 132.367 892.236 130.106 892.236 127.778V19.9019C892.236 17.7102 892.024 15.5184 891.6 13.3266C891.175 11.1349 890.68 9.2171 890.114 7.57328C889.548 5.65549 888.841 3.8062 887.992 2.02539H926.826C935.314 2.02539 942.388 4.21715 948.047 8.60067C953.706 12.9842 957.95 18.4636 960.779 25.0389C963.609 31.6141 965.023 38.7373 965.023 46.4085C965.165 54.0797 963.821 61.2029 960.991 67.7781C958.162 74.3534 953.847 79.8328 948.047 84.2163C942.388 88.5998 935.314 90.7916 926.826 90.7916C920.177 90.7916 915.013 92.1615 911.335 94.9012C907.798 97.6409 906.03 102.298 906.03 108.874V127.778ZM906.03 4.28565V98.1888C908.01 94.6272 910.769 92.1615 914.306 90.7916C917.984 89.2848 922.157 88.5314 926.826 88.5314C932.202 88.5314 936.588 86.4766 939.983 82.367C943.52 78.1205 945.995 72.9151 947.41 66.7508C948.966 60.4495 949.603 53.6687 949.32 46.4085C949.178 39.1483 948.188 32.436 946.349 26.2717C944.51 19.9704 941.893 14.765 938.497 10.6554C935.244 6.40891 931.353 4.28565 926.826 4.28565H906.03Z" fill="black"></path><path d="M769.947 124.49C769.947 126.408 770.221 128.531 770.768 130.86C771.316 133.051 772.001 135.243 772.822 137.435C773.644 139.49 774.534 141.339 775.492 142.983C776.587 144.49 777.546 145.449 778.367 145.86H759.472C760.294 145.449 761.184 144.49 762.142 142.983C763.238 141.339 764.196 139.49 765.018 137.435C765.839 135.243 766.524 133.051 767.071 130.86C767.619 128.531 767.893 126.408 767.893 124.49V16.4088C766.524 13.5321 765.018 10.8609 763.375 8.39519C761.732 5.79248 760.02 3.66921 758.24 2.02539H785.35C783.707 2.98429 782.749 5.6555 782.475 10.039C782.338 14.4225 783.433 19.9019 785.761 26.4772L814.924 112.778C813.966 104.696 813.692 97.0929 814.103 89.9697C814.514 82.8465 815.404 76.1342 816.773 69.8329C818.416 61.7508 820.675 54.4221 823.55 47.8468C826.426 41.1346 829.438 35.3127 832.587 30.3813C835.736 25.3128 838.885 21.1348 842.034 17.8472C845.183 14.5595 847.853 12.1623 850.044 10.6554C849.359 8.18971 848.743 6.13494 848.196 4.49112C847.785 3.66922 847.443 2.84731 847.169 2.02539H868.733C867.912 3.8062 867.227 5.65549 866.68 7.57328C866.132 9.2171 865.653 11.1349 865.242 13.3266C864.831 15.5184 864.626 17.7102 864.626 19.9019V127.778C864.626 130.106 864.831 132.367 865.242 134.558C865.653 136.75 866.132 138.668 866.68 140.312C867.227 142.366 867.912 144.216 868.733 145.86H847.169C847.99 144.216 848.675 142.366 849.223 140.312C849.77 138.668 850.249 136.75 850.66 134.558C851.071 132.367 851.276 130.106 851.276 127.778V19.9019C851.276 17.5732 851.071 15.2444 850.66 12.9157C848.469 14.4225 845.868 16.8198 842.856 20.1074C839.844 23.395 836.831 27.4361 833.819 32.2306C830.807 37.025 827.932 42.6414 825.193 49.0797C822.592 55.381 820.47 62.4357 818.827 70.2439C817.184 78.052 816.294 86.5451 816.157 95.7231C816.02 104.901 817.047 114.695 819.237 125.106L822.729 135.791C823.55 137.161 824.303 138.531 824.988 139.901C825.673 140.997 826.357 142.161 827.042 143.394C827.726 144.49 828.411 145.312 829.096 145.86H806.504C807.189 144.764 807.736 142.983 808.147 140.517C808.695 138.051 808.695 135.86 808.147 133.942L769.947 21.7512V124.49Z" fill="black"></path><path d="M728.576 127.676C729.121 129.88 729.87 132.084 730.823 134.289C731.776 136.355 732.729 138.283 733.681 140.074C734.771 142.14 735.86 144.069 736.949 145.86H715.508C715.78 144.758 715.984 143.449 716.12 141.934C716.257 140.694 716.325 139.248 716.325 137.595C716.325 135.942 716.188 134.151 715.916 132.222L706.319 83.2511C704.277 83.9399 701.418 85.1797 697.743 86.9704C694.203 88.6235 690.459 91.0342 686.512 94.2025C682.7 97.3708 678.956 101.366 675.281 106.187C671.605 110.871 668.542 116.587 666.092 123.337C665.275 128.572 664.867 133.187 664.867 137.181C665.003 141.038 665.343 143.931 665.888 145.86H651.798C652.615 144.758 653.636 143.174 654.861 141.107C656.086 138.903 657.311 136.493 658.536 133.875C659.762 131.258 660.919 128.434 662.008 125.403C663.097 122.373 663.982 119.342 664.662 116.312L688.962 7.21158C688.417 6.2473 687.941 5.42079 687.533 4.73202C687.124 3.90551 686.784 3.21674 686.512 2.66573C686.103 2.11472 685.695 1.56371 685.286 1.0127H706.727C706.319 2.52797 706.047 4.93865 705.91 8.24472C705.774 11.5508 706.183 15.2012 707.136 19.1961L728.576 127.676ZM693.659 18.9894C693.386 17.4742 692.978 16.0278 692.433 14.6502C691.889 13.2727 691.276 11.8952 690.596 10.5176L667.317 114.452C670.176 108.942 673.375 104.258 676.914 100.401C680.59 96.4065 684.265 93.1005 687.941 90.4832C691.617 87.8658 695.02 85.7996 698.151 84.2843C701.418 82.769 704.005 81.667 705.91 80.9782L693.659 18.9894Z" fill="black"></path><path d="M573.39 2.02539C572.554 3.8062 571.858 5.65549 571.3 7.57328C570.743 9.2171 570.255 11.1349 569.837 13.3266C569.419 15.5184 569.21 17.7102 569.21 19.9019V143.599H603.07C607.947 143.599 612.197 142.846 615.819 141.339C619.442 139.695 622.508 137.914 625.016 135.997C627.942 133.668 630.45 131.065 632.54 128.188L628.987 145.86H551.444C552.28 144.216 552.977 142.366 553.534 140.312C554.092 138.668 554.579 136.75 554.998 134.558C555.416 132.367 555.625 130.106 555.625 127.778V19.9019C555.625 17.7102 555.416 15.5184 554.998 13.3266C554.579 11.1349 554.092 9.2171 553.534 7.57328C552.977 5.65549 552.28 3.8062 551.444 2.02539H573.39Z" fill="black"></path><path d="M486.571 127.676C486.571 130.018 486.774 132.222 487.179 134.289C487.584 136.355 488.058 138.283 488.598 140.074C489.139 142.14 489.815 144.069 490.626 145.86H469.338C470.149 144.069 470.825 142.14 471.365 140.074C471.906 138.283 472.379 136.355 472.784 134.289C473.19 132.222 473.393 130.018 473.393 127.676V19.1961C473.393 16.992 473.19 14.8569 472.784 12.7906C472.379 10.5865 471.906 8.5891 471.365 6.79831C470.825 4.73202 470.149 2.80348 469.338 1.0127H490.626C489.815 2.80348 489.139 4.73202 488.598 6.79831C488.058 8.5891 487.584 10.5865 487.179 12.7906C486.774 14.8569 486.571 16.992 486.571 19.1961V127.676Z" fill="black"></path><path d="M423.534 1.0127H441.158C440.882 2.11472 440.329 3.63 439.5 5.55854C438.809 7.34933 437.91 9.34674 436.804 11.5508C435.837 13.6171 434.8 15.6834 433.694 17.7497C432.588 19.816 431.621 21.6756 430.791 23.3286C427.888 28.9765 424.916 34.0734 421.875 38.6192C418.972 43.0273 415.378 47.7798 411.093 52.8766L440.122 127.676C440.951 129.743 441.85 131.809 442.817 133.875C443.923 135.804 444.96 137.595 445.927 139.248C446.895 140.901 447.724 142.347 448.416 143.587C449.245 144.689 449.798 145.447 450.074 145.86H426.437C426.575 145.86 426.713 145.309 426.851 144.207C427.128 143.105 427.335 141.727 427.474 140.074C427.612 138.283 427.543 136.286 427.266 134.082C427.128 131.878 426.644 129.743 425.815 127.676L401.348 65.2744C397.339 71.06 393.814 77.741 390.773 85.3174C387.87 92.8938 386.142 102.33 385.589 113.626V127.676C385.589 130.018 385.797 132.222 386.211 134.289C386.626 136.355 387.11 138.283 387.663 140.074C388.216 142.14 388.907 144.069 389.736 145.86H367.965C368.794 144.069 369.485 142.14 370.038 140.074C370.591 138.283 371.075 136.355 371.49 134.289C371.904 132.222 372.112 130.018 372.112 127.676V19.1961C372.112 16.992 371.904 14.8569 371.49 12.7906C371.075 10.5865 370.591 8.5891 370.038 6.79831C369.485 4.73202 368.794 2.80348 367.965 1.0127H389.736C388.907 2.80348 388.216 4.73202 387.663 6.79831C387.11 8.5891 386.626 10.5865 386.211 12.7906C385.797 14.8569 385.589 16.992 385.589 19.1961V95.2356C386.695 90.2765 388.078 85.7996 389.736 81.8047C391.395 77.8099 393.261 74.0906 395.335 70.6467C397.408 67.0652 399.689 63.6902 402.177 60.5219C404.665 57.2158 407.361 53.8409 410.264 50.3971C411.508 48.744 413.028 46.8155 414.825 44.6115C416.622 42.4074 418.35 40.0656 420.009 37.5861C421.806 35.1065 423.396 32.6958 424.778 30.354C426.16 27.8745 427.059 25.6016 427.474 23.5353C428.165 20.367 428.303 17.4053 427.888 14.6502C427.612 11.8952 427.128 9.48449 426.437 7.4182C425.746 5.0764 424.778 2.94123 423.534 1.0127Z" fill="black"></path><path d="M343.442 127.676C343.442 130.018 343.655 132.222 344.079 134.289C344.504 136.355 345 138.283 345.566 140.074C346.133 142.14 346.84 144.069 347.69 145.86H325.389C326.238 144.069 326.946 142.14 327.513 140.074C328.079 138.283 328.575 136.355 328.999 134.289C329.424 132.222 329.637 130.018 329.637 127.676V19.1961C329.637 16.992 329.424 14.8569 328.999 12.7906C328.575 10.5865 328.079 8.5891 327.513 6.79831C326.946 4.73202 326.238 2.80348 325.389 1.0127H347.69C346.84 2.80348 346.133 4.73202 345.566 6.79831C345 8.5891 344.504 10.5865 344.079 12.7906C343.655 14.8569 343.442 16.992 343.442 19.1961V127.676Z" fill="black"></path><path d="M230.465 18.9894L230.264 19.1961C229.591 16.992 228.784 14.8569 227.842 12.7906C227.035 10.5865 226.161 8.5891 225.219 6.79831C224.143 4.73202 223.067 2.80348 221.991 1.0127H243.177C242.908 2.11472 242.706 3.42337 242.571 4.93865C242.437 6.17842 242.37 7.62483 242.37 9.27787C242.37 10.9309 242.504 12.7217 242.773 14.6502L267.187 139.868L290.996 31.1806C291.399 29.1143 291.803 26.7725 292.206 24.1552C292.61 21.5379 292.879 18.9206 293.013 16.3033C293.282 13.5482 293.35 10.862 293.215 8.24472C293.215 5.48966 292.946 3.07899 292.408 1.0127H306.128C305.321 2.11472 304.312 3.76775 303.102 5.97179C302.026 8.03808 300.882 10.3799 299.672 12.9972C298.461 15.6145 297.25 18.4384 296.04 21.469C294.964 24.4995 294.089 27.5301 293.417 30.5607L268.196 145.447V145.86H254.879L230.465 18.9894Z" fill="black"></path><mask id="path-12-inside-1_1546_35" fill="white"><path fill-rule="evenodd" clip-rule="evenodd" d="M4.40171 26.4763C5.0992 29.5197 5.79672 32.5633 6.49601 35.6067C6.83548 37.084 7.17446 38.5614 7.51344 40.0387C8.91281 46.1376 10.3122 52.2364 11.7457 58.3267C12.1895 60.2124 13.2839 61.8082 14.4155 63.3409C16.0879 65.604 18.0999 67.5327 20.8382 68.3464C22.5476 68.8444 24.4384 69.1047 26.2206 69.2361C26.5421 69.2598 26.8635 69.2799 27.1849 69.2965C31.1873 69.5042 35.1826 69.1883 39.1743 68.8429C39.7629 68.7921 40.3521 68.7486 40.9417 68.7086C42.0502 68.6335 45.6182 68.227 45.6182 68.227C45.6182 68.227 42.0212 69.1102 41.4233 69.2766C38.4867 69.9906 34.8251 71.9469 32.243 73.3265C31.6581 73.639 31.1286 73.9219 30.6755 74.154C29.8307 74.619 28.3439 75.9206 28.3439 75.9206C18.7298 84.2066 21.0354 92.5034 23.0294 99.6789C24.0558 103.372 24.9995 106.768 24.1929 109.713C24.1479 110.03 24.1028 110.344 24.0581 110.655C23.9509 111.399 23.8458 112.13 23.7491 112.863C23.6007 113.992 23.849 115.01 24.7009 115.806C25.3965 116.456 26.1154 117.082 26.8338 117.706L26.9954 117.847C28.508 119.162 29.0103 120.653 28.2668 122.525C27.7939 123.718 27.1417 124.844 26.4932 125.964C26.3785 126.162 26.264 126.36 26.1507 126.558C25.1567 128.295 24.1532 130.026 23.1496 131.758C21.7186 134.227 20.2874 136.697 18.8833 139.182C18.0314 140.689 17.2223 142.245 16.613 143.861C15.9158 145.711 16.9 148.834 19.385 147.793C21.3512 146.969 22.2582 145.226 22.9043 143.292C23.1312 142.614 23.3108 141.919 23.4904 141.224C23.6146 140.743 23.7389 140.262 23.8789 139.787C24.8079 136.629 26.807 134.177 29.18 132.044C30.7852 130.6 32.7575 130.354 34.7286 130.717C36.5304 130.94 38.2153 131.564 39.8949 132.265C42.6004 133.395 44.2699 135.353 44.9121 138.221C44.9355 138.325 44.9712 138.428 45.0147 138.529C45.0664 138.649 45.1293 138.765 45.196 138.874C45.3017 139.046 45.4087 139.17 45.5151 139.246C45.5444 139.266 45.5737 139.284 45.6028 139.297C45.8454 139.409 46.0819 139.264 46.2891 138.858C46.473 138.496 46.6317 138.123 46.7904 137.75C46.9015 137.488 47.0126 137.227 47.1324 136.969C47.1736 136.88 47.211 136.782 47.2489 136.683C47.3437 136.434 47.4422 136.176 47.6143 136.02C47.7305 135.935 47.8541 135.879 47.9428 135.895C48.1868 135.938 48.5293 136.222 48.5707 136.451C48.6706 137.003 48.6706 137.587 48.6163 138.148C48.5728 138.596 48.502 139.041 48.4313 139.487C48.3561 139.961 48.2808 140.435 48.2382 140.912C48.1626 141.747 48.4794 141.933 49.1971 141.513C49.3354 141.432 49.4714 141.349 49.6048 141.265C51.3743 140.144 52.6897 138.702 52.8144 136.384C52.8501 135.727 53.0313 135.062 53.2382 134.432C53.7276 132.937 54.6566 132.318 56.2191 132.254C57.3549 132.206 58.4965 132.133 59.618 131.958C61.0621 131.733 62.1309 130.962 62.7687 129.573C64.2699 126.305 65.0604 122.867 65.3472 119.295C65.4273 118.299 65.5076 117.303 65.5879 116.306C65.7549 114.233 65.922 112.159 66.0878 110.085C66.1467 109.295 66.5217 108.516 66.8814 107.769C66.992 107.54 67.1011 107.313 67.1992 107.09C71.3087 97.7442 75.4776 100.923 79.9426 104.327C82.375 106.181 84.8953 108.103 87.5419 108.103C90.1884 108.103 92.7087 106.181 95.1412 104.327C99.6061 100.923 103.775 97.7442 107.885 107.09C107.983 107.313 108.092 107.54 108.202 107.769C108.562 108.516 108.937 109.295 108.996 110.085C109.162 112.159 109.329 114.233 109.496 116.306C109.576 117.303 109.656 118.299 109.737 119.295C110.023 122.867 110.814 126.305 112.315 129.573C112.953 130.962 114.022 131.733 115.466 131.958C116.587 132.133 117.729 132.206 118.865 132.254C120.427 132.318 121.356 132.937 121.846 134.432C122.052 135.062 122.234 135.727 122.269 136.384C122.394 138.702 123.709 140.144 125.479 141.265C125.612 141.349 125.748 141.432 125.887 141.513C126.604 141.933 126.921 141.747 126.846 140.912C126.803 140.435 126.728 139.961 126.652 139.487C126.582 139.041 126.511 138.596 126.467 138.148C126.413 137.587 126.413 137.003 126.513 136.451C126.554 136.222 126.897 135.938 127.141 135.895C127.23 135.879 127.353 135.935 127.469 136.02C127.641 136.176 127.74 136.434 127.835 136.683C127.873 136.782 127.91 136.88 127.951 136.969C128.071 137.227 128.182 137.488 128.293 137.749C128.452 138.123 128.611 138.496 128.795 138.858C129.002 139.264 129.238 139.409 129.481 139.297C129.51 139.284 129.539 139.266 129.569 139.246C129.675 139.17 129.782 139.046 129.888 138.874C129.954 138.765 130.017 138.649 130.069 138.529C130.113 138.428 130.148 138.325 130.172 138.221C130.814 135.353 132.483 133.395 135.189 132.265C136.868 131.564 138.553 130.94 140.355 130.717C142.326 130.354 144.299 130.6 145.904 132.044C148.277 134.177 150.276 136.629 151.205 139.787C151.345 140.262 151.469 140.743 151.593 141.224C151.773 141.919 151.952 142.614 152.179 143.292C152.826 145.226 153.732 146.969 155.699 147.793C158.184 148.834 159.168 145.711 158.471 143.861C157.861 142.245 157.052 140.689 156.2 139.182C154.796 136.697 153.365 134.228 151.934 131.758C150.931 130.027 149.927 128.295 148.933 126.558C148.82 126.36 148.705 126.162 148.591 125.964C147.942 124.844 147.29 123.718 146.817 122.525C146.073 120.653 146.576 119.162 148.088 117.847L148.25 117.706C148.968 117.082 149.687 116.456 150.383 115.806C151.235 115.01 151.483 113.992 151.335 112.863C151.238 112.13 151.133 111.4 151.026 110.655C150.981 110.344 150.936 110.03 150.891 109.713C150.084 106.768 151.028 103.372 152.054 99.6789C154.048 92.5034 156.354 84.2066 146.74 75.9206C146.74 75.9206 145.253 74.619 144.408 74.154C143.955 73.9219 143.426 73.639 142.841 73.3265C140.259 71.9469 136.597 69.9906 133.66 69.2766C133.062 69.1102 129.466 68.227 129.466 68.227C129.466 68.227 133.033 68.6335 134.142 68.7086C134.732 68.7486 135.321 68.7921 135.909 68.8429C139.901 69.1883 143.896 69.5042 147.899 69.2965C148.22 69.2799 148.542 69.2598 148.863 69.2361C150.645 69.1047 152.536 68.8444 154.246 68.3464C156.984 67.5327 158.996 65.604 160.668 63.3409C161.8 61.8082 162.894 60.2124 163.338 58.3267C164.772 52.2359 166.171 46.1367 167.571 40.0374C167.909 38.5604 168.248 37.0835 168.588 35.6067C169.287 32.562 169.985 29.5171 170.683 26.4724C171.759 21.779 172.834 17.0859 173.916 12.3944C174.04 11.8529 174.199 11.3045 174.359 10.752C174.72 9.50465 175.087 8.23613 175.082 6.97687V5.23495C175.082 4.63866 174.9 4.19494 174.641 3.65054C174 2.30444 172.849 1.57973 171.506 1.13342C170.603 0.832901 169.696 0.592906 168.786 0.413194C167.507 0.120694 166.207 -0.0468099 164.883 0.0115301C163.327 -0.0034244 161.763 0.152808 160.19 0.479033C160 0.518516 159.809 0.558103 159.619 0.597815C159.094 0.681177 158.57 0.771334 158.048 0.867826C154.383 1.54518 150.752 2.40048 147.442 4.22302C141.467 7.5122 135.858 11.3826 130.681 15.7969C127.141 18.8146 123.826 22.1027 120.514 25.3873C119.795 26.0998 119.077 26.8121 118.357 27.5214C116.168 29.6769 113.982 31.8725 112.087 34.282C111.845 34.5888 111.605 34.8959 111.364 35.2033C108.901 38.1792 106.606 41.2952 104.318 44.4145C102.61 46.6899 100.916 48.9752 99.2299 51.2661C98.9266 51.6781 98.6194 52.0883 98.312 52.4988C96.4869 54.9358 94.6541 57.3833 93.571 60.2951L93.565 60.3113C93.5424 60.3723 93.4935 60.3951 93.438 60.3544C92.706 59.4517 92.6717 59.1647 93.1954 58.2821C94.3598 56.319 93.4251 53.7975 91.2576 53.0987C90.9705 53.0057 90.6709 52.9521 90.3572 52.896C90.211 52.8699 90.0616 52.8432 89.9091 52.8117C89.9355 52.6658 89.9483 52.5127 89.9609 52.3613C89.9879 52.0377 90.0142 51.7215 90.1717 51.4986C91.0907 50.1998 92.0239 48.8968 93.0884 47.7186C94.14 46.5547 95.2212 45.4171 96.3023 44.2797C97.5859 42.9292 98.8693 41.5788 100.103 40.1845C101.787 38.2801 103.492 36.3442 104.834 34.1988C105.858 32.5594 106.668 30.7827 107.477 29.0076C107.786 28.3276 108.096 27.6478 108.418 26.9761C108.497 26.8121 108.575 26.6524 108.652 26.4947C108.917 25.9527 109.17 25.4348 109.4 24.8523C109.56 24.4453 109.763 23.3997 109.16 23.1959C108.718 23.0468 108.242 23.4948 107.983 24.2107C107.595 25.2841 107.236 26.3719 106.928 27.4712C106.119 30.3514 105.205 33.2129 103.359 35.5937C101.392 38.1337 99.2813 40.5691 97.1223 42.9484C96.7685 43.3383 96.413 43.7266 96.0576 44.1148C94.0468 46.3113 92.0386 48.5048 90.3458 50.9719C90.2931 51.0479 90.2203 51.1099 90.1497 51.1702C90.1189 51.1964 90.0885 51.2223 90.0604 51.2489C89.4336 50.756 88.4926 50.5033 87.5419 50.4934C86.5911 50.5033 85.6501 50.756 85.0233 51.2489C84.9952 51.2223 84.9648 51.1964 84.934 51.1702C84.8634 51.1099 84.7906 51.0479 84.7379 50.9719C83.0451 48.5048 81.0369 46.3113 79.0261 44.1148C78.6707 43.7266 78.3152 43.3383 77.9614 42.9484C75.8024 40.5691 73.692 38.1337 71.7242 35.5937C69.8792 33.2129 68.9645 30.3514 68.1554 27.4712C67.8472 26.3719 67.4891 25.2841 67.1009 24.2107C66.8417 23.4948 66.3654 23.0468 65.9239 23.1959C65.3208 23.3997 65.5233 24.4453 65.6839 24.8523C65.9138 25.4348 66.1669 25.9527 66.4318 26.4947C66.5089 26.6524 66.5869 26.8121 66.6657 26.9761C66.9874 27.6478 67.2972 28.3276 67.6071 29.0076C68.416 30.7827 69.2257 32.5594 70.2502 34.1988C71.5915 36.3442 73.2967 38.2801 74.9805 40.1845C76.2144 41.5788 77.4978 42.9292 78.7814 44.2797C79.8625 45.4171 80.9437 46.5547 81.9953 47.7186C83.0598 48.8968 83.9931 50.1998 84.912 51.4986C85.0695 51.7215 85.0958 52.0377 85.1228 52.3613C85.1354 52.5127 85.1482 52.6658 85.1746 52.8117C85.0221 52.8432 84.8728 52.8699 84.7265 52.896C84.4128 52.9521 84.1132 53.0057 83.8261 53.0987C81.6586 53.7975 80.7239 56.319 81.8883 58.2821C82.412 59.1647 82.3778 59.4517 81.6457 60.3544C81.5903 60.3951 81.5414 60.3723 81.5187 60.3113L81.5127 60.2951C80.4296 57.3833 78.5968 54.9358 76.7717 52.4988C76.4643 52.0883 76.1571 51.6781 75.8538 51.2661C74.1675 48.9752 72.4732 46.6899 70.7659 44.4145C68.478 41.2952 66.1826 38.1792 63.7195 35.2033C63.4791 34.8959 63.2383 34.5888 62.9971 34.282C61.1021 31.8725 58.916 29.6769 56.7271 27.5214C56.0068 26.8121 55.2885 26.0998 54.5701 25.3873C51.2582 22.1027 47.9427 18.8146 44.4026 15.7969C39.2257 11.3826 33.6164 7.5122 27.6418 4.22302C24.3313 2.40048 20.7012 1.54518 17.0354 0.867826C16.5137 0.771334 15.99 0.681177 15.4649 0.597815C15.2744 0.558103 15.084 0.518516 14.8935 0.479033C13.3209 0.152808 11.7563 -0.0034244 10.201 0.0115301C8.87626 -0.0468099 7.57626 0.120694 6.29767 0.413194C5.38731 0.592906 4.48062 0.832901 3.57791 1.13342C2.23516 1.57973 1.08362 2.30444 0.44292 3.65054C0.18383 4.19494 0.00200433 4.63866 0.00200433 5.23495V6.97687C-0.00302958 8.23614 0.363938 9.50466 0.72478 10.752C0.884613 11.3045 1.04324 11.8529 1.16781 12.3944C2.24995 17.0872 3.3258 21.7816 4.40171 26.4763Z"></path></mask><path d="M95.4456 60.9921C95.8306 59.9568 95.3033 58.8054 94.268 58.4205C93.2327 58.0355 92.0813 58.5628 91.6964 59.5981L95.4456 60.9921ZM91.6904 59.6143C91.3054 60.6497 91.8327 61.801 92.868 62.186C93.9033 62.5709 95.0547 62.0436 95.4396 61.0083L91.6904 59.6143ZM25.6829 119.356C26.5163 120.081 27.7796 119.993 28.5045 119.16C29.2294 118.326 29.1414 117.063 28.308 116.338L25.6829 119.356ZM28.1463 116.197C27.3129 115.473 26.0496 115.56 25.3247 116.394C24.5998 117.227 24.6878 118.491 25.5213 119.216L28.1463 116.197ZM91.6964 59.5981L91.6904 59.6143L95.4396 61.0083L95.4456 60.9921L91.6964 59.5981ZM28.308 116.338L28.1463 116.197L25.5213 119.216L25.6829 119.356L28.308 116.338ZM6.49601 35.6067L2.5976 36.5024L2.59762 36.5025L6.49601 35.6067ZM4.40171 26.4763L0.502787 27.3698L0.502787 27.3698L4.40171 26.4763ZM7.51344 40.0387L3.61475 40.9333L3.61475 40.9333L7.51344 40.0387ZM11.7457 58.3267L15.6393 57.4104L15.6393 57.4103L11.7457 58.3267ZM14.4155 63.3409L11.1975 65.7167L11.1986 65.7181L14.4155 63.3409ZM20.8382 68.3464L19.6988 72.1807C19.7056 72.1827 19.7125 72.1848 19.7193 72.1867L20.8382 68.3464ZM26.2206 69.2361L25.9263 73.2253L25.9267 73.2253L26.2206 69.2361ZM27.1849 69.2965L27.3921 65.3019L27.3921 65.3019L27.1849 69.2965ZM39.1743 68.8429L38.8302 64.8578L38.8295 64.8578L39.1743 68.8429ZM40.9417 68.7086L41.2121 72.6995L41.2121 72.6995L40.9417 68.7086ZM45.6182 68.227L46.572 72.1116C48.6214 71.6084 49.9274 69.5996 49.5556 67.5223C49.1838 65.445 47.2622 64.0138 45.1654 64.2527L45.6182 68.227ZM41.4233 69.2766L42.3683 73.1634C42.4111 73.153 42.4538 73.1419 42.4963 73.1301L41.4233 69.2766ZM32.243 73.3265L34.1279 76.8545L34.1279 76.8545L32.243 73.3265ZM30.6755 74.154L28.8515 70.5941C28.8163 70.6121 28.7813 70.6307 28.7467 70.6498L30.6755 74.154ZM28.3439 75.9206L30.9553 78.9506C30.9631 78.9438 30.9708 78.9371 30.9786 78.9303L28.3439 75.9206ZM23.0294 99.6789L19.1755 100.75L19.1755 100.75L23.0294 99.6789ZM24.1929 109.713L20.335 108.656C20.2905 108.819 20.2562 108.984 20.2326 109.151L24.1929 109.713ZM24.0581 110.655L28.0173 111.224L28.0173 111.224L24.0581 110.655ZM23.7491 112.863L19.7835 112.34L19.7832 112.342L23.7491 112.863ZM24.7009 115.806L21.9691 118.728L21.9695 118.729L24.7009 115.806ZM26.8338 117.706L29.4589 114.688L29.4586 114.688L26.8338 117.706ZM26.9954 117.847L24.3704 120.865L24.3716 120.866L26.9954 117.847ZM28.2668 122.525L24.5491 121.05L24.5485 121.051L28.2668 122.525ZM26.4932 125.964L29.9547 127.969L29.9547 127.969L26.4932 125.964ZM26.1507 126.558L22.68 124.569L22.6791 124.571L26.1507 126.558ZM23.1496 131.758L19.6888 129.752L19.6888 129.752L23.1496 131.758ZM18.8833 139.182L22.3653 141.151L22.3658 141.15L18.8833 139.182ZM16.613 143.861L12.8703 142.449L12.8699 142.45L16.613 143.861ZM19.385 147.793L17.8389 144.103L17.8389 144.103L19.385 147.793ZM22.9043 143.292L19.1108 142.024L19.1106 142.025L22.9043 143.292ZM23.4904 141.224L19.6176 140.223L19.6176 140.223L23.4904 141.224ZM23.8789 139.787L27.7163 140.916L27.7163 140.916L23.8789 139.787ZM29.18 132.044L31.8537 135.02L31.8557 135.018L29.18 132.044ZM34.7286 130.717L34.0036 134.651C34.0812 134.665 34.1591 134.677 34.2374 134.687L34.7286 130.717ZM39.8949 132.265L38.3533 135.956L38.354 135.956L39.8949 132.265ZM44.9121 138.221L41.0087 139.095L41.0098 139.099L44.9121 138.221ZM45.0147 138.529L48.6862 136.941L48.6862 136.941L45.0147 138.529ZM45.196 138.874L41.7825 140.959L41.7863 140.965L45.196 138.874ZM45.5151 139.246L43.1994 142.507L43.1998 142.508L45.5151 139.246ZM45.6028 139.297L47.2744 135.663L47.2743 135.663L45.6028 139.297ZM46.2891 138.858L49.853 140.674L49.8541 140.672L46.2891 138.858ZM46.7904 137.75L43.1092 136.185L43.1091 136.185L46.7904 137.75ZM47.1324 136.969L50.7591 138.657L50.7624 138.65L47.1324 136.969ZM47.2489 136.683L50.9863 138.108L50.9863 138.108L47.2489 136.683ZM47.6143 136.02L45.2417 132.8C45.1341 132.879 45.0306 132.964 44.9316 133.053L47.6143 136.02ZM47.9428 135.895L48.6378 131.955L48.6244 131.953L47.9428 135.895ZM48.5707 136.451L44.6341 137.161L44.6348 137.165L48.5707 136.451ZM48.6163 138.148L52.5976 138.535L52.5978 138.532L48.6163 138.148ZM48.4313 139.487L44.4807 138.86L44.4807 138.86L48.4313 139.487ZM48.2382 140.912L52.2219 141.272L52.2223 141.268L48.2382 140.912ZM49.1971 141.513L51.219 144.964L51.2207 144.963L49.1971 141.513ZM49.6048 141.265L47.4644 137.885L47.4644 137.885L49.6048 141.265ZM52.8144 136.384L48.8203 136.167L48.8202 136.169L52.8144 136.384ZM53.2382 134.432L57.0385 135.68L57.0397 135.677L53.2382 134.432ZM56.2191 132.254L56.3842 136.25L56.3857 136.25L56.2191 132.254ZM59.618 131.958L59.0014 128.006L59.0011 128.006L59.618 131.958ZM62.7687 129.573L59.1339 127.903L59.1336 127.904L62.7687 129.573ZM65.3472 119.295L61.3601 118.975L61.36 118.975L65.3472 119.295ZM65.5879 116.306L69.575 116.627L69.575 116.627L65.5879 116.306ZM66.0878 110.085L70.0751 110.404C70.0756 110.396 70.0762 110.389 70.0767 110.382L66.0878 110.085ZM66.8814 107.769L70.4853 109.505L70.4853 109.505L66.8814 107.769ZM67.1992 107.09L70.8608 108.7L70.8608 108.7L67.1992 107.09ZM79.9426 104.327L82.3678 101.146L82.3678 101.146L79.9426 104.327ZM95.1412 104.327L92.716 101.146L92.716 101.146L95.1412 104.327ZM107.885 107.09L104.223 108.7L104.223 108.7L107.885 107.09ZM108.202 107.769L104.598 109.505L104.598 109.505L108.202 107.769ZM108.996 110.085L105.007 110.382C105.008 110.389 105.008 110.396 105.009 110.404L108.996 110.085ZM109.496 116.306L105.509 116.627L105.509 116.627L109.496 116.306ZM109.737 119.295L113.724 118.975L113.724 118.975L109.737 119.295ZM112.315 129.573L115.95 127.904L115.95 127.903L112.315 129.573ZM115.466 131.958L116.083 128.006L116.082 128.006L115.466 131.958ZM118.865 132.254L118.698 136.25L118.699 136.25L118.865 132.254ZM121.846 134.432L118.044 135.677L118.045 135.68L121.846 134.432ZM122.269 136.384L126.264 136.169L126.263 136.167L122.269 136.384ZM125.479 141.265L123.338 144.644L123.339 144.644L125.479 141.265ZM125.887 141.513L123.863 144.963L123.865 144.964L125.887 141.513ZM126.846 140.912L122.861 141.268L122.862 141.272L126.846 140.912ZM126.652 139.487L130.603 138.86L130.603 138.86L126.652 139.487ZM126.467 138.148L122.486 138.532L122.486 138.535L126.467 138.148ZM126.513 136.451L130.449 137.165L130.45 137.161L126.513 136.451ZM127.141 135.895L126.459 131.953L126.446 131.955L127.141 135.895ZM127.469 136.02L130.152 133.053C130.053 132.964 129.95 132.879 129.842 132.8L127.469 136.02ZM127.835 136.683L131.572 135.257L131.572 135.257L127.835 136.683ZM127.951 136.969L124.321 138.649L124.325 138.657L127.951 136.969ZM128.293 137.749L124.612 139.314L124.612 139.314L128.293 137.749ZM128.795 138.858L125.23 140.672L125.231 140.674L128.795 138.858ZM129.481 139.297L127.809 135.663L127.809 135.663L129.481 139.297ZM129.569 139.246L131.884 142.507L131.884 142.507L129.569 139.246ZM129.888 138.874L133.297 140.965L133.301 140.959L129.888 138.874ZM130.069 138.529L133.741 140.116L133.741 140.116L130.069 138.529ZM130.172 138.221L134.074 139.099L134.075 139.095L130.172 138.221ZM135.189 132.265L136.73 135.956L136.73 135.956L135.189 132.265ZM140.355 130.717L140.846 134.687C140.925 134.677 141.003 134.665 141.08 134.651L140.355 130.717ZM145.904 132.044L143.228 135.018L143.23 135.02L145.904 132.044ZM151.205 139.787L147.367 140.916L147.367 140.916L151.205 139.787ZM151.593 141.224L155.466 140.223L155.466 140.223L151.593 141.224ZM152.179 143.292L155.973 142.025L155.973 142.024L152.179 143.292ZM155.699 147.793L157.245 144.103L157.245 144.103L155.699 147.793ZM158.471 143.861L162.214 142.45L162.213 142.449L158.471 143.861ZM156.2 139.182L152.718 141.15L152.718 141.151L156.2 139.182ZM151.934 131.758L155.395 129.753L155.395 129.753L151.934 131.758ZM148.933 126.558L152.405 124.571L152.404 124.569L148.933 126.558ZM148.591 125.964L152.052 123.96L152.052 123.96L148.591 125.964ZM146.817 122.525L150.535 121.051L150.535 121.05L146.817 122.525ZM148.088 117.847L150.712 120.866L150.713 120.865L148.088 117.847ZM148.25 117.706L145.625 114.688L145.625 114.688L148.25 117.706ZM150.383 115.806L153.114 118.729L153.115 118.728L150.383 115.806ZM151.335 112.863L155.3 112.342L155.3 112.34L151.335 112.863ZM151.026 110.655L154.985 110.086L154.985 110.086L151.026 110.655ZM150.891 109.713L154.851 109.151C154.827 108.984 154.793 108.819 154.749 108.656L150.891 109.713ZM152.054 99.6789L155.908 100.75L155.908 100.75L152.054 99.6789ZM146.74 75.9206L144.105 78.9303C144.113 78.9371 144.121 78.9438 144.128 78.9506L146.74 75.9206ZM144.408 74.154L146.337 70.6498C146.302 70.6307 146.267 70.6121 146.232 70.5941L144.408 74.154ZM142.841 73.3265L144.726 69.7985L144.726 69.7985L142.841 73.3265ZM133.66 69.2766L132.587 73.1301C132.63 73.1419 132.673 73.153 132.715 73.1634L133.66 69.2766ZM129.466 68.227L129.918 64.2527C127.822 64.0138 125.9 65.445 125.528 67.5223C125.156 69.5996 126.462 71.6084 128.512 72.1116L129.466 68.227ZM134.142 68.7086L133.872 72.6995L133.872 72.6995L134.142 68.7086ZM135.909 68.8429L136.254 64.8578L136.253 64.8578L135.909 68.8429ZM147.899 69.2965L147.692 65.3019L147.692 65.3019L147.899 69.2965ZM148.863 69.2361L149.157 73.2253L149.157 73.2253L148.863 69.2361ZM154.246 68.3464L155.364 72.1867C155.371 72.1848 155.378 72.1827 155.385 72.1807L154.246 68.3464ZM160.668 63.3409L163.885 65.7181L163.886 65.7167L160.668 63.3409ZM163.338 58.3267L159.444 57.4103L159.444 57.4104L163.338 58.3267ZM167.571 40.0374L171.469 40.9319L171.469 40.9319L167.571 40.0374ZM168.588 35.6067L172.486 36.5025L172.486 36.5024L168.588 35.6067ZM170.683 26.4724L174.582 27.3659L174.582 27.3659L170.683 26.4724ZM173.916 12.3944L177.814 13.2932L177.814 13.2911L173.916 12.3944ZM174.359 10.752L178.201 11.8636L178.201 11.8636L174.359 10.752ZM175.082 6.97687H171.082C171.082 6.9822 171.082 6.98753 171.082 6.99286L175.082 6.97687ZM174.641 3.65054L178.253 1.93158L178.253 1.93145L174.641 3.65054ZM171.506 1.13342L170.242 4.92864L170.244 4.92924L171.506 1.13342ZM168.786 0.413194L167.894 4.31246C167.933 4.32138 167.972 4.32971 168.011 4.33746L168.786 0.413194ZM164.883 0.0115301L164.844 4.01135C164.916 4.01203 164.987 4.0108 165.059 4.00766L164.883 0.0115301ZM160.19 0.479033L161.002 4.39574L161.003 4.39565L160.19 0.479033ZM159.619 0.597815L160.246 4.54835C160.309 4.53829 160.373 4.52669 160.435 4.51359L159.619 0.597815ZM158.048 0.867826L158.775 4.80124L158.776 4.80111L158.048 0.867826ZM147.442 4.22302L149.371 7.7271L149.371 7.7271L147.442 4.22302ZM130.681 15.7969L133.276 18.8409L133.276 18.8406L130.681 15.7969ZM120.514 25.3873L117.697 22.5471L117.697 22.5471L120.514 25.3873ZM118.357 27.5214L121.163 30.3715L121.163 30.3715L118.357 27.5214ZM112.087 34.282L108.943 31.8093L108.942 31.8098L112.087 34.282ZM111.364 35.2033L114.446 37.7538C114.469 37.7254 114.492 37.6967 114.515 37.6677L111.364 35.2033ZM104.318 44.4145L107.517 46.8152C107.526 46.8036 107.535 46.792 107.543 46.7803L104.318 44.4145ZM99.2299 51.2661L102.451 53.6374L102.451 53.6373L99.2299 51.2661ZM98.312 52.4988L95.1103 50.1011L95.1103 50.1011L98.312 52.4988ZM93.571 60.2951L89.822 58.9006L89.8218 58.9011L93.571 60.2951ZM93.565 60.3113L89.8157 58.9174L89.8145 58.9207L93.565 60.3113ZM93.438 60.3544L90.3312 62.8739C90.5464 63.1393 90.7948 63.376 91.0702 63.5783L93.438 60.3544ZM93.1954 58.2821L96.6354 60.3233L96.6358 60.3227L93.1954 58.2821ZM91.2576 53.0987L90.0251 56.9041L90.0301 56.9057L91.2576 53.0987ZM90.3572 52.896L91.0614 48.9585L91.0613 48.9585L90.3572 52.896ZM89.9091 52.8117L85.973 52.1001C85.5868 54.2359 86.9745 56.29 89.1001 56.729L89.9091 52.8117ZM89.9609 52.3613L85.9747 52.0292L85.9747 52.0293L89.9609 52.3613ZM90.1717 51.4986L86.9064 49.1882L86.9048 49.1905L90.1717 51.4986ZM93.0884 47.7186L90.1204 45.0369L90.1204 45.037L93.0884 47.7186ZM96.3023 44.2797L93.403 41.524L93.403 41.524L96.3023 44.2797ZM100.103 40.1845L103.099 42.8352L103.1 42.834L100.103 40.1845ZM104.834 34.1988L108.225 36.3193L108.226 36.3186L104.834 34.1988ZM107.477 29.0076L103.837 27.3488L103.837 27.3488L107.477 29.0076ZM108.418 26.9761L104.813 25.2437L104.81 25.2483L108.418 26.9761ZM108.652 26.4947L112.246 28.2511L112.246 28.251L108.652 26.4947ZM109.4 24.8523L113.12 26.3208L113.121 26.3207L109.4 24.8523ZM109.16 23.1959L110.44 19.4063L110.44 19.4063L109.16 23.1959ZM107.983 24.2107L104.222 22.8489L104.221 22.8506L107.983 24.2107ZM106.928 27.4712L110.779 28.5529L110.78 28.551L106.928 27.4712ZM103.359 35.5937L100.198 33.1434L100.197 33.144L103.359 35.5937ZM97.1223 42.9484L100.084 45.6365L100.085 45.6363L97.1223 42.9484ZM96.0576 44.1148L99.008 46.8158L99.008 46.8158L96.0576 44.1148ZM90.3458 50.9719L93.6329 53.2512C93.6366 53.2458 93.6403 53.2404 93.644 53.235L90.3458 50.9719ZM90.1497 51.1702L92.745 54.2139L92.7451 54.2138L90.1497 51.1702ZM90.0604 51.2489L87.5879 54.3932C89.1454 55.6179 91.3648 55.5179 92.8058 54.1579L90.0604 51.2489ZM87.5419 50.4934L87.5835 46.4936C87.5557 46.4933 87.528 46.4933 87.5003 46.4936L87.5419 50.4934ZM85.0233 51.2489L82.2779 54.1579C83.7189 55.5179 85.9383 55.6179 87.4958 54.3932L85.0233 51.2489ZM84.934 51.1702L82.3386 54.2138L82.3387 54.2139L84.934 51.1702ZM84.7379 50.9719L81.4397 53.235C81.4434 53.2404 81.4471 53.2458 81.4508 53.2512L84.7379 50.9719ZM79.0261 44.1148L76.0757 46.8158L76.0757 46.8158L79.0261 44.1148ZM77.9614 42.9484L74.9991 45.6363L74.9992 45.6365L77.9614 42.9484ZM71.7242 35.5937L74.8864 33.144L74.8859 33.1434L71.7242 35.5937ZM68.1554 27.4712L64.304 28.551L64.3045 28.5529L68.1554 27.4712ZM67.1009 24.2107L70.8626 22.8506L70.862 22.8489L67.1009 24.2107ZM65.9239 23.1959L64.6437 19.4063L64.6436 19.4063L65.9239 23.1959ZM65.6839 24.8523L61.9632 26.3207L61.9632 26.3208L65.6839 24.8523ZM66.4318 26.4947L62.838 28.251L62.8381 28.2511L66.4318 26.4947ZM66.6657 26.9761L70.2733 25.2483L70.2711 25.2437L66.6657 26.9761ZM67.6071 29.0076L71.247 27.3488L71.247 27.3488L67.6071 29.0076ZM70.2502 34.1988L66.8581 36.3186L66.8585 36.3193L70.2502 34.1988ZM74.9805 40.1845L71.9839 42.834L71.9849 42.8352L74.9805 40.1845ZM78.7814 44.2797L81.6808 41.524L81.6807 41.524L78.7814 44.2797ZM81.9953 47.7186L84.9633 45.037L84.9633 45.0369L81.9953 47.7186ZM84.912 51.4986L88.1789 49.1904L88.1773 49.1882L84.912 51.4986ZM85.1228 52.3613L89.109 52.0293L89.109 52.0292L85.1228 52.3613ZM85.1746 52.8117L85.9836 56.729C88.1092 56.29 89.4969 54.2359 89.1108 52.1001L85.1746 52.8117ZM84.7265 52.896L84.0224 48.9585L84.0223 48.9585L84.7265 52.896ZM83.8261 53.0987L85.0536 56.9057L85.0586 56.9041L83.8261 53.0987ZM81.8883 58.2821L78.4479 60.3227L78.4483 60.3233L81.8883 58.2821ZM81.6457 60.3544L84.0136 63.5783C84.289 63.376 84.5373 63.1393 84.7525 62.8739L81.6457 60.3544ZM81.5187 60.3113L85.2692 58.9207L85.268 58.9174L81.5187 60.3113ZM81.5127 60.2951L85.2619 58.9011L85.2617 58.9006L81.5127 60.2951ZM76.7717 52.4988L79.9735 50.1011L79.9734 50.1011L76.7717 52.4988ZM75.8538 51.2661L72.6324 53.6373L72.6325 53.6374L75.8538 51.2661ZM70.7659 44.4145L67.5405 46.7803C67.5491 46.792 67.5577 46.8036 67.5664 46.8152L70.7659 44.4145ZM63.7195 35.2033L60.5688 37.6677C60.5915 37.6967 60.6146 37.7254 60.6381 37.7538L63.7195 35.2033ZM62.9971 34.282L66.1416 31.8098L66.1412 31.8093L62.9971 34.282ZM56.7271 27.5214L53.9205 30.3715L53.9205 30.3715L56.7271 27.5214ZM54.5701 25.3873L57.3868 22.5472L57.3868 22.5472L54.5701 25.3873ZM44.4026 15.7969L41.8073 18.8406L41.8077 18.8409L44.4026 15.7969ZM27.6418 4.22302L25.7127 7.7271L25.7127 7.7271L27.6418 4.22302ZM17.0354 0.867826L16.3079 4.80111L16.3086 4.80124L17.0354 0.867826ZM15.4649 0.597815L14.6483 4.51358C14.7111 4.52669 14.7743 4.53828 14.8377 4.54835L15.4649 0.597815ZM14.8935 0.479033L14.0811 4.39565L14.0815 4.39574L14.8935 0.479033ZM10.201 0.0115301L10.025 4.00766C10.0964 4.0108 10.168 4.01203 10.2395 4.01135L10.201 0.0115301ZM6.29767 0.413194L7.07235 4.33746C7.11159 4.32971 7.15071 4.32138 7.18969 4.31246L6.29767 0.413194ZM3.57791 1.13342L4.83957 4.92924L4.84138 4.92864L3.57791 1.13342ZM0.44292 3.65054L-3.16884 1.93147L-3.1689 1.9316L0.44292 3.65054ZM0.00200433 6.97687L4.00197 6.99286C4.00199 6.98753 4.002 6.9822 4.002 6.97687L0.00200433 6.97687ZM0.72478 10.752L4.56723 9.64045L4.56723 9.64045L0.72478 10.752ZM1.16781 12.3944L-2.73039 13.2911L-2.7299 13.2932L1.16781 12.3944ZM10.3944 34.7109C9.69543 31.6689 8.99816 28.6264 8.30063 25.5827L0.502787 27.3698C1.20024 30.4131 1.89802 33.4578 2.5976 36.5024L10.3944 34.7109ZM11.4121 39.1442C11.0732 37.6669 10.7341 36.1889 10.3944 34.7109L2.59762 36.5025C2.93691 37.9791 3.27575 39.4558 3.61475 40.9333L11.4121 39.1442ZM15.6393 57.4103C14.2088 51.3327 12.8119 45.2449 11.4121 39.1442L3.61475 40.9333C5.0137 47.0303 6.41555 53.14 7.85212 59.2432L15.6393 57.4103ZM17.6335 60.965C16.4962 59.4246 15.8757 58.4149 15.6393 57.4104L7.85208 59.2431C8.50325 62.01 10.0717 64.1918 11.1975 65.7167L17.6335 60.965ZM21.9775 64.5121C20.4363 64.0541 19.0733 62.9135 17.6325 60.9636L11.1986 65.7181C13.1024 68.2945 15.7635 71.0113 19.6988 72.1807L21.9775 64.5121ZM26.5148 65.247C24.8837 65.1267 23.2971 64.8965 21.957 64.5061L19.7193 72.1867C21.7981 72.7924 23.9932 73.0827 25.9263 73.2253L26.5148 65.247ZM27.3921 65.3019C27.0986 65.2867 26.8061 65.2684 26.5145 65.247L25.9267 73.2253C26.278 73.2512 26.6284 73.2731 26.9777 73.2912L27.3921 65.3019ZM38.8295 64.8578C34.8204 65.2047 31.0825 65.4934 27.3921 65.3019L26.9776 73.2912C31.2921 73.515 35.5449 73.1719 39.5191 72.828L38.8295 64.8578ZM40.6712 64.7178C40.0661 64.7588 39.4509 64.8042 38.8302 64.8578L39.5184 72.8281C40.0749 72.7801 40.6381 72.7383 41.2121 72.6995L40.6712 64.7178ZM45.6182 68.227C45.1654 64.2527 45.1654 64.2527 45.1654 64.2527C45.1654 64.2527 45.1654 64.2527 45.1653 64.2527C45.1653 64.2527 45.1651 64.2527 45.165 64.2528C45.1646 64.2528 45.164 64.2529 45.1632 64.253C45.1617 64.2531 45.1593 64.2534 45.156 64.2538C45.1495 64.2545 45.1398 64.2556 45.1269 64.2571C45.1012 64.26 45.063 64.2643 45.0138 64.2699C44.9156 64.281 44.7735 64.297 44.5995 64.3164C44.2511 64.3553 43.7759 64.4079 43.2672 64.4626C42.211 64.5764 41.1294 64.6867 40.6712 64.7178L41.2121 72.6995C41.8625 72.6554 43.1191 72.5249 44.124 72.4166C44.6459 72.3604 45.132 72.3067 45.4872 72.267C45.665 72.2471 45.8104 72.2308 45.9115 72.2194C45.9621 72.2136 46.0017 72.2092 46.0287 72.2061C46.0423 72.2046 46.0527 72.2034 46.0598 72.2026C46.0633 72.2022 46.066 72.2019 46.0679 72.2016C46.0688 72.2015 46.0696 72.2015 46.0701 72.2014C46.0703 72.2014 46.0705 72.2013 46.0707 72.2013C46.0707 72.2013 46.0708 72.2013 46.0708 72.2013C46.0709 72.2013 46.0709 72.2013 45.6182 68.227ZM42.4963 73.1301C42.7248 73.0664 43.6972 72.8225 44.708 72.5717C45.1924 72.4516 45.6585 72.3365 46.0039 72.2514C46.1764 72.2089 46.3187 72.1739 46.4177 72.1495C46.4672 72.1374 46.5058 72.1279 46.5321 72.1214C46.5452 72.1182 46.5552 72.1157 46.562 72.1141C46.5653 72.1133 46.5678 72.1126 46.5695 72.1122C46.5704 72.112 46.571 72.1119 46.5714 72.1118C46.5716 72.1117 46.5717 72.1117 46.5718 72.1117C46.5719 72.1116 46.5719 72.1116 46.5719 72.1116C46.572 72.1116 46.572 72.1116 45.6182 68.227C44.6644 64.3424 44.6643 64.3424 44.6643 64.3424C44.6643 64.3424 44.6642 64.3424 44.6642 64.3424C44.664 64.3425 44.6639 64.3425 44.6636 64.3426C44.6632 64.3427 44.6625 64.3428 44.6616 64.3431C44.6598 64.3435 44.6572 64.3442 44.6537 64.345C44.6468 64.3467 44.6365 64.3492 44.6231 64.3525C44.5964 64.3591 44.5572 64.3687 44.5072 64.381C44.4072 64.4056 44.2637 64.4409 44.0897 64.4838C43.7419 64.5695 43.2715 64.6856 42.7819 64.8071C41.8447 65.0395 40.7197 65.3204 40.3504 65.4232L42.4963 73.1301ZM34.1279 76.8545C36.8577 75.3961 40.0299 73.7319 42.3683 73.1634L40.4784 65.3899C36.9436 66.2492 32.7926 68.4977 30.358 69.7985L34.1279 76.8545ZM32.4994 77.714C32.9897 77.4628 33.5525 77.162 34.1279 76.8545L30.358 69.7985C29.7637 70.116 29.2676 70.3809 28.8515 70.5941L32.4994 77.714ZM28.3439 75.9206C30.9786 78.9303 30.9784 78.9304 30.9783 78.9306C30.9782 78.9306 30.9781 78.9307 30.978 78.9308C30.9779 78.9309 30.9777 78.9311 30.9776 78.9312C30.9774 78.9314 30.9772 78.9315 30.9772 78.9315C30.977 78.9316 30.9773 78.9315 30.9778 78.931C30.9789 78.93 30.9814 78.9278 30.9851 78.9246C30.9926 78.9181 31.0052 78.9072 31.0223 78.8924C31.0566 78.8628 31.1089 78.8179 31.1752 78.7618C31.3088 78.6486 31.4935 78.4944 31.6983 78.3298C31.9061 78.1629 32.1165 77.9997 32.3045 77.8633C32.5131 77.7119 32.6085 77.656 32.6043 77.6583L28.7467 70.6498C27.9823 71.0705 27.1531 71.7194 26.6874 72.0935C26.415 72.3125 26.1752 72.5128 26.0036 72.6581C25.9172 72.7313 25.8468 72.7917 25.7965 72.8351C25.7713 72.8568 25.7511 72.8744 25.7364 72.8872C25.729 72.8936 25.723 72.8988 25.7185 72.9028C25.7162 72.9047 25.7143 72.9064 25.7127 72.9078C25.7119 72.9085 25.7113 72.9091 25.7107 72.9096C25.7104 72.9098 25.7101 72.9101 25.7098 72.9103C25.7097 72.9104 25.7095 72.9106 25.7095 72.9106C25.7093 72.9108 25.7091 72.9109 28.3439 75.9206ZM26.8834 98.6079C25.8544 94.905 25.02 91.7445 25.3161 88.59C25.5868 85.7059 26.8572 82.4825 30.9553 78.9506L25.7325 72.8907C20.2165 77.6447 17.8326 82.7127 17.3511 87.8424C16.895 92.7016 18.2105 97.2772 19.1755 100.75L26.8834 98.6079ZM28.0508 110.77C28.6612 108.541 28.5597 106.33 28.2502 104.357C27.9442 102.406 27.3819 100.402 26.8834 98.6079L19.1755 100.75C19.7033 102.649 20.126 104.189 20.3469 105.597C20.5641 106.981 20.5312 107.94 20.335 108.656L28.0508 110.77ZM28.0173 111.224C28.062 110.914 28.1076 110.596 28.1533 110.275L20.2326 109.151C20.1882 109.464 20.1437 109.773 20.0989 110.085L28.0173 111.224ZM27.7148 113.386C27.8079 112.68 27.9096 111.973 28.0173 111.224L20.0989 110.085C19.9923 110.826 19.8837 111.58 19.7835 112.34L27.7148 113.386ZM27.4327 112.885C27.4619 112.912 27.5117 112.966 27.5632 113.048C27.615 113.131 27.6534 113.218 27.6781 113.3C27.7272 113.462 27.6978 113.515 27.7151 113.384L19.7832 112.342C19.5076 114.439 19.9663 116.856 21.9691 118.728L27.4327 112.885ZM29.4586 114.688C28.7313 114.056 28.0667 113.477 27.4323 112.884L21.9695 118.729C22.7262 119.436 23.4996 120.108 24.209 120.725L29.4586 114.688ZM29.6205 114.829L29.4589 114.688L24.2087 120.725L24.3704 120.865L29.6205 114.829ZM31.9846 124.001C32.6162 122.41 32.8333 120.652 32.3214 118.872C31.8238 117.141 30.7606 115.82 29.6193 114.828L24.3716 120.866C24.5536 121.024 24.6347 121.127 24.6617 121.166C24.6845 121.198 24.6577 121.168 24.6328 121.082C24.6212 121.041 24.613 120.999 24.609 120.958C24.605 120.916 24.606 120.886 24.6072 120.871C24.6097 120.839 24.611 120.893 24.5491 121.05L31.9846 124.001ZM29.9547 127.969C30.5768 126.895 31.3849 125.514 31.9852 124L24.5485 121.051C24.2029 121.923 23.7066 122.794 23.0316 123.96L29.9547 127.969ZM29.6213 128.547C29.7294 128.358 29.8393 128.168 29.9547 127.969L23.0316 123.96C22.9178 124.157 22.7987 124.362 22.68 124.569L29.6213 128.547ZM26.6105 133.764C27.6131 132.033 28.622 130.293 29.6223 128.545L22.6791 124.571C21.6913 126.297 20.6932 128.019 19.6888 129.752L26.6105 133.764ZM22.3658 141.15C23.7574 138.687 25.1776 136.236 26.6105 133.764L19.6888 129.752C18.2595 132.219 16.8173 134.707 15.4007 137.215L22.3658 141.15ZM20.3558 145.272C20.8581 143.94 21.5509 142.591 22.3653 141.151L15.4012 137.214C14.5118 138.787 13.5866 140.55 12.8703 142.449L20.3558 145.272ZM17.8389 144.103C17.998 144.037 18.5835 143.876 19.3125 144.173C19.9716 144.441 20.2589 144.886 20.3364 145.031C20.4134 145.176 20.3989 145.22 20.395 145.156C20.3911 145.093 20.4105 145.127 20.3562 145.271L12.8699 142.45C12.1219 144.436 12.2567 146.879 13.2749 148.791C13.8219 149.818 14.7777 150.965 16.2985 151.583C17.8891 152.23 19.5295 152.069 20.9311 151.482L17.8389 144.103ZM19.1106 142.025C18.8396 142.835 18.6002 143.33 18.3766 143.645C18.193 143.904 18.0386 144.02 17.8389 144.103L20.9311 151.482C24.5657 149.959 25.9653 146.753 26.6981 144.56L19.1106 142.025ZM19.6176 140.223C19.4321 140.941 19.286 141.5 19.1108 142.024L26.6979 144.561C26.9765 143.728 27.1895 142.897 27.3632 142.225L19.6176 140.223ZM20.0416 138.657C19.8797 139.208 19.7391 139.753 19.6176 140.223L27.3632 142.225C27.4902 141.733 27.5982 141.317 27.7163 140.916L20.0416 138.657ZM26.5064 129.069C23.8503 131.456 21.2625 134.508 20.0416 138.657L27.7163 140.916C28.3533 138.751 29.7638 136.898 31.8537 135.02L26.5064 129.069ZM35.4536 126.783C32.6925 126.274 29.3157 126.541 26.5043 129.071L31.8557 135.018C32.2547 134.659 32.8226 134.433 34.0036 134.651L35.4536 126.783ZM41.4366 128.574C39.6989 127.848 37.5931 127.041 35.2198 126.747L34.2374 134.687C35.4677 134.839 36.7318 135.279 38.3533 135.956L41.4366 128.574ZM48.8154 137.347C47.8847 133.191 45.3188 130.195 41.4359 128.574L38.354 135.956C39.882 136.594 40.6551 137.516 41.0087 139.095L48.8154 137.347ZM48.6862 136.941C48.7204 137.021 48.7725 137.156 48.8143 137.342L41.0098 139.099C41.0985 139.493 41.2219 139.836 41.3432 140.116L48.6862 136.941ZM48.6096 136.789C48.6132 136.795 48.6455 136.847 48.6862 136.941L41.3432 140.116C41.4873 140.45 41.6454 140.734 41.7825 140.959L48.6096 136.789ZM47.8308 135.984C48.0982 136.174 48.2803 136.362 48.3898 136.49C48.5015 136.62 48.5709 136.725 48.6058 136.782L41.7863 140.965C42.0415 141.381 42.4852 142 43.1994 142.507L47.8308 135.984ZM47.2743 135.663C47.4969 135.765 47.682 135.879 47.8304 135.984L43.1998 142.508C43.4069 142.654 43.6504 142.802 43.9313 142.931L47.2743 135.663ZM42.7251 137.042C42.7657 136.962 43.0623 136.371 43.8219 135.891C44.2467 135.622 44.8177 135.391 45.503 135.342C46.1907 135.294 46.799 135.444 47.2744 135.663L43.9312 142.931C45.3042 143.563 46.856 143.437 48.0965 142.653C49.0868 142.027 49.6053 141.16 49.853 140.674L42.7251 137.042ZM43.1091 136.185C42.9414 136.58 42.8351 136.826 42.724 137.044L49.8541 140.672C50.1108 140.167 50.322 139.667 50.4717 139.314L43.1091 136.185ZM43.5057 135.282C43.3529 135.611 43.2158 135.934 43.1092 136.185L50.4717 139.314C50.5871 139.043 50.6723 138.843 50.7591 138.657L43.5057 135.282ZM43.5116 135.257C43.5067 135.27 43.5027 135.281 43.4988 135.291C43.4949 135.301 43.4917 135.309 43.4889 135.317C43.4831 135.332 43.4799 135.34 43.4783 135.344C43.4768 135.347 43.4781 135.344 43.4817 135.336C43.4853 135.327 43.4922 135.311 43.5024 135.289L50.7624 138.65C50.8724 138.412 50.9592 138.179 50.9863 138.108L43.5116 135.257ZM44.9316 133.053C44.3313 133.596 43.9979 134.184 43.8304 134.517C43.6639 134.848 43.5443 135.172 43.5115 135.257L50.9863 138.108C51.0483 137.946 51.0254 138.016 50.9749 138.117C50.9233 138.219 50.7252 138.6 50.297 138.987L44.9316 133.053ZM48.6244 131.953C47.5448 131.766 46.6866 132.052 46.2997 132.207C45.8476 132.389 45.4911 132.616 45.2417 132.8L49.9869 139.241C49.8537 139.339 49.6172 139.496 49.2781 139.632C49.0041 139.742 48.2521 140.007 47.2613 139.836L48.6244 131.953ZM52.5073 135.742C52.2434 134.278 51.3125 133.392 50.9525 133.08C50.5198 132.705 49.727 132.148 48.6377 131.955L47.2479 139.834C46.7654 139.749 46.4197 139.586 46.2348 139.486C46.0294 139.375 45.8579 139.251 45.713 139.126C45.5717 139.003 45.3914 138.823 45.2129 138.568C45.0545 138.342 44.7607 137.863 44.6341 137.161L52.5073 135.742ZM52.5978 138.532C52.6755 137.729 52.6911 136.756 52.5066 135.738L44.6348 137.165C44.65 137.249 44.6657 137.444 44.6349 137.763L52.5978 138.532ZM52.3818 140.114C52.4494 139.689 52.5403 139.123 52.5976 138.535L44.6351 137.76C44.6052 138.068 44.5547 138.394 44.4807 138.86L52.3818 140.114ZM52.2223 141.268C52.2508 140.95 52.303 140.611 52.3818 140.114L44.4807 138.86C44.4091 139.311 44.3109 139.92 44.2541 140.555L52.2223 141.268ZM47.1752 138.062C47.1922 138.052 47.2536 138.016 47.3542 137.973C47.451 137.931 47.628 137.862 47.8712 137.808C48.3237 137.708 49.3993 137.587 50.5219 138.28C51.6579 138.981 52.0347 140.017 52.1484 140.499C52.2079 140.751 52.2223 140.949 52.226 141.06C52.2299 141.176 52.2239 141.25 52.2219 141.272L44.2545 140.551C44.2169 140.966 44.1922 141.615 44.362 142.335C44.5363 143.074 45.0229 144.286 46.3184 145.087C47.6005 145.878 48.8851 145.777 49.5965 145.62C50.3011 145.464 50.8651 145.172 51.219 144.964L47.1752 138.062ZM47.4644 137.885C47.3724 137.944 47.2756 138.003 47.1735 138.063L51.2207 144.963C51.3952 144.861 51.5704 144.755 51.7453 144.644L47.4644 137.885ZM48.8202 136.169C48.799 136.562 48.6993 136.77 48.5736 136.945C48.4104 137.173 48.0934 137.487 47.4644 137.885L51.7453 144.644C54.1056 143.149 56.5876 140.707 56.8086 136.599L48.8202 136.169ZM49.4379 133.184C49.2019 133.903 48.8852 134.971 48.8203 136.167L56.8085 136.601C56.815 136.482 56.8607 136.222 57.0385 135.68L49.4379 133.184ZM56.0539 128.257C54.8034 128.309 53.3322 128.6 51.9989 129.553C50.6341 130.53 49.8664 131.875 49.4366 133.188L57.0397 135.677C57.0725 135.577 57.0764 135.603 57.0143 135.696C56.9448 135.8 56.8256 135.937 56.6535 136.06C56.2978 136.314 56.0722 136.263 56.3842 136.25L56.0539 128.257ZM59.0011 128.006C58.1057 128.146 57.1432 128.212 56.0524 128.257L56.3857 136.25C57.5666 136.201 58.8872 136.121 60.235 135.91L59.0011 128.006ZM59.1336 127.904C59.0927 127.993 59.0648 128.029 59.062 128.033C59.0605 128.035 59.0733 128.019 59.1 127.999C59.1265 127.979 59.1445 127.972 59.1408 127.973C59.135 127.976 59.0932 127.992 59.0014 128.006L60.2347 135.91C62.9715 135.483 65.1927 133.88 66.4038 131.242L59.1336 127.904ZM61.36 118.975C61.1042 122.162 60.408 125.13 59.1339 127.903L66.4035 131.243C68.1318 127.481 69.0166 123.573 69.3344 119.615L61.36 118.975ZM61.6008 115.985C61.5205 116.981 61.4402 117.978 61.3601 118.975L69.3343 119.616C69.4144 118.62 69.4947 117.624 69.575 116.627L61.6008 115.985ZM62.1005 109.766C61.9348 111.839 61.7679 113.911 61.6008 115.985L69.575 116.627C69.742 114.554 69.9092 112.479 70.0751 110.404L62.1005 109.766ZM63.2775 106.034C62.9961 106.618 62.2245 108.102 62.0989 109.787L70.0767 110.382C70.0676 110.504 70.0449 110.507 70.1138 110.324C70.1873 110.13 70.2917 109.907 70.4853 109.505L63.2775 106.034ZM63.5375 105.48C63.4722 105.629 63.3939 105.792 63.2775 106.034L70.4853 109.505C70.5901 109.287 70.7301 108.998 70.8608 108.7L63.5375 105.48ZM82.3678 101.146C81.2997 100.331 79.9972 99.331 78.6586 98.5515C77.3269 97.776 75.5686 96.9782 73.5357 96.9283C68.7975 96.8121 65.7146 100.529 63.5375 105.48L70.8608 108.7C71.7809 106.608 72.5429 105.609 73.0162 105.17C73.2304 104.971 73.3446 104.925 73.3511 104.923C73.3568 104.92 73.3521 104.923 73.3409 104.925C73.3303 104.927 73.328 104.926 73.3395 104.926C73.4206 104.928 73.7985 104.979 74.6327 105.465C75.46 105.946 76.3529 106.62 77.5174 107.508L82.3678 101.146ZM87.5419 104.103C87.1838 104.103 86.5906 103.969 85.6244 103.425C84.6455 102.874 83.6318 102.109 82.3678 101.146L77.5173 107.508C78.6857 108.398 80.1485 109.522 81.6995 110.396C83.2631 111.276 85.2534 112.103 87.5419 112.103V104.103ZM87.5419 112.103C89.8303 112.103 91.8206 111.276 93.3842 110.396C94.9352 109.522 96.398 108.398 97.5664 107.508L92.716 101.146C91.4519 102.109 90.4383 102.874 89.4593 103.425C88.4931 103.969 87.9 104.103 87.5419 104.103V112.103ZM97.5664 107.508C98.7308 106.62 99.6237 105.946 100.451 105.465C101.285 104.979 101.663 104.928 101.744 104.926C101.756 104.926 101.753 104.927 101.743 104.925C101.732 104.923 101.727 104.92 101.733 104.923C101.739 104.925 101.853 104.971 102.068 105.17C102.541 105.609 103.303 106.608 104.223 108.7L111.546 105.48C109.369 100.529 106.286 96.8121 101.548 96.9283C99.5151 96.9782 97.7568 97.776 96.4251 98.5515C95.0865 99.331 93.784 100.331 92.716 101.146L97.5664 107.508ZM104.223 108.7C104.354 108.998 104.494 109.287 104.598 109.505L111.806 106.034C111.69 105.792 111.612 105.629 111.546 105.48L104.223 108.7ZM104.598 109.505C104.792 109.907 104.896 110.13 104.97 110.324C105.039 110.507 105.016 110.504 105.007 110.382L112.985 109.787C112.859 108.102 112.088 106.618 111.806 106.034L104.598 109.505ZM105.009 110.404C105.175 112.479 105.342 114.554 105.509 116.627L113.483 115.985C113.316 113.911 113.149 111.839 112.983 109.766L105.009 110.404ZM105.509 116.627C105.589 117.624 105.669 118.62 105.749 119.616L113.724 118.975C113.643 117.978 113.563 116.981 113.483 115.985L105.509 116.627ZM105.749 119.615C106.067 123.573 106.952 127.481 108.68 131.243L115.95 127.903C114.676 125.13 113.98 122.162 113.724 118.975L105.749 119.615ZM108.68 131.242C109.891 133.88 112.112 135.483 114.849 135.91L116.082 128.006C115.991 127.992 115.949 127.976 115.943 127.973C115.939 127.972 115.957 127.979 115.984 127.999C116.01 128.019 116.023 128.035 116.022 128.033C116.019 128.029 115.991 127.993 115.95 127.904L108.68 131.242ZM114.849 135.91C116.196 136.121 117.517 136.201 118.698 136.25L119.031 128.257C117.94 128.212 116.978 128.146 116.083 128.006L114.849 135.91ZM118.699 136.25C119.012 136.263 118.786 136.314 118.43 136.06C118.258 135.937 118.139 135.8 118.069 135.696C118.007 135.603 118.011 135.577 118.044 135.677L125.647 133.188C125.217 131.875 124.45 130.53 123.085 129.553C121.752 128.6 120.28 128.309 119.03 128.257L118.699 136.25ZM118.045 135.68C118.223 136.222 118.269 136.482 118.275 136.601L126.263 136.167C126.199 134.971 125.882 133.903 125.646 133.184L118.045 135.68ZM118.275 136.599C118.496 140.707 120.978 143.149 123.338 144.644L127.619 137.885C126.99 137.487 126.673 137.173 126.51 136.945C126.384 136.77 126.285 136.562 126.264 136.169L118.275 136.599ZM123.339 144.644C123.513 144.755 123.688 144.861 123.863 144.963L127.91 138.063C127.808 138.003 127.711 137.944 127.619 137.885L123.339 144.644ZM123.865 144.964C124.219 145.172 124.783 145.464 125.487 145.62C126.199 145.777 127.483 145.878 128.765 145.087C130.061 144.286 130.547 143.074 130.722 142.335C130.891 141.615 130.867 140.966 130.829 140.551L122.862 141.272C122.86 141.25 122.854 141.176 122.858 141.06C122.861 140.949 122.876 140.751 122.935 140.499C123.049 140.017 123.426 138.981 124.562 138.28C125.684 137.587 126.76 137.708 127.213 137.808C127.456 137.862 127.633 137.931 127.73 137.973C127.83 138.016 127.891 138.052 127.908 138.062L123.865 144.964ZM130.83 140.555C130.773 139.92 130.675 139.311 130.603 138.86L122.702 140.114C122.781 140.611 122.833 140.95 122.861 141.268L130.83 140.555ZM130.603 138.86C130.529 138.394 130.478 138.068 130.449 137.76L122.486 138.535C122.543 139.124 122.634 139.689 122.702 140.114L130.603 138.86ZM130.449 137.763C130.418 137.444 130.434 137.249 130.449 137.165L122.577 135.738C122.393 136.756 122.408 137.729 122.486 138.532L130.449 137.763ZM130.45 137.161C130.323 137.863 130.029 138.342 129.871 138.568C129.692 138.823 129.512 139.003 129.371 139.126C129.226 139.251 129.054 139.375 128.849 139.486C128.664 139.586 128.318 139.749 127.836 139.834L126.446 131.955C125.357 132.148 124.564 132.705 124.131 133.08C123.771 133.392 122.84 134.278 122.576 135.742L130.45 137.161ZM127.822 139.836C126.832 140.007 126.08 139.742 125.806 139.632C125.467 139.496 125.23 139.339 125.097 139.241L129.842 132.8C129.593 132.616 129.236 132.389 128.784 132.207C128.397 132.052 127.539 131.766 126.459 131.953L127.822 139.836ZM124.787 138.987C124.359 138.6 124.16 138.219 124.109 138.117C124.058 138.016 124.035 137.946 124.097 138.108L131.572 135.257C131.539 135.172 131.42 134.847 131.253 134.517C131.086 134.185 130.752 133.596 130.152 133.053L124.787 138.987ZM124.097 138.108C124.125 138.179 124.211 138.412 124.321 138.649L131.581 135.289C131.592 135.311 131.598 135.327 131.602 135.336C131.606 135.344 131.607 135.347 131.605 135.344C131.604 135.34 131.601 135.332 131.595 135.317C131.592 135.309 131.589 135.301 131.585 135.291C131.581 135.281 131.577 135.27 131.572 135.257L124.097 138.108ZM124.325 138.657C124.411 138.843 124.496 139.042 124.612 139.314L131.975 136.185C131.868 135.934 131.731 135.611 131.578 135.282L124.325 138.657ZM124.612 139.314C124.762 139.667 124.973 140.167 125.23 140.672L132.36 137.044C132.249 136.826 132.142 136.58 131.975 136.185L124.612 139.314ZM125.231 140.674C125.478 141.16 125.997 142.027 126.987 142.653C128.228 143.437 129.78 143.563 131.152 142.931L127.809 135.663C128.285 135.444 128.893 135.294 129.581 135.342C130.266 135.391 130.837 135.622 131.262 135.891C132.021 136.371 132.318 136.962 132.359 137.042L125.231 140.674ZM131.152 142.931C131.433 142.802 131.677 142.655 131.884 142.507L127.253 135.984C127.402 135.878 127.587 135.765 127.809 135.663L131.152 142.931ZM131.884 142.507C132.598 142 133.042 141.381 133.297 140.965L126.478 136.782C126.513 136.725 126.582 136.62 126.694 136.49C126.803 136.362 126.985 136.174 127.253 135.984L131.884 142.507ZM133.301 140.959C133.438 140.735 133.596 140.45 133.741 140.116L126.397 136.941C126.438 136.847 126.471 136.794 126.474 136.789L133.301 140.959ZM133.741 140.116C133.862 139.836 133.985 139.494 134.074 139.099L126.269 137.342C126.311 137.156 126.363 137.02 126.397 136.942L133.741 140.116ZM134.075 139.095C134.429 137.516 135.202 136.594 136.73 135.956L133.648 128.574C129.765 130.195 127.199 133.191 126.268 137.347L134.075 139.095ZM136.73 135.956C138.352 135.279 139.616 134.839 140.846 134.687L139.864 126.747C137.491 127.041 135.385 127.848 133.647 128.574L136.73 135.956ZM141.08 134.651C142.261 134.433 142.829 134.659 143.228 135.018L148.579 129.071C145.768 126.541 142.391 126.274 139.63 126.783L141.08 134.651ZM143.23 135.02C145.32 136.898 146.73 138.751 147.367 140.916L155.042 138.657C153.821 134.508 151.233 131.456 148.577 129.069L143.23 135.02ZM147.367 140.916C147.486 141.317 147.594 141.733 147.721 142.225L155.466 140.223C155.345 139.753 155.204 139.208 155.042 138.657L147.367 140.916ZM147.721 142.225C147.894 142.897 148.107 143.728 148.386 144.561L155.973 142.024C155.798 141.5 155.652 140.941 155.466 140.223L147.721 142.225ZM148.386 144.56C149.118 146.753 150.518 149.958 154.153 151.482L157.245 144.103C157.045 144.02 156.891 143.904 156.707 143.645C156.484 143.33 156.244 142.835 155.973 142.025L148.386 144.56ZM154.153 151.482C155.554 152.069 157.195 152.23 158.785 151.583C160.306 150.965 161.262 149.818 161.809 148.791C162.827 146.879 162.962 144.436 162.214 142.45L154.728 145.271C154.673 145.127 154.693 145.093 154.689 145.156C154.685 145.22 154.67 145.176 154.747 145.031C154.825 144.886 155.112 144.441 155.771 144.173C156.5 143.876 157.086 144.037 157.245 144.103L154.153 151.482ZM162.213 142.449C161.497 140.55 160.572 138.787 159.682 137.214L152.718 141.151C153.533 142.591 154.226 143.94 154.728 145.272L162.213 142.449ZM159.683 137.215C158.266 134.708 156.824 132.219 155.395 129.753L148.473 133.764C149.906 136.237 151.326 138.687 152.718 141.15L159.683 137.215ZM155.395 129.753C154.391 128.019 153.393 126.297 152.405 124.571L145.461 128.545C146.462 130.293 147.471 132.034 148.473 133.764L155.395 129.753ZM152.404 124.569C152.285 124.362 152.166 124.157 152.052 123.96L145.129 127.969C145.244 128.168 145.354 128.358 145.462 128.546L152.404 124.569ZM152.052 123.96C151.377 122.794 150.881 121.923 150.535 121.051L143.099 124C143.699 125.514 144.507 126.895 145.129 127.969L152.052 123.96ZM150.535 121.05C150.473 120.893 150.474 120.839 150.477 120.871C150.478 120.886 150.479 120.916 150.475 120.957C150.471 120.999 150.463 121.041 150.451 121.082C150.426 121.168 150.399 121.198 150.422 121.166C150.449 121.127 150.53 121.024 150.712 120.866L145.464 114.828C144.323 115.82 143.26 117.141 142.762 118.872C142.25 120.652 142.467 122.41 143.099 124.001L150.535 121.05ZM150.713 120.865L150.875 120.725L145.625 114.688L145.463 114.829L150.713 120.865ZM150.875 120.725C151.584 120.108 152.357 119.436 153.114 118.729L147.651 112.884C147.017 113.477 146.352 114.056 145.625 114.688L150.875 120.725ZM153.115 118.728C155.117 116.856 155.576 114.439 155.3 112.342L147.369 113.384C147.386 113.516 147.356 113.462 147.406 113.3C147.43 113.218 147.469 113.131 147.52 113.048C147.572 112.966 147.622 112.912 147.651 112.885L153.115 118.728ZM155.3 112.34C155.2 111.58 155.091 110.826 154.985 110.086L147.066 111.225C147.174 111.973 147.276 112.681 147.369 113.386L155.3 112.34ZM154.985 110.086C154.94 109.774 154.896 109.464 154.851 109.151L146.93 110.275C146.976 110.597 147.022 110.914 147.067 111.225L154.985 110.086ZM154.749 108.656C154.552 107.94 154.52 106.981 154.737 105.597C154.958 104.189 155.38 102.649 155.908 100.75L148.2 98.6079C147.702 100.402 147.14 102.406 146.834 104.357C146.524 106.33 146.422 108.541 147.033 110.77L154.749 108.656ZM155.908 100.75C156.873 97.2772 158.189 92.7016 157.733 87.8424C157.251 82.7127 154.867 77.6447 149.351 72.8907L144.128 78.9506C148.227 82.4825 149.497 85.7059 149.768 88.59C150.064 91.7445 149.229 94.905 148.2 98.6079L155.908 100.75ZM146.74 75.9206C149.375 72.9109 149.374 72.9108 149.374 72.9106C149.374 72.9106 149.374 72.9104 149.374 72.9103C149.374 72.9101 149.373 72.9098 149.373 72.9096C149.372 72.9091 149.372 72.9085 149.371 72.9078C149.369 72.9064 149.368 72.9047 149.365 72.9028C149.361 72.8988 149.355 72.8936 149.347 72.8872C149.333 72.8744 149.312 72.8568 149.287 72.8351C149.237 72.7917 149.166 72.7313 149.08 72.6581C148.909 72.5128 148.669 72.3125 148.396 72.0935C147.931 71.7194 147.101 71.0705 146.337 70.6498L142.479 77.6583C142.475 77.656 142.571 77.7119 142.779 77.8633C142.967 77.9998 143.178 78.1629 143.385 78.3298C143.59 78.4944 143.775 78.6486 143.909 78.7618C143.975 78.8179 144.027 78.8628 144.061 78.8924C144.079 78.9072 144.091 78.9181 144.099 78.9246C144.102 78.9278 144.105 78.93 144.106 78.931C144.106 78.9315 144.107 78.9316 144.107 78.9315C144.106 78.9315 144.106 78.9314 144.106 78.9312C144.106 78.9311 144.106 78.9309 144.106 78.9308C144.106 78.9307 144.105 78.9306 144.105 78.9306C144.105 78.9304 144.105 78.9303 146.74 75.9206ZM146.232 70.5941C145.816 70.3809 145.32 70.116 144.726 69.7985L140.956 76.8545C141.531 77.162 142.094 77.4628 142.584 77.714L146.232 70.5941ZM144.726 69.7985C142.291 68.4977 138.14 66.2492 134.605 65.3899L132.715 73.1634C135.054 73.7319 138.226 75.3961 140.956 76.8545L144.726 69.7985ZM134.733 65.4232C134.364 65.3204 133.239 65.0395 132.302 64.8071C131.812 64.6856 131.342 64.5695 130.994 64.4838C130.82 64.4409 130.677 64.4056 130.576 64.381C130.526 64.3687 130.487 64.3591 130.461 64.3525C130.447 64.3492 130.437 64.3467 130.43 64.345C130.427 64.3442 130.424 64.3435 130.422 64.3431C130.421 64.3428 130.421 64.3427 130.42 64.3426C130.42 64.3425 130.42 64.3425 130.42 64.3424C130.419 64.3424 130.419 64.3424 130.419 64.3424C130.419 64.3424 130.419 64.3424 129.466 68.227C128.512 72.1116 128.512 72.1116 128.512 72.1116C128.512 72.1116 128.512 72.1116 128.512 72.1117C128.512 72.1117 128.512 72.1117 128.512 72.1118C128.513 72.1119 128.513 72.112 128.514 72.1122C128.516 72.1126 128.518 72.1133 128.522 72.1141C128.528 72.1157 128.538 72.1182 128.552 72.1214C128.578 72.1279 128.617 72.1374 128.666 72.1495C128.765 72.1739 128.907 72.2089 129.08 72.2514C129.425 72.3365 129.891 72.4516 130.376 72.5717C131.386 72.8225 132.359 73.0664 132.587 73.1301L134.733 65.4232ZM129.466 68.227C129.013 72.2013 129.013 72.2013 129.013 72.2013C129.013 72.2013 129.013 72.2013 129.013 72.2013C129.013 72.2013 129.013 72.2014 129.014 72.2014C129.014 72.2015 129.015 72.2015 129.016 72.2016C129.018 72.2019 129.02 72.2022 129.024 72.2026C129.031 72.2034 129.041 72.2046 129.055 72.2061C129.082 72.2092 129.122 72.2136 129.172 72.2194C129.273 72.2308 129.419 72.2471 129.597 72.267C129.952 72.3067 130.438 72.3604 130.96 72.4166C131.965 72.5249 133.221 72.6554 133.872 72.6995L134.413 64.7178C133.954 64.6867 132.873 64.5764 131.816 64.4626C131.308 64.4079 130.833 64.3553 130.484 64.3164C130.31 64.297 130.168 64.281 130.07 64.2699C130.021 64.2643 129.983 64.26 129.957 64.2571C129.944 64.2556 129.934 64.2545 129.928 64.2538C129.924 64.2534 129.922 64.2531 129.92 64.253C129.92 64.2529 129.919 64.2528 129.919 64.2528C129.919 64.2527 129.918 64.2527 129.918 64.2527C129.918 64.2527 129.918 64.2527 129.918 64.2527C129.918 64.2527 129.918 64.2527 129.466 68.227ZM133.872 72.6995C134.446 72.7383 135.009 72.7801 135.565 72.8281L136.253 64.8578C135.633 64.8042 135.018 64.7588 134.412 64.7178L133.872 72.6995ZM135.565 72.828C139.539 73.1719 143.792 73.515 148.106 73.2912L147.692 65.3019C144.001 65.4934 140.263 65.2047 136.254 64.8578L135.565 72.828ZM148.106 73.2912C148.455 73.2731 148.806 73.2512 149.157 73.2253L148.569 65.247C148.278 65.2684 147.985 65.2867 147.692 65.3019L148.106 73.2912ZM149.157 73.2253C151.091 73.0827 153.286 72.7924 155.364 72.1867L153.127 64.5061C151.787 64.8965 150.2 65.1267 148.569 65.247L149.157 73.2253ZM155.385 72.1807C159.32 71.0113 161.981 68.2945 163.885 65.7181L157.451 60.9636C156.01 62.9135 154.647 64.0541 153.106 64.5121L155.385 72.1807ZM163.886 65.7167C165.012 64.1918 166.58 62.01 167.232 59.243L159.444 57.4104C159.208 58.4149 158.588 59.4246 157.45 60.965L163.886 65.7167ZM167.232 59.2432C168.668 53.1396 170.07 47.0294 171.469 40.9319L163.672 39.1428C162.272 45.244 160.875 51.3322 159.444 57.4103L167.232 59.2432ZM171.469 40.9319C171.808 39.4548 172.147 37.9786 172.486 36.5025L164.689 34.7108C164.35 36.1884 164.011 37.666 163.672 39.1428L171.469 40.9319ZM172.486 36.5024C173.186 33.4565 173.884 30.4105 174.582 27.3659L166.784 25.5788C166.086 28.6238 165.389 31.6676 164.689 34.7109L172.486 36.5024ZM174.582 27.3659C175.658 22.6721 176.732 17.9816 177.814 13.2932L170.018 11.4956C168.936 16.1902 167.859 20.8859 166.784 25.5788L174.582 27.3659ZM177.814 13.2911C177.909 12.8766 178.036 12.4362 178.201 11.8636L170.516 9.64042C170.362 10.1728 170.171 10.8292 170.018 11.4977L177.814 13.2911ZM178.201 11.8636C178.529 10.7309 179.089 8.89736 179.082 6.96087L171.082 6.99286C171.084 7.5749 170.911 8.27837 170.516 9.64043L178.201 11.8636ZM179.082 6.97687V5.23495H171.082V6.97687H179.082ZM179.082 5.23495C179.082 3.69937 178.559 2.57627 178.253 1.93158L171.029 5.3695C171.084 5.48425 171.113 5.54899 171.13 5.59144C171.147 5.63031 171.144 5.62785 171.135 5.59739C171.124 5.56374 171.109 5.50725 171.098 5.43459C171.086 5.3612 171.082 5.29268 171.082 5.23495H179.082ZM178.253 1.93145C176.971 -0.760844 174.687 -2.02429 172.767 -2.66239L170.244 4.92924C170.639 5.06037 170.835 5.17798 170.924 5.24492C170.985 5.29139 171.004 5.31712 171.029 5.36962L178.253 1.93145ZM172.769 -2.66179C171.71 -3.01439 170.64 -3.29796 169.561 -3.51107L168.011 4.33746C168.753 4.48378 169.496 4.68019 170.242 4.92864L172.769 -2.66179ZM169.678 -3.48607C168.153 -3.83492 166.483 -4.06282 164.707 -3.9846L165.059 4.00766C165.932 3.9692 166.862 4.07631 167.894 4.31246L169.678 -3.48607ZM164.921 -3.98829C163.07 -4.00608 161.22 -3.81978 159.378 -3.43758L161.003 4.39565C162.305 4.1254 163.585 3.99924 164.844 4.01135L164.921 -3.98829ZM159.378 -3.43768C159.186 -3.39791 158.994 -3.35801 158.802 -3.31796L160.435 4.51359C160.624 4.47421 160.813 4.43494 161.002 4.39574L159.378 -3.43768ZM158.992 -3.35272C158.432 -3.26391 157.875 -3.16797 157.321 -3.06546L158.776 4.80111C159.265 4.71064 159.755 4.62626 160.246 4.54835L158.992 -3.35272ZM157.322 -3.06559C153.579 -2.37412 149.416 -1.42974 145.513 0.718947L149.371 7.7271C152.089 6.23071 155.186 5.46448 158.775 4.80124L157.322 -3.06559ZM145.513 0.71894C139.303 4.13761 133.47 8.16189 128.086 12.7531L133.276 18.8406C138.246 14.6033 143.632 10.8868 149.371 7.7271L145.513 0.71894ZM128.086 12.7528C124.412 15.8847 120.991 19.2806 117.697 22.5471L123.33 28.2274C126.66 24.9248 129.87 21.7445 133.276 18.8409L128.086 12.7528ZM117.697 22.5471C116.978 23.2605 116.264 23.9678 115.55 24.6713L121.163 30.3715C121.889 29.6564 122.613 28.9391 123.33 28.2274L117.697 22.5471ZM115.55 24.6713C113.365 26.823 111.012 29.1779 108.943 31.8093L115.231 36.7548C116.951 34.5671 118.97 32.5308 121.163 30.3715L115.55 24.6713ZM108.942 31.8098C108.699 32.1193 108.456 32.429 108.213 32.739L114.515 37.6677C114.753 37.3628 114.992 37.0583 115.231 36.7543L108.942 31.8098ZM108.283 32.6529C105.734 35.7319 103.373 38.9388 101.092 42.0487L107.543 46.7803C109.838 43.6516 112.068 40.6265 114.446 37.7538L108.283 32.6529ZM101.118 42.0138C99.4019 44.3013 97.7001 46.5968 96.0085 48.8949L102.451 53.6373C104.132 51.3536 105.819 49.0784 107.517 46.8152L101.118 42.0138ZM96.0086 48.8947C95.7166 49.2914 95.4193 49.6884 95.1103 50.1011L101.514 54.8966C101.819 54.4883 102.137 54.0649 102.451 53.6374L96.0086 48.8947ZM95.1103 50.1011C93.3417 52.4627 91.1391 55.3595 89.822 58.9006L97.3201 61.6896C98.1691 59.407 99.6322 57.409 101.514 54.8965L95.1103 50.1011ZM89.8218 58.9011L89.8157 58.9174L97.3142 61.7053L97.3203 61.6891L89.8218 58.9011ZM89.8145 58.9207C90.0401 58.3121 90.6654 57.1662 92.1114 56.6249C93.7088 56.0269 95.0911 56.6056 95.8058 57.1305L91.0702 63.5783C91.8403 64.1439 93.2748 64.7316 94.9162 64.1171C96.4062 63.5593 97.0672 62.3715 97.3155 61.702L89.8145 58.9207ZM96.5448 57.8349C96.3924 57.647 96.4102 57.6514 96.4711 57.7556C96.5481 57.8874 96.7514 58.2723 96.8185 58.8446C96.8893 59.4476 96.7717 59.9298 96.6762 60.1972C96.6027 60.4029 96.5394 60.4851 96.6354 60.3233L89.7554 56.241C89.5049 56.6632 88.666 58.0122 88.8731 59.7769C89.0609 61.3783 90.042 62.5172 90.3312 62.8739L96.5448 57.8349ZM96.6358 60.3227C99.088 56.1881 97.1356 50.7911 92.4851 49.2917L90.0301 56.9057C89.7147 56.804 89.6315 56.4499 89.755 56.2416L96.6358 60.3227ZM92.4901 49.2933C91.8985 49.1017 91.3248 49.0056 91.0614 48.9585L89.6531 56.8335C89.822 56.8637 89.9087 56.8796 89.9821 56.8953C90.0472 56.9092 90.0525 56.9129 90.0251 56.9041L92.4901 49.2933ZM91.0613 48.9585C90.9077 48.931 90.8101 48.9133 90.7182 48.8943L89.1001 56.729C89.3132 56.773 89.5142 56.8087 89.6531 56.8336L91.0613 48.9585ZM93.8453 53.5232C93.9117 53.1559 93.9375 52.8084 93.9471 52.6934L85.9747 52.0293C85.9714 52.069 85.9692 52.0954 85.967 52.1197C85.9649 52.1429 85.9636 52.1561 85.9628 52.1634C85.9621 52.1704 85.9623 52.1678 85.9636 52.158C85.965 52.1481 85.9679 52.1281 85.973 52.1001L93.8453 53.5232ZM93.9471 52.6935C93.9547 52.6026 93.957 52.5773 93.9587 52.5623C93.9599 52.5517 93.9551 52.5999 93.9388 52.681C93.9113 52.8178 93.8065 53.2859 93.4386 53.8067L86.9048 49.1905C86.3794 49.9341 86.1827 50.6718 86.0959 51.1033C86.0123 51.5187 85.984 51.918 85.9747 52.0292L93.9471 52.6935ZM93.437 53.809C94.3667 52.495 95.1731 51.3778 96.0564 50.4002L90.1204 45.037C88.8746 46.4158 87.8146 47.9046 86.9064 49.1882L93.437 53.809ZM96.0563 50.4002C97.0685 49.28 98.1147 48.1789 99.2016 47.0354L93.403 41.524C92.3277 42.6553 91.2115 43.8293 90.1204 45.0369L96.0563 50.4002ZM99.2016 47.0354C100.477 45.6935 101.81 44.2918 103.099 42.8352L97.1076 37.5337C95.9288 38.8658 94.6947 40.1649 93.403 41.524L99.2016 47.0354ZM103.1 42.834C104.749 40.9688 106.68 38.7913 108.225 36.3193L101.442 32.0783C100.305 33.8971 98.825 35.5914 97.1066 37.5349L103.1 42.834ZM108.226 36.3186C109.413 34.4191 110.327 32.3994 111.116 30.6663L103.837 27.3488C103.009 29.1659 102.303 30.6996 101.441 32.079L108.226 36.3186ZM111.116 30.6663C111.429 29.9804 111.723 29.3355 112.026 28.7038L104.81 25.2483C104.469 25.9601 104.144 26.6747 103.837 27.3488L111.116 30.6663ZM112.023 28.7085C112.095 28.5584 112.168 28.4104 112.246 28.2511L105.058 24.7382C104.982 24.8943 104.898 25.0658 104.813 25.2437L112.023 28.7085ZM112.246 28.251C112.503 27.7254 112.824 27.0716 113.12 26.3208L105.679 23.3838C105.516 23.798 105.331 24.1799 105.058 24.7383L112.246 28.251ZM113.121 26.3207C113.352 25.7339 113.579 24.8506 113.566 23.8925C113.557 23.2206 113.338 20.3854 110.44 19.4063L107.88 26.9855C106.848 26.6371 106.188 25.8862 105.863 25.2023C105.588 24.6247 105.569 24.1534 105.567 24.0033C105.563 23.7207 105.608 23.5637 105.679 23.3839L113.121 26.3207ZM110.44 19.4063C108.409 18.7202 106.719 19.6164 105.852 20.383C105.004 21.1338 104.505 22.0665 104.222 22.8489L111.744 25.5725C111.72 25.639 111.589 25.9897 111.153 26.3748C110.7 26.7757 109.469 27.5225 107.88 26.9856L110.44 19.4063ZM104.221 22.8506C103.807 23.9953 103.417 25.1782 103.077 26.3913L110.78 28.551C111.056 27.5656 111.382 26.5729 111.744 25.5708L104.221 22.8506ZM103.077 26.3894C102.268 29.27 101.517 31.4405 100.198 33.1434L106.521 38.0439C108.892 34.9852 109.97 31.4327 110.779 28.5529L103.077 26.3894ZM100.197 33.144C98.3167 35.5717 96.2812 37.9229 94.16 40.2605L100.085 45.6363C102.281 43.2153 104.467 40.6958 106.522 38.0433L100.197 33.144ZM94.1602 40.2603C93.8132 40.6427 93.4637 41.0245 93.1073 41.4138L99.008 46.8158C99.3624 46.4287 99.7238 46.034 100.084 45.6365L94.1602 40.2603ZM93.1073 41.4138C91.1276 43.5762 88.9252 45.9723 87.0476 48.7088L93.644 53.235C95.152 51.0373 96.9659 49.0463 99.008 46.8158L93.1073 41.4138ZM87.0587 48.6926C87.2289 48.4472 87.3908 48.2819 87.4721 48.2032C87.5445 48.1331 87.6059 48.0825 87.5543 48.1265L92.7451 54.2138C92.7641 54.1976 92.8972 54.0859 93.0368 53.9507C93.1854 53.8069 93.41 53.5726 93.6329 53.2512L87.0587 48.6926ZM87.5544 48.1265C87.5385 48.14 87.4294 48.2319 87.315 48.3398L92.8058 54.1579C92.7709 54.1909 92.745 54.2137 92.7365 54.2211C92.7318 54.2252 92.7295 54.2272 92.7312 54.2257C92.7335 54.2237 92.7365 54.2212 92.745 54.2139L87.5544 48.1265ZM92.5329 48.1045C90.9893 46.8907 89.0832 46.5092 87.5835 46.4936L87.5003 54.4932C87.5689 54.4939 87.6326 54.499 87.688 54.5069C87.7438 54.5148 87.7826 54.5242 87.8035 54.5303C87.8251 54.5366 87.817 54.5362 87.7843 54.5202C87.7521 54.5046 87.6812 54.4665 87.5879 54.3932L92.5329 48.1045ZM87.4958 54.3932C87.4026 54.4665 87.3316 54.5046 87.2994 54.5202C87.2667 54.5362 87.2586 54.5366 87.2802 54.5303C87.3011 54.5242 87.3399 54.5148 87.3957 54.5069C87.4511 54.499 87.5148 54.4939 87.5835 54.4932L87.5003 46.4936C86.0005 46.5092 84.0944 46.8907 82.5508 48.1045L87.4958 54.3932ZM82.3387 54.2139C82.3472 54.2212 82.3502 54.2237 82.3525 54.2257C82.3542 54.2272 82.3519 54.2252 82.3472 54.2211C82.3387 54.2137 82.3128 54.1909 82.2779 54.1579L87.7687 48.3398C87.6543 48.2319 87.5452 48.14 87.5294 48.1265L82.3387 54.2139ZM81.4508 53.2512C81.6737 53.5726 81.8983 53.8069 82.0469 53.9507C82.1865 54.0859 82.3196 54.1976 82.3386 54.2138L87.5295 48.1265C87.4778 48.0825 87.5392 48.1331 87.6116 48.2032C87.6929 48.2819 87.8548 48.4472 88.025 48.6926L81.4508 53.2512ZM76.0757 46.8158C78.1178 49.0463 79.9317 51.0373 81.4397 53.235L88.0362 48.7088C86.1585 45.9723 83.9561 43.5762 81.9764 41.4138L76.0757 46.8158ZM74.9992 45.6365C75.3599 46.034 75.7213 46.4287 76.0757 46.8158L81.9764 41.4138C81.62 41.0245 81.2705 40.6427 80.9235 40.2603L74.9992 45.6365ZM68.5621 38.0433C70.6169 40.6958 72.8023 43.2153 74.9991 45.6363L80.9237 40.2605C78.8026 37.9229 76.767 35.5717 74.8864 33.144L68.5621 38.0433ZM64.3045 28.5529C65.1135 31.4327 66.1921 34.9852 68.5625 38.0439L74.8859 33.1434C73.5662 31.4405 72.8156 29.27 72.0064 26.3894L64.3045 28.5529ZM63.3393 25.5708C63.7016 26.5729 64.0277 27.5656 64.304 28.551L72.0069 26.3913C71.6668 25.1782 71.2765 23.9953 70.8626 22.8506L63.3393 25.5708ZM67.204 26.9856C65.6144 27.5225 64.3836 26.7757 63.9304 26.3748C63.4951 25.9897 63.364 25.639 63.3399 25.5725L70.862 22.8489C70.5787 22.0665 70.0799 21.1338 69.2312 20.383C68.3647 19.6164 66.6748 18.7202 64.6437 19.4063L67.204 26.9856ZM69.4046 23.3839C69.4756 23.5637 69.521 23.7207 69.5171 24.0033C69.515 24.1534 69.4961 24.6247 69.2212 25.2023C68.8957 25.8862 68.2355 26.6371 67.2041 26.9855L64.6436 19.4063C61.7456 20.3854 61.5272 23.2206 61.5179 23.8925C61.5046 24.8506 61.7316 25.7339 61.9632 26.3207L69.4046 23.3839ZM70.0256 24.7383C69.7526 24.1799 69.5681 23.798 69.4046 23.3838L61.9632 26.3208C62.2596 27.0716 62.5812 27.7254 62.838 28.251L70.0256 24.7383ZM70.2711 25.2437C70.1856 25.0658 70.1018 24.8943 70.0255 24.7382L62.8381 28.2511C62.9159 28.4104 62.9882 28.5584 63.0603 28.7085L70.2711 25.2437ZM71.247 27.3488C70.9397 26.6747 70.6143 25.9601 70.2733 25.2483L63.0581 28.7038C63.3606 29.3355 63.6547 29.9804 63.9672 30.6663L71.247 27.3488ZM73.6423 32.079C72.7803 30.6996 72.075 29.1659 71.247 27.3488L63.9672 30.6663C64.757 32.3994 65.6711 34.4191 66.8581 36.3186L73.6423 32.079ZM77.9771 37.5349C76.2587 35.5914 74.779 33.8971 73.6419 32.0783L66.8585 36.3193C68.404 38.7913 70.3347 40.9688 71.9839 42.834L77.9771 37.5349ZM81.6807 41.524C80.389 40.1649 79.1549 38.8658 77.9761 37.5337L71.9849 42.8352C73.2739 44.2918 74.6067 45.6935 75.8821 47.0354L81.6807 41.524ZM84.9633 45.0369C83.8722 43.8293 82.7561 42.6553 81.6808 41.524L75.8821 47.0354C76.969 48.1789 78.0152 49.28 79.0274 50.4002L84.9633 45.0369ZM88.1773 49.1882C87.2691 47.9046 86.2091 46.4158 84.9633 45.037L79.0273 50.4002C79.9106 51.3778 80.717 52.495 81.6467 53.809L88.1773 49.1882ZM89.109 52.0292C89.0997 51.918 89.0714 51.5187 88.9878 51.1033C88.901 50.6718 88.7043 49.9341 88.1789 49.1905L81.6451 53.8067C81.2772 53.2859 81.1724 52.8178 81.1449 52.681C81.1286 52.5999 81.1239 52.5517 81.125 52.5623C81.1267 52.5773 81.1291 52.6026 81.1366 52.6935L89.109 52.0292ZM89.1108 52.1001C89.1158 52.1281 89.1187 52.1481 89.1201 52.158C89.1214 52.1678 89.1216 52.1704 89.1209 52.1634C89.1201 52.1561 89.1188 52.1429 89.1167 52.1197C89.1145 52.0954 89.1123 52.069 89.109 52.0293L81.1366 52.6934C81.1462 52.8084 81.172 53.1559 81.2384 53.5232L89.1108 52.1001ZM85.4306 56.8336C85.5695 56.8087 85.7705 56.773 85.9836 56.729L84.3655 48.8943C84.2736 48.9133 84.1761 48.931 84.0224 48.9585L85.4306 56.8336ZM85.0586 56.9041C85.0312 56.9129 85.0365 56.9092 85.1016 56.8953C85.175 56.8796 85.2617 56.8637 85.4306 56.8335L84.0223 48.9585C83.7589 49.0056 83.1852 49.1017 82.5937 49.2933L85.0586 56.9041ZM85.3287 56.2416C85.4522 56.4499 85.3691 56.804 85.0536 56.9057L82.5986 49.2917C77.9481 50.7911 75.9957 56.1881 78.4479 60.3227L85.3287 56.2416ZM84.7525 62.8739C85.0418 62.5172 86.0228 61.3783 86.2107 59.7769C86.4177 58.0122 85.5788 56.6632 85.3283 56.241L78.4483 60.3233C78.5443 60.4851 78.481 60.4029 78.4075 60.1972C78.312 59.9298 78.1944 59.4476 78.2652 58.8446C78.3323 58.2723 78.5356 57.8874 78.6126 57.7556C78.6735 57.6514 78.6913 57.647 78.5389 57.8349L84.7525 62.8739ZM77.7682 61.702C78.0165 62.3715 78.6775 63.5593 80.1675 64.1171C81.8089 64.7316 83.2434 64.1439 84.0136 63.5783L79.2779 57.1305C79.9926 56.6056 81.3749 56.0269 82.9723 56.6249C84.4183 57.1662 85.0436 58.3121 85.2692 58.9207L77.7682 61.702ZM77.7634 61.6891L77.7695 61.7053L85.268 58.9174L85.2619 58.9011L77.7634 61.6891ZM73.57 54.8965C75.4515 57.409 76.9146 59.407 77.7636 61.6896L85.2617 58.9006C83.9446 55.3595 81.742 52.4627 79.9735 50.1011L73.57 54.8965ZM72.6325 53.6374C72.9472 54.0649 73.2643 54.4883 73.57 54.8966L79.9734 50.1011C79.6644 49.6884 79.3671 49.2914 79.0751 48.8947L72.6325 53.6374ZM67.5664 46.8152C69.2647 49.0784 70.9514 51.3536 72.6324 53.6373L79.0752 48.8949C77.3836 46.5968 75.6818 44.3013 73.9654 42.0138L67.5664 46.8152ZM60.6381 37.7538C63.0158 40.6265 65.2457 43.6516 67.5405 46.7803L73.9913 42.0487C71.7103 38.9388 69.3494 35.7319 66.801 32.6529L60.6381 37.7538ZM59.8526 36.7543C60.0916 37.0584 60.3304 37.3628 60.5688 37.6677L66.8702 32.739C66.6278 32.429 66.3849 32.1193 66.1416 31.8098L59.8526 36.7543ZM53.9205 30.3715C56.1133 32.5308 58.1324 34.5671 59.8529 36.7548L66.1412 31.8093C64.0717 29.1779 61.7188 26.823 59.5337 24.6713L53.9205 30.3715ZM51.7535 28.2274C52.471 28.9391 53.1943 29.6564 53.9205 30.3715L59.5337 24.6713C58.8193 23.9678 58.106 23.2604 57.3868 22.5472L51.7535 28.2274ZM41.8077 18.8409C45.2138 21.7445 48.4234 24.9249 51.7535 28.2274L57.3868 22.5472C54.093 19.2806 50.6715 15.8847 46.9976 12.7528L41.8077 18.8409ZM25.7127 7.7271C31.4521 10.8868 36.8379 14.6033 41.8073 18.8406L46.998 12.7531C41.6135 8.16189 35.7807 4.13761 29.5709 0.71894L25.7127 7.7271ZM16.3086 4.80124C19.898 5.46448 22.9946 6.23071 25.7127 7.7271L29.5709 0.718948C25.668 -1.42975 21.5044 -2.37412 17.7622 -3.06559L16.3086 4.80124ZM14.8377 4.54835C15.3285 4.62626 15.8188 4.71064 16.3079 4.80111L17.7629 -3.06546C17.2086 -3.16798 16.6515 -3.26391 16.092 -3.35272L14.8377 4.54835ZM14.0815 4.39574C14.2706 4.43494 14.4595 4.47421 14.6483 4.51358L16.2814 -3.31795C16.0894 -3.358 15.8974 -3.3979 15.7056 -3.43768L14.0815 4.39574ZM10.2395 4.01135C11.4989 3.99924 12.7783 4.1254 14.0811 4.39565L15.706 -3.43758C13.8636 -3.81978 12.0137 -4.00608 10.1625 -3.98829L10.2395 4.01135ZM7.18969 4.31246C8.22199 4.07631 9.15171 3.9692 10.025 4.00766L10.377 -3.9846C8.6008 -4.06282 6.93054 -3.83492 5.40565 -3.48607L7.18969 4.31246ZM4.84138 4.92864C5.58764 4.6802 6.33116 4.48378 7.07235 4.33746L5.52298 -3.51107C4.44346 -3.29796 3.37359 -3.01439 2.31443 -2.66179L4.84138 4.92864ZM4.05468 5.36961C4.07966 5.31712 4.0985 5.29139 4.15995 5.24491C4.24846 5.17798 4.44506 5.06037 4.83957 4.92924L2.31624 -2.66239C0.396479 -2.02429 -1.88739 -0.760847 -3.16884 1.93147L4.05468 5.36961ZM4.002 5.23495C4.002 5.29268 3.99733 5.36121 3.98577 5.43459C3.97433 5.50726 3.95944 5.56374 3.94911 5.59739C3.93976 5.62784 3.93694 5.63031 3.95325 5.59143C3.97106 5.54898 4.00013 5.48423 4.05474 5.36948L-3.1689 1.9316C-3.47571 2.57626 -3.998 3.69937 -3.998 5.23495H4.002ZM4.002 6.97687V5.23495H-3.998V6.97687H4.002ZM4.56723 9.64045C4.17321 8.2784 3.99965 7.57492 4.00197 6.99286L-3.99796 6.96088C-4.0057 8.89736 -3.44533 10.7309 -3.11767 11.8636L4.56723 9.64045ZM5.06602 11.4978C4.91222 10.8292 4.72123 10.1728 4.56723 9.64045L-3.11767 11.8636C-2.952 12.4363 -2.82574 12.8766 -2.73039 13.2911L5.06602 11.4978ZM8.30063 25.5827C7.22482 20.8885 6.14837 16.1915 5.06552 11.4956L-2.7299 13.2932C-1.64847 17.9829 -0.573226 22.6747 0.502787 27.3698L8.30063 25.5827Z" fill="black" mask="url(#path-12-inside-1_1546_35)"></path></svg> 