<svg xmlns="http://www.w3.org/2000/svg" width="592" height="34" viewBox="0 0 592 34" fill="none"><path d="M1 17H271" stroke="#646464" stroke-linecap="round"></path><path d="M321 17L591 17" stroke="#646464" stroke-linecap="round"></path><path d="M296 0L297.097 12.1936L303.376 1.68353L299.074 13.1456L309.291 6.40067L300.442 14.861L312.574 13.2171L300.93 17L312.574 20.7829L300.442 19.139L309.291 27.5993L299.074 20.8544L303.376 32.3165L297.097 21.8064L296 34L294.903 21.8064L288.624 32.3165L292.926 20.8544L282.709 27.5993L291.558 19.139L279.426 20.7829L291.07 17L279.426 13.2171L291.558 14.861L282.709 6.40067L292.926 13.1456L288.624 1.68353L294.903 12.1936L296 0Z" fill="#646464"></path></svg>