<svg xmlns="http://www.w3.org/2000/svg" width="34" height="34" viewBox="0 0 34 34" fill="none"><path d="M17 0L18.097 12.1936L24.376 1.68353L20.0738 13.1456L30.2911 6.40067L21.4418 14.861L33.5738 13.2171L21.93 17L33.5738 20.7829L21.4418 19.139L30.2911 27.5993L20.0738 20.8544L24.376 32.3165L18.097 21.8064L17 34L15.903 21.8064L9.62398 32.3165L13.9262 20.8544L3.70887 27.5993L12.5582 19.139L0.426226 20.7829L12.07 17L0.426226 13.2171L12.5582 14.861L3.70887 6.40067L13.9262 13.1456L9.62398 1.68353L15.903 12.1936L17 0Z" fill="#646464"></path></svg>