<?xml version="1.0" encoding="UTF-8"?> <svg xmlns="http://www.w3.org/2000/svg" width="350" height="40" viewBox="0 0 350 40" fill="none"><path d="M344.052 15.1845V18.6469C343.525 18.014 342.942 17.4742 342.302 17.0274C341.738 16.6551 341.079 16.3573 340.326 16.1339C339.574 15.8733 338.727 15.8733 337.786 16.1339C337.297 16.2828 336.77 16.5434 336.206 16.9157C334.362 18.1071 333.214 19.7638 332.763 21.886V38.8072H341.85C343.168 38.8072 344.315 38.6025 345.294 38.1929C346.31 37.7462 347.156 37.2622 347.834 36.7409C348.624 36.108 349.301 35.4007 349.866 34.6188L348.906 39.4215H327.965C328.191 38.9375 328.379 38.4163 328.529 37.8579C328.68 37.3739 328.812 36.8526 328.924 36.2942C329.037 35.7357 329.094 35.14 329.094 34.5071V5.18811C329.094 4.59242 329.037 4.01535 328.924 3.45689C328.812 2.8612 328.68 2.32136 328.529 1.83736C328.379 1.27891 328.191 0.757678 327.965 0.273682H348.906L349.866 5.07642C349.301 4.3318 348.624 3.64304 347.834 3.01012C347.156 2.4889 346.31 2.0049 345.294 1.55813C344.315 1.11137 343.168 0.887983 341.85 0.887983H332.763V19.9872C333.252 18.9075 333.91 17.9954 334.738 17.2508C335.604 16.5062 336.545 15.9291 337.561 15.5196C338.577 15.11 339.649 14.8866 340.778 14.8494C341.907 14.775 342.998 14.8866 344.052 15.1845Z" fill="white"></path><path d="M321.044 33.2018C321.044 33.7572 321.1 34.3866 321.21 35.09C321.321 35.7935 321.449 36.4599 321.597 37.0893C321.744 37.7186 321.892 38.2555 322.039 38.6998C322.186 39.144 322.297 39.3847 322.37 39.4217H318.282L302.092 4.76822V33.6461C302.092 34.1644 302.166 34.7383 302.313 35.3677C302.46 35.9601 302.645 36.5524 302.866 37.1448C303.087 37.7001 303.326 38.1999 303.584 38.6442C303.842 39.0515 304.081 39.3106 304.302 39.4217H299.219C299.44 39.3106 299.679 39.0515 299.937 38.6442C300.232 38.1999 300.49 37.7001 300.711 37.1448C300.932 36.5524 301.116 35.9601 301.263 35.3677C301.411 34.7383 301.484 34.1644 301.484 33.6461V6.87853C301.484 6.13807 301.374 5.17548 301.153 3.99074C300.968 2.80601 300.619 1.6583 300.103 0.547607H304.026L320.437 35.6454V6.32319C320.437 5.80487 320.363 5.24952 320.215 4.65715C320.068 4.02777 319.884 3.4354 319.663 2.88005C319.442 2.28769 319.184 1.78788 318.889 1.38062C318.632 0.936349 318.392 0.658677 318.171 0.547607H323.31C323.089 0.658677 322.831 0.936349 322.536 1.38062C322.278 1.78788 322.039 2.28769 321.818 2.88005C321.597 3.4354 321.413 4.02777 321.265 4.65715C321.118 5.24952 321.044 5.80487 321.044 6.32319V33.2018Z" fill="white"></path><path d="M280.029 0C282.1 0 284.023 0.52394 285.798 1.57182C287.61 2.6197 289.182 4.06053 290.513 5.89433C291.955 7.84039 293.028 10.0484 293.73 12.5184C294.47 14.951 294.84 17.4397 294.84 19.9846C294.84 22.5294 294.47 25.0368 293.73 27.5069C293.028 29.9394 291.955 32.1287 290.513 34.0748C289.071 36.0583 287.425 37.5366 285.576 38.5096C283.764 39.4826 281.915 39.9691 280.029 39.9691C278.143 39.9691 276.275 39.4826 274.426 38.5096C272.614 37.5366 270.987 36.0583 269.545 34.0748C268.102 32.1287 267.03 29.9394 266.327 27.5069C265.625 25.0368 265.273 22.5294 265.273 19.9846C265.273 17.4397 265.625 14.951 266.327 12.5184C267.03 10.0484 268.102 7.84039 269.545 5.89433C270.876 4.06053 272.429 2.6197 274.204 1.57182C276.016 0.52394 277.958 0 280.029 0ZM287.906 6.23114C286.796 4.35993 285.557 2.95652 284.189 2.02091C282.821 1.0853 281.434 0.617499 280.029 0.617499C278.624 0.617499 277.237 1.0853 275.868 2.02091C274.5 2.95652 273.261 4.35993 272.152 6.23114C271.042 8.13978 270.21 10.2917 269.656 12.6868C269.101 15.0446 268.824 17.4771 268.824 19.9846C268.824 22.492 269.101 24.9433 269.656 27.3384C270.21 29.6962 271.042 31.8294 272.152 33.738C273.261 35.6092 274.5 37.0126 275.868 37.9482C277.237 38.8838 278.624 39.3516 280.029 39.3516C281.434 39.3516 282.821 38.8838 284.189 37.9482C285.557 37.0126 286.796 35.6092 287.906 33.738C289.015 31.8294 289.847 29.6962 290.402 27.3384C290.957 24.9433 291.234 22.492 291.234 19.9846C291.234 17.4771 290.957 15.0446 290.402 12.6868C289.847 10.2917 289.015 8.13978 287.906 6.23114Z" fill="white"></path><path d="M244.684 34.5347C244.684 35.1641 244.741 35.7749 244.856 36.3673C244.97 36.9597 245.104 37.478 245.257 37.9223C245.41 38.4776 245.601 38.9774 245.83 39.4217H239.812C240.042 38.9774 240.233 38.4776 240.386 37.9223C240.538 37.478 240.672 36.9597 240.787 36.3673C240.901 35.7749 240.959 35.1641 240.959 34.5347V5.3791C240.959 4.78674 240.901 4.19437 240.787 3.602C240.672 3.00963 240.538 2.49131 240.386 2.04704C240.233 1.52872 240.042 1.02891 239.812 0.547607H250.3C252.592 0.547607 254.503 1.13997 256.031 2.32471C257.559 3.50944 258.705 4.99036 259.469 6.76746C260.234 8.54457 260.616 10.4698 260.616 12.543C260.654 14.6163 260.291 16.5415 259.527 18.3186C258.763 20.0957 257.597 21.5766 256.031 22.7614C254.503 23.9461 252.592 24.5385 250.3 24.5385C248.504 24.5385 247.11 24.9087 246.116 25.6492C245.161 26.3896 244.684 27.6484 244.684 29.4255V34.5347ZM244.684 1.15849V26.5377C245.219 25.5751 245.964 24.9087 246.919 24.5385C247.912 24.1312 249.039 23.9276 250.3 23.9276C251.752 23.9276 252.936 23.3723 253.853 22.2616C254.808 21.1139 255.477 19.707 255.859 18.0409C256.279 16.3379 256.451 14.5053 256.375 12.543C256.337 10.5808 256.069 8.7667 255.572 7.10067C255.076 5.39761 254.369 3.99074 253.452 2.88005C252.573 1.73234 251.523 1.15849 250.3 1.15849H244.684Z" fill="white"></path><path d="M207.935 33.6461C207.935 34.1644 208.009 34.7383 208.157 35.3677C208.305 35.9601 208.49 36.5524 208.711 37.1448C208.933 37.7001 209.174 38.1999 209.432 38.6442C209.728 39.0515 209.987 39.3106 210.209 39.4217H205.106C205.328 39.3106 205.568 39.0515 205.827 38.6442C206.123 38.1999 206.382 37.7001 206.604 37.1448C206.826 36.5524 207.011 35.9601 207.158 35.3677C207.306 34.7383 207.38 34.1644 207.38 33.6461V4.43502C207.011 3.65754 206.604 2.93559 206.16 2.26918C205.716 1.56574 205.254 0.991884 204.773 0.547607H212.095C211.651 0.806769 211.392 1.52872 211.318 2.71345C211.281 3.89819 211.577 5.3791 212.206 7.1562L220.082 30.4807C219.823 28.2963 219.749 26.2415 219.86 24.3163C219.971 22.3911 220.211 20.577 220.581 18.874C221.025 16.6896 221.635 14.7089 222.411 12.9318C223.188 11.1177 224.001 9.54418 224.852 8.21136C225.702 6.84151 226.553 5.71231 227.403 4.82376C228.253 3.93521 228.975 3.28731 229.566 2.88005C229.381 2.21364 229.215 1.6583 229.067 1.21402C228.956 0.991885 228.864 0.769747 228.79 0.547607H234.613C234.392 1.02891 234.207 1.52872 234.059 2.04704C233.911 2.49131 233.781 3.00963 233.671 3.602C233.56 4.19437 233.504 4.78674 233.504 5.3791V34.5347C233.504 35.1641 233.56 35.7749 233.671 36.3673C233.781 36.9597 233.911 37.478 234.059 37.9223C234.207 38.4776 234.392 38.9774 234.613 39.4217H228.79C229.011 38.9774 229.196 38.4776 229.344 37.9223C229.492 37.478 229.622 36.9597 229.733 36.3673C229.843 35.7749 229.899 35.1641 229.899 34.5347V5.3791C229.899 4.74971 229.843 4.12032 229.733 3.49093C229.141 3.89818 228.438 4.54609 227.625 5.43464C226.811 6.32319 225.998 7.41536 225.184 8.71117C224.371 10.007 223.594 11.5249 222.855 13.265C222.152 14.968 221.579 16.8747 221.136 18.985C220.692 21.0953 220.451 23.3908 220.414 25.8713C220.377 28.3518 220.655 30.999 221.246 33.8127L222.189 36.7005C222.411 37.0707 222.615 37.441 222.799 37.8112C222.984 38.1074 223.169 38.4221 223.354 38.7553C223.539 39.0515 223.724 39.2736 223.909 39.4217H217.808C217.993 39.1255 218.14 38.6442 218.251 37.9778C218.399 37.3114 218.399 36.719 218.251 36.2007L207.935 5.87891V33.6461Z" fill="white"></path><path d="M196.762 34.5071C196.909 35.1028 197.112 35.6985 197.369 36.2942C197.626 36.8526 197.884 37.3739 198.141 37.8579C198.435 38.4163 198.729 38.9375 199.023 39.4215H193.233C193.306 39.1237 193.362 38.77 193.398 38.3605C193.435 38.0254 193.454 37.6345 193.454 37.1877C193.454 36.7409 193.417 36.2569 193.343 35.7357L190.751 22.5003C190.2 22.6864 189.428 23.0215 188.435 23.5055C187.479 23.9523 186.468 24.6038 185.402 25.4601C184.373 26.3164 183.362 27.3961 182.369 28.6992C181.377 29.965 180.549 31.5101 179.888 33.3344C179.667 34.7491 179.557 35.9963 179.557 37.076C179.593 38.1185 179.685 38.9003 179.832 39.4215H176.027C176.248 39.1237 176.524 38.6955 176.855 38.1371C177.185 37.5414 177.516 36.8899 177.847 36.1825C178.178 35.4751 178.491 34.7119 178.785 33.8928C179.079 33.0737 179.318 32.2547 179.502 31.4356L186.064 1.94906C185.917 1.68844 185.788 1.46506 185.678 1.27891C185.568 1.05552 185.476 0.869371 185.402 0.720448C185.292 0.571526 185.182 0.422604 185.071 0.273682H190.862C190.751 0.683216 190.678 1.33475 190.641 2.22828C190.604 3.12181 190.715 4.10842 190.972 5.18811L196.762 34.5071ZM187.332 5.13226C187.259 4.72273 187.148 4.33181 187.001 3.9595C186.854 3.58719 186.689 3.21489 186.505 2.84259L180.218 30.933C180.99 29.4438 181.854 28.1779 182.81 27.1355C183.803 26.0558 184.796 25.1623 185.788 24.4549C186.781 23.7475 187.7 23.189 188.546 22.7795C189.428 22.37 190.126 22.0721 190.641 21.886L187.332 5.13226Z" fill="white"></path><path d="M154.853 0.547607C154.627 1.02891 154.439 1.52872 154.288 2.04704C154.138 2.49131 154.006 3.00963 153.893 3.602C153.78 4.19437 153.724 4.78674 153.724 5.3791V38.8108H162.868C164.185 38.8108 165.333 38.6072 166.311 38.1999C167.289 37.7557 168.117 37.2744 168.795 36.7561C169.585 36.1267 170.262 35.4232 170.827 34.6457L169.867 39.4217H148.926C149.152 38.9774 149.34 38.4776 149.49 37.9223C149.641 37.478 149.772 36.9597 149.885 36.3673C149.998 35.7749 150.055 35.1641 150.055 34.5347V5.3791C150.055 4.78674 149.998 4.19437 149.885 3.602C149.772 3.00963 149.641 2.49131 149.49 2.04704C149.34 1.52872 149.152 1.02891 148.926 0.547607H154.853Z" fill="white"></path><path d="M131.408 34.5071C131.408 35.14 131.463 35.7357 131.572 36.2942C131.682 36.8526 131.809 37.3739 131.955 37.8579C132.101 38.4163 132.284 38.9375 132.503 39.4215H126.754C126.973 38.9375 127.155 38.4163 127.301 37.8579C127.447 37.3739 127.575 36.8526 127.685 36.2942C127.794 35.7357 127.849 35.14 127.849 34.5071V5.18811C127.849 4.59242 127.794 4.01535 127.685 3.45689C127.575 2.8612 127.447 2.32136 127.301 1.83736C127.155 1.27891 126.973 0.757678 126.754 0.273682H132.503C132.284 0.757678 132.101 1.27891 131.955 1.83736C131.809 2.32136 131.682 2.8612 131.572 3.45689C131.463 4.01535 131.408 4.59242 131.408 5.18811V34.5071Z" fill="white"></path><path d="M114.382 0.273682H119.142C119.067 0.571526 118.918 0.981062 118.694 1.50229C118.507 1.98629 118.265 2.52613 117.966 3.12181C117.705 3.68027 117.425 4.23873 117.126 4.79719C116.827 5.35564 116.566 5.85825 116.342 6.30502C115.558 7.83147 114.755 9.209 113.934 10.4376C113.15 11.629 112.18 12.9134 111.022 14.291L118.862 34.5071C119.086 35.0656 119.328 35.624 119.59 36.1825C119.888 36.7037 120.168 37.1877 120.43 37.6345C120.691 38.0812 120.915 38.4722 121.102 38.8072C121.326 39.1051 121.475 39.3098 121.55 39.4215H115.166C115.203 39.4215 115.241 39.2726 115.278 38.9748C115.353 38.6769 115.409 38.3046 115.446 37.8579C115.483 37.3739 115.465 36.834 115.39 36.2383C115.353 35.6426 115.222 35.0656 114.998 34.5071L108.39 17.6417C107.308 19.2054 106.356 21.0111 105.535 23.0587C104.751 25.1064 104.284 27.6567 104.135 30.7096V34.5071C104.135 35.14 104.191 35.7357 104.303 36.2942C104.415 36.8526 104.545 37.3739 104.695 37.8579C104.844 38.4163 105.031 38.9375 105.255 39.4215H99.375C99.599 38.9375 99.7856 38.4163 99.935 37.8579C100.084 37.3739 100.215 36.8526 100.327 36.2942C100.439 35.7357 100.495 35.14 100.495 34.5071V5.18811C100.495 4.59242 100.439 4.01535 100.327 3.45689C100.215 2.8612 100.084 2.32136 99.935 1.83736C99.7856 1.27891 99.599 0.757678 99.375 0.273682H105.255C105.031 0.757678 104.844 1.27891 104.695 1.83736C104.545 2.32136 104.415 2.8612 104.303 3.45689C104.191 4.01535 104.135 4.59242 104.135 5.18811V25.7393C104.433 24.399 104.807 23.189 105.255 22.1094C105.703 21.0297 106.207 20.0245 106.767 19.0937C107.327 18.1257 107.942 17.2136 108.614 16.3573C109.286 15.4637 110.014 14.5516 110.798 13.6208C111.134 13.174 111.545 12.6528 112.03 12.0571C112.516 11.4614 112.982 10.8285 113.43 10.1584C113.915 9.48823 114.345 8.83669 114.718 8.20378C115.091 7.53363 115.334 6.91932 115.446 6.36087C115.633 5.50457 115.67 4.70411 115.558 3.9595C115.483 3.21489 115.353 2.56336 115.166 2.0049C114.979 1.37198 114.718 0.794908 114.382 0.273682Z" fill="white"></path><path d="M92.7506 34.5071C92.7506 35.14 92.8079 35.7357 92.9226 36.2942C93.0374 36.8526 93.1712 37.3739 93.3242 37.8579C93.4771 38.4163 93.6683 38.9375 93.8977 39.4215H87.875C88.1044 38.9375 88.2956 38.4163 88.4486 37.8579C88.6016 37.3739 88.7354 36.8526 88.8501 36.2942C88.9648 35.7357 89.0222 35.14 89.0222 34.5071V5.18811C89.0222 4.59242 88.9648 4.01535 88.8501 3.45689C88.7354 2.8612 88.6016 2.32136 88.4486 1.83736C88.2956 1.2789 88.1044 0.757678 87.875 0.273682H93.8977C93.6683 0.757678 93.4771 1.2789 93.3242 1.83736C93.1712 2.32136 93.0374 2.8612 92.9226 3.45689C92.8079 4.01535 92.7506 4.59242 92.7506 5.18811V34.5071Z" fill="white"></path><path d="M62.2417 5.13226L62.1872 5.18811C62.0056 4.59242 61.7876 4.01535 61.5333 3.45689C61.3154 2.8612 61.0792 2.32136 60.825 1.83736C60.5343 1.27891 60.2437 0.757678 59.9531 0.273682H65.6745C65.6019 0.571526 65.5474 0.925216 65.5111 1.33475C65.4747 1.66982 65.4566 2.06075 65.4566 2.50751C65.4566 2.95428 65.4929 3.43827 65.5656 3.9595L72.1588 37.802L78.5886 8.42716C78.6976 7.8687 78.8065 7.23578 78.9155 6.5284C79.0245 5.82102 79.0972 5.11364 79.1335 4.40627C79.2061 3.66166 79.2243 2.93566 79.188 2.22828C79.188 1.48367 79.1153 0.832138 78.97 0.273682H82.6753C82.4574 0.571526 82.1849 1.01829 81.858 1.61398C81.5674 2.17244 81.2586 2.80535 80.9316 3.51274C80.6047 4.22011 80.2778 4.98334 79.9508 5.80241C79.6602 6.62148 79.4241 7.44055 79.2425 8.25962L72.4313 39.3098V39.4215H68.8349L62.2417 5.13226Z" fill="white"></path><mask id="path-12-inside-1_1514_8439" fill="white"><path fill-rule="evenodd" clip-rule="evenodd" d="M1.1882 7.15574C1.37657 7.9783 1.56495 8.8009 1.7538 9.62343C1.84548 10.0227 1.93702 10.422 2.02857 10.8213C2.40649 12.4696 2.78439 14.1179 3.17154 15.764C3.29139 16.2736 3.58696 16.7049 3.89255 17.1192C4.34419 17.7308 4.88756 18.2521 5.62706 18.472C6.08872 18.6066 6.59936 18.6769 7.08065 18.7125C7.16747 18.7189 7.25427 18.7243 7.34107 18.7288C8.42197 18.7849 9.50096 18.6995 10.579 18.6062C10.7379 18.5925 10.897 18.5807 11.0562 18.5699C11.3556 18.5496 12.3192 18.4397 12.3192 18.4397C12.3192 18.4397 11.3478 18.6784 11.1863 18.7234C10.3933 18.9164 9.40441 19.4451 8.70706 19.818C8.54911 19.9024 8.40612 19.9789 8.28375 20.0416C8.05561 20.1673 7.65406 20.5191 7.65406 20.5191C5.05768 22.7585 5.68034 25.0009 6.21884 26.9402C6.49601 27.9384 6.75089 28.8563 6.53305 29.6522C6.5209 29.7379 6.50872 29.8226 6.49663 29.9067C6.4677 30.108 6.4393 30.3055 6.41321 30.5035C6.37313 30.8088 6.44018 31.0838 6.67024 31.299C6.85808 31.4747 7.05226 31.6437 7.24625 31.8126L7.28991 31.8506C7.69839 32.2058 7.83403 32.6088 7.63326 33.115C7.50554 33.4373 7.32939 33.7418 7.15425 34.0444C7.1233 34.0979 7.09238 34.1514 7.06177 34.2048C6.79333 34.6742 6.52234 35.1422 6.25133 35.6102C5.86484 36.2777 5.47832 36.9452 5.09912 37.6168C4.86906 38.0241 4.65056 38.4445 4.48601 38.8812C4.29771 39.3814 4.56352 40.2254 5.23462 39.9439C5.76562 39.7212 6.01056 39.2502 6.18506 38.7277C6.24634 38.5443 6.29482 38.3565 6.34333 38.1686C6.37688 38.0387 6.41044 37.9088 6.44826 37.7801C6.69913 36.9269 7.23902 36.264 7.87988 35.6877C8.31338 35.2972 8.84603 35.2307 9.37834 35.3289C9.86494 35.3891 10.32 35.5577 10.7736 35.7473C11.5042 36.0526 11.9551 36.582 12.1285 37.357C12.1348 37.3851 12.1445 37.413 12.1562 37.4402C12.1702 37.4726 12.1872 37.5039 12.2052 37.5334C12.2337 37.58 12.2626 37.6136 12.2914 37.634C12.2993 37.6396 12.3072 37.6442 12.315 37.6478C12.3806 37.678 12.4444 37.639 12.5004 37.5292C12.55 37.4315 12.5929 37.3306 12.6358 37.2296C12.6658 37.159 12.6958 37.0883 12.7281 37.0187C12.7393 36.9947 12.7493 36.9682 12.7596 36.9413C12.7852 36.8742 12.8118 36.8043 12.8583 36.7623C12.8897 36.7391 12.923 36.7241 12.947 36.7283C13.0129 36.7399 13.1054 36.8167 13.1166 36.8788C13.1435 37.0277 13.1435 37.1856 13.1289 37.3372C13.1171 37.4583 13.098 37.5787 13.0789 37.6992C13.0586 37.8273 13.0383 37.9553 13.0268 38.0842C13.0063 38.31 13.0919 38.3604 13.2857 38.2467C13.3231 38.2248 13.3598 38.2025 13.3958 38.1796C13.8737 37.8767 14.2289 37.487 14.2626 36.8605C14.2723 36.6829 14.3212 36.5033 14.3771 36.333C14.5092 35.9289 14.7601 35.7617 15.1821 35.7443C15.4888 35.7315 15.7971 35.7117 16.1 35.6644C16.49 35.6035 16.7786 35.3952 16.9509 35.0198C17.3563 34.1366 17.5698 33.2073 17.6473 32.2419C17.6688 31.9732 17.6905 31.7044 17.7121 31.4356C17.7573 30.8747 17.8024 30.3138 17.8473 29.7527C17.8632 29.5392 17.9644 29.3288 18.0616 29.1269C18.0914 29.0648 18.1209 29.0036 18.1474 28.9433C19.2572 26.4173 20.3831 27.2764 21.5889 28.1964C22.2458 28.6976 22.9265 29.217 23.6412 29.217C24.3559 29.217 25.0365 28.6976 25.6935 28.1964C26.8993 27.2764 28.0251 26.4173 29.135 28.9433C29.1614 29.0036 29.1909 29.0648 29.2208 29.1269C29.3179 29.3288 29.4192 29.5392 29.4351 29.7527C29.4799 30.3138 29.5251 30.8747 29.5702 31.4356C29.5919 31.7044 29.6135 31.9732 29.6351 32.2419C29.7126 33.2073 29.9261 34.1366 30.3315 35.0198C30.5037 35.3952 30.7923 35.6035 31.1823 35.6644C31.4852 35.7117 31.7935 35.7315 32.1003 35.7443C32.5222 35.7617 32.7731 35.9289 32.9053 36.333C32.9612 36.5033 33.0101 36.6829 33.0197 36.8605C33.0534 37.487 33.4087 37.8767 33.8865 38.1796C33.9226 38.2025 33.9593 38.2248 33.9966 38.2467C34.1905 38.3604 34.276 38.31 34.2556 38.0842C34.2441 37.9553 34.2238 37.8273 34.2034 37.6992C34.1843 37.5787 34.1652 37.4583 34.1535 37.3372C34.1388 37.1856 34.1388 37.0277 34.1658 36.8788C34.177 36.8167 34.2695 36.7399 34.3354 36.7283C34.3593 36.7241 34.3927 36.7391 34.4241 36.7623C34.4705 36.8043 34.4972 36.8742 34.5228 36.9413C34.533 36.9682 34.5431 36.9947 34.5542 37.0187C34.5866 37.0883 34.6166 37.159 34.6466 37.2296C34.6895 37.3306 34.7323 37.4315 34.782 37.5292C34.8379 37.639 34.9018 37.678 34.9673 37.6478C34.9752 37.6442 34.9831 37.6396 34.991 37.634C35.0197 37.6136 35.0486 37.58 35.0772 37.5334C35.0952 37.5039 35.1122 37.4726 35.1261 37.4402C35.1379 37.413 35.1475 37.3851 35.1539 37.357C35.3273 36.582 35.7781 36.0526 36.5088 35.7473C36.9624 35.5577 37.4174 35.3891 37.904 35.3289C38.4363 35.2307 38.969 35.2972 39.4025 35.6877C40.0433 36.264 40.5832 36.9269 40.8341 37.7801C40.8719 37.9088 40.9055 38.0387 40.939 38.1686C40.9875 38.3565 41.036 38.5443 41.0973 38.7277C41.2718 39.2502 41.5167 39.7212 42.0477 39.9439C42.7188 40.2254 42.9846 39.3814 42.7963 38.8812C42.6318 38.4445 42.4133 38.0241 42.1832 37.6168C41.804 36.9452 41.4175 36.2777 41.0311 35.6103C40.76 35.1422 40.489 34.6742 40.2206 34.2048C40.19 34.1514 40.1591 34.0979 40.1281 34.0445C39.953 33.7418 39.7768 33.4373 39.6491 33.115C39.4483 32.6088 39.584 32.2058 39.9924 31.8506L40.0361 31.8126C40.2301 31.6437 40.4243 31.4747 40.6121 31.299C40.8422 31.0838 40.9092 30.8088 40.8691 30.5035C40.843 30.3054 40.8146 30.1079 40.7857 29.9066C40.7736 29.8226 40.7614 29.7379 40.7493 29.6522C40.5315 28.8563 40.7863 27.9384 41.0635 26.9402C41.602 25.0009 42.2247 22.7585 39.6283 20.5191C39.6283 20.5191 39.2267 20.1673 38.9986 20.0416C38.8762 19.9789 38.7332 19.9024 38.5753 19.818C37.8779 19.4451 36.8891 18.9164 36.096 18.7234C35.9346 18.6784 34.9632 18.4397 34.9632 18.4397C34.9632 18.4397 35.9267 18.5496 36.2261 18.5699C36.3853 18.5807 36.5445 18.5925 36.7034 18.6062C37.7814 18.6995 38.8604 18.7849 39.9413 18.7288C40.0281 18.7243 40.1149 18.7189 40.2017 18.7125C40.683 18.6769 41.1936 18.6066 41.6553 18.472C42.3948 18.2521 42.9382 17.7308 43.3898 17.1192C43.6954 16.7049 43.991 16.2736 44.1108 15.764C44.4979 14.118 44.8758 12.4698 45.2537 10.8216C45.3453 10.4222 45.4369 10.0228 45.5286 9.62343C45.7174 8.80093 45.9058 7.97837 46.0941 7.15585C46.3847 5.88698 46.6752 4.6182 46.9675 3.34984C47.0011 3.20348 47.044 3.05528 47.0871 2.90595C47.1846 2.56883 47.2837 2.22598 47.2823 1.88564V1.41485C47.2823 1.25369 47.2332 1.13377 47.1633 0.986632C46.9902 0.622822 46.6792 0.426955 46.3166 0.306331C46.0728 0.225108 45.828 0.160245 45.5821 0.111674C45.2368 0.0326199 44.8857 -0.0126513 44.528 0.00311624C44.108 -0.000925514 43.6854 0.0412996 43.2607 0.129468L43.1064 0.161572C42.9646 0.184102 42.8232 0.208469 42.6823 0.234548C41.6923 0.417616 40.7119 0.648779 39.8179 1.14136C38.2044 2.03033 36.6895 3.07638 35.2914 4.26942C34.3354 5.08503 33.44 5.9737 32.5456 6.86141C32.3516 7.05398 32.1576 7.2465 31.9631 7.43822C31.3719 8.02078 30.7815 8.6142 30.2698 9.26541C30.2046 9.34833 30.1396 9.43133 30.0747 9.51442C29.4095 10.3187 28.7896 11.1609 28.1717 12.0039C27.7106 12.6189 27.2531 13.2365 26.7977 13.8557C26.7158 13.9671 26.6328 14.0779 26.5498 14.1889C26.0569 14.8475 25.5619 15.509 25.2694 16.296L25.2678 16.3004C25.2617 16.3168 25.2485 16.323 25.2335 16.312C25.0358 16.068 25.0266 15.9905 25.168 15.7519C25.4824 15.2213 25.23 14.5399 24.6447 14.351C24.5671 14.3259 24.4862 14.3114 24.4015 14.2962C24.362 14.2891 24.3217 14.2819 24.2805 14.2734C24.2876 14.234 24.2911 14.1926 24.2945 14.1517C24.3018 14.0642 24.3089 13.9788 24.3514 13.9185C24.5996 13.5675 24.8516 13.2153 25.1391 12.8969C25.4231 12.5823 25.7151 12.2749 26.007 11.9675C26.3537 11.6025 26.7003 11.2375 27.0335 10.8607C27.4882 10.346 27.9488 9.82276 28.311 9.24291C28.5877 8.79984 28.8063 8.31965 29.0248 7.83989C29.1085 7.65611 29.1921 7.47238 29.279 7.29083C29.3003 7.24651 29.3214 7.20334 29.3422 7.16072C29.4137 7.01423 29.4821 6.87427 29.5442 6.71684C29.5875 6.60684 29.6422 6.32424 29.4794 6.26917C29.3601 6.22886 29.2315 6.34994 29.1615 6.54343C29.0567 6.83355 28.9599 7.12754 28.8767 7.42464C28.6582 8.20307 28.4112 8.97645 27.9129 9.61991C27.3815 10.3064 26.8116 10.9646 26.2285 11.6077C26.1329 11.7131 26.0369 11.818 25.941 11.9229C25.3979 12.5166 24.8556 13.1094 24.3984 13.7762C24.3842 13.7967 24.3645 13.8135 24.3454 13.8298C24.3371 13.8369 24.3289 13.8439 24.3213 13.851C24.1521 13.7178 23.8979 13.6495 23.6412 13.6469C23.3844 13.6495 23.1303 13.7178 22.961 13.851C22.9534 13.8439 22.9452 13.8369 22.9369 13.8298C22.9178 13.8135 22.8982 13.7967 22.8839 13.7762C22.4268 13.1094 21.8844 12.5166 21.3414 11.9229C21.2454 11.818 21.1494 11.7131 21.0539 11.6077C20.4708 10.9646 19.9009 10.3064 19.3694 9.61991C18.8712 8.97645 18.6242 8.20307 18.4057 7.42464C18.3224 7.12754 18.2257 6.83355 18.1209 6.54343C18.0509 6.34994 17.9222 6.22886 17.803 6.26917C17.6401 6.32424 17.6948 6.60684 17.7382 6.71684C17.8003 6.87427 17.8686 7.01423 17.9402 7.16072C17.961 7.20334 17.9821 7.24651 18.0033 7.29083C18.0902 7.47238 18.1739 7.65611 18.2576 7.83989C18.476 8.31965 18.6947 8.79984 18.9714 9.24291C19.3336 9.82276 19.7941 10.346 20.2488 10.8607C20.5821 11.2375 20.9287 11.6025 21.2753 11.9675C21.5673 12.2749 21.8593 12.5823 22.1433 12.8969C22.4308 13.2153 22.6828 13.5675 22.931 13.9185C22.9735 13.9788 22.9806 14.0642 22.9879 14.1517C22.9913 14.1926 22.9947 14.234 23.0019 14.2734C22.9607 14.2819 22.9204 14.2891 22.8809 14.2962C22.7962 14.3114 22.7152 14.3259 22.6377 14.351C22.0523 14.5399 21.7999 15.2213 22.1144 15.7519C22.2558 15.9905 22.2465 16.068 22.0489 16.312C22.0339 16.323 22.0207 16.3168 22.0146 16.3004L22.0129 16.296C21.7204 15.509 21.2254 14.8475 20.7326 14.1889C20.6496 14.0779 20.5666 13.9671 20.4847 13.8557C20.0293 13.2365 19.5717 12.6189 19.1106 12.0039C18.4928 11.1609 17.8729 10.3187 17.2077 9.51442C17.1427 9.43133 17.0777 9.34833 17.0126 9.26541C16.5008 8.6142 15.9104 8.02078 15.3193 7.43822C15.1248 7.2465 14.9308 7.05399 14.7368 6.86143C13.8423 5.97371 12.947 5.08503 11.9909 4.26942C10.5928 3.07638 9.07797 2.03033 7.46447 1.14136C6.57043 0.648779 5.59007 0.417616 4.60008 0.234548C4.45919 0.208469 4.31776 0.184102 4.17594 0.161572L4.02165 0.129468C3.59695 0.0412996 3.1744 -0.000925514 2.75437 0.00311624C2.39661 -0.0126513 2.04553 0.0326199 1.70023 0.111674C1.45438 0.160245 1.20952 0.225108 0.965728 0.306331C0.603103 0.426955 0.292116 0.622822 0.119088 0.986632C0.0491179 1.13377 1.3829e-05 1.25369 1.3829e-05 1.41485V1.88564C-0.00134564 2.22598 0.0977584 2.56883 0.195208 2.90595C0.238373 3.05528 0.281213 3.20348 0.314853 3.34984C0.607098 4.61816 0.897642 5.88691 1.1882 7.15574Z"></path></mask><path d="M25.7757 16.4842C25.8796 16.2046 25.7372 15.8936 25.4576 15.7897C25.178 15.6858 24.8671 15.8282 24.7631 16.1078L25.7757 16.4842ZM24.7615 16.1122C24.6576 16.3918 24.8 16.7027 25.0796 16.8066C25.3592 16.9106 25.6701 16.7682 25.7741 16.4886L24.7615 16.1122ZM6.93528 32.2579C7.16028 32.4538 7.50145 32.4302 7.6973 32.2052C7.89316 31.9802 7.86953 31.639 7.64453 31.4432L6.93528 32.2579ZM7.60088 31.4052C7.37588 31.2093 7.03471 31.2329 6.83885 31.4579C6.643 31.6829 6.66662 32.0241 6.89162 32.22L7.60088 31.4052ZM24.7631 16.1078L24.7615 16.1122L25.7741 16.4886L25.7757 16.4842L24.7631 16.1078ZM7.64453 31.4432L7.60088 31.4052L6.89162 32.22L6.93528 32.2579L7.64453 31.4432ZM1.7538 9.62343L0.700944 9.86516L0.700948 9.86518L1.7538 9.62343ZM1.1882 7.15574L2.24119 6.91461H2.24119L1.1882 7.15574ZM2.02857 10.8213L3.0815 10.5799L2.02857 10.8213ZM3.17154 15.764L4.2231 15.5167L4.22309 15.5167L3.17154 15.764ZM3.89255 17.1192L3.02326 17.7605L3.02354 17.7608L3.89255 17.1192ZM5.62706 18.472L5.31914 19.5075L5.32469 19.5091L5.62706 18.472ZM7.08065 18.7125L7.00112 19.7898L7.00124 19.7898L7.08065 18.7125ZM7.34107 18.7288L7.39708 17.65H7.39706L7.34107 18.7288ZM10.579 18.6062L10.486 17.53L10.4858 17.53L10.579 18.6062ZM11.0562 18.5699L10.9832 17.4921L10.9831 17.4921L11.0562 18.5699ZM12.3192 18.4397L12.577 19.4888C13.1304 19.3528 13.483 18.8102 13.3825 18.2493C13.282 17.6883 12.7631 17.3019 12.1968 17.3664L12.3192 18.4397ZM11.1863 18.7234L11.4417 19.773C11.4533 19.7702 11.4648 19.7672 11.4763 19.764L11.1863 18.7234ZM8.70706 19.818L8.1977 18.8653L8.19769 18.8654L8.70706 19.818ZM8.28375 20.0416L7.79086 19.0804C7.78135 19.0853 7.77191 19.0903 7.76254 19.0954L8.28375 20.0416ZM7.65406 20.5191L8.35964 21.3371L8.36591 21.3316L7.65406 20.5191ZM6.21884 26.9402L5.17798 27.2293L5.17798 27.2293L6.21884 26.9402ZM6.53305 29.6522L5.49113 29.367C5.47911 29.4109 5.46988 29.4555 5.4635 29.5006L6.53305 29.6522ZM6.49663 29.9067L7.56588 30.0604V30.0604L6.49663 29.9067ZM6.41321 30.5035L5.34221 30.3624L5.34215 30.3629L6.41321 30.5035ZM6.67024 31.299L5.93219 32.0878L5.9323 32.0879L6.67024 31.299ZM7.24625 31.8126L7.95551 30.9978L7.95542 30.9977L7.24625 31.8126ZM7.28991 31.8506L6.58065 32.6653L6.58099 32.6656L7.28991 31.8506ZM7.63326 33.115L6.62913 32.7167L6.62897 32.7171L7.63326 33.115ZM7.15425 34.0444L8.08925 34.5855L8.08927 34.5855L7.15425 34.0444ZM7.06177 34.2048L6.12431 33.6681L6.12404 33.6686L7.06177 34.2048ZM6.25133 35.6102L7.18616 36.1515L7.18616 36.1515L6.25133 35.6102ZM5.09912 37.6168L6.03967 38.1482L6.0398 38.1479L5.09912 37.6168ZM4.48601 38.8812L3.47514 38.5004L3.47504 38.5006L4.48601 38.8812ZM5.23462 39.9439L4.81682 38.9478L4.8168 38.9478L5.23462 39.9439ZM6.18506 38.7277L5.16047 38.3854L5.16044 38.3855L6.18506 38.7277ZM6.34333 38.1686L7.38927 38.4387H7.38927L6.34333 38.1686ZM6.44826 37.7801L7.48464 38.0849L7.48464 38.0849L6.44826 37.7801ZM7.87988 35.6877L8.60224 36.4909L8.6028 36.4904L7.87988 35.6877ZM9.37834 35.3289L9.18241 36.3912C9.20337 36.3951 9.22443 36.3983 9.24558 36.4009L9.37834 35.3289ZM10.7736 35.7473L10.357 36.744L10.3572 36.7441L10.7736 35.7473ZM12.1285 37.357L11.0743 37.5929L11.0746 37.5941L12.1285 37.357ZM12.1562 37.4402L13.1479 37.0118L13.1478 37.0117L12.1562 37.4402ZM12.2052 37.5334L11.2831 38.0962L11.2841 38.0979L12.2052 37.5334ZM12.2914 37.634L11.6656 38.5145L11.666 38.5148L12.2914 37.634ZM12.315 37.6478L12.7668 36.6666L12.7667 36.6665L12.315 37.6478ZM12.5004 37.5292L13.463 38.0193L13.4633 38.0187L12.5004 37.5292ZM12.6358 37.2296L13.6301 37.6519L12.6358 37.2296ZM12.7281 37.0187L13.7077 37.4741L13.7086 37.4722L12.7281 37.0187ZM12.7596 36.9413L13.769 37.3261L13.769 37.326L12.7596 36.9413ZM12.8583 36.7623L12.2172 35.8928C12.1882 35.9142 12.1602 35.9371 12.1335 35.9613L12.8583 36.7623ZM12.947 36.7283L13.1348 35.6645L13.1313 35.6639L12.947 36.7283ZM13.1166 36.8788L12.0534 37.0702L12.0536 37.0713L13.1166 36.8788ZM13.1289 37.3372L14.2041 37.4417L14.2041 37.441L13.1289 37.3372ZM13.0789 37.6992L12.012 37.53L12.012 37.53L13.0789 37.6992ZM13.0268 38.0842L14.1026 38.1816L14.1027 38.1804L13.0268 38.0842ZM13.2857 38.2467L13.8321 39.1786L13.8325 39.1784L13.2857 38.2467ZM13.3958 38.1796L13.9742 39.092L13.9742 39.092L13.3958 38.1796ZM14.2626 36.8605L13.184 36.802L13.1839 36.8025L14.2626 36.8605ZM14.3771 36.333L15.4035 36.6699L15.4038 36.6688L14.3771 36.333ZM15.1821 35.7443L15.2267 36.8236L15.2271 36.8236L15.1821 35.7443ZM16.1 35.6644L15.9334 34.5971L15.9333 34.5971L16.1 35.6644ZM16.9509 35.0198L15.9691 34.5691L15.9691 34.5693L16.9509 35.0198ZM17.6473 32.2419L16.5705 32.1554L16.5705 32.1555L17.6473 32.2419ZM17.7121 31.4356L16.6354 31.3489V31.3489L17.7121 31.4356ZM17.8473 29.7527L18.9241 29.8387L18.9245 29.8329L17.8473 29.7527ZM18.0616 29.1269L19.035 29.5953L19.035 29.5953L18.0616 29.1269ZM18.1474 28.9433L19.1364 29.3778L19.1364 29.3778L18.1474 28.9433ZM21.5889 28.1964L20.9336 29.0552L21.5889 28.1964ZM25.6935 28.1964L26.3487 29.0552L25.6935 28.1964ZM29.135 28.9433L28.146 29.3778L28.146 29.3778L29.135 28.9433ZM29.2208 29.1269L28.2473 29.5953L28.2474 29.5953L29.2208 29.1269ZM29.4351 29.7527L28.3578 29.8329L28.3583 29.8387L29.4351 29.7527ZM29.5702 31.4356L30.647 31.3489V31.3489L29.5702 31.4356ZM29.6351 32.2419L30.7119 32.1555L30.7119 32.1554L29.6351 32.2419ZM30.3315 35.0198L31.3133 34.5693L31.3132 34.5691L30.3315 35.0198ZM31.1823 35.6644L31.3491 34.5971L31.349 34.5971L31.1823 35.6644ZM32.1003 35.7443L32.0552 36.8236L32.0556 36.8236L32.1003 35.7443ZM32.9053 36.333L31.8786 36.6688L31.8789 36.6699L32.9053 36.333ZM33.0197 36.8605L34.0984 36.8025L34.0984 36.802L33.0197 36.8605ZM33.8865 38.1796L33.3081 39.092L33.3082 39.092L33.8865 38.1796ZM33.9966 38.2467L33.4498 39.1784L33.4503 39.1786L33.9966 38.2467ZM34.2556 38.0842L33.1796 38.1804L33.1797 38.1816L34.2556 38.0842ZM34.2034 37.6992L35.2704 37.53L35.2704 37.53L34.2034 37.6992ZM34.1535 37.3372L33.0782 37.441L33.0783 37.4417L34.1535 37.3372ZM34.1658 36.8788L35.2287 37.0713L35.229 37.0702L34.1658 36.8788ZM34.3354 36.7283L34.1511 35.6639L34.1475 35.6645L34.3354 36.7283ZM34.4241 36.7623L35.1489 35.9613C35.1221 35.9371 35.0942 35.9142 35.0651 35.8928L34.4241 36.7623ZM34.5228 36.9413L33.5133 37.326L33.5133 37.326L34.5228 36.9413ZM34.5542 37.0187L33.5737 37.4722L33.5747 37.4741L34.5542 37.0187ZM34.6466 37.2296L35.6409 36.8073L35.6409 36.8073L34.6466 37.2296ZM34.782 37.5292L33.819 38.0187L33.8193 38.0193L34.782 37.5292ZM34.9673 37.6478L34.5158 36.6665L34.5156 36.6666L34.9673 37.6478ZM34.991 37.634L35.6163 38.5148L35.6168 38.5145L34.991 37.634ZM35.0772 37.5334L35.9982 38.0979L35.9992 38.0962L35.0772 37.5334ZM35.1261 37.4402L34.1345 37.0117L34.1345 37.0118L35.1261 37.4402ZM35.1539 37.357L36.2077 37.5941L36.208 37.5929L35.1539 37.357ZM36.5088 35.7473L36.9252 36.7441L36.9254 36.744L36.5088 35.7473ZM37.904 35.3289L38.0368 36.4009C38.0579 36.3983 38.079 36.3951 38.0999 36.3912L37.904 35.3289ZM39.4025 35.6877L38.6796 36.4904L38.6801 36.4909L39.4025 35.6877ZM40.8341 37.7801L39.7977 38.0849L39.7977 38.0849L40.8341 37.7801ZM40.939 38.1686L41.985 37.8986V37.8986L40.939 38.1686ZM41.0973 38.7277L42.1219 38.3855L42.1219 38.3854L41.0973 38.7277ZM42.0477 39.9439L42.4656 38.9478L42.4655 38.9478L42.0477 39.9439ZM42.7963 38.8812L43.8073 38.5006L43.8072 38.5004L42.7963 38.8812ZM42.1832 37.6168L41.2425 38.1479L41.2427 38.1482L42.1832 37.6168ZM41.0311 35.6103L41.9659 35.069H41.9659L41.0311 35.6103ZM40.2206 34.2048L41.1583 33.6686L41.158 33.6681L40.2206 34.2048ZM40.1281 34.0445L39.1931 34.5855L39.1931 34.5855L40.1281 34.0445ZM39.6491 33.115L40.6534 32.7171L40.6532 32.7167L39.6491 33.115ZM39.9924 31.8506L40.7014 32.6656L40.7017 32.6654L39.9924 31.8506ZM40.0361 31.8126L39.3269 30.9977L39.3269 30.9978L40.0361 31.8126ZM40.6121 31.299L41.3501 32.0879L41.3502 32.0878L40.6121 31.299ZM40.8691 30.5035L41.9402 30.3629L41.9401 30.3624L40.8691 30.5035ZM40.7857 29.9066L41.855 29.7529L41.855 29.7529L40.7857 29.9066ZM40.7493 29.6522L41.8189 29.5006C41.8125 29.4555 41.8032 29.4109 41.7912 29.367L40.7493 29.6522ZM41.0635 26.9402L40.0226 26.6512V26.6512L41.0635 26.9402ZM39.6283 20.5191L38.9164 21.3316L38.9227 21.3371L39.6283 20.5191ZM38.9986 20.0416L39.5198 19.0954C39.5104 19.0903 39.501 19.0853 39.4915 19.0804L38.9986 20.0416ZM38.5753 19.818L39.0847 18.8654L39.0847 18.8653L38.5753 19.818ZM36.096 18.7234L35.8061 19.764C35.8175 19.7672 35.8291 19.7702 35.8406 19.773L36.096 18.7234ZM34.9632 18.4397L35.0855 17.3664C34.5193 17.3019 34.0003 17.6883 33.8998 18.2493C33.7994 18.8102 34.152 19.3528 34.7054 19.4888L34.9632 18.4397ZM36.2261 18.5699L36.2992 17.4921L36.2992 17.4921L36.2261 18.5699ZM36.7034 18.6062L36.7966 17.53L36.7964 17.53L36.7034 18.6062ZM39.9413 18.7288L39.8853 17.65H39.8853L39.9413 18.7288ZM40.2017 18.7125L40.2811 19.7898L40.2812 19.7898L40.2017 18.7125ZM41.6553 18.472L41.9577 19.5091L41.9632 19.5074L41.6553 18.472ZM43.3898 17.1192L44.2588 17.7608L44.2591 17.7605L43.3898 17.1192ZM44.1108 15.764L43.0593 15.5167L43.0592 15.5167L44.1108 15.764ZM45.2537 10.8216L46.3066 11.063V11.063L45.2537 10.8216ZM45.5286 9.62343L46.5814 9.86518L46.5814 9.86516L45.5286 9.62343ZM46.0941 7.15585L45.0411 6.91471V6.91471L46.0941 7.15585ZM46.9675 3.34984L48.0202 3.5924L48.0203 3.59183L46.9675 3.34984ZM47.0871 2.90595L46.0494 2.60597L46.0494 2.60598L47.0871 2.90595ZM47.2823 1.88564H46.2021L46.2021 1.88996L47.2823 1.88564ZM47.1633 0.986632L48.1388 0.522711L48.1388 0.522669L47.1633 0.986632ZM46.3166 0.306331L45.9752 1.33119L45.9757 1.33136L46.3166 0.306331ZM45.5821 0.111674L45.341 1.16468C45.3516 1.16709 45.3622 1.16934 45.3728 1.17144L45.5821 0.111674ZM44.528 0.00311624L44.5176 1.08331C44.5369 1.0835 44.5562 1.08317 44.5755 1.08232L44.528 0.00311624ZM43.2607 0.129468L43.0411 -0.928227L43.0406 -0.928127L43.2607 0.129468ZM43.1064 0.161572L43.2759 1.22844C43.2928 1.22575 43.3097 1.22266 43.3265 1.21917L43.1064 0.161572ZM42.6823 0.234548L42.8787 1.29679L42.8789 1.29675L42.6823 0.234548ZM39.8179 1.14136L40.3392 2.08751V2.0875L39.8179 1.14136ZM35.2914 4.26942L35.9925 5.09124L35.9926 5.09115L35.2914 4.26942ZM32.5456 6.86141L33.3066 7.62813L33.3066 7.62813L32.5456 6.86141ZM31.9631 7.43822L32.7213 8.20763L32.7213 8.20762L31.9631 7.43822ZM30.2698 9.26541L29.4204 8.59793L29.4203 8.59807L30.2698 9.26541ZM30.0747 9.51442L30.9071 10.2029C30.9134 10.1952 30.9197 10.1875 30.9258 10.1796L30.0747 9.51442ZM28.1717 12.0039L29.0361 12.652L29.043 12.6425L28.1717 12.0039ZM26.7977 13.8557L27.6679 14.4958L27.6679 14.4957L26.7977 13.8557ZM26.5498 14.1889L25.6849 13.5417L25.6849 13.5417L26.5498 14.1889ZM25.2694 16.296L26.282 16.6724L26.282 16.6723L25.2694 16.296ZM25.2678 16.3004L24.2552 15.924L24.2549 15.925L25.2678 16.3004ZM25.2335 16.312L24.3942 16.9921C24.4523 17.0638 24.5194 17.1278 24.5937 17.1824L25.2335 16.312ZM25.168 15.7519L26.0972 16.3029L26.0973 16.3027L25.168 15.7519ZM24.6447 14.351L24.3116 15.3786L24.3129 15.379L24.6447 14.351ZM24.4015 14.2962L24.5918 13.2329L24.5918 13.2329L24.4015 14.2962ZM24.2805 14.2734L23.2174 14.0814C23.1133 14.6581 23.4879 15.2127 24.0618 15.3313L24.2805 14.2734ZM24.2945 14.1517L23.2179 14.0621L23.2179 14.0621L24.2945 14.1517ZM24.3514 13.9185L23.4693 13.2949L23.4689 13.2955L24.3514 13.9185ZM25.1391 12.8969L24.3373 12.173L24.3373 12.173L25.1391 12.8969ZM26.007 11.9675L25.2237 11.2236V11.2236L26.007 11.9675ZM27.0335 10.8607L27.8428 11.5762L27.8431 11.5759L27.0335 10.8607ZM28.311 9.24291L29.2272 9.81526L29.2273 9.81507L28.311 9.24291ZM29.0248 7.83989L30.0079 8.28757L30.0079 8.28756L29.0248 7.83989ZM29.279 7.29083L28.3052 6.82329L28.3046 6.82452L29.279 7.29083ZM29.3422 7.16072L30.3129 7.63476L30.3129 7.63475L29.3422 7.16072ZM29.5442 6.71684L30.5491 7.11317L30.5491 7.11314L29.5442 6.71684ZM29.4794 6.26917L29.1334 7.29252L29.1334 7.29252L29.4794 6.26917ZM29.1615 6.54343L28.1457 6.17592L28.1455 6.17636L29.1615 6.54343ZM28.8767 7.42464L29.9168 7.71658L29.9169 7.71607L28.8767 7.42464ZM27.9129 9.61991L27.0588 8.95852L27.0587 8.95867L27.9129 9.61991ZM26.2285 11.6077L27.0287 12.3333L27.0288 12.3333L26.2285 11.6077ZM25.941 11.9229L26.738 12.6521L26.738 12.652L25.941 11.9229ZM24.3984 13.7762L25.2864 14.3914L25.2894 14.387L24.3984 13.7762ZM24.3454 13.8298L23.6443 13.008L23.6442 13.0081L24.3454 13.8298ZM24.3213 13.851L23.6533 14.7C24.0741 15.0311 24.6739 15.004 25.0631 14.6364L24.3213 13.851ZM23.6412 13.6469L23.6524 12.5667C23.6449 12.5666 23.6374 12.5666 23.6299 12.5667L23.6412 13.6469ZM22.961 13.851L22.2193 14.6364C22.6085 15.004 23.2083 15.0311 23.6291 14.7L22.961 13.851ZM22.9369 13.8298L23.6381 13.0081L23.6381 13.008L22.9369 13.8298ZM22.8839 13.7762L21.993 14.3871L21.996 14.3914L22.8839 13.7762ZM21.3414 11.9229L20.5443 12.652L20.5443 12.6521L21.3414 11.9229ZM21.0539 11.6077L20.2536 12.3333L20.2536 12.3333L21.0539 11.6077ZM19.3694 9.61991L20.2237 8.95867L20.2235 8.95852L19.3694 9.61991ZM18.4057 7.42464L17.3655 7.71607L17.3656 7.71658L18.4057 7.42464ZM18.1209 6.54343L19.1368 6.17636L19.1367 6.17592L18.1209 6.54343ZM17.803 6.26917L18.149 7.29252L18.149 7.29252L17.803 6.26917ZM17.7382 6.71684L16.7333 7.11314L16.7333 7.11317L17.7382 6.71684ZM17.9402 7.16072L16.9695 7.63475L16.9695 7.63476L17.9402 7.16072ZM18.0033 7.29083L18.9777 6.82451L18.9772 6.82329L18.0033 7.29083ZM18.2576 7.83989L17.2744 8.28756L17.2744 8.28757L18.2576 7.83989ZM18.9714 9.24291L18.0551 9.81507L18.0552 9.81526L18.9714 9.24291ZM20.2488 10.8607L19.4393 11.5759L19.4396 11.5762L20.2488 10.8607ZM21.2753 11.9675L22.0586 11.2236V11.2236L21.2753 11.9675ZM22.1433 12.8969L22.9451 12.173L22.9451 12.173L22.1433 12.8969ZM22.931 13.9185L23.8134 13.2955L23.813 13.2949L22.931 13.9185ZM22.9879 14.1517L24.0644 14.0621L24.0644 14.0621L22.9879 14.1517ZM23.0019 14.2734L23.2205 15.3313C23.7944 15.2127 24.1691 14.6581 24.0649 14.0814L23.0019 14.2734ZM22.8809 14.2962L22.6905 13.2329L22.6905 13.2329L22.8809 14.2962ZM22.6377 14.351L22.9694 15.379L22.9708 15.3786L22.6377 14.351ZM22.1144 15.7519L21.1851 16.3027L21.1852 16.3029L22.1144 15.7519ZM22.0489 16.312L22.6886 17.1824C22.763 17.1278 22.83 17.0638 22.8881 16.9921L22.0489 16.312ZM22.0146 16.3004L23.0275 15.925L23.0271 15.924L22.0146 16.3004ZM22.0129 16.296L21.0004 16.6723L21.0004 16.6724L22.0129 16.296ZM20.7326 14.1889L21.5975 13.5417L21.5975 13.5417L20.7326 14.1889ZM20.4847 13.8557L19.6145 14.4957L19.6145 14.4958L20.4847 13.8557ZM19.1106 12.0039L18.2393 12.6425L18.2463 12.6519L19.1106 12.0039ZM17.2077 9.51442L16.3566 10.1796C16.3627 10.1875 16.3689 10.1952 16.3752 10.2029L17.2077 9.51442ZM17.0126 9.26541L17.862 8.59807L17.8619 8.59793L17.0126 9.26541ZM15.3193 7.43822L14.561 8.20762L14.561 8.20763L15.3193 7.43822ZM14.7368 6.86143L15.4977 6.09471L15.4977 6.09471L14.7368 6.86143ZM11.9909 4.26942L11.2897 5.09115L11.2898 5.09124L11.9909 4.26942ZM7.46447 1.14136L6.94318 2.0875L6.94318 2.08751L7.46447 1.14136ZM4.60008 0.234548L4.40346 1.29675L4.40365 1.29679L4.60008 0.234548ZM4.17594 0.161572L3.95588 1.21917C3.97266 1.22266 3.98952 1.22575 4.00645 1.22844L4.17594 0.161572ZM4.02165 0.129468L4.24171 -0.928127L4.24123 -0.928227L4.02165 0.129468ZM2.75437 0.00311624L2.70681 1.08232C2.72611 1.08317 2.74544 1.0835 2.76476 1.08331L2.75437 0.00311624ZM1.70023 0.111674L1.9096 1.17144C1.9202 1.16934 1.93077 1.16709 1.94131 1.16468L1.70023 0.111674ZM0.965728 0.306331L1.30669 1.33136L1.30718 1.33119L0.965728 0.306331ZM0.119088 0.986632L-0.856448 0.522669L-0.856465 0.522705L0.119088 0.986632ZM1.3829e-05 1.88564L1.08026 1.88995V1.88564H1.3829e-05ZM0.195208 2.90595L-0.842553 3.20593L-0.842553 3.20593L0.195208 2.90595ZM0.314853 3.34984L-0.737943 3.59182L-0.73781 3.5924L0.314853 3.34984ZM2.80665 9.3817C2.61788 8.55951 2.42957 7.73722 2.24119 6.91461L0.135215 7.39688C0.32357 8.21939 0.512013 9.04228 0.700944 9.86516L2.80665 9.3817ZM3.0815 10.5799C2.98996 10.1806 2.89837 9.78115 2.80664 9.38168L0.700948 9.86518C0.792581 10.2642 0.884089 10.6634 0.975643 11.0627L3.0815 10.5799ZM4.22309 15.5167C3.83676 13.8741 3.45953 12.2287 3.0815 10.5799L0.975643 11.0627C1.35344 12.7105 1.73203 14.3618 2.11999 16.0113L4.22309 15.5167ZM4.76184 16.4779C4.45472 16.0616 4.28701 15.7885 4.2231 15.5167L2.11998 16.0113C2.29576 16.7588 2.71919 17.3483 3.02326 17.7605L4.76184 16.4779ZM5.93498 17.4366C5.51889 17.3128 5.15078 17.0046 4.76156 16.4775L3.02354 17.7608C3.53761 18.457 4.25622 19.1913 5.31915 19.5074L5.93498 17.4366ZM7.16018 17.6352C6.7197 17.6026 6.29129 17.5404 5.92944 17.4349L5.32469 19.5091C5.88614 19.6728 6.47902 19.7512 7.00112 19.7898L7.16018 17.6352ZM7.39706 17.65C7.31783 17.6459 7.23883 17.641 7.16006 17.6351L7.00124 19.7898C7.0961 19.7968 7.19071 19.8027 7.28507 19.8076L7.39706 17.65ZM10.4858 17.53C9.40305 17.6237 8.39365 17.7017 7.39708 17.65L7.28505 19.8076C8.45028 19.8681 9.59886 19.7754 10.6722 19.6824L10.4858 17.53ZM10.9831 17.4921C10.8197 17.5032 10.6536 17.5155 10.486 17.53L10.672 19.6824C10.8222 19.6694 10.9743 19.6582 11.1293 19.6477L10.9831 17.4921ZM12.3192 18.4397C12.1968 17.3664 12.1968 17.3664 12.1968 17.3664C12.1968 17.3664 12.1968 17.3664 12.1968 17.3664C12.1968 17.3664 12.1968 17.3664 12.1967 17.3664C12.1966 17.3665 12.1965 17.3665 12.1962 17.3665C12.1958 17.3666 12.1952 17.3666 12.1943 17.3667C12.1925 17.3669 12.1899 17.3672 12.1864 17.3676C12.1795 17.3684 12.1692 17.3696 12.1559 17.3711C12.1294 17.3741 12.091 17.3784 12.044 17.3836C11.9499 17.3942 11.8216 17.4084 11.6842 17.4232C11.399 17.4539 11.1069 17.4837 10.9832 17.4921L11.1293 19.6477C11.305 19.6358 11.6444 19.6005 11.9158 19.5712C12.0567 19.556 12.188 19.5415 12.2839 19.5308C12.3319 19.5254 12.3712 19.521 12.3985 19.5179C12.4122 19.5164 12.4229 19.5151 12.4302 19.5143C12.4338 19.5139 12.4366 19.5136 12.4385 19.5134C12.4395 19.5133 12.4402 19.5132 12.4407 19.5131C12.441 19.5131 12.4412 19.5131 12.4413 19.5131C12.4414 19.513 12.4415 19.513 12.4415 19.513C12.4415 19.513 12.4415 19.513 12.4415 19.513C12.4416 19.513 12.4416 19.513 12.3192 18.4397ZM11.4763 19.764C11.538 19.7468 11.8006 19.6809 12.0736 19.6131C12.2044 19.5807 12.3303 19.5496 12.4235 19.5266C12.4702 19.5151 12.5086 19.5056 12.5353 19.499C12.5487 19.4957 12.5591 19.4932 12.5662 19.4914C12.5697 19.4905 12.5725 19.4899 12.5743 19.4894C12.5752 19.4892 12.5759 19.489 12.5763 19.4889C12.5765 19.4889 12.5767 19.4888 12.5768 19.4888C12.5769 19.4888 12.5769 19.4888 12.5769 19.4888C12.5769 19.4888 12.577 19.4888 12.577 19.4888C12.577 19.4888 12.577 19.4888 12.3192 18.4397C12.0614 17.3907 12.0614 17.3907 12.0614 17.3907C12.0614 17.3907 12.0614 17.3907 12.0614 17.3907C12.0613 17.3907 12.0613 17.3907 12.0612 17.3907C12.0611 17.3908 12.0609 17.3908 12.0607 17.3909C12.0602 17.391 12.0595 17.3912 12.0585 17.3914C12.0567 17.3919 12.0539 17.3925 12.0503 17.3934C12.0431 17.3952 12.0325 17.3978 12.019 17.4011C11.992 17.4078 11.9532 17.4173 11.9062 17.4289C11.8123 17.4521 11.6853 17.4835 11.553 17.5163C11.2999 17.5791 10.9961 17.655 10.8964 17.6828L11.4763 19.764ZM9.21641 20.7706C9.95365 20.3764 10.8103 19.9267 11.4417 19.773L10.9309 17.6738C9.97625 17.9061 8.85517 18.5138 8.1977 18.8653L9.21641 20.7706ZM8.77663 21.0029C8.90902 20.935 9.06102 20.8537 9.21642 20.7706L8.19769 18.8654C8.0372 18.9512 7.90322 19.0228 7.79086 19.0804L8.77663 21.0029ZM7.65406 20.5191C8.36591 21.3316 8.36587 21.3316 8.36583 21.3317C8.36582 21.3317 8.36578 21.3317 8.36576 21.3317C8.36572 21.3318 8.36568 21.3318 8.36565 21.3318C8.36559 21.3319 8.36555 21.3319 8.36553 21.3319C8.3655 21.332 8.36556 21.3319 8.36571 21.3318C8.36601 21.3315 8.36668 21.3309 8.36769 21.3301C8.36971 21.3283 8.3731 21.3254 8.37772 21.3214C8.387 21.3134 8.40112 21.3012 8.41901 21.2861C8.4551 21.2555 8.50497 21.2138 8.5603 21.1693C8.6164 21.1242 8.67324 21.0801 8.72401 21.0432C8.78034 21.0023 8.8061 20.9872 8.80495 20.9878L7.76254 19.0954C7.55611 19.2091 7.33216 19.3845 7.20641 19.4856C7.13283 19.5448 7.06807 19.5989 7.02173 19.6382C6.99841 19.658 6.97938 19.6743 6.9658 19.6861C6.959 19.6919 6.95355 19.6967 6.94957 19.7001C6.94759 19.7019 6.94597 19.7033 6.94474 19.7043C6.94412 19.7049 6.9436 19.7053 6.94318 19.7057C6.94297 19.7059 6.94278 19.7061 6.94262 19.7062C6.94254 19.7063 6.94247 19.7063 6.9424 19.7064C6.94237 19.7064 6.94232 19.7065 6.9423 19.7065C6.94226 19.7065 6.94222 19.7066 7.65406 20.5191ZM7.25971 26.6512C6.98183 25.6505 6.7564 24.796 6.8364 23.9431C6.90955 23.1631 7.25285 22.2917 8.35962 21.3371L6.94851 19.7011C5.45889 20.9859 4.81533 22.3554 4.68534 23.7413C4.5622 25.0543 4.91735 26.2907 5.17798 27.2293L7.25971 26.6512ZM7.57498 29.9374C7.73974 29.3354 7.71236 28.7379 7.62878 28.2048C7.54616 27.6778 7.39433 27.136 7.25971 26.6512L5.17798 27.2293C5.32052 27.7426 5.43471 28.1589 5.49436 28.5394C5.55305 28.9137 5.54419 29.1731 5.49113 29.367L7.57498 29.9374ZM7.56588 30.0604C7.57795 29.9765 7.59028 29.8907 7.60261 29.8038L5.4635 29.5006C5.45152 29.585 5.43949 29.6687 5.42738 29.753L7.56588 30.0604ZM7.4842 30.6446C7.50932 30.4539 7.53679 30.2628 7.56588 30.0604L5.42738 29.753C5.3986 29.9532 5.36928 30.157 5.34221 30.3624L7.4842 30.6446ZM7.4083 30.5102C7.41616 30.5176 7.42956 30.5321 7.44344 30.5543C7.45738 30.5766 7.4677 30.6001 7.47433 30.622C7.48752 30.6656 7.47958 30.6798 7.48426 30.6441L5.34215 30.3629C5.26779 30.9293 5.39148 31.5819 5.93219 32.0878L7.4083 30.5102ZM7.95542 30.9977C7.759 30.8267 7.57952 30.6704 7.40819 30.5101L5.9323 32.0879C6.13665 32.2791 6.34551 32.4607 6.53708 32.6274L7.95542 30.9977ZM7.99916 31.0358L7.95551 30.9978L6.53699 32.6273L6.58065 32.6653L7.99916 31.0358ZM8.6374 33.5133C8.80788 33.0835 8.86644 32.6087 8.72831 32.1279C8.59401 31.6604 8.30706 31.3036 7.99882 31.0355L6.58099 32.6656C6.63015 32.7084 6.65208 32.7362 6.65944 32.7467C6.66563 32.7556 6.65845 32.7476 6.6518 32.7244C6.64867 32.7135 6.6465 32.7021 6.64542 32.6911C6.64434 32.6801 6.6446 32.672 6.64493 32.6679C6.64559 32.6596 6.64591 32.6744 6.62913 32.7167L8.6374 33.5133ZM8.08927 34.5855C8.25728 34.2951 8.47548 33.9219 8.63755 33.5129L6.62897 32.7171C6.5356 32.9527 6.40151 33.1884 6.21924 33.5034L8.08927 34.5855ZM7.99923 34.7416C8.02841 34.6906 8.0581 34.6393 8.08925 34.5855L6.21925 33.5034C6.18851 33.5566 6.15635 33.6121 6.12431 33.6681L7.99923 34.7416ZM7.18616 36.1515C7.45693 35.6839 7.72937 35.2134 7.99949 34.7411L6.12404 33.6686C5.85729 34.135 5.58775 34.6005 5.3165 35.0689L7.18616 36.1515ZM6.0398 38.1479C6.41562 37.4822 6.79918 36.8198 7.18616 36.1515L5.3165 35.0689C4.93051 35.7355 4.54102 36.4081 4.15844 37.0857L6.0398 38.1479ZM5.49689 39.2621C5.63257 38.902 5.81972 38.5375 6.03967 38.1482L4.15858 37.0855C3.9184 37.5107 3.66856 37.987 3.47514 38.5004L5.49689 39.2621ZM4.8168 38.9478C4.85988 38.9297 5.01823 38.8862 5.2153 38.9664C5.39339 39.0389 5.47091 39.1592 5.49172 39.1983C5.51243 39.2372 5.50845 39.2489 5.50738 39.2315C5.50631 39.2142 5.51157 39.2231 5.49699 39.2619L3.47504 38.5006C3.27319 39.0368 3.30957 39.6966 3.58436 40.2131C3.73197 40.4905 3.99001 40.8003 4.4008 40.9675C4.83057 41.1424 5.27381 41.0989 5.65244 40.9401L4.8168 38.9478ZM5.16044 38.3855C5.08723 38.6047 5.02252 38.7384 4.96207 38.8238C4.9124 38.8939 4.87066 38.9252 4.81682 38.9478L5.65242 40.9401C6.63404 40.5284 7.01188 39.6622 7.20968 39.0699L5.16044 38.3855ZM5.2974 37.8985C5.24729 38.0926 5.20782 38.2437 5.16047 38.3854L7.20964 39.07C7.28485 38.8448 7.34235 38.6204 7.38927 38.4387L5.2974 37.8985ZM5.41188 37.4754C5.36815 37.6241 5.33019 37.7715 5.2974 37.8985L7.38927 38.4387C7.42357 38.3059 7.45273 38.1934 7.48464 38.0849L5.41188 37.4754ZM7.15752 34.8845C6.44019 35.5296 5.74149 36.3543 5.41187 37.4754L7.48464 38.0849C7.65676 37.4994 8.03785 36.9984 8.60224 36.4909L7.15752 34.8845ZM9.57426 34.2665C8.82837 34.129 7.91624 34.2011 7.15696 34.885L8.6028 36.4904C8.71052 36.3933 8.86368 36.3324 9.18241 36.3912L9.57426 34.2665ZM11.1902 34.7507C10.7209 34.5545 10.1521 34.3362 9.51109 34.2568L9.24558 36.4009C9.57774 36.4421 9.91904 36.561 10.357 36.744L11.1902 34.7507ZM13.1827 37.1211C12.9315 35.9985 12.2388 35.1888 11.19 34.7506L10.3572 36.7441C10.7696 36.9164 10.9787 37.1655 11.0743 37.5929L13.1827 37.1211ZM13.1478 37.0117C13.1571 37.0331 13.1711 37.0698 13.1824 37.1199L11.0746 37.5941C11.0985 37.7004 11.1318 37.7929 11.1646 37.8687L13.1478 37.0117ZM13.1273 36.9707C13.1282 36.9722 13.1369 36.9865 13.1479 37.0118L11.1646 37.8687C11.2035 37.9587 11.2461 38.0356 11.2831 38.0962L13.1273 36.9707ZM12.9171 36.7534C12.9893 36.8047 13.0384 36.8556 13.068 36.89C13.0981 36.9251 13.1168 36.9536 13.1262 36.969L11.2841 38.0979C11.3531 38.2103 11.4728 38.3775 11.6656 38.5145L12.9171 36.7534ZM12.7667 36.6665C12.8269 36.6942 12.8768 36.7248 12.9168 36.7532L11.666 38.5148C11.7217 38.5544 11.7875 38.5942 11.8634 38.6292L12.7667 36.6665ZM11.5377 37.039C11.5486 37.0176 11.6287 36.8579 11.8338 36.7281C11.9485 36.6555 12.1028 36.5929 12.288 36.5799C12.4739 36.5668 12.6383 36.6074 12.7668 36.6666L11.8633 38.6291C12.2343 38.7999 12.6537 38.7659 12.9888 38.5539C13.2562 38.3848 13.3962 38.1506 13.463 38.0193L11.5377 37.039ZM11.6415 36.8073C11.5962 36.914 11.5675 36.9805 11.5374 37.0396L13.4633 38.0187C13.5326 37.8824 13.5896 37.7471 13.6301 37.6519L11.6415 36.8073ZM11.7485 36.5634C11.7073 36.6521 11.6703 36.7395 11.6415 36.8073L13.6301 37.6519C13.6612 37.5785 13.6843 37.5246 13.7077 37.4741L11.7485 36.5634ZM11.7502 36.5565C11.7475 36.5636 11.7457 36.5683 11.7441 36.5726C11.7425 36.5767 11.7416 36.5789 11.7412 36.5799C11.7408 36.5809 11.7411 36.5801 11.7421 36.5778C11.743 36.5755 11.7449 36.5712 11.7477 36.5653L13.7086 37.4722C13.7383 37.408 13.7617 37.3452 13.769 37.3261L11.7502 36.5565ZM12.1335 35.9613C11.9714 36.1079 11.8814 36.2668 11.8362 36.3566C11.7913 36.4459 11.759 36.5334 11.7502 36.5566L13.769 37.326C13.7858 37.2821 13.7796 37.3011 13.766 37.3281C13.7521 37.3557 13.6987 37.4587 13.5831 37.5633L12.1335 35.9613ZM13.1313 35.6639C12.8395 35.6133 12.6075 35.6906 12.503 35.7325C12.3808 35.7816 12.2846 35.8431 12.2172 35.8928L13.4993 37.6318C13.4634 37.6583 13.3995 37.7007 13.3078 37.7375C13.2338 37.7672 13.0305 37.8391 12.7627 37.7927L13.1313 35.6639ZM14.1797 36.6873C14.1085 36.2921 13.8574 36.0529 13.7601 35.9686C13.6433 35.8672 13.4291 35.7164 13.1348 35.6645L12.7592 37.7921C12.6288 37.769 12.5354 37.725 12.4854 37.6979C12.4299 37.6679 12.3836 37.6346 12.3445 37.6007C12.3063 37.5676 12.2577 37.5188 12.2095 37.45C12.1668 37.3889 12.0875 37.2597 12.0534 37.0702L14.1797 36.6873ZM14.2041 37.441C14.2251 37.224 14.2293 36.9612 14.1795 36.6862L12.0536 37.0713C12.0577 37.0942 12.062 37.1472 12.0536 37.2334L14.2041 37.441ZM14.1458 37.8685C14.1641 37.7534 14.1886 37.6007 14.2041 37.4417L12.0537 37.2327C12.0456 37.3159 12.032 37.4041 12.012 37.53L14.1458 37.8685ZM14.1027 38.1804C14.1104 38.0943 14.1245 38.0026 14.1458 37.8684L12.012 37.53C11.9927 37.6519 11.9661 37.8164 11.9508 37.9881L14.1027 38.1804ZM12.7394 37.3148C12.744 37.3121 12.7606 37.3026 12.7877 37.2908C12.8139 37.2795 12.8617 37.2608 12.9275 37.2462C13.0498 37.2192 13.3405 37.1864 13.6438 37.3738C13.9506 37.5634 14.0522 37.8431 14.0828 37.973C14.0988 38.0411 14.1027 38.0946 14.1037 38.1245C14.1048 38.1555 14.1031 38.1757 14.1026 38.1816L11.9509 37.9869C11.9408 38.0989 11.9341 38.2743 11.9799 38.4686C12.0269 38.668 12.1582 38.9955 12.508 39.2117C12.8543 39.4257 13.2015 39.3983 13.3938 39.3558C13.5842 39.3137 13.7365 39.2347 13.8321 39.1786L12.7394 37.3148ZM12.8175 37.2672C12.7927 37.283 12.7665 37.2989 12.7389 37.3151L13.8325 39.1784C13.8796 39.1507 13.9269 39.122 13.9742 39.092L12.8175 37.2672ZM13.1839 36.8025C13.1782 36.909 13.1511 36.9654 13.1171 37.013C13.073 37.0748 12.9873 37.1596 12.8175 37.2673L13.9742 39.092C14.6118 38.6878 15.2817 38.0281 15.3413 36.9185L13.1839 36.8025ZM13.3507 35.9962C13.287 36.1904 13.2015 36.479 13.184 36.802L15.3413 36.919C15.343 36.8868 15.3554 36.8163 15.4035 36.6699L13.3507 35.9962ZM15.1375 34.665C14.7996 34.6789 14.4022 34.7575 14.0421 35.0153C13.6735 35.2792 13.4663 35.6427 13.3503 35.9972L15.4038 36.6688C15.4127 36.6417 15.4138 36.6488 15.3971 36.6738C15.3784 36.7017 15.3462 36.7388 15.2997 36.772C15.2036 36.8408 15.1426 36.8271 15.2267 36.8236L15.1375 34.665ZM15.9333 34.5971C15.6915 34.6348 15.4316 34.6527 15.1371 34.665L15.2271 36.8236C15.5461 36.8103 15.9027 36.7886 16.2668 36.7317L15.9333 34.5971ZM15.9691 34.5693C15.958 34.5934 15.9504 34.6033 15.9496 34.6043C15.9492 34.6049 15.9526 34.6006 15.9598 34.5952C15.967 34.5898 15.9718 34.5879 15.9709 34.5883C15.9693 34.5889 15.9581 34.5932 15.9334 34.5971L16.2667 36.7317C17.0061 36.6162 17.6058 36.1828 17.9327 35.4702L15.9691 34.5693ZM16.5705 32.1555C16.5014 33.0169 16.3133 33.8194 15.9691 34.5691L17.9326 35.4704C18.3993 34.4538 18.6382 33.3977 18.724 32.3283L16.5705 32.1555ZM16.6354 31.3489C16.6137 31.6177 16.5921 31.8865 16.5705 32.1554L18.724 32.3285C18.7456 32.0598 18.7673 31.7911 18.7889 31.5223L16.6354 31.3489ZM16.7704 29.6667C16.7257 30.2274 16.6805 30.788 16.6354 31.3489L18.7889 31.5223C18.834 30.9615 18.8792 30.4002 18.9241 29.8387L16.7704 29.6667ZM17.0882 28.6585C17.0121 28.8165 16.8039 29.2173 16.77 29.6724L18.9245 29.8329C18.9221 29.8657 18.916 29.8662 18.9346 29.8169C18.9545 29.7642 18.9827 29.7039 19.035 29.5953L17.0882 28.6585ZM17.1584 28.5087C17.1407 28.549 17.1196 28.5932 17.0882 28.6585L19.035 29.5953C19.0633 29.5365 19.1011 29.4582 19.1364 29.3778L17.1584 28.5087ZM22.2442 27.3376C21.9557 27.1175 21.604 26.8471 21.2425 26.6364C20.8828 26.4268 20.4079 26.2112 19.8587 26.1977C18.5786 26.1663 17.7461 27.1711 17.1584 28.5088L19.1364 29.3778C19.3849 28.8122 19.5908 28.542 19.7186 28.4233C19.7765 28.3696 19.8074 28.3573 19.8091 28.3566C19.8106 28.356 19.8093 28.3566 19.8062 28.3572C19.8033 28.3577 19.8026 28.3574 19.8056 28.3575C19.8273 28.3581 19.9293 28.3718 20.1546 28.5031C20.378 28.6333 20.6191 28.8153 20.9336 29.0552L22.2442 27.3376ZM23.6412 28.1367C23.5447 28.1367 23.3846 28.1006 23.1236 27.9535C22.8593 27.8046 22.5855 27.5981 22.2442 27.3376L20.9336 29.0552C21.2492 29.296 21.6442 29.5998 22.0631 29.8358C22.4853 30.0737 23.023 30.2972 23.6412 30.2972V28.1367ZM23.6412 30.2972C24.2594 30.2972 24.797 30.0737 25.2193 29.8358C25.6382 29.5998 26.0332 29.296 26.3487 29.0552L25.0382 27.3376C24.6968 27.5981 24.4231 27.8046 24.1587 27.9535C23.8978 28.1006 23.7377 28.1367 23.6412 28.1367V30.2972ZM26.3487 29.0552C26.6632 28.8153 26.9044 28.6333 27.1278 28.5031C27.353 28.3718 27.455 28.3581 27.4767 28.3575C27.4798 28.3574 27.4791 28.3577 27.4762 28.3572C27.4731 28.3566 27.4718 28.356 27.4733 28.3566C27.475 28.3573 27.5058 28.3696 27.5637 28.4233C27.6916 28.542 27.8974 28.8122 28.146 29.3778L30.1239 28.5088C29.5362 27.1711 28.7038 26.1663 27.4237 26.1977C26.8745 26.2112 26.3995 26.4268 26.0399 26.6364C25.6784 26.8471 25.3266 27.1175 25.0382 27.3376L26.3487 29.0552ZM28.146 29.3778C28.1813 29.4582 28.2191 29.5365 28.2473 29.5953L30.1942 28.6585C30.1628 28.5932 30.1416 28.549 30.1239 28.5087L28.146 29.3778ZM28.2474 29.5953C28.2996 29.7039 28.3279 29.7642 28.3477 29.8169C28.3663 29.8662 28.3603 29.8657 28.3578 29.8329L30.5124 29.6724C30.4784 29.2173 30.2702 28.8165 30.1942 28.6585L28.2474 29.5953ZM28.3583 29.8387C28.4031 30.4002 28.4483 30.9615 28.4935 31.5223L30.647 31.3489C30.6018 30.788 30.5567 30.2274 30.5119 29.6667L28.3583 29.8387ZM28.4935 31.5223C28.5151 31.7911 28.5367 32.0598 28.5583 32.3285L30.7119 32.1554C30.6903 31.8865 30.6686 31.6177 30.647 31.3489L28.4935 31.5223ZM28.5583 32.3283C28.6441 33.3977 28.883 34.4538 29.3497 35.4704L31.3132 34.5691C30.9691 33.8194 30.781 33.0169 30.7119 32.1555L28.5583 32.3283ZM29.3496 35.4702C29.6765 36.1828 30.2762 36.6162 31.0157 36.7317L31.349 34.5971C31.3243 34.5932 31.313 34.5889 31.3115 34.5883C31.3105 34.5879 31.3154 34.5898 31.3225 34.5952C31.3298 34.6006 31.3332 34.6049 31.3328 34.6043C31.332 34.6033 31.3244 34.5934 31.3133 34.5693L29.3496 35.4702ZM31.0156 36.7317C31.3796 36.7886 31.7363 36.8103 32.0552 36.8236L32.1453 34.665C31.8507 34.6527 31.5908 34.6348 31.3491 34.5971L31.0156 36.7317ZM32.0556 36.8236C32.1398 36.8271 32.0787 36.8408 31.9826 36.772C31.9362 36.7388 31.904 36.7017 31.8853 36.6738C31.8686 36.6488 31.8697 36.6417 31.8786 36.6688L33.932 35.9972C33.816 35.6426 33.6088 35.2792 33.2403 35.0153C32.8802 34.7575 32.4827 34.6789 32.1449 34.665L32.0556 36.8236ZM31.8789 36.6699C31.9269 36.8162 31.9393 36.8868 31.9411 36.919L34.0984 36.802C34.0809 36.479 33.9954 36.1904 33.9317 35.9962L31.8789 36.6699ZM31.941 36.9185C32.0007 38.0281 32.6706 38.6878 33.3081 39.092L34.4649 37.2673C34.2951 37.1596 34.2094 37.0748 34.1652 37.013C34.1312 36.9654 34.1041 36.909 34.0984 36.8025L31.941 36.9185ZM33.3082 39.092C33.3554 39.1219 33.4027 39.1507 33.4498 39.1784L34.5434 37.3151C34.5159 37.2989 34.4897 37.283 34.4648 37.2672L33.3082 39.092ZM33.4503 39.1786C33.5458 39.2347 33.6982 39.3137 33.8886 39.3558C34.0809 39.3983 34.428 39.4257 34.7744 39.2117C35.1242 38.9955 35.2555 38.668 35.3024 38.4686C35.3482 38.2743 35.3416 38.0989 35.3314 37.9869L33.1797 38.1816C33.1792 38.1757 33.1776 38.1555 33.1786 38.1245C33.1796 38.0946 33.1835 38.0411 33.1996 37.973C33.2302 37.8431 33.3318 37.5634 33.6385 37.3738C33.9418 37.1864 34.2325 37.2192 34.3549 37.2462C34.4206 37.2608 34.4684 37.2795 34.4946 37.2908C34.5218 37.3026 34.5384 37.3121 34.543 37.3148L33.4503 39.1786ZM35.3316 37.9881C35.3162 37.8164 35.2897 37.6519 35.2704 37.53L33.1365 37.8685C33.1578 38.0026 33.1719 38.0943 33.1796 38.1804L35.3316 37.9881ZM35.2704 37.53C35.2504 37.4041 35.2367 37.3159 35.2286 37.2327L33.0783 37.4417C33.0937 37.6007 33.1183 37.7534 33.1365 37.8685L35.2704 37.53ZM35.2287 37.2334C35.2204 37.1472 35.2246 37.0942 35.2287 37.0713L33.1028 36.6862C33.053 36.9612 33.0573 37.224 33.0782 37.441L35.2287 37.2334ZM35.229 37.0702C35.1948 37.2597 35.1156 37.3889 35.0728 37.45C35.0247 37.5188 34.976 37.5676 34.9379 37.6007C34.8987 37.6346 34.8524 37.6679 34.7969 37.6979C34.747 37.725 34.6536 37.769 34.5232 37.7921L34.1475 35.6645C33.8532 35.7164 33.6391 35.8672 33.5222 35.9686C33.425 36.0529 33.1738 36.2921 33.1026 36.6874L35.229 37.0702ZM34.5196 37.7927C34.2518 37.8391 34.0485 37.7672 33.9745 37.7375C33.8829 37.7007 33.819 37.6583 33.7831 37.6318L35.0651 35.8928C34.9978 35.8431 34.9015 35.7816 34.7794 35.7326C34.6748 35.6906 34.4429 35.6133 34.1511 35.6639L34.5196 37.7927ZM33.6993 37.5633C33.5837 37.4587 33.5303 37.3557 33.5164 37.3281C33.5028 37.3011 33.4966 37.282 33.5133 37.326L35.5322 36.5566C35.5233 36.5334 35.4911 36.4459 35.4461 36.3566C35.4009 36.2668 35.3109 36.1079 35.1489 35.9613L33.6993 37.5633ZM33.5133 37.326C33.5207 37.3453 33.5441 37.408 33.5737 37.4722L35.5347 36.5653C35.5374 36.5712 35.5393 36.5756 35.5403 36.5778C35.5412 36.5801 35.5416 36.5809 35.5411 36.5799C35.5407 36.5788 35.5399 36.5767 35.5383 36.5726C35.5366 36.5683 35.5349 36.5637 35.5322 36.5566L33.5133 37.326ZM33.5747 37.4741C33.5981 37.5246 33.6211 37.5785 33.6523 37.6519L35.6409 36.8073C35.6121 36.7395 35.5751 36.6521 35.5338 36.5634L33.5747 37.4741ZM33.6523 37.6519C33.6927 37.7471 33.7497 37.8824 33.819 38.0187L35.7449 37.0396C35.7149 36.9806 35.6862 36.914 35.6409 36.8073L33.6523 37.6519ZM33.8193 38.0193C33.8862 38.1506 34.0261 38.3848 34.2935 38.5539C34.6287 38.7659 35.048 38.7999 35.419 38.6291L34.5156 36.6666C34.644 36.6074 34.8084 36.5668 34.9943 36.5799C35.1796 36.5929 35.3338 36.6555 35.4486 36.7281C35.6537 36.8579 35.7337 37.0176 35.7446 37.039L33.8193 38.0193ZM35.4188 38.6292C35.4949 38.5942 35.5606 38.5544 35.6163 38.5148L34.3657 36.7531C34.4055 36.7248 34.4555 36.6942 34.5158 36.6665L35.4188 38.6292ZM35.6168 38.5145C35.8095 38.3775 35.9293 38.2104 35.9982 38.0979L34.1561 36.9689C34.1656 36.9536 34.1842 36.9251 34.2144 36.89C34.2439 36.8556 34.293 36.8047 34.3652 36.7534L35.6168 38.5145ZM35.9992 38.0962C36.0362 38.0356 36.0789 37.9587 36.1178 37.8686L34.1345 37.0118C34.1454 36.9865 34.1541 36.9723 34.1551 36.9707L35.9992 38.0962ZM36.1178 37.8688C36.1505 37.7929 36.1838 37.7004 36.2077 37.5941L34.1 37.1198C34.1112 37.0698 34.1253 37.0332 34.1345 37.0117L36.1178 37.8688ZM36.208 37.5929C36.3037 37.1655 36.5127 36.9164 36.9252 36.7441L36.0924 34.7506C35.0436 35.1888 34.3509 35.9985 34.0997 37.1211L36.208 37.5929ZM36.9254 36.744C37.3633 36.561 37.7046 36.4421 38.0368 36.4009L37.7713 34.2568C37.1302 34.3362 36.5614 34.5545 36.0922 34.7507L36.9254 36.744ZM38.0999 36.3912C38.4187 36.3324 38.5718 36.3933 38.6796 36.4904L40.1254 34.885C39.3661 34.2011 38.454 34.129 37.7081 34.2665L38.0999 36.3912ZM38.6801 36.4909C39.2445 36.9984 39.6256 37.4994 39.7977 38.0849L41.8705 37.4754C41.5409 36.3543 40.8422 35.5296 40.1248 34.8845L38.6801 36.4909ZM39.7977 38.0849C39.8296 38.1934 39.8588 38.3059 39.8931 38.4387L41.985 37.8986C41.9522 37.7715 41.9142 37.6241 41.8705 37.4754L39.7977 38.0849ZM39.8931 38.4387C39.94 38.6204 39.9975 38.8448 40.0727 39.07L42.1219 38.3854C42.0745 38.2437 42.0351 38.0926 41.985 37.8986L39.8931 38.4387ZM40.0727 39.0699C40.2705 39.6622 40.6483 40.5284 41.6299 40.9401L42.4655 38.9478C42.4117 38.9252 42.37 38.8939 42.3203 38.8238C42.2598 38.7384 42.1951 38.6047 42.1219 38.3855L40.0727 39.0699ZM41.6299 40.9401C42.0085 41.0989 42.4518 41.1424 42.8816 40.9675C43.2923 40.8003 43.5504 40.4905 43.698 40.2131C43.9728 39.6966 44.0092 39.0368 43.8073 38.5006L41.7854 39.2619C41.7708 39.2231 41.776 39.2142 41.775 39.2315C41.7739 39.2489 41.7699 39.2372 41.7906 39.1983C41.8114 39.1592 41.889 39.0389 42.0671 38.9664C42.2641 38.8862 42.4225 38.9297 42.4656 38.9478L41.6299 40.9401ZM43.8072 38.5004C43.6138 37.987 43.3639 37.5107 43.1238 37.0855L41.2427 38.1482C41.4626 38.5375 41.6498 38.902 41.7855 39.2621L43.8072 38.5004ZM43.1239 37.0857C42.7413 36.4081 42.3519 35.7355 41.9659 35.069L40.0962 36.1516C40.4832 36.8199 40.8667 37.4823 41.2425 38.1479L43.1239 37.0857ZM41.9659 35.069C41.6946 34.6005 41.4251 34.135 41.1583 33.6686L39.2829 34.7411C39.553 35.2135 39.8254 35.684 40.0962 36.1516L41.9659 35.069ZM41.158 33.6681C41.126 33.6121 41.0938 33.5566 41.0631 33.5034L39.1931 34.5855C39.2243 34.6393 39.2539 34.6906 39.2831 34.7416L41.158 33.6681ZM41.0631 33.5035C40.8808 33.1884 40.7468 32.9527 40.6534 32.7171L38.6448 33.5129C38.8069 33.9219 39.0251 34.2951 39.1931 34.5855L41.0631 33.5035ZM40.6532 32.7167C40.6364 32.6744 40.6368 32.6596 40.6374 32.6679C40.6377 32.672 40.638 32.6801 40.6369 32.6911C40.6359 32.7021 40.6337 32.7136 40.6306 32.7244C40.6239 32.7476 40.6167 32.7556 40.6229 32.7467C40.6303 32.7362 40.6522 32.7084 40.7014 32.6656L39.2835 31.0355C38.9753 31.3036 38.6883 31.6604 38.554 32.1279C38.4159 32.6087 38.4745 33.0835 38.645 33.5133L40.6532 32.7167ZM40.7017 32.6654L40.7453 32.6274L39.3269 30.9978L39.2832 31.0358L40.7017 32.6654ZM40.7453 32.6274C40.9368 32.4607 41.1457 32.2791 41.3501 32.0879L39.8742 30.5101C39.7028 30.6704 39.5233 30.8267 39.3269 30.9977L40.7453 32.6274ZM41.3502 32.0878C41.8909 31.5819 42.0146 30.9293 41.9402 30.3629L39.7981 30.6441C39.8028 30.6798 39.7948 30.6656 39.808 30.622C39.8147 30.6001 39.825 30.5766 39.8389 30.5543C39.8528 30.5321 39.8662 30.5176 39.8741 30.5102L41.3502 32.0878ZM41.9401 30.3624C41.9131 30.1569 41.8837 29.9531 41.855 29.7529L39.7165 30.0603C39.7456 30.2627 39.773 30.4539 39.7981 30.6446L41.9401 30.3624ZM41.855 29.7529C41.8429 29.6687 41.8308 29.585 41.8189 29.5006L39.6797 29.8038C39.6921 29.8907 39.7044 29.9764 39.7165 30.0604L41.855 29.7529ZM41.7912 29.367C41.7382 29.1731 41.7293 28.9137 41.788 28.5394C41.8476 28.1589 41.9618 27.7426 42.1044 27.2293L40.0226 26.6512C39.888 27.136 39.7362 27.6778 39.6536 28.2048C39.57 28.7379 39.5426 29.3354 39.7074 29.9374L41.7912 29.367ZM42.1044 27.2293C42.365 26.2907 42.7201 25.0543 42.597 23.7413C42.467 22.3554 41.8235 20.9859 40.3338 19.7011L38.9227 21.3371C40.0295 22.2917 40.3728 23.1631 40.446 23.9431C40.526 24.796 40.3005 25.6505 40.0226 26.6512L42.1044 27.2293ZM39.6283 20.5191C40.3401 19.7066 40.3401 19.7065 40.34 19.7065C40.34 19.7065 40.34 19.7064 40.34 19.7064C40.3399 19.7063 40.3398 19.7063 40.3397 19.7062C40.3396 19.7061 40.3394 19.7059 40.3392 19.7057C40.3388 19.7053 40.3382 19.7049 40.3376 19.7044C40.3364 19.7033 40.3348 19.7019 40.3328 19.7001C40.3288 19.6967 40.3233 19.6919 40.3166 19.6861C40.303 19.6743 40.2839 19.658 40.2606 19.6382C40.2143 19.5989 40.1495 19.5448 40.0759 19.4856C39.9502 19.3845 39.7262 19.2091 39.5198 19.0954L38.4774 20.9878C38.4763 20.9872 38.502 21.0023 38.5583 21.0432C38.6091 21.0801 38.6659 21.1242 38.7221 21.1693C38.7774 21.2138 38.8273 21.2555 38.8633 21.2861C38.8812 21.3012 38.8954 21.3134 38.9046 21.3214C38.9093 21.3254 38.9126 21.3283 38.9147 21.3301C38.9157 21.3309 38.9163 21.3315 38.9166 21.3318C38.9168 21.3319 38.9169 21.332 38.9168 21.3319C38.9168 21.3319 38.9168 21.3319 38.9167 21.3318C38.9167 21.3318 38.9166 21.3318 38.9166 21.3317C38.9166 21.3317 38.9165 21.3317 38.9165 21.3317C38.9165 21.3316 38.9164 21.3316 39.6283 20.5191ZM39.4915 19.0804C39.3791 19.0228 39.2452 18.9512 39.0847 18.8654L38.0659 20.7706C38.2213 20.8537 38.3733 20.935 38.5057 21.0029L39.4915 19.0804ZM39.0847 18.8653C38.4272 18.5138 37.3061 17.9061 36.3514 17.6738L35.8406 19.773C36.4721 19.9267 37.3287 20.3764 38.0659 20.7706L39.0847 18.8653ZM36.386 17.6828C36.2862 17.655 35.9824 17.5791 35.7293 17.5163C35.5971 17.4835 35.47 17.4521 35.3761 17.4289C35.3291 17.4173 35.2904 17.4078 35.2634 17.4011C35.2499 17.3978 35.2393 17.3952 35.2321 17.3934C35.2285 17.3925 35.2257 17.3919 35.2238 17.3914C35.2229 17.3912 35.2222 17.391 35.2217 17.3909C35.2214 17.3908 35.2213 17.3908 35.2211 17.3907C35.2211 17.3907 35.221 17.3907 35.221 17.3907C35.221 17.3907 35.221 17.3907 35.221 17.3907C35.2209 17.3907 35.2209 17.3907 34.9632 18.4397C34.7054 19.4888 34.7054 19.4888 34.7054 19.4888C34.7054 19.4888 34.7054 19.4888 34.7054 19.4888C34.7054 19.4888 34.7055 19.4888 34.7055 19.4888C34.7057 19.4888 34.7058 19.4889 34.706 19.4889C34.7065 19.489 34.7072 19.4892 34.7081 19.4894C34.7099 19.4899 34.7126 19.4905 34.7162 19.4914C34.7232 19.4932 34.7337 19.4957 34.7471 19.499C34.7738 19.5056 34.8122 19.5151 34.8588 19.5266C34.9521 19.5496 35.078 19.5807 35.2088 19.6131C35.4817 19.6809 35.7443 19.7468 35.8061 19.764L36.386 17.6828ZM34.9632 18.4397C34.8408 19.513 34.8408 19.513 34.8408 19.513C34.8408 19.513 34.8408 19.513 34.8409 19.513C34.8409 19.513 34.841 19.513 34.841 19.5131C34.8412 19.5131 34.8414 19.5131 34.8416 19.5131C34.8421 19.5132 34.8428 19.5133 34.8438 19.5134C34.8457 19.5136 34.8485 19.5139 34.8522 19.5143C34.8595 19.5151 34.8702 19.5164 34.8838 19.5179C34.9112 19.521 34.9504 19.5254 34.9984 19.5308C35.0944 19.5415 35.2256 19.556 35.3666 19.5712C35.638 19.6005 35.9774 19.6358 36.153 19.6477L36.2992 17.4921C36.1755 17.4837 35.8834 17.4539 35.5981 17.4232C35.4608 17.4084 35.3324 17.3942 35.2384 17.3836C35.1914 17.3784 35.153 17.3741 35.1265 17.3711C35.1132 17.3696 35.1029 17.3684 35.0959 17.3676C35.0924 17.3672 35.0898 17.3669 35.0881 17.3667C35.0872 17.3666 35.0865 17.3666 35.0861 17.3665C35.0859 17.3665 35.0857 17.3665 35.0857 17.3664C35.0856 17.3664 35.0856 17.3664 35.0855 17.3664C35.0855 17.3664 35.0855 17.3664 35.0855 17.3664C35.0855 17.3664 35.0855 17.3664 34.9632 18.4397ZM36.153 19.6477C36.308 19.6582 36.4601 19.6694 36.6104 19.6824L36.7964 17.53C36.6288 17.5155 36.4626 17.5032 36.2992 17.4921L36.153 19.6477ZM36.6102 19.6824C37.6835 19.7754 38.8321 19.8681 39.9973 19.8076L39.8853 17.65C38.8887 17.7017 37.8793 17.6237 36.7966 17.53L36.6102 19.6824ZM39.9973 19.8076C40.0916 19.8027 40.1863 19.7968 40.2811 19.7898L40.1223 17.6351C40.0435 17.641 39.9645 17.6459 39.8853 17.65L39.9973 19.8076ZM40.2812 19.7898C40.8033 19.7512 41.3962 19.6728 41.9577 19.5091L41.3529 17.4349C40.9911 17.5404 40.5627 17.6026 40.1222 17.6352L40.2812 19.7898ZM41.9632 19.5074C43.0261 19.1913 43.7447 18.457 44.2588 17.7608L42.5208 16.4775C42.1316 17.0046 41.7635 17.3128 41.3474 17.4366L41.9632 19.5074ZM44.2591 17.7605C44.5632 17.3483 44.9866 16.7588 45.1624 16.0113L43.0592 15.5167C42.9953 15.7885 42.8276 16.0616 42.5205 16.4779L44.2591 17.7605ZM45.1624 16.0113C45.5503 14.3619 45.9289 12.7107 46.3066 11.063L44.2008 10.5802C43.8228 12.2289 43.4456 13.8742 43.0593 15.5167L45.1624 16.0113ZM46.3066 11.063C46.3982 10.6636 46.4897 10.2643 46.5814 9.86518L44.4757 9.38168C44.384 9.78125 44.2924 10.1808 44.2008 10.5802L46.3066 11.063ZM46.5814 9.86516C46.7703 9.04231 46.9588 8.21946 47.1471 7.39698L45.0411 6.91471C44.8528 7.73729 44.6645 8.55955 44.4757 9.3817L46.5814 9.86516ZM47.1471 7.39698C47.4377 6.128 47.7281 4.85993 48.0202 3.5924L45.9148 3.10729C45.6224 4.37647 45.3317 5.64597 45.0411 6.91471L47.1471 7.39698ZM48.0203 3.59183C48.0461 3.47974 48.0802 3.36069 48.1249 3.20592L46.0494 2.60598C46.0078 2.74987 45.9562 2.92722 45.9147 3.10786L48.0203 3.59183ZM48.1249 3.20593C48.2134 2.89976 48.3647 2.40442 48.3626 1.88132L46.2021 1.88996C46.2027 2.04755 46.1558 2.2379 46.0494 2.60597L48.1249 3.20593ZM48.3626 1.88564V1.41485H46.2021V1.88564H48.3626ZM48.3626 1.41485C48.3626 1.00022 48.2217 0.696942 48.1388 0.522711L46.1877 1.45055C46.2025 1.48157 46.2103 1.49909 46.2151 1.51059C46.2196 1.52113 46.2188 1.52051 46.2163 1.51233C46.2135 1.5033 46.2095 1.4881 46.2065 1.46855C46.2033 1.4488 46.2021 1.43037 46.2021 1.41485H48.3626ZM48.1388 0.522669C47.7929 -0.204659 47.1762 -0.546171 46.6576 -0.718694L45.9757 1.33136C46.0821 1.36678 46.1352 1.39855 46.1591 1.41664C46.1757 1.4292 46.1809 1.43622 46.1877 1.4506L48.1388 0.522669ZM46.6581 -0.718531C46.372 -0.813839 46.0831 -0.890486 45.7915 -0.948089L45.3728 1.17144C45.5729 1.21098 45.7737 1.26406 45.9752 1.33119L46.6581 -0.718531ZM45.8232 -0.941329C45.4113 -1.03562 44.9602 -1.09723 44.4804 -1.07608L44.5755 1.08232C44.8113 1.07193 45.0623 1.10086 45.341 1.16468L45.8232 -0.941329ZM44.5384 -1.07708C44.0384 -1.08189 43.5387 -1.03153 43.0411 -0.928227L43.4803 1.18716C43.8321 1.11413 44.1775 1.08004 44.5176 1.08331L44.5384 -1.07708ZM43.0406 -0.928127L42.8864 -0.896024L43.3265 1.21917L43.4808 1.18706L43.0406 -0.928127ZM42.9369 -0.905297C42.7858 -0.881291 42.6353 -0.855363 42.4857 -0.827655L42.8789 1.29675C43.011 1.2723 43.1434 1.2495 43.2759 1.22844L42.9369 -0.905297ZM42.4859 -0.82769C41.4752 -0.640802 40.3507 -0.385549 39.2966 0.195211L40.3392 2.0875C41.0732 1.68311 41.9094 1.47603 42.8787 1.29679L42.4859 -0.82769ZM39.2966 0.195209C37.6196 1.11918 36.0443 2.20683 34.5902 3.4477L35.9926 5.09115C37.3347 3.94592 38.7892 2.94147 40.3392 2.08751L39.2966 0.195209ZM34.5903 3.44761C33.5981 4.29406 32.6741 5.21185 31.7846 6.09469L33.3066 7.62813C34.2059 6.73555 35.0727 5.87599 35.9925 5.09124L34.5903 3.44761ZM31.7846 6.09469C31.5904 6.28748 31.3978 6.47865 31.2048 6.66881L32.7213 8.20762C32.9174 8.01434 33.1128 7.82047 33.3066 7.62813L31.7846 6.09469ZM31.2048 6.6688C30.6147 7.25035 29.9793 7.8868 29.4204 8.59793L31.1191 9.93288C31.5838 9.34159 32.1291 8.79121 32.7213 8.20763L31.2048 6.6688ZM29.4203 8.59807C29.3546 8.68172 29.289 8.76544 29.2235 8.8492L30.9258 10.1796C30.9902 10.0972 31.0547 10.0149 31.1192 9.93275L29.4203 8.59807ZM29.2422 8.82595C28.554 9.65809 27.9165 10.5248 27.3004 11.3653L29.043 12.6425C29.6627 11.7969 30.265 10.9793 30.9071 10.2029L29.2422 8.82595ZM27.3074 11.3559C26.8439 11.9741 26.3843 12.5946 25.9275 13.2156L27.6679 14.4957C28.1219 13.8785 28.5774 13.2636 29.036 12.6519L27.3074 11.3559ZM25.9275 13.2156C25.8486 13.3228 25.7683 13.4301 25.6849 13.5417L27.4147 14.8361C27.4972 14.7257 27.5829 14.6113 27.6679 14.4958L25.9275 13.2156ZM25.6849 13.5417C25.2072 14.18 24.6125 14.9628 24.2569 15.9196L26.282 16.6723C26.5114 16.0552 26.9066 15.5151 27.4147 14.8361L25.6849 13.5417ZM24.2569 15.9196L24.2552 15.924L26.2803 16.6768L26.282 16.6724L24.2569 15.9196ZM24.2549 15.925C24.3157 15.7609 24.4844 15.4513 24.875 15.3049C25.3067 15.1432 25.6802 15.2997 25.8732 15.4416L24.5937 17.1824C24.8017 17.3353 25.1894 17.4943 25.633 17.3281C26.0355 17.1773 26.2138 16.8563 26.2807 16.6757L24.2549 15.925ZM26.0728 15.6319C26.0316 15.5811 26.0364 15.5823 26.0528 15.6104C26.0736 15.6459 26.1284 15.7498 26.1465 15.9041C26.1655 16.0668 26.1339 16.1969 26.1081 16.269C26.0883 16.3244 26.0712 16.3466 26.0972 16.3029L24.2388 15.201C24.1711 15.3152 23.9448 15.6794 24.0007 16.1557C24.0514 16.5881 24.316 16.8956 24.3942 16.9921L26.0728 15.6319ZM26.0973 16.3027C26.7589 15.1864 26.2327 13.7283 24.9764 13.3229L24.3129 15.379C24.2274 15.3514 24.206 15.2563 24.2387 15.2012L26.0973 16.3027ZM24.9777 13.3234C24.8179 13.2716 24.6629 13.2456 24.5918 13.2329L24.2112 15.3596C24.2568 15.3677 24.2802 15.372 24.3 15.3763C24.3176 15.38 24.319 15.381 24.3116 15.3786L24.9777 13.3234ZM24.5918 13.2329C24.5503 13.2254 24.524 13.2207 24.4992 13.2155L24.0618 15.3313C24.1194 15.3432 24.1737 15.3529 24.2112 15.3596L24.5918 13.2329ZM25.3435 14.4654C25.3615 14.3663 25.3684 14.2724 25.371 14.2413L23.2179 14.0621C23.217 14.0728 23.2165 14.08 23.2159 14.0866C23.2153 14.0928 23.2149 14.0964 23.2147 14.0984C23.2145 14.1003 23.2146 14.0996 23.2149 14.097C23.2153 14.0943 23.2161 14.0889 23.2174 14.0814L25.3435 14.4654ZM25.371 14.2414C25.373 14.2168 25.3737 14.2099 25.3741 14.2059C25.3744 14.203 25.3732 14.2159 25.3688 14.2378C25.3614 14.2746 25.3331 14.4009 25.2339 14.5415L23.4689 13.2955C23.3271 13.4964 23.2741 13.6955 23.2507 13.812C23.2281 13.9242 23.2204 14.032 23.2179 14.0621L25.371 14.2414ZM25.2335 14.5422C25.4845 14.187 25.7023 13.8851 25.9409 13.6208L24.3373 12.173C24.0009 12.5456 23.7146 12.948 23.4693 13.2949L25.2335 14.5422ZM25.9409 13.6208C26.2142 13.3181 26.4968 13.0205 26.7903 12.7114L25.2237 11.2236C24.9333 11.5294 24.6319 11.8466 24.3373 12.173L25.9409 13.6208ZM26.7903 12.7114C27.1347 12.3487 27.4947 11.9699 27.8428 11.5762L26.2243 10.1451C25.9059 10.5052 25.5726 10.8563 25.2237 11.2236L26.7903 12.7114ZM27.8431 11.5759C28.2885 11.0718 28.8098 10.4833 29.2272 9.81526L27.3948 8.67057C27.0877 9.16221 26.688 9.62018 26.224 10.1454L27.8431 11.5759ZM29.2273 9.81507C29.5478 9.30178 29.7946 8.75599 30.0079 8.28757L28.0417 7.39222C27.818 7.88332 27.6275 8.29789 27.3947 8.67075L29.2273 9.81507ZM30.0079 8.28756C30.0923 8.10219 30.1717 7.92786 30.2534 7.75714L28.3046 6.82452C28.2125 7.0169 28.1246 7.21002 28.0417 7.39222L30.0079 8.28756ZM30.2528 7.75837C30.2723 7.71782 30.2918 7.67783 30.3129 7.63476L28.3715 6.68669C28.3509 6.72885 28.3283 6.77521 28.3052 6.82329L30.2528 7.75837ZM30.3129 7.63475C30.3822 7.4927 30.4691 7.31602 30.5491 7.11317L28.5393 6.3205C28.4951 6.43252 28.4452 6.53576 28.3715 6.68669L30.3129 7.63475ZM30.5491 7.11314C30.6116 6.95467 30.6728 6.71614 30.6693 6.45745C30.6667 6.27638 30.608 5.51044 29.8253 5.24583L29.1334 7.29252C28.8547 7.1983 28.6765 6.99534 28.5887 6.8108C28.5146 6.65491 28.5095 6.52777 28.509 6.48736C28.5079 6.41123 28.5201 6.36901 28.5392 6.32054L30.5491 7.11314ZM29.8253 5.24583C29.2764 5.06024 28.8198 5.30271 28.5859 5.50983C28.3568 5.71269 28.2221 5.96463 28.1457 6.17592L30.1773 6.91094C30.1709 6.92874 30.1355 7.0234 30.018 7.12742C29.8957 7.2357 29.5631 7.43779 29.1334 7.29252L29.8253 5.24583ZM28.1455 6.17636C28.0337 6.48572 27.9284 6.80541 27.8365 7.13321L29.9169 7.71607C29.9915 7.44968 30.0796 7.18137 30.1775 6.91049L28.1455 6.17636ZM27.8367 7.1327C27.6181 7.91128 27.4153 8.49811 27.0588 8.95852L28.767 10.2813C29.407 9.4548 29.6983 8.49485 29.9168 7.71658L27.8367 7.1327ZM27.0587 8.95867C26.5508 9.61482 26.0011 10.2503 25.4282 10.8821L27.0288 12.3333C27.622 11.6789 28.2122 10.998 28.7671 10.2811L27.0587 8.95867ZM25.4283 10.882C25.3346 10.9854 25.2402 11.0886 25.1439 11.1938L26.738 12.652C26.8337 12.5474 26.9313 12.4407 27.0287 12.3333L25.4283 10.882ZM25.1439 11.1938C24.6093 11.7782 24.0145 12.4258 23.5075 13.1653L25.2894 14.387C25.6966 13.793 26.1866 13.2549 26.738 12.6521L25.1439 11.1938ZM23.5105 13.161C23.5564 13.0947 23.6001 13.0501 23.6221 13.0288C23.6416 13.0098 23.6582 12.9961 23.6443 13.008L25.0466 14.6515C25.0518 14.6471 25.0877 14.6169 25.1254 14.5804C25.1656 14.5415 25.2262 14.4782 25.2864 14.3914L23.5105 13.161ZM23.6442 13.0081C23.64 13.0117 23.6105 13.0365 23.5796 13.0657L25.0631 14.6364C25.0536 14.6453 25.0466 14.6514 25.0444 14.6535C25.0431 14.6546 25.0425 14.6551 25.0429 14.6547C25.0436 14.6542 25.0444 14.6535 25.0467 14.6515L23.6442 13.0081ZM24.9894 13.0021C24.5725 12.6741 24.0576 12.5709 23.6524 12.5667L23.6299 14.7271C23.6484 14.7272 23.6656 14.7286 23.6805 14.7307C23.6956 14.7329 23.706 14.7354 23.7116 14.737C23.7174 14.7387 23.7152 14.7386 23.7064 14.7343C23.6976 14.7301 23.6785 14.7198 23.6533 14.7L24.9894 13.0021ZM23.6291 14.7C23.6039 14.7198 23.5847 14.7301 23.576 14.7343C23.5671 14.7386 23.5649 14.7387 23.5707 14.737C23.5763 14.7354 23.5868 14.7329 23.6018 14.7307C23.6167 14.7286 23.6339 14.7272 23.6524 14.7271L23.6299 12.5667C23.2247 12.5709 22.7099 12.6741 22.293 13.0021L23.6291 14.7ZM22.2357 14.6515C22.238 14.6535 22.2388 14.6542 22.2394 14.6547C22.2399 14.6551 22.2393 14.6546 22.238 14.6535C22.2357 14.6514 22.2287 14.6453 22.2193 14.6364L23.7028 13.0657C23.6719 13.0365 23.6424 13.0117 23.6381 13.0081L22.2357 14.6515ZM21.996 14.3914C22.0561 14.4782 22.1168 14.5415 22.1569 14.5804C22.1946 14.6169 22.2306 14.6471 22.2357 14.6515L23.6381 13.008C23.6242 12.9961 23.6407 13.0098 23.6603 13.0288C23.6823 13.0501 23.726 13.0947 23.7719 13.161L21.996 14.3914ZM20.5443 12.6521C21.0958 13.2549 21.5857 13.793 21.993 14.387L23.7749 13.1653C23.2678 12.4258 22.6731 11.7782 22.1384 11.1938L20.5443 12.6521ZM20.2536 12.3333C20.351 12.4407 20.4486 12.5474 20.5443 12.652L22.1384 11.1938C22.0422 11.0886 21.9478 10.9854 21.8541 10.882L20.2536 12.3333ZM18.5152 10.2811C19.0701 10.998 19.6603 11.6789 20.2536 12.3333L21.8541 10.8821C21.2813 10.2503 20.7316 9.61482 20.2237 8.95867L18.5152 10.2811ZM17.3656 7.71658C17.5841 8.49485 17.8753 9.4548 18.5153 10.2813L20.2235 8.95852C19.867 8.49811 19.6642 7.91128 19.4457 7.1327L17.3656 7.71658ZM17.1049 6.91049C17.2028 7.18137 17.2908 7.44968 17.3655 7.71607L19.4458 7.13321C19.354 6.80541 19.2486 6.48572 19.1368 6.17636L17.1049 6.91049ZM18.149 7.29252C17.7193 7.43779 17.3866 7.2357 17.2643 7.12742C17.1468 7.0234 17.1115 6.92874 17.1051 6.91094L19.1367 6.17592C19.0602 5.96463 18.9256 5.71269 18.6965 5.50983C18.4626 5.30271 18.006 5.06024 17.457 5.24583L18.149 7.29252ZM18.7431 6.32054C18.7622 6.36901 18.7744 6.41123 18.7734 6.48736C18.7728 6.52777 18.7677 6.65491 18.6936 6.8108C18.6059 6.99534 18.4277 7.1983 18.149 7.29252L17.457 5.24583C16.6743 5.51044 16.6156 6.27638 16.6131 6.45745C16.6095 6.71614 16.6708 6.95467 16.7333 7.11314L18.7431 6.32054ZM18.9108 6.68669C18.8371 6.53576 18.7873 6.43252 18.7431 6.3205L16.7333 7.11317C16.8133 7.31602 16.9001 7.4927 16.9695 7.63475L18.9108 6.68669ZM18.9772 6.82329C18.9541 6.77521 18.9314 6.72885 18.9108 6.68669L16.9695 7.63476C16.9905 7.67783 17.01 7.71782 17.0295 7.75837L18.9772 6.82329ZM19.2407 7.39222C19.1577 7.21002 19.0698 7.0169 18.9777 6.82452L17.0289 7.75714C17.1106 7.92786 17.19 8.10219 17.2744 8.28756L19.2407 7.39222ZM19.8876 8.67075C19.6548 8.29789 19.4643 7.88332 19.2407 7.39222L17.2744 8.28757C17.4877 8.75599 17.7346 9.30178 18.0551 9.81507L19.8876 8.67075ZM21.0584 10.1454C20.5943 9.62018 20.1947 9.16221 19.8875 8.67057L18.0552 9.81526C18.4725 10.4833 18.9939 11.0718 19.4393 11.5759L21.0584 10.1454ZM22.0586 11.2236C21.7098 10.8563 21.3765 10.5052 21.0581 10.1451L19.4396 11.5762C19.7877 11.9699 20.1476 12.3487 20.492 12.7114L22.0586 11.2236ZM22.9451 12.173C22.6504 11.8466 22.349 11.5294 22.0586 11.2236L20.492 12.7114C20.7856 13.0205 21.0681 13.3181 21.3415 13.6208L22.9451 12.173ZM23.813 13.2949C23.5677 12.948 23.2815 12.5456 22.9451 12.173L21.3414 13.6208C21.58 13.8851 21.7978 14.187 22.0489 14.5422L23.813 13.2949ZM24.0644 14.0621C24.0619 14.032 24.0542 13.9242 24.0317 13.812C24.0083 13.6955 23.9552 13.4964 23.8134 13.2955L22.0485 14.5415C21.9492 14.4009 21.921 14.2746 21.9136 14.2378C21.9092 14.2159 21.9079 14.203 21.9082 14.2059C21.9087 14.2099 21.9093 14.2168 21.9114 14.2414L24.0644 14.0621ZM24.0649 14.0814C24.0663 14.0889 24.067 14.0943 24.0674 14.097C24.0678 14.0996 24.0678 14.1003 24.0676 14.0984C24.0674 14.0964 24.067 14.0928 24.0665 14.0866C24.0659 14.08 24.0653 14.0728 24.0644 14.0621L21.9114 14.2413C21.914 14.2724 21.9209 14.3663 21.9388 14.4654L24.0649 14.0814ZM23.0712 15.3596C23.1087 15.3529 23.163 15.3432 23.2205 15.3313L22.7832 13.2155C22.7584 13.2207 22.7321 13.2254 22.6905 13.2329L23.0712 15.3596ZM22.9708 15.3786C22.9633 15.381 22.9648 15.38 22.9823 15.3763C23.0021 15.372 23.0255 15.3677 23.0712 15.3596L22.6905 13.2329C22.6194 13.2456 22.4644 13.2716 22.3046 13.3234L22.9708 15.3786ZM23.0437 15.2012C23.0763 15.2563 23.055 15.3514 22.9694 15.379L22.306 13.3229C21.0497 13.7283 20.5235 15.1864 21.1851 16.3027L23.0437 15.2012ZM22.8881 16.9921C22.9663 16.8956 23.231 16.5881 23.2817 16.1557C23.3375 15.6794 23.1113 15.3152 23.0436 15.201L21.1852 16.3029C21.2111 16.3466 21.194 16.3244 21.1742 16.269C21.1485 16.1969 21.1168 16.0668 21.1359 15.9041C21.154 15.7498 21.2088 15.6459 21.2295 15.6104C21.246 15.5823 21.2507 15.5811 21.2096 15.6319L22.8881 16.9921ZM21.0016 16.6757C21.0685 16.8563 21.2469 17.1773 21.6494 17.3281C22.093 17.4943 22.4806 17.3353 22.6886 17.1824L21.4091 15.4416C21.6021 15.2997 21.9757 15.1432 22.4074 15.3049C22.798 15.4513 22.9667 15.7609 23.0275 15.925L21.0016 16.6757ZM21.0004 16.6724L21.002 16.6768L23.0271 15.924L23.0255 15.9196L21.0004 16.6724ZM19.8677 14.8361C20.3758 15.5151 20.771 16.0552 21.0004 16.6723L23.0255 15.9196C22.6699 14.9628 22.0751 14.18 21.5975 13.5417L19.8677 14.8361ZM19.6145 14.4958C19.6995 14.6113 19.7851 14.7257 19.8677 14.8361L21.5975 13.5417C21.514 13.4301 21.4337 13.3228 21.3549 13.2156L19.6145 14.4958ZM18.2463 12.6519C18.705 13.2636 19.1605 13.8785 19.6145 14.4957L21.3549 13.2156C20.8981 12.5946 20.4385 11.9741 19.9749 11.3559L18.2463 12.6519ZM16.3752 10.2029C17.0174 10.9793 17.6196 11.7969 18.2393 12.6425L19.9819 11.3653C19.3659 10.5248 18.7283 9.65809 18.0401 8.82595L16.3752 10.2029ZM16.1631 9.93275C16.2277 10.0149 16.2921 10.0972 16.3566 10.1796L18.0588 8.8492C17.9933 8.76544 17.9277 8.68172 17.862 8.59807L16.1631 9.93275ZM14.561 8.20763C15.1532 8.79121 15.6985 9.34159 16.1632 9.93288L17.8619 8.59793C17.3031 7.8868 16.6677 7.25035 16.0775 6.6688L14.561 8.20763ZM13.9758 7.62815C14.1696 7.82048 14.3649 8.01434 14.561 8.20762L16.0775 6.66881C15.8846 6.47866 15.692 6.28749 15.4977 6.09471L13.9758 7.62815ZM11.2898 5.09124C12.2097 5.876 13.0765 6.73556 13.9758 7.62815L15.4977 6.09471C14.6082 5.21186 13.6842 4.29406 12.692 3.44761L11.2898 5.09124ZM6.94318 2.08751C8.49315 2.94147 9.94766 3.94592 11.2897 5.09115L12.6921 3.4477C11.238 2.20683 9.66279 1.11918 7.98575 0.195209L6.94318 2.08751ZM4.40365 1.29679C5.37298 1.47603 6.20919 1.68311 6.94318 2.0875L7.98575 0.195211C6.93166 -0.385549 5.80715 -0.640802 4.7965 -0.82769L4.40365 1.29679ZM4.00645 1.22844C4.13899 1.2495 4.27137 1.2723 4.40346 1.29675L4.7967 -0.827655C4.647 -0.855363 4.49653 -0.881292 4.34542 -0.905297L4.00645 1.22844ZM3.80159 1.18706L3.95588 1.21917L4.396 -0.896024L4.24171 -0.928127L3.80159 1.18706ZM2.76476 1.08331C3.10483 1.08004 3.45029 1.11413 3.80207 1.18716L4.24123 -0.928227C3.74361 -1.03153 3.24397 -1.08189 2.74398 -1.07708L2.76476 1.08331ZM1.94131 1.16468C2.22005 1.10086 2.47106 1.07193 2.70681 1.08232L2.80193 -1.07608C2.32216 -1.09723 1.87101 -1.03562 1.45915 -0.941329L1.94131 1.16468ZM1.30718 1.33119C1.5087 1.26405 1.70946 1.21098 1.9096 1.17144L1.49086 -0.948089C1.19929 -0.890487 0.910335 -0.813838 0.624274 -0.718531L1.30718 1.33119ZM1.09462 1.4506C1.10146 1.43622 1.10664 1.4292 1.12324 1.41664C1.14714 1.39855 1.2002 1.36678 1.30669 1.33136L0.624764 -0.718694C0.106113 -0.54617 -0.510533 -0.204657 -0.856448 0.522669L1.09462 1.4506ZM1.08026 1.41485C1.08026 1.43037 1.07901 1.4488 1.0759 1.46855C1.07282 1.48811 1.06882 1.5033 1.06604 1.51234C1.06354 1.52051 1.06279 1.52114 1.06721 1.5106C1.07203 1.4991 1.07989 1.48158 1.09464 1.45056L-0.856465 0.522705C-0.93932 0.696933 -1.08023 1.00022 -1.08023 1.41485H1.08026ZM1.08026 1.88564V1.41485H-1.08023V1.88564H1.08026ZM1.23297 2.60597C1.12657 2.23791 1.07962 2.04755 1.08025 1.88995L-1.08022 1.88133C-1.08231 2.40442 -0.931057 2.89975 -0.842553 3.20593L1.23297 2.60597ZM1.36765 3.10787C1.32613 2.92721 1.27456 2.74986 1.23297 2.60597L-0.842553 3.20593C-0.797815 3.3607 -0.763703 3.47975 -0.737943 3.59182L1.36765 3.10787ZM2.24119 6.91461C1.95066 5.64589 1.65995 4.37644 1.36752 3.10729L-0.73781 3.5924C-0.445756 4.85989 -0.155375 6.12793 0.135215 7.39688L2.24119 6.91461Z" fill="white" mask="url(#path-12-inside-1_1514_8439)"></path></svg> 