<?xml version="1.0" standalone="no"?>
<!DOCTYPE svg PUBLIC "-//W3C//DTD SVG 20010904//EN"
 "http://www.w3.org/TR/2001/REC-SVG-20010904/DTD/svg10.dtd">
<svg version="1.0" xmlns="http://www.w3.org/2000/svg"
 width="1120.000000pt" height="1120.000000pt" viewBox="0 0 1120.000000 1120.000000"
 preserveAspectRatio="xMidYMid meet">
<metadata>
Created by potrace 1.14, written by Peter Selinger 2001-2017
</metadata>
<g transform="translate(0.000000,1120.000000) scale(0.100000,-0.100000)"
fill="#000000" stroke="none">
<path d="M424 10325 c-92 -17 -209 -52 -257 -77 -57 -29 -116 -86 -143 -140
-22 -43 -24 -59 -23 -180 0 -108 5 -150 24 -223 39 -144 118 -480 240 -1015
29 -129 70 -305 89 -390 35 -150 82 -357 221 -960 125 -544 185 -788 206 -836
32 -77 146 -239 228 -326 163 -174 297 -233 610 -269 147 -16 609 -6 895 20
126 12 234 20 240 18 6 -2 -30 -13 -78 -26 -165 -41 -328 -112 -611 -264 -297
-161 -516 -392 -638 -675 -88 -206 -91 -528 -6 -847 116 -437 139 -546 139
-655 0 -30 -9 -106 -20 -167 -11 -62 -22 -148 -26 -191 -9 -110 8 -145 122
-247 162 -146 184 -178 184 -275 0 -69 -42 -166 -165 -375 -283 -487 -486
-847 -544 -965 -62 -127 -66 -139 -66 -205 0 -154 98 -225 223 -161 105 54
172 162 227 366 67 245 111 336 241 490 133 159 230 221 355 228 96 6 185 -10
319 -54 270 -90 382 -188 446 -388 34 -109 63 -138 95 -100 8 9 32 57 55 108
45 101 67 115 93 61 12 -26 12 -44 1 -130 -8 -55 -14 -122 -15 -150 0 -45 2
-50 23 -53 31 -5 108 46 174 116 55 58 98 144 98 198 0 52 32 163 59 206 38
60 75 75 201 83 289 18 346 57 434 302 83 232 109 404 147 968 13 189 20 216
112 400 130 262 255 359 419 324 93 -20 166 -63 404 -241 309 -230 454 -259
679 -139 66 36 108 64 335 232 52 38 132 88 178 111 74 37 90 41 155 41 146 0
246 -90 364 -328 92 -184 99 -211 112 -400 38 -564 64 -736 147 -968 88 -245
145 -284 434 -302 126 -8 163 -23 201 -83 27 -43 59 -154 59 -206 0 -54 43
-140 98 -198 66 -70 143 -121 174 -116 21 3 23 8 23 53 -1 28 -7 95 -15 150
-11 86 -11 104 1 130 26 54 48 40 93 -61 23 -51 47 -99 55 -108 32 -38 61 -9
95 100 64 200 176 298 446 388 134 44 223 60 319 54 125 -7 222 -69 355 -228
129 -153 174 -245 240 -488 56 -208 122 -314 228 -368 126 -64 223 7 223 161
0 66 -4 78 -66 205 -58 118 -261 478 -544 965 -163 279 -192 373 -145 470 24
51 24 51 152 168 154 141 158 161 107 452 -36 210 -29 259 120 820 84 317 83
622 -4 839 -64 159 -174 316 -317 451 -117 111 -174 153 -313 228 -279 150
-455 227 -620 268 -49 12 -85 24 -79 26 6 2 114 -6 240 -18 286 -26 748 -36
895 -20 230 27 366 68 473 145 124 89 307 314 365 450 12 26 48 161 81 300 55
233 90 384 251 1086 34 146 81 351 105 455 25 105 56 242 70 305 23 108 46
204 174 750 27 118 61 256 75 305 19 74 24 114 24 223 1 121 -1 137 -23 180
-46 90 -124 144 -268 186 -215 61 -463 62 -773 2 -411 -80 -553 -131 -852
-304 -465 -271 -838 -559 -1303 -1004 -578 -554 -774 -770 -1145 -1263 -623
-828 -757 -1019 -827 -1172 -28 -62 -31 -66 -44 -48 -20 27 -17 70 8 118 31
58 31 156 0 214 -36 69 -119 123 -191 123 -37 0 -27 50 25 127 67 98 155 200
374 433 320 340 455 502 550 662 79 133 280 571 280 612 0 47 -9 66 -30 66
-56 0 -71 -27 -144 -271 -96 -321 -145 -420 -309 -623 -95 -118 -258 -305
-402 -461 -141 -154 -229 -257 -298 -350 -33 -44 -62 -80 -66 -79 -3 0 -19 7
-36 14 -19 10 -64 15 -125 15 -61 0 -106 -5 -125 -15 -16 -7 -33 -14 -36 -14
-4 -1 -33 35 -66 79 -69 93 -157 196 -298 350 -144 156 -307 343 -402 461
-164 203 -213 302 -309 623 -73 244 -88 271 -144 271 -21 0 -30 -19 -30 -66 0
-39 196 -470 276 -605 98 -169 253 -352 640 -761 202 -213 334 -386 334 -439
0 -25 -4 -29 -27 -29 -35 0 -110 -34 -141 -63 -68 -63 -88 -190 -44 -274 25
-48 28 -91 8 -118 -12 -17 -16 -13 -48 56 -49 106 -129 230 -270 421 -825
1116 -896 1204 -1223 1537 -768 780 -1179 1121 -1770 1468 -299 176 -446 229
-860 309 -171 33 -209 37 -380 40 -129 2 -213 -1 -261 -11z m602 -198 c235
-44 323 -66 467 -118 208 -74 591 -305 940 -567 306 -230 507 -413 1018 -922
396 -395 466 -479 1026 -1233 452 -608 481 -649 548 -789 59 -126 90 -161 153
-178 84 -22 162 21 217 122 40 73 41 150 1 227 -43 84 -31 103 88 132 31 8 60
24 82 46 l34 34 34 -34 c22 -22 51 -38 82 -46 119 -29 131 -48 88 -132 -40
-77 -39 -154 1 -227 55 -100 136 -147 215 -123 66 19 96 54 155 177 67 142 95
182 548 791 606 816 702 927 1287 1491 484 467 780 706 1203 970 387 241 530
298 957 378 244 46 438 56 571 29 146 -30 235 -62 263 -96 24 -28 26 -38 26
-127 0 -68 -6 -120 -21 -172 -23 -85 -86 -350 -159 -670 -48 -213 -85 -374
-199 -870 -33 -140 -87 -376 -121 -525 -60 -261 -157 -680 -220 -951 -38 -160
-66 -220 -162 -349 -202 -271 -336 -320 -878 -319 -271 1 -538 16 -842 50
-175 20 -209 15 -259 -35 -71 -70 -71 -162 -1 -231 34 -34 52 -40 239 -88 231
-60 291 -84 567 -225 159 -82 216 -117 292 -180 188 -157 306 -322 369 -517
24 -73 28 -106 32 -235 5 -138 3 -162 -26 -300 -16 -82 -52 -231 -79 -330 -75
-270 -84 -319 -89 -455 -4 -102 0 -155 21 -288 14 -89 23 -169 20 -177 -3 -8
-47 -49 -97 -92 -167 -144 -213 -233 -205 -398 5 -83 9 -101 50 -187 25 -52
74 -144 108 -204 35 -60 75 -129 89 -154 l25 -45 -59 47 c-105 82 -213 118
-353 118 -156 -1 -339 -49 -522 -137 -105 -50 -123 -63 -206 -148 l-91 -92
-34 18 c-65 35 -163 18 -220 -37 l-27 -26 -17 54 c-24 72 -40 101 -77 144 -71
81 -151 111 -330 125 -168 12 -191 22 -223 94 -91 206 -117 343 -155 796 -17
200 -36 391 -44 425 -18 76 -98 256 -162 364 -142 241 -341 353 -548 310 -82
-17 -234 -97 -351 -184 -265 -199 -383 -266 -465 -266 -83 0 -185 57 -435 245
-259 193 -432 250 -597 194 -172 -58 -303 -207 -430 -492 -27 -61 -56 -138
-64 -171 -8 -34 -27 -225 -44 -425 -32 -388 -50 -502 -104 -658 -56 -163 -71
-192 -110 -208 -19 -8 -93 -19 -164 -24 -179 -14 -259 -44 -330 -125 -37 -43
-53 -72 -77 -144 l-17 -54 -27 26 c-57 55 -155 72 -220 37 l-34 -18 -91 92
c-83 85 -101 98 -206 148 -183 88 -366 136 -522 137 -140 0 -248 -36 -353
-118 l-59 -47 25 45 c14 25 53 93 87 152 35 59 83 150 109 203 42 87 46 103
51 188 8 167 -37 255 -205 400 -50 43 -94 84 -97 92 -3 8 6 88 20 177 21 133
25 186 21 288 -5 136 -14 185 -89 455 -27 99 -63 248 -79 330 -29 138 -31 162
-26 300 4 129 8 162 32 235 52 160 135 291 269 425 120 119 182 162 386 268
271 140 346 170 572 228 188 49 206 55 239 89 71 69 71 161 0 231 -50 50 -84
55 -259 35 -304 -34 -571 -49 -842 -50 -542 -1 -676 48 -878 319 -96 129 -124
189 -162 349 -57 243 -158 679 -219 946 -33 146 -89 391 -125 545 -35 154 -92
402 -126 550 -129 563 -202 873 -225 960 -19 67 -25 115 -25 187 0 89 2 99 25
127 28 32 94 58 235 91 137 31 351 23 596 -23z m285 -8888 c-23 -67 -67 -155
-82 -165 -17 -10 -4 28 47 135 48 102 65 116 35 30z m8614 -31 c50 -106 63
-144 46 -134 -19 12 -101 192 -101 223 0 17 18 -12 55 -89z"/>
</g>
</svg>
