<svg xmlns="http://www.w3.org/2000/svg" width="33" height="32" viewBox="0 0 33 32" fill="none"><path fill-rule="evenodd" clip-rule="evenodd" d="M18.3645 8.51378L19.1896 9.64223L20.5177 10.0782C21.8039 10.5004 22.3079 12.0516 21.5155 13.1491L20.6973 14.2826L20.6931 15.6805C20.689 17.0341 19.3695 17.9928 18.0808 17.5784L16.75 17.1504L15.4192 17.5784C14.1305 17.9928 12.811 17.0341 12.8069 15.6805L12.8027 14.2826L11.9845 13.1491C11.1921 12.0516 11.6961 10.5004 12.9823 10.0782L14.3104 9.64223L15.1355 8.51378C15.9345 7.42107 17.5655 7.42107 18.3645 8.51378ZM17.5751 10.8227L16.75 9.69425L15.9249 10.8227C15.6781 11.1603 15.3316 11.412 14.9342 11.5425L13.606 11.9785L14.4243 13.1119C14.6691 13.451 14.8014 13.8583 14.8027 14.2765L14.8069 15.6744L16.1377 15.2465C16.5359 15.1184 16.9641 15.1184 17.3623 15.2465L18.6931 15.6744L18.6973 14.2765C18.6986 13.8583 18.8309 13.451 19.0757 13.1119L19.894 11.9785L18.5658 11.5425C18.1684 11.412 17.8219 11.1603 17.5751 10.8227Z" fill="#B7B7B7"></path><path fill-rule="evenodd" clip-rule="evenodd" d="M16.75 4C11.7794 4 7.75 8.02944 7.75 13C7.75 17.9706 11.7794 22 16.75 22C21.7206 22 25.75 17.9706 25.75 13C25.75 8.02944 21.7206 4 16.75 4ZM9.75 13C9.75 9.13401 12.884 6 16.75 6C20.616 6 23.75 9.13401 23.75 13C23.75 16.866 20.616 20 16.75 20C12.884 20 9.75 16.866 9.75 13Z" fill="#B7B7B7"></path><path fill-rule="evenodd" clip-rule="evenodd" d="M16.75 0C9.5703 0 3.75 5.8203 3.75 13C3.75 17.1626 5.70646 20.8683 8.75 23.2477V31C8.75 31.3361 8.91888 31.6498 9.19951 31.8348C9.48013 32.0199 9.83496 32.0516 10.1439 31.9191L16.75 29.088L23.3561 31.9191C23.665 32.0516 24.0199 32.0199 24.3005 31.8348C24.5811 31.6498 24.75 31.3361 24.75 31V23.2477C27.7935 20.8683 29.75 17.1626 29.75 13C29.75 5.8203 23.9297 0 16.75 0ZM5.75 13C5.75 6.92487 10.6749 2 16.75 2C22.8251 2 27.75 6.92487 27.75 13C27.75 19.0751 22.8251 24 16.75 24C10.6749 24 5.75 19.0751 5.75 13ZM22.75 24.5356C20.955 25.4711 18.9143 26 16.75 26C14.5857 26 12.545 25.4711 10.75 24.5356V29.4835L16.3561 27.0809C16.6076 26.973 16.8924 26.973 17.1439 27.0809L22.75 29.4835V24.5356Z" fill="#B7B7B7"></path></svg>