<?xml version="1.0" encoding="UTF-8"?> <svg xmlns="http://www.w3.org/2000/svg" width="53" height="53" viewBox="0 0 53 53" fill="none"><g clip-path="url(#clip0_2658_18654)"><mask id="path-1-inside-1_2658_18654" fill="white"><path fill-rule="evenodd" clip-rule="evenodd" d="M1.33187 12.0209C1.54301 12.9429 1.75415 13.865 1.96583 14.7869C2.0686 15.2345 2.17121 15.682 2.27383 16.1296C2.69743 17.9772 3.12103 19.8248 3.55499 21.6699C3.68932 22.2411 4.02063 22.7246 4.36317 23.1889C4.86942 23.8745 5.47847 24.4588 6.30739 24.7053C6.82486 24.8562 7.39724 24.935 7.93672 24.9748C8.03403 24.982 8.13133 24.9881 8.22862 24.9932C9.4402 25.0561 10.6496 24.9604 11.858 24.8557C12.0361 24.8403 12.2145 24.8271 12.393 24.815C12.7286 24.7923 13.8086 24.6691 13.8086 24.6691C13.8086 24.6691 12.7198 24.9367 12.5388 24.9871C11.6498 25.2034 10.5414 25.7961 9.75975 26.214C9.58271 26.3087 9.42244 26.3944 9.28527 26.4647C9.02955 26.6056 8.57946 26.9999 8.57946 26.9999C5.66917 29.5101 6.3671 32.0236 6.97071 34.1974C7.28139 35.3162 7.56708 36.3451 7.32291 37.2372C7.3093 37.3332 7.29564 37.4282 7.2821 37.5224C7.24966 37.748 7.21783 37.9694 7.18858 38.1915C7.14366 38.5336 7.21881 38.8419 7.47669 39.0831C7.68724 39.2801 7.90489 39.4695 8.12234 39.6588L8.17127 39.7014C8.62914 40.0996 8.78119 40.5513 8.55614 41.1186C8.41298 41.48 8.21554 41.8212 8.01922 42.1605C7.98453 42.2204 7.94987 42.2803 7.91555 42.3403C7.61466 42.8664 7.3109 43.391 7.00712 43.9156C6.57391 44.6637 6.14066 45.4119 5.71562 46.1648C5.45774 46.6213 5.21283 47.0925 5.02838 47.5821C4.81731 48.1427 5.11526 49.0888 5.8675 48.7733C6.46269 48.5236 6.73725 47.9956 6.93284 47.4099C7.00153 47.2043 7.05588 46.9939 7.11025 46.7833C7.14786 46.6377 7.18548 46.492 7.22787 46.3479C7.50907 45.3914 8.11424 44.6484 8.83257 44.0024C9.31848 43.5648 9.91553 43.4902 10.5122 43.6002C11.0576 43.6677 11.5677 43.8568 12.0761 44.0693C12.8951 44.4114 13.4005 45.0049 13.5949 45.8735C13.602 45.9051 13.6128 45.9364 13.6259 45.9668C13.6416 46.0031 13.6606 46.0382 13.6808 46.0713C13.7128 46.1235 13.7452 46.1611 13.7774 46.184C13.7816 46.187 13.7859 46.1898 13.7901 46.1923C13.7947 46.195 13.7994 46.1974 13.804 46.1996C13.8774 46.2334 13.949 46.1897 14.0117 46.0665C14.0674 45.957 14.1154 45.8439 14.1635 45.7307C14.1971 45.6516 14.2307 45.5724 14.267 45.4944C14.2795 45.4674 14.2908 45.4377 14.3023 45.4076C14.3309 45.3323 14.3608 45.254 14.4129 45.2069C14.4481 45.181 14.4854 45.1642 14.5123 45.1688C14.5862 45.1818 14.6899 45.2679 14.7024 45.3375C14.7326 45.5044 14.7326 45.6814 14.7162 45.8514C14.703 45.9871 14.6816 46.1221 14.6602 46.2571C14.6374 46.4007 14.6146 46.5442 14.6017 46.6887C14.5788 46.9417 14.6747 46.9982 14.892 46.8708C14.9339 46.8463 14.975 46.8212 15.0154 46.7956C15.5511 46.4561 15.9492 46.0193 15.987 45.3171C15.9978 45.1179 16.0527 44.9167 16.1153 44.7258C16.2634 44.2728 16.5447 44.0854 17.0176 44.0658C17.3615 44.0515 17.707 44.0293 18.0466 43.9763C18.4837 43.908 18.8072 43.6746 19.0003 43.2537C19.4547 42.2638 19.694 41.2221 19.7808 40.1401C19.805 39.8389 19.8293 39.5377 19.8535 39.2365C19.9042 38.6077 19.9548 37.9789 20.005 37.3498C20.0229 37.1106 20.1364 36.8747 20.2453 36.6484C20.2787 36.5788 20.3118 36.5102 20.3415 36.4426C21.5855 33.6113 22.8474 34.5741 24.199 35.6054C24.9354 36.1672 25.6983 36.7494 26.4994 36.7494C27.3006 36.7494 28.0635 36.1672 28.7999 35.6054C30.1515 34.5741 31.4134 33.6113 32.6574 36.4426C32.6871 36.5102 32.7201 36.5788 32.7536 36.6484C32.8625 36.8747 32.976 37.1106 32.9939 37.3498C33.0441 37.9784 33.0947 38.6068 33.1452 39.2351C33.1695 39.5367 33.1938 39.8384 33.2181 40.1401C33.3049 41.2221 33.5442 42.2638 33.9986 43.2537C34.1917 43.6746 34.5152 43.908 34.9523 43.9763C35.2919 44.0293 35.6374 44.0515 35.9813 44.0658C36.4542 44.0854 36.7354 44.2728 36.8836 44.7258C36.9462 44.9167 37.0011 45.1179 37.0119 45.3171C37.0496 46.0193 37.4478 46.4561 37.9835 46.7956C38.0239 46.8212 38.065 46.8463 38.1069 46.8708C38.3242 46.9982 38.4201 46.9417 38.3972 46.6887C38.3843 46.5442 38.3615 46.4007 38.3387 46.2571C38.3173 46.1221 38.2959 45.9871 38.2827 45.8514C38.2663 45.6814 38.2663 45.5044 38.2965 45.3375C38.309 45.2679 38.4127 45.1818 38.4866 45.1688C38.5135 45.1642 38.5508 45.181 38.586 45.2069C38.6381 45.254 38.668 45.3323 38.6966 45.4076C38.7081 45.4377 38.7194 45.4674 38.7319 45.4944C38.7682 45.5724 38.8018 45.6516 38.8354 45.7307C38.8835 45.8439 38.9315 45.957 38.9872 46.0665C39.0499 46.1897 39.1215 46.2334 39.1949 46.1996C39.2038 46.1955 39.2126 46.1903 39.2215 46.184C39.2537 46.1611 39.2861 46.1235 39.3181 46.0713C39.3383 46.0382 39.3573 46.0031 39.373 45.9668C39.3861 45.9364 39.3969 45.9051 39.404 45.8735C39.5984 45.0049 40.1038 44.4114 40.9228 44.0693C41.4312 43.8568 41.9413 43.6677 42.4867 43.6002C43.0834 43.4902 43.6804 43.5648 44.1663 44.0024C44.8847 44.6484 45.4898 45.3914 45.771 46.3479C45.8134 46.492 45.851 46.6377 45.8886 46.7833C45.943 46.9939 45.9974 47.2043 46.0661 47.4099C46.2616 47.9956 46.5362 48.5236 47.1314 48.7733C47.8836 49.0888 48.1816 48.1427 47.9705 47.5821C47.7861 47.0925 47.5412 46.6213 47.2833 46.1648C46.8582 45.4119 46.425 44.6638 45.9918 43.9156C45.688 43.391 45.3843 42.8664 45.0833 42.3403C45.049 42.2804 45.0144 42.2205 44.9797 42.1605C44.7834 41.8212 44.5859 41.48 44.4428 41.1186C44.2177 40.5513 44.3698 40.0996 44.8276 39.7014L44.8766 39.6588C45.094 39.4695 45.3117 39.2801 45.5222 39.0831C45.7801 38.8419 45.8552 38.5336 45.8103 38.1915C45.7811 37.9694 45.7492 37.7481 45.7168 37.5224C45.7033 37.4282 45.6896 37.3332 45.676 37.2372C45.4318 36.3451 45.7175 35.3162 46.0282 34.1974C46.6318 32.0236 47.3297 29.5101 44.4194 26.9999C44.4194 26.9999 43.9693 26.6056 43.7136 26.4647C43.5765 26.3944 43.4162 26.3087 43.2391 26.214C42.4575 25.7961 41.3491 25.2034 40.4601 24.9871C40.2791 24.9367 39.1903 24.6691 39.1903 24.6691C39.1903 24.6691 40.2703 24.7923 40.6059 24.815C40.7844 24.8271 40.9628 24.8403 41.1409 24.8557C42.3493 24.9604 43.5587 25.0561 44.7703 24.9932C44.8676 24.9881 44.9649 24.982 45.0622 24.9748C45.6017 24.935 46.174 24.8562 46.6915 24.7053C47.5204 24.4588 48.1295 23.8745 48.6357 23.1889C48.9783 22.7246 49.3096 22.2411 49.4439 21.6699C49.8779 19.8248 50.3015 17.9773 50.7251 16.1296C50.8277 15.6821 50.9303 15.2345 51.0331 14.7869C51.2449 13.8644 51.4562 12.9418 51.6674 12.0192C51.993 10.5975 52.3185 9.17594 52.646 7.75485C52.6837 7.59079 52.7317 7.42467 52.7801 7.2573C52.8893 6.87941 53.0004 6.49511 52.9989 6.11362V5.58591C52.9989 5.40527 52.9438 5.27084 52.8654 5.10592C52.6715 4.69812 52.3229 4.47857 51.9164 4.34337C51.6432 4.25232 51.3687 4.17962 51.0931 4.12518C50.7061 4.03656 50.3125 3.98582 49.9115 4.00349C49.4407 3.99896 48.9671 4.04629 48.491 4.14512L48.3181 4.18111C48.1591 4.20636 48.0006 4.23367 47.8427 4.26291C46.733 4.46811 45.6341 4.72722 44.632 5.27935C42.8234 6.2758 41.1254 7.44832 39.5582 8.78561C38.4866 9.69983 37.483 10.696 36.4804 11.691C36.2629 11.9068 36.0455 12.1226 35.8275 12.3375C35.1649 12.9905 34.5031 13.6557 33.9295 14.3856C33.8565 14.4786 33.7836 14.5716 33.7108 14.6647C32.9652 15.5662 32.2703 16.5103 31.5777 17.4552C31.0609 18.1445 30.548 18.8369 30.0376 19.5309C29.9458 19.6557 29.8528 19.78 29.7597 19.9043C29.2072 20.6426 28.6524 21.3841 28.3246 22.2662L28.3227 22.2711C28.3159 22.2896 28.3011 22.2965 28.2843 22.2842C28.0627 22.0107 28.0523 21.9237 28.2108 21.6564C28.5633 21.0616 28.2804 20.2978 27.6243 20.0861C27.5374 20.0579 27.4466 20.0417 27.3517 20.0247C27.3074 20.0167 27.2622 20.0086 27.2161 19.9991C27.224 19.9549 27.2279 19.9085 27.2317 19.8627C27.2399 19.7646 27.2479 19.6688 27.2955 19.6013C27.5737 19.2079 27.8562 18.8131 28.1784 18.4562C28.4968 18.1036 28.8241 17.759 29.1513 17.4144C29.5399 17.0053 29.9284 16.5962 30.3019 16.1737C30.8116 15.5968 31.3278 15.0104 31.7339 14.3604C32.044 13.8638 32.2891 13.3255 32.534 12.7877C32.6278 12.5817 32.7215 12.3758 32.8189 12.1723C32.8428 12.1226 32.8664 12.0743 32.8897 12.0265C32.9699 11.8623 33.0465 11.7054 33.1161 11.5289C33.1648 11.4056 33.2261 11.0889 33.0435 11.0271C32.9098 10.9819 32.7656 11.1177 32.6872 11.3345C32.5697 11.6597 32.4613 11.9893 32.368 12.3223C32.123 13.1948 31.8462 14.0617 31.2876 14.783C30.692 15.5525 30.0531 16.2903 29.3996 17.0111C29.2925 17.1292 29.1849 17.2468 29.0773 17.3644C28.4686 18.0298 27.8607 18.6944 27.3482 19.4418C27.3323 19.4648 27.3103 19.4836 27.2889 19.5018C27.2796 19.5098 27.2704 19.5176 27.2618 19.5257C27.0721 19.3763 26.7873 19.2998 26.4994 19.2968C26.2116 19.2998 25.9268 19.3763 25.7371 19.5257C25.7285 19.5176 25.7193 19.5098 25.71 19.5018C25.6886 19.4836 25.6666 19.4648 25.6507 19.4418C25.1382 18.6944 24.5303 18.0298 23.9216 17.3644C23.814 17.2468 23.7064 17.1292 23.5993 17.0111C22.9458 16.2903 22.3069 15.5525 21.7113 14.783C21.1527 14.0617 20.8759 13.1948 20.6309 12.3223C20.5376 11.9893 20.4292 11.6597 20.3117 11.3345C20.2333 11.1177 20.0891 10.9819 19.9554 11.0271C19.7728 11.0889 19.8341 11.4056 19.8828 11.5289C19.9524 11.7054 20.029 11.8623 20.1092 12.0265C20.1325 12.0742 20.1561 12.1226 20.18 12.1723C20.2774 12.3758 20.3711 12.5817 20.4649 12.7878C20.7098 13.3255 20.9549 13.8638 21.265 14.3604C21.6711 15.0104 22.1873 15.5968 22.697 16.1737C23.0705 16.5962 23.459 17.0053 23.8476 17.4144C24.1748 17.759 24.5021 18.1036 24.8204 18.4562C25.1427 18.8131 25.4252 19.2079 25.7034 19.6013C25.751 19.6688 25.759 19.7646 25.7672 19.8627C25.771 19.9085 25.7749 19.9549 25.7828 19.9991C25.7367 20.0086 25.6915 20.0167 25.6472 20.0247C25.5523 20.0417 25.4615 20.0579 25.3746 20.0861C24.7185 20.2978 24.4356 21.0616 24.788 21.6564C24.9466 21.9237 24.9362 22.0107 24.7146 22.2842C24.6978 22.2965 24.683 22.2896 24.6762 22.2711L24.6743 22.2662C24.3465 21.3841 23.7917 20.6426 23.2392 19.9043C23.1461 19.78 23.0531 19.6557 22.9613 19.5309C22.4509 18.8369 21.938 18.1445 21.4212 17.4552C20.7286 16.5103 20.0337 15.5662 19.2881 14.6647C19.2153 14.5716 19.1424 14.4786 19.0694 14.3856C18.4958 13.6557 17.834 12.9905 17.1714 12.3375C16.9534 12.1226 16.736 11.9068 16.5185 11.691C15.5159 10.696 14.5123 9.69982 13.4407 8.78561C11.8735 7.44832 10.1755 6.2758 8.36694 5.27935C7.36481 4.72722 6.26592 4.46811 5.15623 4.26291C4.99831 4.23367 4.83979 4.20636 4.68082 4.18111L4.50787 4.14512C4.03183 4.04629 3.55819 3.99896 3.08738 4.00349C2.68637 3.98582 2.29284 4.03656 1.90579 4.12518C1.63022 4.17962 1.35575 4.25232 1.08249 4.34337C0.676019 4.47857 0.327433 4.69812 0.133486 5.10592C0.0550562 5.27084 1.52431e-05 5.40527 1.52431e-05 5.58591V6.11362C-0.00150859 6.49511 0.109577 6.87941 0.218809 7.25729C0.267192 7.42467 0.315212 7.59079 0.35292 7.75485C0.6805 9.17652 1.00617 10.5987 1.33187 12.0209Z"></path></mask><path d="M28.8309 22.4542C28.9347 22.1745 28.7922 21.8636 28.5125 21.7598C28.2329 21.656 27.922 21.7986 27.8182 22.0782L28.8309 22.4542ZM27.8164 22.0831C27.7126 22.3628 27.8551 22.6737 28.1348 22.7775C28.4144 22.8813 28.7253 22.7387 28.8291 22.4591L27.8164 22.0831ZM7.81666 40.1088C8.04167 40.3046 8.38284 40.281 8.57868 40.056C8.77453 39.831 8.75089 39.4898 8.52588 39.2939L7.81666 40.1088ZM8.47695 39.2514C8.25194 39.0555 7.91077 39.0791 7.71493 39.3042C7.51908 39.5292 7.54272 39.8703 7.76773 40.0662L8.47695 39.2514ZM27.8182 22.0782L27.8164 22.0831L28.8291 22.4591L28.8309 22.4542L27.8182 22.0782ZM8.52588 39.2939L8.47695 39.2514L7.76773 40.0662L7.81666 40.1088L8.52588 39.2939ZM1.96583 14.7869L0.912981 15.0287L0.912986 15.0287L1.96583 14.7869ZM1.33187 12.0209L0.27888 12.2621L0.27888 12.2621L1.33187 12.0209ZM2.27383 16.1296L1.2209 16.371L1.2209 16.371L2.27383 16.1296ZM3.55499 21.6699L4.60655 21.4226L4.60654 21.4226L3.55499 21.6699ZM4.36317 23.1889L3.49388 23.8302L3.49416 23.8306L4.36317 23.1889ZM6.30739 24.7053L5.99947 25.7408L6.00502 25.7424L6.30739 24.7053ZM7.93672 24.9748L7.85719 26.0522L7.8573 26.0522L7.93672 24.9748ZM8.22862 24.9932L8.17259 26.0719L8.17261 26.0719L8.22862 24.9932ZM11.858 24.8557L11.765 23.7795L11.7648 23.7795L11.858 24.8557ZM12.393 24.815L12.3199 23.7373L12.3199 23.7373L12.393 24.815ZM13.8086 24.6691L14.0664 25.7182C14.6198 25.5822 14.9724 25.0396 14.8719 24.4787C14.7715 23.9177 14.2525 23.5313 13.6862 23.5958L13.8086 24.6691ZM12.5388 24.9871L12.7942 26.0367C12.8057 26.0339 12.8173 26.0309 12.8287 26.0277L12.5388 24.9871ZM9.75975 26.214L9.2504 25.2614L9.25039 25.2614L9.75975 26.214ZM9.28527 26.4647L8.79239 25.5035C8.78287 25.5083 8.77344 25.5134 8.76407 25.5185L9.28527 26.4647ZM8.57946 26.9999L9.28503 27.8179L9.2913 27.8124L8.57946 26.9999ZM6.97071 34.1974L5.92985 34.4864L5.92985 34.4864L6.97071 34.1974ZM7.32291 37.2372L6.28099 36.952C6.26897 36.9959 6.25975 37.0405 6.25336 37.0856L7.32291 37.2372ZM7.2821 37.5224L8.35135 37.6762L8.35135 37.6762L7.2821 37.5224ZM7.18858 38.1915L6.11759 38.0504L6.11752 38.0508L7.18858 38.1915ZM7.47669 39.0831L6.73864 39.8719L6.73874 39.872L7.47669 39.0831ZM8.12234 39.6588L8.83156 38.8439L8.83151 38.8439L8.12234 39.6588ZM8.17127 39.7014L7.46205 40.5162L7.46235 40.5164L8.17127 39.7014ZM8.55614 41.1186L7.55201 40.7203L7.55185 40.7207L8.55614 41.1186ZM8.01922 42.1605L7.08422 41.6195L7.08421 41.6195L8.01922 42.1605ZM7.91555 42.3403L6.97808 41.8035L6.97783 41.804L7.91555 42.3403ZM7.00712 43.9156L6.07229 43.3743L6.07229 43.3743L7.00712 43.9156ZM5.71562 46.1648L6.65616 46.6961L6.6563 46.6959L5.71562 46.1648ZM5.02838 47.5821L4.01751 47.2012L4.01741 47.2015L5.02838 47.5821ZM5.8675 48.7733L5.44969 47.7771L5.44968 47.7771L5.8675 48.7733ZM6.93284 47.4099L5.90826 47.0676L5.90822 47.0678L6.93284 47.4099ZM7.11025 46.7833L6.06432 46.5132L6.06432 46.5132L7.11025 46.7833ZM7.22787 46.3479L8.26424 46.6526L8.26425 46.6526L7.22787 46.3479ZM8.83257 44.0024L9.55493 44.8056L9.55549 44.8051L8.83257 44.0024ZM10.5122 43.6002L10.3163 44.6625C10.3372 44.6664 10.3583 44.6696 10.3794 44.6723L10.5122 43.6002ZM12.0761 44.0693L11.6595 45.066L11.6597 45.066L12.0761 44.0693ZM13.5949 45.8735L12.5407 46.1094L12.541 46.1106L13.5949 45.8735ZM13.6259 45.9668L14.6176 45.5384L14.6176 45.5384L13.6259 45.9668ZM13.6808 46.0713L12.7587 46.634L12.7598 46.6358L13.6808 46.0713ZM13.7774 46.184L13.1517 47.0646L13.1521 47.0649L13.7774 46.184ZM13.7901 46.1923L13.2398 47.1218L13.2403 47.1221L13.7901 46.1923ZM13.804 46.1996L13.3519 47.1807L13.3522 47.1808L13.804 46.1996ZM14.0117 46.0665L14.9743 46.5567L14.9746 46.5561L14.0117 46.0665ZM14.1635 45.7307L13.1692 45.3084L13.1692 45.3085L14.1635 45.7307ZM14.267 45.4944L15.2466 45.9498L15.2474 45.9479L14.267 45.4944ZM14.3023 45.4076L13.2928 45.0229L13.2928 45.0229L14.3023 45.4076ZM14.4129 45.2069L13.7718 44.3375C13.7428 44.3589 13.7148 44.3817 13.6881 44.4059L14.4129 45.2069ZM14.5123 45.1688L14.7002 44.105L14.6965 44.1044L14.5123 45.1688ZM14.7024 45.3375L13.6392 45.5289L13.6394 45.53L14.7024 45.3375ZM14.7162 45.8514L15.7914 45.9559L15.7914 45.9552L14.7162 45.8514ZM14.6602 46.2571L13.5933 46.0879L13.5933 46.0879L14.6602 46.2571ZM14.6017 46.6887L15.6776 46.786L15.6777 46.7848L14.6017 46.6887ZM14.892 46.8708L15.4384 47.8027L15.4388 47.8025L14.892 46.8708ZM15.0154 46.7956L15.5938 47.708L15.5938 47.708L15.0154 46.7956ZM15.987 45.3171L14.9083 45.2586L14.9083 45.2591L15.987 45.3171ZM16.1153 44.7258L17.1417 45.0626L17.142 45.0616L16.1153 44.7258ZM17.0176 44.0658L17.0623 45.1452L17.0627 45.1452L17.0176 44.0658ZM18.0466 43.9763L17.8799 42.909L17.8798 42.909L18.0466 43.9763ZM19.0003 43.2537L18.0186 42.8031L18.0185 42.8033L19.0003 43.2537ZM19.7808 40.1401L18.7041 40.0535L18.7041 40.0537L19.7808 40.1401ZM19.8535 39.2365L20.9303 39.3232L20.9303 39.3232L19.8535 39.2365ZM20.005 37.3498L21.0819 37.4358L21.0823 37.4301L20.005 37.3498ZM20.2453 36.6484L21.2187 37.1168L21.2187 37.1168L20.2453 36.6484ZM20.3415 36.4426L19.3525 36.0081L19.3525 36.0081L20.3415 36.4426ZM24.199 35.6054L23.5438 36.4642L23.5438 36.4642L24.199 35.6054ZM28.7999 35.6054L29.4551 36.4642L29.4551 36.4642L28.7999 35.6054ZM32.6574 36.4426L31.6684 36.8771L31.6684 36.8771L32.6574 36.4426ZM32.7536 36.6484L31.7802 37.1168L31.7802 37.1168L32.7536 36.6484ZM32.9939 37.3498L31.9166 37.4301L31.9171 37.4358L32.9939 37.3498ZM33.1452 39.2351L32.0685 39.3217L32.0685 39.3217L33.1452 39.2351ZM33.2181 40.1401L34.2948 40.0537L34.2948 40.0535L33.2181 40.1401ZM33.9986 43.2537L34.9804 42.8033L34.9803 42.8031L33.9986 43.2537ZM34.9523 43.9763L35.1191 42.909L35.119 42.909L34.9523 43.9763ZM35.9813 44.0658L35.9362 45.1452L35.9366 45.1452L35.9813 44.0658ZM36.8836 44.7258L35.8569 45.0616L35.8572 45.0626L36.8836 44.7258ZM37.0119 45.3171L38.0906 45.2591L38.0906 45.2586L37.0119 45.3171ZM37.9835 46.7956L37.4051 47.708L37.4051 47.708L37.9835 46.7956ZM38.1069 46.8708L37.5601 47.8025L37.5605 47.8027L38.1069 46.8708ZM38.3972 46.6887L37.3212 46.7848L37.3213 46.7861L38.3972 46.6887ZM38.3387 46.2571L39.4056 46.0879L39.4056 46.0879L38.3387 46.2571ZM38.2827 45.8514L37.2074 45.9552L37.2075 45.9559L38.2827 45.8514ZM38.2965 45.3375L39.3595 45.53L39.3597 45.529L38.2965 45.3375ZM38.4866 45.1688L38.3024 44.1044L38.2987 44.105L38.4866 45.1688ZM38.586 45.2069L39.3108 44.4059C39.2841 44.3817 39.2561 44.3589 39.2271 44.3375L38.586 45.2069ZM38.6966 45.4076L39.7061 45.023L39.7061 45.0229L38.6966 45.4076ZM38.7319 45.4944L37.7515 45.9479L37.7524 45.9498L38.7319 45.4944ZM38.8354 45.7307L37.8411 46.153L37.8411 46.153L38.8354 45.7307ZM38.9872 46.0665L38.0243 46.5561L38.0246 46.5567L38.9872 46.0665ZM39.1949 46.1996L38.7433 45.2183L38.7432 45.2183L39.1949 46.1996ZM39.2215 46.184L39.8467 47.0649L39.8472 47.0645L39.2215 46.184ZM39.3181 46.0713L40.2391 46.6358L40.2402 46.6341L39.3181 46.0713ZM39.373 45.9668L40.3646 46.3953L40.3647 46.3952L39.373 45.9668ZM39.404 45.8735L40.4579 46.1106L40.4582 46.1094L39.404 45.8735ZM40.9228 44.0693L41.3392 45.066L41.3394 45.066L40.9228 44.0693ZM42.4867 43.6002L42.6195 44.6723C42.6406 44.6696 42.6617 44.6664 42.6826 44.6625L42.4867 43.6002ZM44.1663 44.0024L43.4434 44.8051L43.444 44.8056L44.1663 44.0024ZM45.771 46.3479L44.7346 46.6526L44.7347 46.6526L45.771 46.3479ZM45.8886 46.7833L46.9346 46.5132L46.9346 46.5132L45.8886 46.7833ZM46.0661 47.4099L47.0907 47.0678L47.0906 47.0676L46.0661 47.4099ZM47.1314 48.7733L47.5492 47.7771L47.5492 47.7771L47.1314 48.7733ZM47.9705 47.5821L48.9815 47.2015L48.9814 47.2012L47.9705 47.5821ZM47.2833 46.1648L46.3426 46.6959L46.3427 46.6961L47.2833 46.1648ZM45.9918 43.9156L45.057 44.457L45.057 44.457L45.9918 43.9156ZM45.0833 42.3403L46.0211 41.804L46.0208 41.8036L45.0833 42.3403ZM44.9797 42.1605L45.9147 41.6195L45.9147 41.6195L44.9797 42.1605ZM44.4428 41.1186L45.447 40.7207L45.4469 40.7203L44.4428 41.1186ZM44.8276 39.7014L45.5365 40.5164L45.5369 40.5162L44.8276 39.7014ZM44.8766 39.6588L44.1674 38.8439L44.1673 38.844L44.8766 39.6588ZM45.5222 39.0831L46.2601 39.8721L46.2603 39.8719L45.5222 39.0831ZM45.8103 38.1915L46.8814 38.0508L46.8813 38.0504L45.8103 38.1915ZM45.7168 37.5224L44.6475 37.6762L44.6475 37.6762L45.7168 37.5224ZM45.676 37.2372L46.7455 37.0856C46.7392 37.0405 46.7299 36.9959 46.7179 36.952L45.676 37.2372ZM46.0282 34.1974L44.9873 33.9083L44.9873 33.9083L46.0282 34.1974ZM44.4194 26.9999L43.7076 27.8124L43.7139 27.8179L44.4194 26.9999ZM43.7136 26.4647L44.2348 25.5185C44.2255 25.5134 44.216 25.5083 44.2065 25.5035L43.7136 26.4647ZM43.2391 26.214L43.7485 25.2614L43.7485 25.2614L43.2391 26.214ZM40.4601 24.9871L40.1702 26.0277C40.1816 26.0309 40.1932 26.0339 40.2047 26.0367L40.4601 24.9871ZM39.1903 24.6691L39.3127 23.5958C38.7464 23.5313 38.2274 23.9177 38.127 24.4787C38.0265 25.0396 38.3791 25.5822 38.9325 25.7182L39.1903 24.6691ZM40.6059 24.815L40.679 23.7373L40.679 23.7373L40.6059 24.815ZM41.1409 24.8557L41.2341 23.7795L41.2339 23.7795L41.1409 24.8557ZM44.7703 24.9932L44.8263 26.0719L44.8263 26.0719L44.7703 24.9932ZM45.0622 24.9748L45.1416 26.0522L45.1417 26.0522L45.0622 24.9748ZM46.6915 24.7053L46.9939 25.7424L46.9994 25.7407L46.6915 24.7053ZM48.6357 23.1889L49.5047 23.8306L49.505 23.8302L48.6357 23.1889ZM49.4439 21.6699L48.3924 21.4226L48.3924 21.4226L49.4439 21.6699ZM50.7251 16.1296L51.778 16.371L51.778 16.371L50.7251 16.1296ZM51.0331 14.7869L52.0859 15.0287L52.0859 15.0287L51.0331 14.7869ZM51.6674 12.0192L52.7204 12.2603L52.7204 12.2603L51.6674 12.0192ZM52.646 7.75485L53.6986 7.9974L53.6988 7.99683L52.646 7.75485ZM52.7801 7.2573L53.8178 7.55727L53.8178 7.55727L52.7801 7.2573ZM52.9989 6.11362L51.9186 6.11362L51.9186 6.11793L52.9989 6.11362ZM52.8654 5.10592L53.841 4.64199L53.8409 4.64195L52.8654 5.10592ZM51.9164 4.34337L51.575 5.36823L51.5754 5.36839L51.9164 4.34337ZM51.0931 4.12518L50.852 5.17818C50.8626 5.18059 50.8731 5.18284 50.8837 5.18494L51.0931 4.12518ZM49.9115 4.00349L49.9011 5.08369C49.9204 5.08388 49.9398 5.08354 49.9591 5.08269L49.9115 4.00349ZM48.491 4.14512L48.2714 3.08743L48.271 3.08753L48.491 4.14512ZM48.3181 4.18111L48.4876 5.24797C48.5045 5.24529 48.5214 5.24219 48.5381 5.2387L48.3181 4.18111ZM47.8427 4.26291L48.0391 5.32514L48.0393 5.32511L47.8427 4.26291ZM44.632 5.27935L45.1532 6.2255L45.1532 6.2255L44.632 5.27935ZM39.5582 8.78561L40.2594 9.60742L40.2595 9.60733L39.5582 8.78561ZM36.4804 11.691L35.7194 10.9243L35.7194 10.9243L36.4804 11.691ZM35.8275 12.3375L36.5857 13.1069L36.5857 13.1069L35.8275 12.3375ZM33.9295 14.3856L33.0801 13.7181L33.08 13.7183L33.9295 14.3856ZM33.7108 14.6647L34.5432 15.3532C34.5495 15.3455 34.5558 15.3378 34.5619 15.3299L33.7108 14.6647ZM31.5777 17.4552L32.4421 18.1033L32.449 18.0938L31.5777 17.4552ZM30.0376 19.5309L30.9078 20.171L30.9078 20.1709L30.0376 19.5309ZM29.7597 19.9043L28.8948 19.2571L28.8948 19.2571L29.7597 19.9043ZM28.3246 22.2662L27.312 21.8898L27.3118 21.8903L28.3246 22.2662ZM28.3227 22.2711L27.31 21.8952L27.3098 21.8958L28.3227 22.2711ZM28.2843 22.2842L27.445 22.9642C27.5031 23.036 27.5702 23.0999 27.6445 23.1546L28.2843 22.2842ZM28.2108 21.6564L29.14 22.2073L29.1402 22.2071L28.2108 21.6564ZM27.6243 20.0861L27.2912 21.1137L27.2925 21.1141L27.6243 20.0861ZM27.3517 20.0247L27.542 18.9613L27.542 18.9613L27.3517 20.0247ZM27.2161 19.9991L26.153 19.8071C26.0488 20.3838 26.4235 20.9384 26.9974 21.057L27.2161 19.9991ZM27.2317 19.8627L26.1552 19.773L26.1552 19.7731L27.2317 19.8627ZM27.2955 19.6013L26.4135 18.9777L26.413 18.9783L27.2955 19.6013ZM28.1784 18.4562L27.3766 17.7323L27.3766 17.7323L28.1784 18.4562ZM29.1513 17.4144L28.368 16.6705L28.368 16.6705L29.1513 17.4144ZM30.3019 16.1737L31.1112 16.8893L31.1115 16.889L30.3019 16.1737ZM31.7339 14.3604L32.65 14.9327L32.6501 14.9326L31.7339 14.3604ZM32.534 12.7877L31.5508 12.3401L31.5508 12.3401L32.534 12.7877ZM32.8189 12.1723L31.8451 11.7048L31.8445 11.706L32.8189 12.1723ZM32.8897 12.0265L33.8604 12.5006L33.8604 12.5005L32.8897 12.0265ZM33.1161 11.5289L34.121 11.9252L34.121 11.9252L33.1161 11.5289ZM33.0435 11.0271L32.6975 12.0505L32.6975 12.0505L33.0435 11.0271ZM32.6872 11.3345L31.6714 10.967L31.6712 10.9675L32.6872 11.3345ZM32.368 12.3223L33.408 12.6142L33.4082 12.6137L32.368 12.3223ZM31.2876 14.783L30.4335 14.1216L30.4334 14.1217L31.2876 14.783ZM29.3996 17.0111L30.1998 17.7367L30.1999 17.7367L29.3996 17.0111ZM29.0773 17.3644L29.8743 18.0936L29.8743 18.0936L29.0773 17.3644ZM27.3482 19.4418L28.2362 20.057L28.2392 20.0526L27.3482 19.4418ZM27.2889 19.5018L27.99 20.3236L27.9901 20.3235L27.2889 19.5018ZM27.2618 19.5257L26.5938 20.3746C27.0145 20.7057 27.6143 20.6786 28.0035 20.3111L27.2618 19.5257ZM26.4994 19.2968L26.5107 18.2166C26.5032 18.2165 26.4957 18.2165 26.4882 18.2166L26.4994 19.2968ZM25.7371 19.5257L24.9954 20.3111C25.3846 20.6786 25.9844 20.7057 26.4051 20.3746L25.7371 19.5257ZM25.71 19.5018L25.0088 20.3235L25.0089 20.3236L25.71 19.5018ZM25.6507 19.4418L24.7597 20.0526L24.7627 20.057L25.6507 19.4418ZM23.9216 17.3644L23.1245 18.0936L23.1246 18.0936L23.9216 17.3644ZM23.5993 17.0111L22.799 17.7367L22.7991 17.7367L23.5993 17.0111ZM21.7113 14.783L22.5655 14.1217L22.5654 14.1216L21.7113 14.783ZM20.6309 12.3223L19.5907 12.6137L19.5909 12.6142L20.6309 12.3223ZM20.3117 11.3345L21.3277 10.9675L21.3275 10.967L20.3117 11.3345ZM19.9554 11.0271L20.3014 12.0505L20.3014 12.0505L19.9554 11.0271ZM19.8828 11.5289L18.8778 11.9252L18.8779 11.9252L19.8828 11.5289ZM20.1092 12.0265L19.1385 12.5005L19.1385 12.5005L20.1092 12.0265ZM20.18 12.1723L21.1544 11.706L21.1538 11.7048L20.18 12.1723ZM20.4649 12.7878L19.4818 13.2354L19.4818 13.2354L20.4649 12.7878ZM21.265 14.3604L20.3488 14.9326L20.3489 14.9327L21.265 14.3604ZM22.697 16.1737L21.8874 16.889L21.8877 16.8893L22.697 16.1737ZM23.8476 17.4144L24.6309 16.6705L24.6308 16.6705L23.8476 17.4144ZM24.8204 18.4562L25.6223 17.7323L25.6223 17.7323L24.8204 18.4562ZM25.7034 19.6013L26.5859 18.9783L26.5854 18.9777L25.7034 19.6013ZM25.7672 19.8627L26.8437 19.7731L26.8437 19.773L25.7672 19.8627ZM25.7828 19.9991L26.0015 21.057C26.5754 20.9384 26.9501 20.3838 26.8459 19.8071L25.7828 19.9991ZM25.6472 20.0247L25.4569 18.9613L25.4569 18.9613L25.6472 20.0247ZM25.3746 20.0861L25.7064 21.1141L25.7077 21.1137L25.3746 20.0861ZM24.788 21.6564L23.8587 22.2071L23.8588 22.2073L24.788 21.6564ZM24.7146 22.2842L25.3544 23.1546C25.4287 23.0999 25.4958 23.036 25.5539 22.9642L24.7146 22.2842ZM24.6762 22.2711L25.6891 21.8958L25.6889 21.8952L24.6762 22.2711ZM24.6743 22.2662L25.6871 21.8903L25.6869 21.8898L24.6743 22.2662ZM23.2392 19.9043L24.1041 19.2571L24.1041 19.2571L23.2392 19.9043ZM22.9613 19.5309L22.0911 20.1709L22.0911 20.171L22.9613 19.5309ZM21.4212 17.4552L20.5498 18.0938L20.5569 18.1032L21.4212 17.4552ZM19.2881 14.6647L18.437 15.3299C18.4431 15.3378 18.4494 15.3455 18.4557 15.3532L19.2881 14.6647ZM19.0694 14.3856L19.9189 13.7183L19.9188 13.7181L19.0694 14.3856ZM17.1714 12.3375L16.4132 13.1069L16.4132 13.1069L17.1714 12.3375ZM16.5185 11.691L17.2795 10.9243L17.2795 10.9243L16.5185 11.691ZM13.4407 8.78561L12.7394 9.60733L12.7395 9.60742L13.4407 8.78561ZM8.36694 5.27935L7.84565 6.2255L7.84565 6.2255L8.36694 5.27935ZM5.15623 4.26291L4.95961 5.32511L4.95981 5.32514L5.15623 4.26291ZM4.68082 4.18111L4.46076 5.2387C4.47754 5.24219 4.4944 5.24529 4.51133 5.24797L4.68082 4.18111ZM4.50787 4.14512L4.72793 3.08753L4.72745 3.08743L4.50787 4.14512ZM3.08738 4.00349L3.03982 5.08269C3.05912 5.08354 3.07845 5.08388 3.09777 5.08369L3.08738 4.00349ZM1.90579 4.12518L2.11516 5.18494C2.12576 5.18284 2.13634 5.18059 2.14687 5.17818L1.90579 4.12518ZM1.08249 4.34337L1.42345 5.36839L1.42394 5.36823L1.08249 4.34337ZM0.133486 5.10592L-0.84205 4.64195L-0.842068 4.64199L0.133486 5.10592ZM1.52431e-05 6.11362L1.08026 6.11793V6.11362H1.52431e-05ZM0.218809 7.25729L1.25657 6.95731L1.25657 6.95731L0.218809 7.25729ZM0.35292 7.75485L-0.699877 7.99682L-0.699744 7.9974L0.35292 7.75485ZM3.01869 14.5452C2.80709 13.6236 2.59601 12.7018 2.38486 11.7798L0.27888 12.2621C0.490006 13.184 0.701221 14.1063 0.912981 15.0287L3.01869 14.5452ZM3.32675 15.8882C3.22415 15.4407 3.12149 14.9929 3.01868 14.5452L0.912986 15.0287C1.0157 15.476 1.11828 15.9234 1.2209 16.371L3.32675 15.8882ZM4.60654 21.4226C4.17339 19.581 3.75047 17.7363 3.32675 15.8882L1.2209 16.371C1.64439 18.2181 2.06866 20.0687 2.50343 21.9172L4.60654 21.4226ZM5.23246 22.5476C4.8884 22.0812 4.68495 21.756 4.60655 21.4226L2.50342 21.9172C2.69369 22.7263 3.15286 23.368 3.49388 23.8302L5.23246 22.5476ZM6.61531 23.6699C6.1098 23.5195 5.676 23.1483 5.23218 22.5472L3.49416 23.8306C4.06283 24.6007 4.84714 25.3981 5.99947 25.7407L6.61531 23.6699ZM8.01624 23.8975C7.51758 23.8607 7.02743 23.79 6.60976 23.6682L6.00502 25.7424C6.62228 25.9223 7.27689 26.0093 7.85719 26.0522L8.01624 23.8975ZM8.28464 23.9144C8.19489 23.9097 8.10539 23.9041 8.01613 23.8975L7.8573 26.0522C7.96267 26.0599 8.06777 26.0665 8.17259 26.0719L8.28464 23.9144ZM11.7648 23.7795C10.5517 23.8846 9.41188 23.9729 8.28463 23.9144L8.17261 26.0719C9.46852 26.1392 10.7476 26.0362 11.9512 25.9319L11.7648 23.7795ZM12.3199 23.7373C12.1372 23.7497 11.9518 23.7633 11.765 23.7795L11.951 25.932C12.1205 25.9173 12.2918 25.9046 12.4661 25.8928L12.3199 23.7373ZM13.8086 24.6691C13.6862 23.5958 13.6862 23.5958 13.6862 23.5958C13.6862 23.5958 13.6862 23.5958 13.6862 23.5958C13.6862 23.5958 13.6862 23.5959 13.6861 23.5959C13.686 23.5959 13.6858 23.5959 13.6856 23.5959C13.6851 23.596 13.6844 23.5961 13.6834 23.5962C13.6814 23.5964 13.6784 23.5967 13.6745 23.5972C13.6667 23.5981 13.6551 23.5994 13.6402 23.6011C13.6104 23.6044 13.5674 23.6093 13.5146 23.6152C13.4091 23.627 13.265 23.6429 13.1109 23.6595C12.792 23.6939 12.4617 23.7276 12.3199 23.7373L12.4661 25.8928C12.6598 25.8797 13.0374 25.8405 13.3424 25.8076C13.5002 25.7906 13.6471 25.7743 13.7546 25.7623C13.8083 25.7563 13.8523 25.7513 13.8829 25.7479C13.8981 25.7462 13.9101 25.7448 13.9183 25.7439C13.9224 25.7434 13.9255 25.7431 13.9276 25.7428C13.9287 25.7427 13.9295 25.7426 13.9301 25.7425C13.9304 25.7425 13.9306 25.7425 13.9307 25.7425C13.9308 25.7424 13.9309 25.7424 13.9309 25.7424C13.9309 25.7424 13.9309 25.7424 13.931 25.7424C13.931 25.7424 13.931 25.7424 13.8086 24.6691ZM12.8287 26.0277C12.9002 26.0078 13.1971 25.9333 13.5018 25.8576C13.6485 25.8212 13.7897 25.7863 13.8943 25.7606C13.9466 25.7477 13.9896 25.7371 14.0196 25.7297C14.0346 25.726 14.0463 25.7231 14.0543 25.7211C14.0583 25.7202 14.0613 25.7194 14.0633 25.7189C14.0644 25.7187 14.0651 25.7185 14.0656 25.7184C14.0659 25.7183 14.0661 25.7182 14.0662 25.7182C14.0663 25.7182 14.0663 25.7182 14.0663 25.7182C14.0664 25.7182 14.0664 25.7182 14.0664 25.7182C14.0664 25.7182 14.0664 25.7182 13.8086 24.6691C13.5508 23.6201 13.5508 23.6201 13.5508 23.6201C13.5508 23.6201 13.5508 23.6201 13.5508 23.6201C13.5507 23.6201 13.5507 23.6201 13.5506 23.6201C13.5505 23.6202 13.5503 23.6202 13.55 23.6203C13.5495 23.6204 13.5487 23.6206 13.5476 23.6209C13.5455 23.6214 13.5424 23.6222 13.5384 23.6232C13.5303 23.6251 13.5184 23.6281 13.5033 23.6318C13.473 23.6392 13.4296 23.6499 13.377 23.6629C13.2718 23.6889 13.1294 23.724 12.9813 23.7608C12.6964 23.8315 12.3583 23.916 12.2488 23.9465L12.8287 26.0277ZM10.2691 27.1666C11.0907 26.7274 12.0668 26.2137 12.7942 26.0367L12.2834 23.9375C11.2328 24.1931 9.99217 24.8648 9.2504 25.2614L10.2691 27.1666ZM9.77816 27.426C9.92534 27.3505 10.0946 27.2599 10.2691 27.1666L9.25039 25.2614C9.0708 25.3574 8.91954 25.4383 8.79239 25.5035L9.77816 27.426ZM8.57946 26.9999C9.2913 27.8124 9.29126 27.8125 9.29123 27.8125C9.29122 27.8125 9.29118 27.8125 9.29116 27.8125C9.29112 27.8126 9.29108 27.8126 9.29105 27.8126C9.29099 27.8127 9.29096 27.8127 9.29096 27.8127C9.29095 27.8127 9.29105 27.8126 9.29124 27.8125C9.29164 27.8121 9.29244 27.8114 9.29363 27.8104C9.29601 27.8083 9.29994 27.8049 9.30526 27.8003C9.31591 27.7911 9.33204 27.7773 9.35242 27.76C9.39349 27.7252 9.45029 27.6777 9.51341 27.6269C9.57731 27.5756 9.6428 27.5247 9.702 27.4817C9.73135 27.4604 9.75626 27.4431 9.77636 27.4299C9.79746 27.4159 9.80702 27.4106 9.80647 27.4109L8.76407 25.5185C8.54384 25.6398 8.30086 25.8296 8.15953 25.9433C8.07816 26.0087 8.00646 26.0686 7.95514 26.1122C7.92933 26.134 7.9083 26.1521 7.89334 26.165C7.88585 26.1715 7.87985 26.1767 7.87552 26.1805C7.87335 26.1823 7.87159 26.1839 7.87027 26.185C7.86961 26.1856 7.86905 26.1861 7.86861 26.1865C7.86839 26.1867 7.86819 26.1868 7.86803 26.187C7.86794 26.1871 7.86787 26.1871 7.8678 26.1872C7.86776 26.1872 7.86772 26.1873 7.8677 26.1873C7.86765 26.1873 7.86761 26.1874 8.57946 26.9999ZM8.01158 33.9083C7.70115 32.7904 7.44062 31.8095 7.5329 30.8257C7.61833 29.9148 8.02129 28.9079 9.28501 27.8179L7.87391 26.1819C6.22733 27.6021 5.52411 29.1071 5.38185 30.6239C5.24642 32.0678 5.63667 33.4306 5.92985 34.4864L8.01158 33.9083ZM8.36484 37.5224C8.54277 36.8723 8.51427 36.223 8.42209 35.635C8.33087 35.0532 8.16296 34.4535 8.01158 33.9083L5.92985 34.4864C6.08915 35.0601 6.21942 35.5343 6.28767 35.9696C6.35496 36.3988 6.34722 36.71 6.28099 36.952L8.36484 37.5224ZM8.35135 37.6762C8.36487 37.5821 8.37868 37.4861 8.39247 37.3888L6.25336 37.0856C6.23992 37.1804 6.22642 37.2743 6.21285 37.3687L8.35135 37.6762ZM8.25957 38.3326C8.28785 38.1179 8.31876 37.9029 8.35135 37.6762L6.21285 37.3687C6.18056 37.5932 6.14781 37.821 6.11759 38.0504L8.25957 38.3326ZM8.21474 38.2943C8.21565 38.2952 8.22334 38.3028 8.23262 38.3176C8.24196 38.3326 8.24881 38.3483 8.25299 38.3621C8.26129 38.3895 8.25253 38.3862 8.25963 38.3321L6.11752 38.0508C6.03832 38.6541 6.17011 39.34 6.73864 39.8719L8.21474 38.2943ZM8.83151 38.8439C8.61163 38.6525 8.40868 38.4757 8.21464 38.2942L6.73874 39.872C6.9658 40.0844 7.19814 40.2865 7.41316 40.4736L8.83151 38.8439ZM8.88049 38.8865L8.83156 38.8439L7.41312 40.4736L7.46205 40.5162L8.88049 38.8865ZM9.56027 41.5169C9.7429 41.0566 9.80342 40.5543 9.65805 40.0483C9.51652 39.5556 9.21312 39.1758 8.88019 38.8863L7.46235 40.5164C7.58729 40.6251 7.58885 40.6703 7.58155 40.6448C7.57816 40.633 7.57876 40.6248 7.57851 40.6279C7.57807 40.6335 7.57485 40.6627 7.55201 40.7203L9.56027 41.5169ZM8.95423 42.7015C9.14342 42.3745 9.38292 41.9646 9.56043 41.5165L7.55185 40.7207C7.44304 40.9954 7.28765 41.2679 7.08422 41.6195L8.95423 42.7015ZM8.85302 42.877C8.88591 42.8196 8.91933 42.7618 8.95424 42.7015L7.08421 41.6195C7.04972 41.6791 7.01383 41.7411 6.97808 41.8035L8.85302 42.877ZM7.94195 44.4569C8.24548 43.9327 8.5507 43.4056 8.85327 42.8766L6.97783 41.804C6.67861 42.3272 6.37631 42.8492 6.07229 43.3743L7.94195 44.4569ZM6.6563 46.6959C7.07796 45.949 7.50825 45.2059 7.94195 44.4569L6.07229 43.3743C5.63957 44.1216 5.20336 44.8749 4.77493 45.6337L6.6563 46.6959ZM6.03926 47.9629C6.19483 47.55 6.4084 47.1347 6.65616 46.6961L4.77507 45.6335C4.50708 46.1079 4.23082 46.635 4.01751 47.2012L6.03926 47.9629ZM5.44968 47.7771C5.47248 47.7675 5.6136 47.724 5.79661 47.7985C5.96063 47.8653 6.02723 47.9741 6.04038 47.9988C6.05342 48.0233 6.04502 48.0177 6.04287 47.9827C6.04073 47.9478 6.04825 47.9391 6.03936 47.9627L4.01741 47.2015C3.80418 47.7678 3.8429 48.4683 4.13302 49.0136C4.2883 49.3054 4.55724 49.6267 4.9821 49.7996C5.42594 49.9803 5.8864 49.9367 6.28531 49.7694L5.44968 47.7771ZM5.90822 47.0678C5.73593 47.5837 5.59427 47.7164 5.44969 47.7771L6.2853 49.7694C7.33112 49.3308 7.73857 48.4076 7.95747 47.7521L5.90822 47.0678ZM6.06432 46.5132C6.00835 46.73 5.96302 46.9038 5.90826 47.0676L7.95742 47.7522C8.04005 47.5049 8.10341 47.2578 8.15619 47.0534L6.06432 46.5132ZM6.19149 46.0431C6.14319 46.2074 6.10117 46.3705 6.06432 46.5132L8.15619 47.0534C8.19455 46.9049 8.22777 46.7766 8.26424 46.6526L6.19149 46.0431ZM8.11021 43.1992C7.31541 43.914 6.55143 44.8189 6.19148 46.0431L8.26425 46.6526C8.4667 45.9639 8.91307 45.3828 9.55493 44.8056L8.11021 43.1992ZM10.7081 42.5379C9.89788 42.3884 8.92135 42.4687 8.10965 43.1997L9.55549 44.8051C9.71562 44.6609 9.93318 44.5919 10.3163 44.6625L10.7081 42.5379ZM12.4927 43.0726C11.9686 42.8535 11.3448 42.6148 10.645 42.5281L10.3794 44.6723C10.7704 44.7207 11.1667 44.86 11.6595 45.066L12.4927 43.0726ZM14.649 45.6376C14.3769 44.4213 13.6297 43.5476 12.4925 43.0725L11.6597 45.066C12.1605 45.2753 12.4241 45.5884 12.5407 46.1094L14.649 45.6376ZM14.6176 45.5384C14.6254 45.5564 14.6383 45.5897 14.6488 45.6364L12.541 46.1106C12.5657 46.2204 12.6001 46.3163 12.6343 46.3953L14.6176 45.5384ZM14.6029 45.5086C14.6026 45.5081 14.6039 45.5102 14.6063 45.5147C14.6087 45.5191 14.6127 45.5271 14.6176 45.5384L12.6343 46.3952C12.6749 46.4892 12.7196 46.5699 12.7587 46.634L14.6029 45.5086ZM14.4031 45.3034C14.4736 45.3535 14.521 45.4027 14.5488 45.4351C14.5772 45.4682 14.5942 45.4943 14.6019 45.5068L12.7598 46.6358C12.8321 46.7538 12.9554 46.9251 13.1517 47.0646L14.4031 45.3034ZM14.3405 45.2627C14.3632 45.2762 14.384 45.2898 14.4027 45.3031L13.1521 47.0649C13.1793 47.0842 13.2085 47.1033 13.2398 47.1218L14.3405 45.2627ZM14.256 45.2184C14.2866 45.2326 14.3146 45.2475 14.34 45.2624L13.2403 47.1221C13.2748 47.1425 13.3121 47.1623 13.3519 47.1807L14.256 45.2184ZM13.0491 45.5764C13.0566 45.5616 13.133 45.4064 13.3343 45.279C13.4472 45.2076 13.5996 45.1456 13.7828 45.1328C13.9668 45.1198 14.1292 45.1601 14.2557 45.2183L13.3522 47.1808C13.7272 47.3534 14.1505 47.3192 14.4894 47.1048C14.7606 46.9333 14.9041 46.6946 14.9743 46.5567L13.0491 45.5764ZM13.1692 45.3085C13.1187 45.4274 13.0848 45.5061 13.0487 45.577L14.9746 46.5561C15.05 46.408 15.1121 46.2605 15.1578 46.153L13.1692 45.3085ZM13.2874 45.039C13.2422 45.1362 13.2016 45.2321 13.1692 45.3084L15.1578 46.153C15.1926 46.0711 15.2192 46.0086 15.2466 45.9498L13.2874 45.039ZM13.2928 45.0229C13.2898 45.0308 13.2877 45.0363 13.2858 45.0413C13.2839 45.0462 13.2827 45.0492 13.282 45.051C13.2813 45.0528 13.2813 45.0527 13.2819 45.0512C13.2826 45.0497 13.2841 45.0461 13.2865 45.0409L15.2474 45.9479C15.2785 45.8808 15.3031 45.8148 15.3117 45.7923L13.2928 45.0229ZM13.6881 44.4059C13.5232 44.5551 13.431 44.7174 13.3839 44.811C13.3371 44.904 13.3032 44.9956 13.2928 45.0229L15.3117 45.7923C15.3197 45.7714 15.3222 45.7649 15.3239 45.7607C15.3253 45.7574 15.3217 45.7666 15.3137 45.7825C15.3017 45.8063 15.2504 45.9059 15.1376 46.0079L13.6881 44.4059ZM14.6965 44.1044C14.4033 44.0536 14.1696 44.1312 14.0632 44.1739C13.9393 44.2237 13.841 44.2864 13.7718 44.3375L15.0539 46.0764C15.0199 46.1015 14.9579 46.1428 14.8682 46.1789C14.796 46.2078 14.5945 46.2793 14.3281 46.2332L14.6965 44.1044ZM15.7655 45.146C15.6937 44.7471 15.4394 44.5037 15.3382 44.4159C15.2174 44.3111 14.9984 44.1577 14.7002 44.105L14.3245 46.2326C14.1961 46.2099 14.1049 46.1667 14.0571 46.1408C14.0038 46.112 13.9597 46.0802 13.9225 46.048C13.8864 46.0166 13.8395 45.9698 13.7927 45.903C13.7513 45.8438 13.673 45.7166 13.6392 45.5289L15.7655 45.146ZM15.7914 45.9552C15.8142 45.7198 15.8184 45.438 15.7653 45.145L13.6394 45.53C13.6468 45.5709 13.6511 45.643 13.641 45.7475L15.7914 45.9552ZM15.7271 46.4264C15.7476 46.2968 15.7745 46.1295 15.7914 45.9559L13.641 45.7469C13.6315 45.8447 13.6155 45.9474 13.5933 46.0879L15.7271 46.4264ZM15.6777 46.7848C15.6868 46.6832 15.7033 46.576 15.7271 46.4264L13.5933 46.0879C13.5715 46.2253 13.5425 46.4052 13.5258 46.5926L15.6777 46.7848ZM14.3456 45.939C14.3473 45.938 14.3612 45.9299 14.3858 45.9192C14.4095 45.9089 14.455 45.891 14.5186 45.8769C14.6367 45.8508 14.924 45.8177 15.2247 46.0035C15.5289 46.1915 15.6287 46.4683 15.6583 46.594C15.6739 46.66 15.6774 46.711 15.6784 46.7382C15.6793 46.7665 15.6778 46.7836 15.6776 46.786L13.5259 46.5914C13.5151 46.7102 13.5086 46.8911 13.5554 47.0896C13.6034 47.2931 13.7365 47.6235 14.0889 47.8413C14.4379 48.057 14.7884 48.0299 14.9849 47.9865C15.1795 47.9435 15.3369 47.8622 15.4384 47.8027L14.3456 45.939ZM14.4371 45.8832C14.4079 45.9017 14.3773 45.9204 14.3452 45.9392L15.4388 47.8025C15.4904 47.7722 15.5422 47.7407 15.5938 47.708L14.4371 45.8832ZM14.9083 45.2591C14.9006 45.4034 14.8617 45.4905 14.8092 45.564C14.7466 45.6515 14.6358 45.7573 14.4371 45.8833L15.5938 47.708C16.2891 47.2672 17.002 46.5604 17.0657 45.3751L14.9083 45.2591ZM15.0889 44.389C15.0184 44.6037 14.927 44.9141 14.9083 45.2586L17.0657 45.3756C17.0686 45.3218 17.0869 45.2296 17.1417 45.0626L15.0889 44.389ZM16.973 42.9865C16.6097 43.0016 16.1919 43.0857 15.8158 43.3549C15.4313 43.6302 15.2125 44.011 15.0886 44.39L17.142 45.0616C17.1549 45.0222 17.1609 45.0189 17.1501 45.0351C17.1372 45.0542 17.112 45.0841 17.0735 45.1116C17.0358 45.1386 17.0054 45.1491 16.9967 45.1516C16.991 45.1533 17.0089 45.1474 17.0623 45.1452L16.973 42.9865ZM17.8798 42.909C17.6014 42.9525 17.3043 42.9727 16.9726 42.9865L17.0627 45.1452C17.4187 45.1303 17.8127 45.1062 18.2133 45.0436L17.8798 42.909ZM18.0185 42.8033C18.0022 42.8387 17.9885 42.8587 17.9808 42.8686C17.9734 42.878 17.9691 42.8813 17.9677 42.8824C17.9662 42.8835 17.9616 42.8868 17.9504 42.8913C17.9387 42.896 17.9164 42.9033 17.8799 42.909L18.2132 45.0436C18.9998 44.9208 19.6344 44.4621 19.9821 43.7042L18.0185 42.8033ZM18.7041 40.0537C18.6256 41.0318 18.4117 41.9466 18.0186 42.8031L19.9821 43.7044C20.4977 42.581 20.7625 41.4125 20.8576 40.2265L18.7041 40.0537ZM18.7768 39.1498C18.7525 39.451 18.7283 39.7522 18.7041 40.0535L20.8576 40.2266C20.8818 39.9255 20.9061 39.6244 20.9303 39.3232L18.7768 39.1498ZM18.9282 37.2638C18.878 37.8925 18.8274 38.521 18.7768 39.1498L20.9303 39.3232C20.9809 38.6945 21.0316 38.0653 21.0818 37.4358L18.9282 37.2638ZM19.2719 36.18C19.1841 36.3624 18.9636 36.7886 18.9278 37.2696L21.0823 37.4301C21.0808 37.45 21.0783 37.4376 21.1017 37.3757C21.1263 37.3104 21.1605 37.2376 21.2187 37.1168L19.2719 36.18ZM19.3525 36.0081C19.3316 36.0556 19.3069 36.1072 19.2719 36.18L21.2187 37.1168C21.2506 37.0505 21.292 36.9648 21.3305 36.8771L19.3525 36.0081ZM24.8543 34.7466C24.5294 34.4987 24.1418 34.201 23.745 33.9697C23.35 33.7395 22.8402 33.5099 22.2564 33.4956C20.9073 33.4625 20.0073 34.5177 19.3525 36.0081L21.3305 36.8771C21.6125 36.2352 21.852 35.9142 22.0138 35.7641C22.1456 35.6418 22.1961 35.6553 22.2034 35.6554C22.2596 35.6568 22.3964 35.6844 22.6571 35.8363C22.9159 35.9871 23.1928 36.1965 23.5438 36.4642L24.8543 34.7466ZM26.4994 35.6691C26.3597 35.6691 26.1575 35.6173 25.8552 35.4469C25.5496 35.2747 25.2354 35.0374 24.8543 34.7466L23.5438 36.4642C23.899 36.7353 24.3345 37.0699 24.7947 37.3292C25.2582 37.5904 25.838 37.8296 26.4994 37.8296V35.6691ZM26.4994 37.8296C27.1609 37.8296 27.7407 37.5904 28.2042 37.3292C28.6644 37.0699 29.0999 36.7353 29.4551 36.4642L28.1446 34.7466C27.7635 35.0374 27.4493 35.2747 27.1437 35.4469C26.8414 35.6173 26.6392 35.6691 26.4994 35.6691V37.8296ZM29.4551 36.4642C29.8061 36.1965 30.083 35.9871 30.3418 35.8363C30.6024 35.6844 30.7393 35.6568 30.7955 35.6554C30.8028 35.6553 30.8533 35.6418 30.9851 35.7641C31.1469 35.9142 31.3864 36.2352 31.6684 36.8771L33.6464 36.0081C32.9916 34.5177 32.0916 33.4625 30.7425 33.4956C30.1587 33.5099 29.6489 33.7395 29.2539 33.9697C28.8571 34.201 28.4695 34.4987 28.1446 34.7466L29.4551 36.4642ZM31.6684 36.8771C31.7069 36.9648 31.7483 37.0505 31.7802 37.1168L33.727 36.18C33.692 36.1071 33.6673 36.0555 33.6464 36.0081L31.6684 36.8771ZM31.7802 37.1168C31.8384 37.2376 31.8726 37.3104 31.8972 37.3757C31.9206 37.4376 31.9181 37.45 31.9166 37.4301L34.0711 37.2695C34.0353 36.7886 33.8148 36.3624 33.727 36.18L31.7802 37.1168ZM31.9171 37.4358C31.9673 38.0648 32.0179 38.6935 32.0685 39.3217L34.222 39.1484C34.1714 38.52 34.1209 37.892 34.0707 37.2638L31.9171 37.4358ZM32.0685 39.3217C32.0928 39.6234 32.117 39.925 32.1413 40.2266L34.2948 40.0535C34.2706 39.7518 34.2463 39.45 34.222 39.1484L32.0685 39.3217ZM32.1413 40.2265C32.2364 41.4125 32.5012 42.581 33.0168 43.7044L34.9803 42.8031C34.5872 41.9466 34.3733 41.0318 34.2948 40.0537L32.1413 40.2265ZM33.0168 43.7042C33.3645 44.4621 33.9991 44.9208 34.7857 45.0436L35.119 42.909C35.0825 42.9033 35.0602 42.896 35.0485 42.8913C35.0373 42.8868 35.0327 42.8835 35.0312 42.8824C35.0298 42.8813 35.0255 42.878 35.0181 42.8686C35.0104 42.8587 34.9967 42.8387 34.9804 42.8033L33.0168 43.7042ZM34.7856 45.0436C35.1862 45.1062 35.5802 45.1303 35.9362 45.1452L36.0263 42.9865C35.6946 42.9727 35.3975 42.9525 35.1191 42.909L34.7856 45.0436ZM35.9366 45.1452C35.99 45.1474 36.0079 45.1533 36.0022 45.1516C35.9935 45.1491 35.9631 45.1386 35.9254 45.1116C35.8869 45.0841 35.8616 45.0542 35.8488 45.0351C35.838 45.0189 35.844 45.0222 35.8569 45.0616L37.9103 44.39C37.7864 44.011 37.5676 43.6302 37.1831 43.3549C36.807 43.0857 36.3892 43.0016 36.0259 42.9865L35.9366 45.1452ZM35.8572 45.0626C35.912 45.2296 35.9303 45.3218 35.9332 45.3756L38.0906 45.2586C38.0719 44.9141 37.9805 44.6037 37.91 44.389L35.8572 45.0626ZM35.9332 45.3751C35.9969 46.5604 36.7098 47.2672 37.4051 47.708L38.5618 45.8833C38.3631 45.7573 38.2523 45.6515 38.1897 45.564C38.1372 45.4905 38.0983 45.4034 38.0906 45.2591L35.9332 45.3751ZM37.4051 47.708C37.4567 47.7407 37.5085 47.7722 37.5601 47.8025L38.6537 45.9392C38.6216 45.9204 38.591 45.9017 38.5618 45.8833L37.4051 47.708ZM37.5605 47.8027C37.662 47.8622 37.8194 47.9435 38.014 47.9865C38.2105 48.0299 38.561 48.057 38.91 47.8413C39.2624 47.6235 39.3955 47.2931 39.4435 47.0896C39.4903 46.8911 39.4838 46.7102 39.473 46.5913L37.3213 46.7861C37.3211 46.7836 37.3196 46.7665 37.3205 46.7382C37.3215 46.711 37.325 46.66 37.3406 46.594C37.3702 46.4683 37.47 46.1915 37.7742 46.0035C38.0749 45.8177 38.3621 45.8508 38.4803 45.8769C38.5439 45.891 38.5894 45.9089 38.6131 45.9192C38.6377 45.9299 38.6516 45.938 38.6533 45.939L37.5605 47.8027ZM39.4731 46.5926C39.4564 46.4052 39.4274 46.2253 39.4056 46.0879L37.2718 46.4263C37.2956 46.576 37.3121 46.6832 37.3212 46.7848L39.4731 46.5926ZM39.4056 46.0879C39.3833 45.9474 39.3674 45.8446 39.3579 45.7469L37.2075 45.9559C37.2244 46.1295 37.2513 46.2968 37.2718 46.4264L39.4056 46.0879ZM39.3579 45.7476C39.3478 45.643 39.3521 45.5709 39.3595 45.53L37.2336 45.145C37.1805 45.438 37.1847 45.7198 37.2074 45.9552L39.3579 45.7476ZM39.3597 45.529C39.3259 45.7166 39.2476 45.8438 39.2062 45.9029C39.1594 45.9698 39.1125 46.0166 39.0764 46.048C39.0392 46.0802 38.9951 46.112 38.9418 46.1408C38.894 46.1667 38.8028 46.2099 38.6744 46.2326L38.2987 44.105C38.0004 44.1577 37.7815 44.3111 37.6607 44.4159C37.5595 44.5037 37.3052 44.7471 37.2334 45.146L39.3597 45.529ZM38.6708 46.2332C38.4044 46.2793 38.2029 46.2078 38.1307 46.1789C38.0409 46.1428 37.979 46.1015 37.9449 46.0764L39.2271 44.3375C39.1579 44.2864 39.0596 44.2237 38.9357 44.1739C38.8293 44.1312 38.5956 44.0536 38.3024 44.1044L38.6708 46.2332ZM37.8613 46.008C37.7485 45.9059 37.6972 45.8063 37.6852 45.7825C37.6772 45.7666 37.6736 45.7574 37.675 45.7607C37.6767 45.7649 37.6792 45.7714 37.6872 45.7923L39.7061 45.0229C39.6957 44.9956 39.6618 44.904 39.615 44.811C39.5679 44.7174 39.4757 44.5551 39.3108 44.4059L37.8613 46.008ZM37.6872 45.7922C37.6958 45.8148 37.7204 45.8808 37.7515 45.9479L39.7124 45.0409C39.7148 45.0461 39.7163 45.0497 39.717 45.0512C39.7176 45.0527 39.7176 45.0528 39.7169 45.051C39.7162 45.0492 39.715 45.0462 39.7131 45.0414C39.7112 45.0363 39.7091 45.0308 39.7061 45.023L37.6872 45.7922ZM37.7524 45.9498C37.7797 46.0086 37.8063 46.0711 37.8411 46.153L39.8297 45.3085C39.7973 45.2321 39.7567 45.1362 39.7115 45.039L37.7524 45.9498ZM37.8411 46.153C37.8868 46.2605 37.9489 46.408 38.0243 46.5561L39.9501 45.577C39.9141 45.5061 39.8802 45.4274 39.8297 45.3085L37.8411 46.153ZM38.0246 46.5567C38.0948 46.6946 38.2383 46.9333 38.5095 47.1048C38.8484 47.3192 39.2717 47.3534 39.6467 47.1808L38.7432 45.2183C38.8697 45.1601 39.0321 45.1198 39.2161 45.1328C39.3993 45.1456 39.5517 45.2076 39.6646 45.279C39.8659 45.4064 39.9423 45.5616 39.9498 45.5764L38.0246 46.5567ZM39.6466 47.1809C39.7236 47.1454 39.7902 47.105 39.8467 47.0649L38.5962 45.3031C38.635 45.2756 38.6839 45.2456 38.7433 45.2183L39.6466 47.1809ZM39.8472 47.0645C40.0435 46.9251 40.1668 46.7538 40.2391 46.6358L38.3971 45.5068C38.4047 45.4943 38.4217 45.4682 38.4501 45.4351C38.4779 45.4027 38.5253 45.3535 38.5957 45.3035L39.8472 47.0645ZM40.2402 46.6341C40.2793 46.5699 40.324 46.4892 40.3646 46.3953L38.3813 45.5384C38.3862 45.5271 38.3902 45.5191 38.3926 45.5147C38.395 45.5102 38.3963 45.5081 38.396 45.5086L40.2402 46.6341ZM40.3647 46.3952C40.3988 46.3163 40.4332 46.2204 40.4579 46.1106L38.3501 45.6364C38.3606 45.5897 38.3735 45.5564 38.3813 45.5385L40.3647 46.3952ZM40.4582 46.1094C40.5748 45.5884 40.8384 45.2753 41.3392 45.066L40.5064 43.0725C39.3692 43.5476 38.622 44.4213 38.3499 45.6376L40.4582 46.1094ZM41.3394 45.066C41.8321 44.86 42.2285 44.7207 42.6195 44.6723L42.3539 42.5281C41.6541 42.6148 41.0303 42.8535 40.5062 43.0726L41.3394 45.066ZM42.6826 44.6625C43.0657 44.5919 43.2833 44.6609 43.4434 44.8051L44.8892 43.1997C44.0775 42.4687 43.101 42.3884 42.2908 42.5379L42.6826 44.6625ZM43.444 44.8056C44.0858 45.3828 44.5322 45.9639 44.7346 46.6526L46.8074 46.0431C46.4475 44.8189 45.6835 43.914 44.8887 43.1992L43.444 44.8056ZM44.7347 46.6526C44.7711 46.7766 44.8043 46.9049 44.8427 47.0534L46.9346 46.5132C46.8977 46.3705 46.8557 46.2074 46.8074 46.0431L44.7347 46.6526ZM44.8427 47.0534C44.8955 47.2578 44.9589 47.5049 45.0415 47.7522L47.0906 47.0676C47.0359 46.9038 46.9906 46.73 46.9346 46.5132L44.8427 47.0534ZM45.0414 47.7521C45.2603 48.4076 45.6678 49.3308 46.7136 49.7694L47.5492 47.7771C47.4046 47.7164 47.263 47.5837 47.0907 47.0678L45.0414 47.7521ZM46.7136 49.7694C47.1125 49.9367 47.573 49.9803 48.0168 49.7996C48.4417 49.6267 48.7106 49.3054 48.8659 49.0136C49.156 48.4683 49.1947 47.7678 48.9815 47.2015L46.9595 47.9627C46.9506 47.9391 46.9582 47.9478 46.956 47.9827C46.9539 48.0177 46.9455 48.0233 46.9585 47.9988C46.9717 47.9741 47.0383 47.8653 47.2023 47.7985C47.3853 47.724 47.5264 47.7675 47.5492 47.7771L46.7136 49.7694ZM48.9814 47.2012C48.7681 46.635 48.4918 46.1078 48.2238 45.6335L46.3427 46.6961C46.5905 47.1347 46.8041 47.55 46.9596 47.9629L48.9814 47.2012ZM48.224 45.6337C47.7956 44.8749 47.3593 44.1216 46.9266 43.3743L45.057 44.457C45.4907 45.2059 45.9209 45.949 46.3426 46.6959L48.224 45.6337ZM46.9266 43.3743C46.6226 42.8493 46.3203 42.3272 46.0211 41.804L44.1456 42.8766C44.4482 43.4057 44.7534 43.9328 45.057 44.457L46.9266 43.3743ZM46.0208 41.8036C45.9851 41.7411 45.9492 41.6791 45.9147 41.6195L44.0447 42.7015C44.0796 42.7618 44.113 42.8196 44.1459 42.877L46.0208 41.8036ZM45.9147 41.6195C45.7113 41.2679 45.5559 40.9954 45.447 40.7207L43.4385 41.5166C43.616 41.9646 43.8555 42.3745 44.0447 42.7015L45.9147 41.6195ZM45.4469 40.7203C45.424 40.6627 45.4208 40.6335 45.4204 40.6279C45.4201 40.6248 45.4207 40.633 45.4174 40.6448C45.41 40.6703 45.4116 40.6251 45.5365 40.5164L44.1187 38.8863C43.7858 39.1758 43.4824 39.5556 43.3408 40.0483C43.1955 40.5543 43.256 41.0565 43.4386 41.5169L45.4469 40.7203ZM45.5369 40.5162L45.5858 40.4736L44.1673 38.844L44.1184 38.8865L45.5369 40.5162ZM45.5857 40.4736C45.8008 40.2865 46.0331 40.0844 46.2601 39.8721L44.7843 38.2942C44.5902 38.4757 44.3873 38.6525 44.1674 38.8439L45.5857 40.4736ZM46.2603 39.8719C46.8288 39.34 46.9606 38.6541 46.8814 38.0508L44.7393 38.3321C44.7464 38.3862 44.7376 38.3895 44.7459 38.3621C44.7501 38.3483 44.7569 38.3326 44.7663 38.3176C44.7756 38.3028 44.7832 38.2952 44.7842 38.2943L46.2603 39.8719ZM46.8813 38.0504C46.8511 37.821 46.8183 37.5932 46.786 37.3687L44.6475 37.6762C44.6801 37.9029 44.711 38.1179 44.7393 38.3326L46.8813 38.0504ZM46.7861 37.3687C46.7725 37.2743 46.759 37.1804 46.7455 37.0856L44.6064 37.3888C44.6202 37.4861 44.634 37.5821 44.6475 37.6762L46.7861 37.3687ZM46.7179 36.952C46.6517 36.71 46.6439 36.3988 46.7112 35.9696C46.7795 35.5343 46.9097 35.0601 47.069 34.4864L44.9873 33.9083C44.8359 34.4535 44.668 35.0532 44.5768 35.635C44.4846 36.223 44.4561 36.8723 44.6341 37.5224L46.7179 36.952ZM47.069 34.4864C47.3622 33.4306 47.7525 32.0678 47.6171 30.6239C47.4748 29.1071 46.7716 27.6021 45.125 26.1819L43.7139 27.8179C44.9776 28.9079 45.3806 29.9148 45.466 30.8257C45.5583 31.8095 45.2977 32.7904 44.9873 33.9083L47.069 34.4864ZM44.4194 26.9999C45.1313 26.1874 45.1312 26.1873 45.1312 26.1873C45.1312 26.1873 45.1311 26.1872 45.1311 26.1872C45.131 26.1871 45.131 26.1871 45.1309 26.187C45.1307 26.1868 45.1305 26.1867 45.1303 26.1865C45.1298 26.1861 45.1293 26.1856 45.1286 26.185C45.1273 26.1839 45.1255 26.1823 45.1234 26.1805C45.119 26.1767 45.113 26.1715 45.1056 26.165C45.0906 26.1521 45.0696 26.134 45.0438 26.1122C44.9924 26.0686 44.9207 26.0087 44.8394 25.9433C44.698 25.8296 44.4551 25.6398 44.2348 25.5185L43.1924 27.4109C43.1919 27.4106 43.2014 27.4159 43.2225 27.4299C43.2426 27.4431 43.2675 27.4604 43.2969 27.4817C43.3561 27.5247 43.4216 27.5756 43.4855 27.6269C43.5486 27.6777 43.6054 27.7252 43.6465 27.76C43.6669 27.7773 43.683 27.7911 43.6936 27.8003C43.699 27.8049 43.7029 27.8083 43.7053 27.8104C43.7065 27.8114 43.7073 27.8121 43.7077 27.8125C43.7079 27.8126 43.708 27.8127 43.7079 27.8127C43.7079 27.8127 43.7079 27.8127 43.7078 27.8126C43.7078 27.8126 43.7078 27.8126 43.7077 27.8125C43.7077 27.8125 43.7077 27.8125 43.7077 27.8125C43.7076 27.8125 43.7076 27.8124 44.4194 26.9999ZM44.2065 25.5035C44.0794 25.4383 43.9281 25.3574 43.7485 25.2614L42.7298 27.1666C42.9043 27.2599 43.0736 27.3505 43.2207 27.426L44.2065 25.5035ZM43.7485 25.2614C43.0067 24.8648 41.7661 24.1931 40.7155 23.9375L40.2047 26.0367C40.932 26.2137 41.9082 26.7274 42.7298 27.1666L43.7485 25.2614ZM40.7501 23.9465C40.6406 23.916 40.3025 23.8315 40.0176 23.7608C39.8695 23.724 39.7271 23.6889 39.6219 23.6629C39.5693 23.6499 39.5259 23.6392 39.4956 23.6318C39.4805 23.6281 39.4686 23.6251 39.4605 23.6232C39.4565 23.6222 39.4534 23.6214 39.4513 23.6209C39.4502 23.6206 39.4494 23.6204 39.4489 23.6203C39.4486 23.6202 39.4484 23.6202 39.4483 23.6201C39.4482 23.6201 39.4482 23.6201 39.4481 23.6201C39.4481 23.6201 39.4481 23.6201 39.4481 23.6201C39.4481 23.6201 39.4481 23.6201 39.1903 24.6691C38.9325 25.7182 38.9325 25.7182 38.9325 25.7182C38.9325 25.7182 38.9325 25.7182 38.9326 25.7182C38.9326 25.7182 38.9326 25.7182 38.9327 25.7182C38.9328 25.7182 38.933 25.7183 38.9333 25.7184C38.9338 25.7185 38.9345 25.7187 38.9356 25.7189C38.9376 25.7194 38.9406 25.7202 38.9446 25.7211C38.9526 25.7231 38.9643 25.726 38.9793 25.7297C39.0093 25.7371 39.0523 25.7477 39.1046 25.7606C39.2092 25.7863 39.3504 25.8212 39.4971 25.8576C39.8018 25.9333 40.0987 26.0078 40.1702 26.0277L40.7501 23.9465ZM39.1903 24.6691C39.0679 25.7424 39.0679 25.7424 39.0679 25.7424C39.068 25.7424 39.068 25.7424 39.068 25.7424C39.068 25.7424 39.0681 25.7424 39.0682 25.7425C39.0683 25.7425 39.0685 25.7425 39.0688 25.7425C39.0694 25.7426 39.0702 25.7427 39.0713 25.7428C39.0734 25.7431 39.0765 25.7434 39.0806 25.7439C39.0888 25.7448 39.1008 25.7462 39.116 25.7479C39.1466 25.7513 39.1906 25.7563 39.2443 25.7623C39.3518 25.7743 39.4987 25.7906 39.6565 25.8076C39.9615 25.8405 40.3391 25.8797 40.5328 25.8928L40.679 23.7373C40.5372 23.7276 40.2069 23.6939 39.888 23.6595C39.7339 23.6429 39.5898 23.627 39.4843 23.6152C39.4315 23.6093 39.3885 23.6044 39.3587 23.6011C39.3438 23.5994 39.3322 23.5981 39.3244 23.5972C39.3205 23.5967 39.3175 23.5964 39.3155 23.5962C39.3145 23.5961 39.3138 23.596 39.3133 23.5959C39.3131 23.5959 39.3129 23.5959 39.3128 23.5959C39.3127 23.5959 39.3127 23.5958 39.3127 23.5958C39.3127 23.5958 39.3127 23.5958 39.3127 23.5958C39.3127 23.5958 39.3127 23.5958 39.1903 24.6691ZM40.5328 25.8928C40.7071 25.9046 40.8784 25.9173 41.0479 25.932L41.2339 23.7795C41.0471 23.7633 40.8617 23.7497 40.679 23.7373L40.5328 25.8928ZM41.0477 25.9319C42.2513 26.0362 43.5304 26.1392 44.8263 26.0719L44.7143 23.9144C43.587 23.9729 42.4472 23.8846 41.2341 23.7795L41.0477 25.9319ZM44.8263 26.0719C44.9311 26.0665 45.0362 26.0599 45.1416 26.0522L44.9828 23.8975C44.8935 23.9041 44.804 23.9097 44.7143 23.9144L44.8263 26.0719ZM45.1417 26.0522C45.722 26.0093 46.3766 25.9223 46.9939 25.7424L46.3891 23.6682C45.9715 23.79 45.4813 23.8607 44.9827 23.8975L45.1417 26.0522ZM46.9994 25.7407C48.1518 25.3981 48.9361 24.6007 49.5047 23.8306L47.7667 22.5472C47.3229 23.1483 46.8891 23.5195 46.3836 23.6699L46.9994 25.7407ZM49.505 23.8302C49.846 23.368 50.3052 22.7263 50.4955 21.9172L48.3924 21.4226C48.3139 21.756 48.1105 22.0812 47.7664 22.5476L49.505 23.8302ZM50.4955 21.9172C50.9302 20.0687 51.3545 18.2182 51.778 16.371L49.6721 15.8882C49.2484 17.7363 48.8255 19.581 48.3924 21.4226L50.4955 21.9172ZM51.778 16.371C51.8806 15.9234 51.9832 15.476 52.0859 15.0287L49.9802 14.5452C49.8774 14.9929 49.7747 15.4407 49.6721 15.8882L51.778 16.371ZM52.0859 15.0287C52.2978 14.1058 52.5092 13.1828 52.7204 12.2603L50.6144 11.778C50.4032 12.7007 50.1919 13.623 49.9802 14.5452L52.0859 15.0287ZM52.7204 12.2603C53.046 10.8385 53.3714 9.41767 53.6986 7.9974L51.5933 7.5123C51.2657 8.93422 50.94 10.3565 50.6144 11.778L52.7204 12.2603ZM53.6988 7.99683C53.7286 7.86706 53.7679 7.7301 53.8178 7.55727L51.7423 6.95732C51.6955 7.11925 51.6388 7.31452 51.5932 7.51287L53.6988 7.99683ZM53.8178 7.55727C53.9181 7.21034 54.0814 6.67355 54.0791 6.10931L51.9186 6.11793C51.9194 6.31668 51.8605 6.54849 51.7423 6.95733L53.8178 7.55727ZM54.0791 6.11362V5.58591H51.9186V6.11362H54.0791ZM54.0791 5.58591C54.0791 5.15179 53.9323 4.834 53.841 4.64199L51.8899 5.56985C51.8981 5.58711 51.9047 5.60133 51.9103 5.61372C51.9159 5.62603 51.92 5.63544 51.9231 5.64274C51.9293 5.65745 51.9301 5.66091 51.9288 5.65688C51.9273 5.65199 51.9243 5.64099 51.9219 5.62581C51.9195 5.61043 51.9186 5.59656 51.9186 5.58591H54.0791ZM53.8409 4.64195C53.4741 3.87065 52.8199 3.50545 52.2574 3.31834L51.5754 5.36839C51.7039 5.41111 51.7773 5.45244 51.8187 5.48377C51.8528 5.50957 51.8726 5.53351 51.8899 5.56988L53.8409 4.64195ZM52.2579 3.3185C51.9423 3.21338 51.6238 3.12889 51.3025 3.06541L50.8837 5.18494C51.1136 5.23035 51.344 5.29127 51.575 5.36823L52.2579 3.3185ZM51.3342 3.07217C50.8806 2.96832 50.387 2.90124 49.864 2.92429L49.9591 5.08269C50.2381 5.0704 50.5315 5.1048 50.852 5.17818L51.3342 3.07217ZM49.9219 2.9233C49.3711 2.918 48.8204 2.97346 48.2714 3.08743L48.7106 5.20282C49.1137 5.11913 49.5103 5.07993 49.9011 5.08369L49.9219 2.9233ZM48.271 3.08753L48.098 3.12351L48.5381 5.2387L48.7111 5.20272L48.271 3.08753ZM48.1486 3.11424C47.9803 3.14097 47.8128 3.16984 47.646 3.2007L48.0393 5.32511C48.1884 5.2975 48.3379 5.27175 48.4876 5.24797L48.1486 3.11424ZM47.6462 3.20067C46.5159 3.40969 45.2729 3.69289 44.1107 4.3332L45.1532 6.2255C45.9953 5.76155 46.9501 5.52652 48.0391 5.32514L47.6462 3.20067ZM44.1107 4.3332C42.2386 5.36465 40.4802 6.57877 38.857 7.96388L40.2595 9.60733C41.7705 8.31787 43.4082 7.18694 45.1532 6.2255L44.1107 4.3332ZM38.8571 7.96379C37.7494 8.90886 36.7171 9.93411 35.7194 10.9243L37.2414 12.4577C38.2489 11.4578 39.2239 10.4908 40.2594 9.60742L38.8571 7.96379ZM35.7194 10.9243C35.5017 11.1403 35.2857 11.3548 35.0692 11.5681L36.5857 13.1069C36.8054 12.8905 37.0241 12.6733 37.2414 12.4577L35.7194 10.9243ZM35.0692 11.5681C34.4076 12.2201 33.7008 12.9283 33.0801 13.7181L34.7788 15.0531C35.3054 14.3831 35.9221 13.7609 36.5857 13.1069L35.0692 11.5681ZM33.08 13.7183C33.0064 13.8119 32.933 13.9057 32.8596 13.9995L34.5619 15.3299C34.6341 15.2375 34.7065 15.1452 34.7789 15.053L33.08 13.7183ZM32.8783 13.9763C32.1097 14.9056 31.3972 15.8742 30.7065 16.8166L32.449 18.0938C33.1435 17.1463 33.8206 16.2269 34.5432 15.3532L32.8783 13.9763ZM30.7135 16.8072C30.1942 17.4998 29.6792 18.1949 29.1674 18.8908L30.9078 20.1709C31.4168 19.4789 31.9277 18.7893 32.442 18.1032L30.7135 16.8072ZM29.1674 18.8908C29.0786 19.0115 28.9883 19.1322 28.8948 19.2571L30.6246 20.5515C30.7172 20.4278 30.8129 20.3 30.9078 20.171L29.1674 18.8908ZM28.8948 19.2571C28.3576 19.975 27.703 20.8378 27.312 21.8898L29.3371 22.6425C29.6018 21.9303 30.0569 21.3102 30.6246 20.5515L28.8948 19.2571ZM27.3118 21.8903L27.31 21.8952L29.3354 22.647L29.3373 22.6421L27.3118 21.8903ZM27.3098 21.8958C27.3702 21.7327 27.5383 21.4237 27.9283 21.2776C28.3592 21.1161 28.7319 21.2725 28.924 21.4137L27.6445 23.1546C27.8534 23.3081 28.2419 23.4672 28.6862 23.3008C29.0894 23.1497 29.2684 22.828 29.3357 22.6464L27.3098 21.8958ZM29.1236 21.6041C29.0764 21.5459 29.0767 21.5409 29.0899 21.5636C29.1074 21.5936 29.1604 21.6926 29.1779 21.8422C29.1964 22 29.1655 22.1253 29.1416 22.192C29.1238 22.2421 29.1098 22.2583 29.14 22.2073L27.2817 21.1054C27.2054 21.2341 26.9751 21.6078 27.0321 22.0938C27.0839 22.5357 27.3549 22.853 27.445 22.9642L29.1236 21.6041ZM29.1402 22.2071C29.8397 21.0267 29.2831 19.4862 27.956 19.058L27.2925 21.1141C27.2947 21.1148 27.2944 21.1149 27.2926 21.1139C27.2909 21.1128 27.289 21.1114 27.2874 21.1098C27.2858 21.1082 27.2848 21.1069 27.2842 21.106C27.2837 21.1052 27.2835 21.1048 27.2835 21.1047C27.2835 21.1046 27.2834 21.1046 27.2834 21.1044C27.2834 21.1042 27.2834 21.1038 27.2834 21.103C27.2835 21.1022 27.2836 21.1016 27.2837 21.1014C27.2838 21.101 27.2834 21.1024 27.2815 21.1056L29.1402 22.2071ZM27.9573 19.0584C27.7881 19.0036 27.6234 18.9759 27.542 18.9613L27.1614 21.088C27.2121 21.0971 27.2405 21.1023 27.2652 21.1076C27.2877 21.1124 27.2939 21.1146 27.2912 21.1137L27.9573 19.0584ZM27.542 18.9613C27.4957 18.953 27.4645 18.9474 27.4347 18.9412L26.9974 21.057C27.0599 21.0699 27.1191 21.0805 27.1614 21.088L27.542 18.9613ZM28.2791 20.1911C28.2979 20.0872 28.3052 19.9883 28.3082 19.9523L26.1552 19.7731C26.1542 19.785 26.1535 19.7934 26.1528 19.8012C26.1521 19.8088 26.1517 19.8136 26.1513 19.8168C26.1506 19.8239 26.1509 19.819 26.153 19.8071L28.2791 20.1911ZM28.3082 19.9523C28.3105 19.9251 28.3114 19.9156 28.3121 19.909C28.3127 19.9035 28.3118 19.914 28.3079 19.9334C28.3014 19.9655 28.2747 20.0874 28.178 20.2243L26.413 18.9783C26.2687 19.1828 26.2141 19.3864 26.1897 19.5077C26.1662 19.6246 26.1581 19.7377 26.1552 19.773L28.3082 19.9523ZM28.1776 20.2249C28.4587 19.8274 28.707 19.4828 28.9803 19.1801L27.3766 17.7323C27.0055 18.1434 26.6888 18.5883 26.4135 18.9777L28.1776 20.2249ZM28.9803 19.1801C29.2879 18.8393 29.6058 18.5045 29.9346 18.1583L28.368 16.6705C28.0424 17.0134 27.7056 17.3679 27.3766 17.7323L28.9803 19.1801ZM29.9346 18.1583C30.321 17.7515 30.7228 17.3285 31.1112 16.8893L29.4927 15.4582C29.134 15.8638 28.7588 16.259 28.368 16.6705L29.9346 18.1583ZM31.1115 16.889C31.6118 16.3226 32.1889 15.6709 32.65 14.9327L30.8177 13.7881C30.4668 14.3498 30.0114 14.871 29.4924 15.4585L31.1115 16.889ZM32.6501 14.9326C33.0041 14.3657 33.2774 13.7618 33.5171 13.2354L31.5508 12.3401C31.3008 12.8892 31.0839 13.3618 30.8176 13.7882L32.6501 14.9326ZM33.5171 13.2354C33.6116 13.0278 33.7011 12.8313 33.7933 12.6386L31.8445 11.706C31.7419 11.9203 31.6439 12.1357 31.5508 12.3401L33.5171 13.2354ZM33.7927 12.6399C33.8148 12.594 33.8368 12.5488 33.8604 12.5006L31.919 11.5525C31.8959 11.5998 31.8707 11.6513 31.8451 11.7048L33.7927 12.6399ZM33.8604 12.5005C33.9384 12.3408 34.0335 12.1472 34.121 11.9252L32.1112 11.1326C32.0595 11.2637 32.0014 11.3838 31.919 11.5525L33.8604 12.5005ZM34.121 11.9252C34.1862 11.7601 34.2504 11.5097 34.2466 11.24C34.244 11.0479 34.182 10.2717 33.3895 10.0038L32.6975 12.0505C32.4237 11.9579 32.2488 11.7583 32.1631 11.5781C32.0911 11.4266 32.0868 11.3048 32.0864 11.2699C32.0855 11.2048 32.0947 11.1744 32.1112 11.1326L34.121 11.9252ZM33.3895 10.0038C32.8333 9.81576 32.3692 10.0607 32.1285 10.2738C31.8927 10.4826 31.752 10.744 31.6714 10.967L33.703 11.7021C33.7008 11.7082 33.6715 11.7933 33.5607 11.8914C33.4452 11.9937 33.12 12.1933 32.6975 12.0505L33.3895 10.0038ZM31.6712 10.9675C31.5468 11.3119 31.4297 11.6671 31.3278 12.0309L33.4082 12.6137C33.4929 12.3114 33.5926 12.0076 33.7031 11.7016L31.6712 10.9675ZM31.3279 12.0304C31.083 12.9031 30.8503 13.5834 30.4335 14.1216L32.1418 15.4444C32.842 14.5401 33.1631 13.4866 33.408 12.6142L31.3279 12.0304ZM30.4334 14.1217C29.8613 14.8609 29.2426 15.5759 28.5993 16.2855L30.1999 17.7367C30.8636 17.0046 31.5227 16.2441 32.1419 15.4442L30.4334 14.1217ZM28.5993 16.2854C28.4941 16.4015 28.3881 16.5174 28.2802 16.6353L29.8743 18.0936C29.9817 17.9762 30.0909 17.8569 30.1998 17.7367L28.5993 16.2854ZM28.2802 16.6353C27.6799 17.2915 27.0196 18.0107 26.4573 18.8309L28.2392 20.0526C28.7017 19.378 29.2572 18.7682 29.8743 18.0936L28.2802 16.6353ZM26.4603 18.8265C26.5054 18.7615 26.548 18.718 26.5689 18.6978C26.5873 18.6799 26.6027 18.6672 26.5876 18.6801L27.9901 20.3235C27.9909 20.3228 28.1264 20.2154 28.2362 20.057L26.4603 18.8265ZM26.5877 18.6801C26.5823 18.6846 26.5519 18.7103 26.5202 18.7403L28.0035 20.3111C27.9946 20.3195 27.9881 20.3252 27.9863 20.3268C27.9853 20.3277 27.9849 20.328 27.9856 20.3274C27.9864 20.3267 27.9875 20.3258 27.99 20.3236L26.5877 18.6801ZM27.9299 18.6768C27.4925 18.3326 26.9469 18.2212 26.5107 18.2166L26.4882 20.377C26.5431 20.3776 26.5875 20.3854 26.615 20.3934C26.6278 20.3972 26.6324 20.3996 26.6297 20.3983C26.6273 20.3971 26.6139 20.3904 26.5938 20.3746L27.9299 18.6768ZM26.4051 20.3746C26.385 20.3904 26.3716 20.3971 26.3692 20.3983C26.3665 20.3996 26.3711 20.3972 26.3839 20.3934C26.4114 20.3854 26.4558 20.3776 26.5107 20.377L26.4882 18.2166C26.052 18.2212 25.5064 18.3326 25.069 18.6768L26.4051 20.3746ZM25.0089 20.3236C25.0114 20.3258 25.0125 20.3267 25.0133 20.3274C25.014 20.328 25.0136 20.3277 25.0126 20.3268C25.0108 20.3252 25.0043 20.3195 24.9954 20.3111L26.4787 18.7403C26.447 18.7103 26.4166 18.6846 26.4112 18.6801L25.0089 20.3236ZM24.7627 20.057C24.8725 20.2154 25.008 20.3228 25.0088 20.3235L26.4113 18.6801C26.3962 18.6672 26.4116 18.6799 26.43 18.6978C26.4509 18.718 26.4935 18.7615 26.5386 18.8265L24.7627 20.057ZM23.1246 18.0936C23.7417 18.7682 24.2972 19.378 24.7597 20.0526L26.5416 18.8309C25.9793 18.0107 25.319 17.2915 24.7187 16.6353L23.1246 18.0936ZM22.7991 17.7367C22.908 17.8569 23.0172 17.9762 23.1245 18.0936L24.7187 16.6353C24.6108 16.5174 24.5048 16.4015 24.3995 16.2854L22.7991 17.7367ZM20.857 15.4442C21.4762 16.2441 22.1353 17.0046 22.799 17.7367L24.3996 16.2855C23.7563 15.5759 23.1376 14.8609 22.5655 14.1217L20.857 15.4442ZM19.5909 12.6142C19.8358 13.4866 20.1569 14.5401 20.8571 15.4444L22.5654 14.1216C22.1486 13.5834 21.9159 12.9031 21.671 12.0304L19.5909 12.6142ZM19.2958 11.7016C19.4063 12.0076 19.506 12.3114 19.5907 12.6137L21.6711 12.0309C21.5692 11.6671 21.4521 11.3119 21.3277 10.9675L19.2958 11.7016ZM20.3014 12.0505C19.8789 12.1933 19.5537 11.9937 19.4382 11.8914C19.3274 11.7933 19.2981 11.7082 19.2959 11.7021L21.3275 10.967C21.2469 10.744 21.1062 10.4826 20.8704 10.2738C20.6297 10.0607 20.1656 9.81576 19.6094 10.0038L20.3014 12.0505ZM20.8877 11.1326C20.9042 11.1744 20.9134 11.2048 20.9125 11.2699C20.9121 11.3048 20.9078 11.4266 20.8358 11.5781C20.7501 11.7583 20.5752 11.9579 20.3014 12.0505L19.6094 10.0038C18.8169 10.2717 18.7549 11.0479 18.7523 11.24C18.7485 11.5097 18.8127 11.7601 18.8778 11.9252L20.8877 11.1326ZM21.0798 11.5524C20.9975 11.3838 20.9394 11.2636 20.8877 11.1326L18.8779 11.9252C18.9654 12.1471 19.0605 12.3407 19.1385 12.5005L21.0798 11.5524ZM21.1538 11.7048C21.1281 11.6513 21.1029 11.5997 21.0798 11.5524L19.1385 12.5005C19.162 12.5487 19.1841 12.5939 19.2062 12.6399L21.1538 11.7048ZM21.4481 12.3401C21.355 12.1357 21.257 11.9203 21.1544 11.706L19.2056 12.6386C19.2978 12.8313 19.3873 13.0278 19.4818 13.2354L21.4481 12.3401ZM22.1813 13.7882C21.915 13.3618 21.6981 12.8892 21.4481 12.3401L19.4818 13.2354C19.7215 13.7619 19.9948 14.3657 20.3488 14.9326L22.1813 13.7882ZM23.5065 15.4585C22.9875 14.871 22.5321 14.3498 22.1812 13.7881L20.3489 14.9327C20.81 15.6709 21.3871 16.3226 21.8874 16.889L23.5065 15.4585ZM24.6308 16.6705C24.2401 16.259 23.8649 15.8638 23.5062 15.4582L21.8877 16.8893C22.2761 17.3285 22.6779 17.7515 23.0643 18.1583L24.6308 16.6705ZM25.6223 17.7323C25.2933 17.3679 24.9565 17.0134 24.6309 16.6705L23.0643 18.1583C23.3931 18.5045 23.711 18.8393 24.0186 19.1801L25.6223 17.7323ZM26.5854 18.9777C26.3101 18.5883 25.9934 18.1434 25.6223 17.7323L24.0186 19.1801C24.2919 19.4828 24.5402 19.8274 24.8213 20.2249L26.5854 18.9777ZM26.8437 19.773C26.8408 19.7377 26.8327 19.6246 26.8091 19.5077C26.7848 19.3864 26.7302 19.1828 26.5859 18.9783L24.8209 20.2243C24.7242 20.0874 24.6975 19.9655 24.691 19.9334C24.6871 19.914 24.6862 19.9035 24.6868 19.909C24.6875 19.9156 24.6884 19.9251 24.6907 19.9523L26.8437 19.773ZM26.8459 19.8071C26.848 19.819 26.8483 19.8239 26.8476 19.8168C26.8472 19.8136 26.8468 19.8088 26.8461 19.8012C26.8454 19.7934 26.8447 19.785 26.8437 19.7731L24.6907 19.9523C24.6937 19.9883 24.701 20.0872 24.7198 20.1911L26.8459 19.8071ZM25.8375 21.088C25.8798 21.0805 25.939 21.0699 26.0015 21.057L25.5642 18.9412C25.5344 18.9474 25.5032 18.953 25.4569 18.9613L25.8375 21.088ZM25.7077 21.1137C25.705 21.1146 25.7112 21.1124 25.7337 21.1076C25.7584 21.1023 25.7868 21.0971 25.8375 21.088L25.4569 18.9613C25.3755 18.9759 25.2108 19.0036 25.0416 19.0584L25.7077 21.1137ZM25.7174 21.1056C25.7155 21.1024 25.7151 21.101 25.7152 21.1014C25.7153 21.1016 25.7154 21.1022 25.7155 21.103C25.7155 21.1038 25.7155 21.1042 25.7155 21.1044C25.7155 21.1046 25.7154 21.1046 25.7154 21.1047C25.7154 21.1048 25.7152 21.1052 25.7147 21.106C25.7141 21.1069 25.7131 21.1082 25.7115 21.1098C25.7099 21.1114 25.708 21.1128 25.7063 21.1139C25.7045 21.1149 25.7042 21.1148 25.7064 21.1141L25.0429 19.058C23.7158 19.4862 23.1592 21.0267 23.8587 22.2071L25.7174 21.1056ZM25.5539 22.9642C25.644 22.853 25.915 22.5357 25.9668 22.0938C26.0237 21.6078 25.7935 21.2341 25.7172 21.1054L23.8588 22.2073C23.8891 22.2583 23.8751 22.2421 23.8573 22.192C23.8334 22.1253 23.8025 22 23.821 21.8422C23.8385 21.6926 23.8915 21.5936 23.909 21.5636C23.9222 21.5409 23.9225 21.5459 23.8753 21.6041L25.5539 22.9642ZM23.6632 22.6464C23.7305 22.828 23.9095 23.1497 24.3127 23.3008C24.757 23.4672 25.1455 23.3081 25.3544 23.1546L24.0749 21.4137C24.267 21.2725 24.6397 21.1161 25.0706 21.2776C25.4606 21.4237 25.6287 21.7327 25.6891 21.8958L23.6632 22.6464ZM23.6616 22.6421L23.6634 22.647L25.6889 21.8952L25.6871 21.8903L23.6616 22.6421ZM22.3743 20.5515C22.942 21.3102 23.3971 21.9303 23.6618 22.6425L25.6869 21.8898C25.2959 20.8378 24.6413 19.975 24.1041 19.2571L22.3743 20.5515ZM22.0911 20.171C22.186 20.3 22.2817 20.4278 22.3743 20.5515L24.1041 19.2571C24.0106 19.1322 23.9203 19.0115 23.8315 18.8908L22.0911 20.171ZM20.5569 18.1032C21.0712 18.7893 21.5821 19.4789 22.0911 20.1709L23.8315 18.8908C23.3197 18.1949 22.8047 17.4998 22.2854 16.8072L20.5569 18.1032ZM18.4557 15.3532C19.1782 16.2269 19.8554 17.1463 20.5499 18.0938L22.2924 16.8166C21.6017 15.8742 20.8892 14.9056 20.1206 13.9763L18.4557 15.3532ZM18.22 15.053C18.2924 15.1452 18.3647 15.2375 18.437 15.3299L20.1393 13.9995C20.0659 13.9057 19.9925 13.8119 19.9189 13.7183L18.22 15.053ZM16.4132 13.1069C17.0768 13.7609 17.6935 14.3831 18.2201 15.0531L19.9188 13.7181C19.2981 12.9283 18.5913 12.2201 17.9297 11.5681L16.4132 13.1069ZM15.7575 12.4577C15.9748 12.6733 16.1935 12.8905 16.4132 13.1069L17.9297 11.5681C17.7132 11.3548 17.4972 11.1403 17.2795 10.9243L15.7575 12.4577ZM12.7395 9.60742C13.775 10.4908 14.75 11.4578 15.7575 12.4577L17.2795 10.9243C16.2818 9.9341 15.2495 8.90886 14.1418 7.96379L12.7395 9.60742ZM7.84565 6.2255C9.5907 7.18694 11.2284 8.31787 12.7394 9.60733L14.1419 7.96388C12.5187 6.57877 10.7603 5.36465 8.88822 4.3332L7.84565 6.2255ZM4.95981 5.32514C6.04884 5.52652 7.00357 5.76155 7.84565 6.2255L8.88822 4.3332C7.72604 3.69289 6.48301 3.40969 5.35266 3.20067L4.95981 5.32514ZM4.51133 5.24797C4.66102 5.27175 4.8105 5.2975 4.95961 5.32511L5.35286 3.2007C5.18613 3.16984 5.01856 3.14097 4.8503 3.11424L4.51133 5.24797ZM4.28782 5.20272L4.46076 5.2387L4.90088 3.12351L4.72793 3.08753L4.28782 5.20272ZM3.09777 5.08369C3.48862 5.07993 3.88517 5.11913 4.2883 5.20282L4.72745 3.08743C4.17849 2.97346 3.62776 2.918 3.07699 2.9233L3.09777 5.08369ZM2.14687 5.17818C2.46736 5.1048 2.76081 5.0704 3.03982 5.08269L3.13494 2.92429C2.61192 2.90124 2.11832 2.96832 1.66472 3.07217L2.14687 5.17818ZM1.42394 5.36823C1.65493 5.29127 1.8853 5.23035 2.11516 5.18494L1.69643 3.06541C1.37513 3.12889 1.05657 3.21338 0.741033 3.3185L1.42394 5.36823ZM1.10902 5.56988C1.12632 5.53352 1.14612 5.50958 1.18022 5.48377C1.22161 5.45244 1.29504 5.41111 1.42345 5.36839L0.741523 3.31834C0.179029 3.50545 -0.475216 3.87064 -0.84205 4.64195L1.10902 5.56988ZM1.08026 5.58591C1.08026 5.59656 1.07938 5.61043 1.07696 5.6258C1.07457 5.64098 1.07157 5.65198 1.07007 5.65688C1.06883 5.66091 1.06962 5.65744 1.07579 5.64274C1.07885 5.63544 1.08295 5.62603 1.08855 5.61372C1.09419 5.60133 1.10083 5.58711 1.10904 5.56985L-0.842068 4.64199C-0.933382 4.83401 -1.08023 5.15179 -1.08023 5.58591H1.08026ZM1.08026 6.11362V5.58591H-1.08023V6.11362H1.08026ZM1.25657 6.95731C1.13839 6.54848 1.07946 6.31667 1.08025 6.11793L-1.08022 6.1093C-1.08248 6.67354 -0.919238 7.21033 -0.818952 7.55726L1.25657 6.95731ZM1.40572 7.51287C1.36013 7.31452 1.30338 7.11925 1.25657 6.95731L-0.818952 7.55726C-0.768995 7.73009 -0.729704 7.86705 -0.699877 7.99682L1.40572 7.51287ZM2.38486 11.7798C2.05919 10.3577 1.73335 8.9348 1.40558 7.5123L-0.699744 7.9974C-0.372354 9.41825 -0.0468423 10.8397 0.27888 12.2621L2.38486 11.7798Z" fill="#222222" mask="url(#path-1-inside-1_2658_18654)"></path></g><defs><clipPath id="clip0_2658_18654"><rect width="53" height="53" fill="white"></rect></clipPath></defs></svg> 