<?xml version="1.0" encoding="UTF-8"?> <svg xmlns="http://www.w3.org/2000/svg" width="164" height="22" viewBox="0 0 164 22" fill="none"><path d="M161.212 8.35134V10.2557C160.965 9.90757 160.692 9.61066 160.392 9.36494C160.128 9.16017 159.819 8.99635 159.467 8.87349C159.114 8.73016 158.717 8.73016 158.276 8.87349C158.047 8.9554 157.8 9.09874 157.536 9.30351C156.672 9.95876 156.134 10.87 155.922 12.0372V21.3438H160.181C160.798 21.3438 161.336 21.2312 161.794 21.006C162.27 20.7603 162.667 20.4941 162.984 20.2074C163.355 19.8593 163.672 19.4702 163.936 19.0402L163.487 21.6817H153.674C153.78 21.4155 153.868 21.1288 153.939 20.8217C154.009 20.5555 154.071 20.2688 154.124 19.9617C154.177 19.6545 154.203 19.3269 154.203 18.9788V2.85332C154.203 2.5257 154.177 2.20831 154.124 1.90115C154.071 1.57353 154.009 1.27661 153.939 1.01041C153.868 0.703263 153.78 0.416589 153.674 0.150391H163.487L163.936 2.79189C163.672 2.38236 163.355 2.00354 162.984 1.65543C162.667 1.36876 162.27 1.10256 161.794 0.856839C161.336 0.611117 160.798 0.488257 160.181 0.488257H155.922V10.9928C156.152 10.399 156.46 9.89733 156.848 9.4878C157.254 9.07826 157.695 8.76087 158.171 8.53563C158.647 8.31038 159.149 8.18752 159.678 8.16704C160.207 8.12609 160.719 8.18752 161.212 8.35134Z" fill="white"></path><path d="M150.432 18.2611C150.432 18.5665 150.458 18.9127 150.51 19.2996C150.561 19.6865 150.622 20.053 150.691 20.3992C150.76 20.7453 150.829 21.0406 150.898 21.285C150.967 21.5293 151.019 21.6617 151.053 21.682H149.137L141.551 2.62261V18.5055C141.551 18.7905 141.586 19.1062 141.655 19.4523C141.724 19.7781 141.81 20.1039 141.914 20.4297C142.017 20.7352 142.13 21.0101 142.25 21.2544C142.371 21.4784 142.483 21.6209 142.587 21.682H140.205C140.309 21.6209 140.421 21.4784 140.542 21.2544C140.68 21.0101 140.801 20.7352 140.904 20.4297C141.008 20.1039 141.094 19.7781 141.163 19.4523C141.232 19.1062 141.267 18.7905 141.267 18.5055V3.78328C141.267 3.37603 141.215 2.8466 141.111 2.19499C141.025 1.54339 140.861 0.912149 140.619 0.30127H142.458L150.147 19.605V3.47784C150.147 3.19276 150.113 2.88732 150.044 2.56152C149.975 2.21536 149.888 1.88955 149.785 1.58411C149.681 1.25831 149.56 0.983418 149.422 0.759428C149.301 0.515077 149.189 0.362358 149.086 0.30127H151.493C151.39 0.362358 151.269 0.515077 151.131 0.759428C151.01 0.983418 150.898 1.25831 150.794 1.58411C150.691 1.88955 150.605 2.21536 150.535 2.56152C150.466 2.88732 150.432 3.19276 150.432 3.47784V18.2611Z" fill="white"></path><path d="M131.213 0C132.184 0 133.085 0.288167 133.916 0.864501C134.766 1.44083 135.502 2.23329 136.126 3.24188C136.802 4.31221 137.304 5.52663 137.633 6.88513C137.98 8.22305 138.153 9.59184 138.153 10.9915C138.153 12.3912 137.98 13.7703 137.633 15.1288C137.304 16.4667 136.802 17.6708 136.126 18.7411C135.45 19.8321 134.679 20.6451 133.812 21.1803C132.963 21.7154 132.097 21.983 131.213 21.983C130.33 21.983 129.454 21.7154 128.588 21.1803C127.739 20.6451 126.977 19.8321 126.301 18.7411C125.625 17.6708 125.122 16.4667 124.793 15.1288C124.464 13.7703 124.299 12.3912 124.299 10.9915C124.299 9.59184 124.464 8.22305 124.793 6.88513C125.122 5.52663 125.625 4.31221 126.301 3.24188C126.925 2.23329 127.652 1.44083 128.484 0.864501C129.333 0.288167 130.243 0 131.213 0ZM134.904 3.42713C134.384 2.39796 133.804 1.62609 133.163 1.1115C132.522 0.596917 131.872 0.339625 131.213 0.339625C130.555 0.339625 129.905 0.596917 129.264 1.1115C128.623 1.62609 128.042 2.39796 127.522 3.42713C127.003 4.47688 126.613 5.66042 126.353 6.97776C126.093 8.27451 125.963 9.61243 125.963 10.9915C125.963 12.3706 126.093 13.7188 126.353 15.0361C126.613 16.3329 127.003 17.5061 127.522 18.5559C128.042 19.5851 128.623 20.3569 129.264 20.8715C129.905 21.3861 130.555 21.6434 131.213 21.6434C131.872 21.6434 132.522 21.3861 133.163 20.8715C133.804 20.3569 134.384 19.5851 134.904 18.5559C135.424 17.5061 135.814 16.3329 136.074 15.0361C136.334 13.7188 136.464 12.3706 136.464 10.9915C136.464 9.61243 136.334 8.27451 136.074 6.97776C135.814 5.66042 135.424 4.47688 134.904 3.42713Z" fill="white"></path><path d="M114.652 18.9942C114.652 19.3403 114.679 19.6763 114.732 20.0021C114.786 20.3279 114.849 20.613 114.92 20.8573C114.992 21.1628 115.081 21.4377 115.189 21.682H112.369C112.477 21.4377 112.566 21.1628 112.638 20.8573C112.709 20.613 112.772 20.3279 112.826 20.0021C112.879 19.6763 112.906 19.3403 112.906 18.9942V2.95859C112.906 2.63279 112.879 2.30699 112.826 1.98119C112.772 1.65538 112.709 1.37031 112.638 1.12596C112.566 0.840879 112.477 0.565984 112.369 0.30127H117.283C118.357 0.30127 119.253 0.627071 119.969 1.27868C120.685 1.93028 121.222 2.74478 121.58 3.72219C121.938 4.6996 122.117 5.75845 122.117 6.89876C122.135 8.03907 121.965 9.09792 121.607 10.0753C121.249 11.0527 120.703 11.8672 119.969 12.5188C119.253 13.1704 118.357 13.4962 117.283 13.4962C116.442 13.4962 115.788 13.6999 115.323 14.1071C114.875 14.5144 114.652 15.2067 114.652 16.1841V18.9942ZM114.652 0.637254V14.5958C114.902 14.0664 115.251 13.6999 115.699 13.4962C116.164 13.2723 116.693 13.1603 117.283 13.1603C117.964 13.1603 118.519 12.8548 118.948 12.2439C119.396 11.6127 119.709 10.8389 119.888 9.92261C120.085 8.98593 120.166 7.97798 120.13 6.89876C120.112 5.81954 119.987 4.82177 119.754 3.90545C119.521 2.96877 119.19 2.19499 118.76 1.58411C118.348 0.952874 117.856 0.637254 117.283 0.637254H114.652Z" fill="white"></path><path d="M97.4311 18.5055C97.4311 18.7905 97.4657 19.1062 97.535 19.4523C97.6043 19.7781 97.691 20.1039 97.7949 20.4297C97.8989 20.7352 98.0115 21.0101 98.1328 21.2544C98.2714 21.4784 98.3927 21.6209 98.4966 21.682H96.1056C96.2096 21.6209 96.3222 21.4784 96.4435 21.2544C96.5821 21.0101 96.7034 20.7352 96.8073 20.4297C96.9113 20.1039 96.9979 19.7781 97.0672 19.4523C97.1365 19.1062 97.1712 18.7905 97.1712 18.5055V2.43934C96.9979 2.01173 96.8073 1.61466 96.5994 1.24813C96.3915 0.861242 96.1749 0.545621 95.9497 0.30127H99.3803C99.1724 0.443808 99.0511 0.84088 99.0164 1.49248C98.9991 2.14409 99.1377 2.95859 99.4323 3.936L103.123 16.7645C103.001 15.5631 102.967 14.4329 103.019 13.3741C103.071 12.3152 103.183 11.3174 103.357 10.3808C103.565 9.17937 103.85 8.08997 104.214 7.11257C104.578 6.1148 104.959 5.24939 105.358 4.51633C105.756 3.76292 106.155 3.14186 106.553 2.65315C106.952 2.16445 107.29 1.8081 107.567 1.58411C107.48 1.21759 107.402 0.912148 107.333 0.667797C107.281 0.545622 107.238 0.423446 107.203 0.30127H109.932C109.828 0.565984 109.741 0.840879 109.672 1.12596C109.603 1.37031 109.542 1.65538 109.49 1.98119C109.438 2.30699 109.412 2.63279 109.412 2.95859V18.9942C109.412 19.3403 109.438 19.6763 109.49 20.0021C109.542 20.3279 109.603 20.613 109.672 20.8573C109.741 21.1628 109.828 21.4377 109.932 21.682H107.203C107.307 21.4377 107.394 21.1628 107.463 20.8573C107.532 20.613 107.593 20.3279 107.645 20.0021C107.697 19.6763 107.723 19.3403 107.723 18.9942V2.95859C107.723 2.61243 107.697 2.26626 107.645 1.9201C107.368 2.14409 107.038 2.50043 106.657 2.98914C106.276 3.47784 105.895 4.07854 105.514 4.79123C105.133 5.50392 104.769 6.33879 104.422 7.29583C104.093 8.23251 103.824 9.28119 103.617 10.4419C103.409 11.6025 103.296 12.865 103.279 14.2293C103.261 15.5936 103.391 17.0495 103.668 18.5971L104.11 20.1854C104.214 20.389 104.31 20.5926 104.396 20.7962C104.483 20.9591 104.569 21.1322 104.656 21.3155C104.743 21.4784 104.829 21.6006 104.916 21.682H102.057C102.144 21.5191 102.213 21.2544 102.265 20.8879C102.334 20.5214 102.334 20.1956 102.265 19.9105L97.4311 3.23349V18.5055Z" fill="white"></path><path d="M92.1963 18.9788C92.2652 19.3064 92.3599 19.634 92.4805 19.9617C92.6011 20.2688 92.7217 20.5555 92.8423 20.8217C92.9801 21.1288 93.1179 21.4155 93.2557 21.6817H90.5425C90.577 21.5179 90.6028 21.3234 90.62 21.0981C90.6373 20.9138 90.6459 20.6988 90.6459 20.4531C90.6459 20.2074 90.6287 19.9412 90.5942 19.6545L89.3797 12.375C89.1213 12.4774 88.7596 12.6617 88.2945 12.9279C87.8466 13.1736 87.3728 13.532 86.8733 14.0029C86.3909 14.4739 85.9172 15.0677 85.4521 15.7844C84.9869 16.4806 84.5993 17.3304 84.2893 18.3338C84.1859 19.1119 84.1342 19.7979 84.1342 20.3917C84.1515 20.965 84.1945 21.395 84.2634 21.6817H82.4805C82.5838 21.5179 82.713 21.2824 82.8681 20.9753C83.0231 20.6476 83.1781 20.2893 83.3332 19.9002C83.4882 19.5112 83.6347 19.0914 83.7725 18.6409C83.9103 18.1904 84.0223 17.7399 84.1084 17.2894L87.1833 1.07185C87.1144 0.928508 87.0541 0.805647 87.0025 0.703264C86.9508 0.580403 86.9077 0.47802 86.8733 0.396112C86.8216 0.314205 86.7699 0.232298 86.7182 0.150391H89.4314C89.3797 0.375635 89.3453 0.733978 89.328 1.22542C89.3108 1.71686 89.3625 2.2595 89.4831 2.85332L92.1963 18.9788ZM87.7776 2.82261C87.7432 2.59737 87.6915 2.38236 87.6226 2.17759C87.5537 1.97282 87.4762 1.76806 87.3901 1.56329L84.4443 17.013C84.8061 16.1939 85.2109 15.4977 85.6588 14.9244C86.1239 14.3306 86.589 13.8391 87.0541 13.4501C87.5193 13.061 87.9499 12.7538 88.3461 12.5286C88.7596 12.3034 89.0869 12.1395 89.328 12.0372L87.7776 2.82261Z" fill="white"></path><path d="M72.5584 0.30127C72.4526 0.565984 72.3644 0.840879 72.2939 1.12596C72.2234 1.37031 72.1616 1.65538 72.1087 1.98119C72.0558 2.30699 72.0294 2.63279 72.0294 2.95859V21.346H76.3141C76.9312 21.346 77.469 21.234 77.9275 21.0101C78.3859 20.7657 78.7738 20.501 79.0912 20.2159C79.4615 19.8697 79.7789 19.4829 80.0434 19.0552L79.5938 21.682H69.7812C69.887 21.4377 69.9752 21.1628 70.0457 20.8573C70.1163 20.613 70.178 20.3279 70.2309 20.0021C70.2838 19.6763 70.3102 19.3403 70.3102 18.9942V2.95859C70.3102 2.63279 70.2838 2.30699 70.2309 1.98119C70.178 1.65538 70.1163 1.37031 70.0457 1.12596C69.9752 0.840879 69.887 0.565984 69.7812 0.30127H72.5584Z" fill="white"></path><path d="M61.5718 18.9788C61.5718 19.3269 61.5975 19.6545 61.6488 19.9617C61.7001 20.2688 61.76 20.5555 61.8284 20.8217C61.8968 21.1288 61.9823 21.4155 62.0849 21.6817H59.3911C59.4937 21.4155 59.5793 21.1288 59.6477 20.8217C59.7161 20.5555 59.7759 20.2688 59.8273 19.9617C59.8786 19.6545 59.9042 19.3269 59.9042 18.9788V2.85332C59.9042 2.5257 59.8786 2.20831 59.8273 1.90115C59.7759 1.57353 59.7161 1.27661 59.6477 1.01041C59.5793 0.703263 59.4937 0.416589 59.3911 0.150391H62.0849C61.9823 0.416589 61.8968 0.703263 61.8284 1.01041C61.76 1.27661 61.7001 1.57353 61.6488 1.90115C61.5975 2.20831 61.5718 2.5257 61.5718 2.85332V18.9788Z" fill="white"></path><path d="M53.5954 0.150391H55.8256C55.7907 0.314205 55.7207 0.53945 55.6157 0.826124C55.5283 1.09232 55.4146 1.38924 55.2746 1.71686C55.1522 2.02401 55.021 2.33117 54.8811 2.63832C54.7411 2.94547 54.6187 3.22191 54.5137 3.46763C54.1464 4.30717 53.7703 5.06481 53.3855 5.74055C53.0181 6.3958 52.5633 7.10225 52.0211 7.85989L55.6944 18.9788C55.7994 19.2859 55.9131 19.5931 56.0355 19.9002C56.1755 20.1869 56.3067 20.4531 56.4291 20.6988C56.5516 20.9445 56.6565 21.1596 56.744 21.3438C56.8489 21.5077 56.9189 21.6203 56.9539 21.6817H53.9627C53.9802 21.6817 53.9977 21.5998 54.0152 21.436C54.0502 21.2722 54.0764 21.0674 54.0939 20.8217C54.1114 20.5555 54.1026 20.2586 54.0677 19.9309C54.0502 19.6033 53.9889 19.2859 53.884 18.9788L50.7879 9.7028C50.2806 10.5628 49.8345 11.556 49.4497 12.6822C49.0824 13.8084 48.8637 15.2111 48.7937 16.8902V18.9788C48.7937 19.3269 48.82 19.6545 48.8725 19.9617C48.9249 20.2688 48.9862 20.5555 49.0561 20.8217C49.1261 21.1288 49.2136 21.4155 49.3185 21.6817H46.5635C46.6684 21.4155 46.7559 21.1288 46.8259 20.8217C46.8958 20.5555 46.9571 20.2688 47.0095 19.9617C47.062 19.6545 47.0882 19.3269 47.0882 18.9788V2.85332C47.0882 2.5257 47.062 2.20831 47.0095 1.90115C46.9571 1.57353 46.8958 1.27661 46.8259 1.01041C46.7559 0.703263 46.6684 0.416589 46.5635 0.150391H49.3185C49.2136 0.416589 49.1261 0.703263 49.0561 1.01041C48.9862 1.27661 48.9249 1.57353 48.8725 1.90115C48.82 2.20831 48.7937 2.5257 48.7937 2.85332V14.1565C48.9337 13.4193 49.1086 12.7538 49.3185 12.16C49.5284 11.5662 49.7646 11.0133 50.0269 10.5014C50.2893 9.969 50.578 9.46732 50.8928 8.99635C51.2077 8.50491 51.5488 8.00323 51.9161 7.49131C52.0735 7.24559 52.266 6.95892 52.4934 6.63129C52.7208 6.30366 52.9394 5.95555 53.1493 5.58697C53.3767 5.21839 53.5779 4.86005 53.7528 4.51194C53.9277 4.14336 54.0414 3.80549 54.0939 3.49834C54.1814 3.02738 54.1989 2.58713 54.1464 2.17759C54.1114 1.76806 54.0502 1.40971 53.9627 1.10256C53.8752 0.754455 53.7528 0.437065 53.5954 0.150391Z" fill="white"></path><path d="M43.4603 18.9788C43.4603 19.3269 43.4872 19.6545 43.541 19.9617C43.5947 20.2688 43.6574 20.5555 43.7291 20.8217C43.8008 21.1288 43.8904 21.4155 43.9979 21.6817H41.1758C41.2833 21.4155 41.3729 21.1288 41.4446 20.8217C41.5162 20.5555 41.5789 20.2688 41.6327 19.9617C41.6864 19.6545 41.7133 19.3269 41.7133 18.9788V2.85332C41.7133 2.5257 41.6864 2.20831 41.6327 1.90115C41.5789 1.57353 41.5162 1.27661 41.4446 1.01041C41.3729 0.703264 41.2833 0.416589 41.1758 0.150391H43.9979C43.8904 0.416589 43.8008 0.703264 43.7291 1.01041C43.6574 1.27661 43.5947 1.57353 43.541 1.90115C43.4872 2.20831 43.4603 2.5257 43.4603 2.85332V18.9788Z" fill="white"></path><path d="M29.1637 2.82261L29.1381 2.85332C29.053 2.5257 28.9509 2.20831 28.8317 1.90115C28.7296 1.57353 28.619 1.27661 28.4998 1.01041C28.3637 0.703263 28.2275 0.416589 28.0913 0.150391H30.7722C30.7382 0.314205 30.7126 0.508734 30.6956 0.733978C30.6786 0.918269 30.6701 1.13328 30.6701 1.379C30.6701 1.62472 30.6871 1.89092 30.7211 2.17759L33.8105 20.791L36.8234 4.6348C36.8744 4.32765 36.9255 3.97955 36.9765 3.59049C37.0276 3.20143 37.0617 2.81237 37.0787 2.42331C37.1127 2.01378 37.1212 1.61448 37.1042 1.22542C37.1042 0.815886 37.0702 0.457542 37.0021 0.150391H38.7383C38.6361 0.314205 38.5085 0.559926 38.3553 0.887554C38.2191 1.19471 38.0744 1.54281 37.9212 1.93187C37.768 2.32093 37.6149 2.7407 37.4617 3.19119C37.3255 3.64168 37.2148 4.09217 37.1297 4.54266L33.9382 21.6203V21.6817H32.2531L29.1637 2.82261Z" fill="white"></path><mask id="path-12-inside-1_1625_11426" fill="white"><path fill-rule="evenodd" clip-rule="evenodd" d="M0.556273 3.93567C0.644535 4.38808 0.732801 4.8405 0.821291 5.29289C0.86425 5.51249 0.907147 5.73211 0.950044 5.95173C1.12712 6.85831 1.3042 7.76487 1.4856 8.67019C1.54176 8.95049 1.68026 9.18771 1.82345 9.41554C2.03508 9.75194 2.28968 10.0386 2.63619 10.1596C2.85251 10.2336 3.09178 10.2723 3.3173 10.2919C3.35798 10.2954 3.39866 10.2984 3.43933 10.3008C3.9458 10.3317 4.45139 10.2847 4.95651 10.2334C5.03099 10.2259 5.10555 10.2194 5.18015 10.2134C5.32044 10.2023 5.77193 10.1419 5.77193 10.1419C5.77193 10.1419 5.31676 10.2731 5.24111 10.2979C4.8695 10.404 4.40616 10.6948 4.0794 10.8999C4.00539 10.9463 3.93838 10.9884 3.88104 11.0229C3.77414 11.092 3.58599 11.2855 3.58599 11.2855C2.3694 12.5172 2.66116 13.7505 2.91348 14.8171C3.04336 15.3661 3.16278 15.871 3.06071 16.3087C3.05502 16.3558 3.04931 16.4024 3.04365 16.4487C3.03009 16.5594 3.01678 16.668 3.00456 16.7769C2.98578 16.9448 3.0172 17.0961 3.125 17.2145C3.21301 17.3111 3.304 17.404 3.3949 17.4969L3.41535 17.5178C3.60676 17.7132 3.67032 17.9348 3.57624 18.2132C3.51639 18.3905 3.43386 18.558 3.35179 18.7244C3.33729 18.7539 3.3228 18.7833 3.30845 18.8127C3.18267 19.0708 3.0557 19.3282 2.92871 19.5856C2.74761 19.9527 2.5665 20.3198 2.38881 20.6893C2.28101 20.9132 2.17863 21.1445 2.10153 21.3847C2.0133 21.6598 2.13785 22.124 2.45231 21.9692C2.70111 21.8467 2.81589 21.5876 2.89765 21.3002C2.92637 21.1993 2.94909 21.0961 2.97182 20.9928C2.98754 20.9213 3.00326 20.8498 3.02098 20.7791C3.13853 20.3098 3.39151 19.9452 3.6918 19.6282C3.89492 19.4135 4.14451 19.3769 4.39393 19.4309C4.62194 19.464 4.83516 19.5568 5.0477 19.661C5.39006 19.8289 5.60132 20.1201 5.68258 20.5463C5.68555 20.5618 5.69006 20.5772 5.69557 20.5921C5.70212 20.6099 5.71007 20.6272 5.71851 20.6434C5.73188 20.669 5.74543 20.6875 5.75889 20.6987C5.7626 20.7018 5.7663 20.7043 5.76999 20.7063C5.80068 20.7229 5.83062 20.7015 5.85683 20.641C5.8801 20.5873 5.90018 20.5318 5.92028 20.4763C5.93433 20.4374 5.94839 20.3986 5.96355 20.3603C5.96876 20.3471 5.97349 20.3325 5.97829 20.3177C5.99028 20.2808 6.00276 20.2424 6.02453 20.2193C6.03924 20.2065 6.05487 20.1983 6.0661 20.2006C6.09698 20.207 6.14032 20.2492 6.14556 20.2833C6.1582 20.3652 6.1582 20.4521 6.15133 20.5355C6.14582 20.6021 6.13687 20.6683 6.12791 20.7346C6.1184 20.805 6.10888 20.8754 6.10348 20.9463C6.09391 21.0705 6.134 21.0982 6.22482 21.0357C6.24232 21.0236 6.25953 21.0114 6.27642 20.9988C6.50033 20.8322 6.66679 20.6179 6.68257 20.2733C6.68708 20.1756 6.71001 20.0768 6.7362 19.9832C6.79813 19.7609 6.91568 19.669 7.11341 19.6594C7.25714 19.6523 7.40159 19.6414 7.54352 19.6154C7.72626 19.5819 7.8615 19.4674 7.94222 19.2609C8.13218 18.7751 8.23221 18.264 8.26851 17.7331C8.27862 17.5853 8.28876 17.4376 8.29889 17.2898C8.32005 16.9813 8.34122 16.6727 8.36222 16.364C8.36968 16.2466 8.41713 16.1308 8.46265 16.0198C8.47665 15.9856 8.49046 15.952 8.50286 15.9188C9.0229 14.5295 9.55044 15.002 10.1155 15.508C10.4233 15.7837 10.7422 16.0693 11.0771 16.0693C11.412 16.0693 11.7309 15.7837 12.0387 15.508C12.6037 15.002 13.1313 14.5295 13.6513 15.9188C13.6637 15.952 13.6775 15.9856 13.6915 16.0198C13.7371 16.1308 13.7845 16.2466 13.792 16.364C13.813 16.6727 13.8341 16.9813 13.8553 17.2898C13.8654 17.4376 13.8756 17.5853 13.8857 17.7331C13.922 18.264 14.022 18.7751 14.212 19.2609C14.2927 19.4674 14.4279 19.5819 14.6107 19.6154C14.7526 19.6414 14.897 19.6523 15.0408 19.6594C15.2385 19.669 15.3561 19.7609 15.418 19.9832C15.4442 20.0768 15.4671 20.1756 15.4716 20.2733C15.4874 20.6179 15.6539 20.8322 15.8778 20.9988C15.8946 21.0114 15.9119 21.0236 15.9294 21.0357C16.0202 21.0982 16.0603 21.0705 16.0507 20.9463C16.0453 20.8754 16.0358 20.805 16.0263 20.7346C16.0173 20.6683 16.0084 20.6021 16.0029 20.5355C15.996 20.4521 15.996 20.3652 16.0086 20.2833C16.0139 20.2492 16.0572 20.207 16.0881 20.2006C16.0993 20.1983 16.1149 20.2065 16.1297 20.2193C16.1514 20.2424 16.1639 20.2808 16.1759 20.3177C16.1807 20.3325 16.1854 20.3471 16.1906 20.3603C16.2058 20.3986 16.2199 20.4374 16.2339 20.4763C16.254 20.5318 16.2741 20.5873 16.2974 20.641C16.3236 20.7015 16.3535 20.7229 16.3842 20.7063C16.3879 20.7043 16.3916 20.7018 16.3953 20.6987C16.4088 20.6875 16.4223 20.669 16.4357 20.6434C16.4441 20.6272 16.4521 20.6099 16.4586 20.5921C16.4641 20.5772 16.4686 20.5618 16.4716 20.5463C16.5529 20.1201 16.7641 19.8289 17.1065 19.661C17.319 19.5568 17.5322 19.464 17.7603 19.4309C18.0097 19.3769 18.2593 19.4135 18.4624 19.6282C18.7627 19.9452 19.0157 20.3098 19.1332 20.7791C19.1509 20.8498 19.1666 20.9213 19.1824 20.9928C19.2051 21.0961 19.2278 21.1993 19.2565 21.3002C19.3383 21.5876 19.4531 21.8467 19.7019 21.9692C20.0163 22.124 20.1409 21.6598 20.0527 21.3847C19.9756 21.1445 19.8732 20.9132 19.7654 20.6893C19.5877 20.3198 19.4066 19.9527 19.2255 19.5856C19.0985 19.3282 18.9715 19.0708 18.8457 18.8127C18.8314 18.7833 18.8169 18.7539 18.8024 18.7245C18.7203 18.558 18.6378 18.3905 18.5779 18.2132C18.4839 17.9348 18.5474 17.7132 18.7388 17.5178L18.7593 17.4969C18.8502 17.404 18.9412 17.3111 19.0292 17.2145C19.137 17.0961 19.1684 16.9448 19.1496 16.7769C19.1374 16.6681 19.1241 16.5595 19.1106 16.4489C19.1049 16.4026 19.0992 16.3559 19.0935 16.3087C18.9914 15.871 19.1108 15.3661 19.2407 14.8171C19.493 13.7505 19.7848 12.5172 18.5682 11.2855C18.5682 11.2855 18.38 11.092 18.2731 11.0229C18.2158 10.9884 18.1488 10.9463 18.0748 10.8999C17.748 10.6948 17.2847 10.404 16.9131 10.2979C16.8374 10.2731 16.3823 10.1419 16.3823 10.1419C16.3823 10.1419 16.8337 10.2023 16.974 10.2134C17.0486 10.2194 17.1232 10.2259 17.1977 10.2334C17.7028 10.2847 18.2084 10.3317 18.7149 10.3008C18.7555 10.2984 18.7962 10.2954 18.8369 10.2919C19.0624 10.2723 19.3017 10.2336 19.518 10.1596C19.8645 10.0386 20.1191 9.75194 20.3307 9.41554C20.4739 9.18771 20.6124 8.95049 20.6686 8.67019C20.85 7.76491 21.027 6.85839 21.2041 5.95185C21.247 5.73219 21.2899 5.51253 21.3329 5.29289C21.4214 4.84064 21.5096 4.38837 21.5978 3.93611C21.734 3.2381 21.8702 2.54014 22.0071 1.84241C22.0229 1.76191 22.043 1.6804 22.0632 1.59827C22.1089 1.41285 22.1553 1.22429 22.1547 1.0371V0.778168C22.1547 0.689531 22.1317 0.623572 22.0989 0.542648C22.0178 0.342552 21.8721 0.234825 21.7022 0.168482C21.5879 0.12381 21.4732 0.0881347 21.358 0.0614207C21.1962 0.017941 21.0317 -0.00695823 20.8641 0.00171393C20.6672 -0.000509033 20.4692 0.0227148 20.2702 0.0712075L20.1979 0.0888645C20.1315 0.101256 20.0652 0.114658 19.9992 0.129001C19.5353 0.229689 19.076 0.356828 18.657 0.627747C17.901 1.11668 17.1912 1.69201 16.5361 2.34818C16.0881 2.79677 15.6685 3.28555 15.2494 3.77379C15.1585 3.8797 15.0676 3.98558 14.9765 4.09102C14.6995 4.41143 14.4229 4.73781 14.1831 5.09597L14.0916 5.23293C13.78 5.67528 13.4895 6.13848 13.2 6.60215C12.9839 6.94039 12.7695 7.2801 12.5561 7.62063C12.5178 7.68189 12.4789 7.74286 12.44 7.80388C12.209 8.16613 11.9771 8.52994 11.84 8.96278L11.8393 8.9652C11.8364 8.97427 11.8302 8.97766 11.8232 8.9716C11.7306 8.83742 11.7262 8.79475 11.7925 8.66356C11.9399 8.37174 11.8216 7.99693 11.5473 7.89304C11.511 7.87922 11.473 7.87126 11.4334 7.86292C11.4148 7.85903 11.396 7.85506 11.3767 7.85038C11.38 7.82869 11.3816 7.80594 11.3832 7.78344C11.3866 7.73533 11.39 7.68833 11.4099 7.65519C11.5262 7.46214 11.6443 7.26844 11.779 7.0933C11.912 6.92029 12.0489 6.7512 12.1857 6.58212C12.3481 6.38137 12.5105 6.18064 12.6666 5.97337C12.8797 5.69029 13.0955 5.40252 13.2652 5.0836C13.3949 4.83991 13.4973 4.57581 13.5997 4.31195C13.6389 4.21086 13.6781 4.10981 13.7188 4.00996C13.7288 3.98558 13.7387 3.96183 13.7484 3.93839C13.7819 3.85782 13.814 3.78085 13.8431 3.69426C13.8634 3.63376 13.889 3.47833 13.8127 3.44805C13.7568 3.42587 13.6966 3.49247 13.6637 3.59889C13.6146 3.75845 13.5693 3.92015 13.5303 4.08355C13.4279 4.51169 13.3122 4.93705 13.0787 5.29095C12.8297 5.66853 12.5626 6.03054 12.2894 6.38422C12.2447 6.44218 12.1997 6.49991 12.1547 6.55761C11.9002 6.88411 11.6461 7.21017 11.4319 7.5769C11.4252 7.5882 11.416 7.59742 11.4071 7.60638C11.4032 7.61028 11.3994 7.61413 11.3958 7.61807C11.3165 7.54481 11.1974 7.50725 11.0771 7.50578C10.9568 7.50725 10.8377 7.54481 10.7584 7.61807C10.7548 7.61413 10.751 7.61028 10.7471 7.60638C10.7381 7.59742 10.7289 7.5882 10.7223 7.5769C10.5081 7.21017 10.2539 6.8841 9.99947 6.5576C9.9545 6.4999 9.90952 6.44218 9.86475 6.38422C9.59154 6.03054 9.32448 5.66853 9.07548 5.29095C8.842 4.93705 8.72626 4.51169 8.62387 4.08355C8.58487 3.92015 8.53955 3.75845 8.49043 3.59889C8.45763 3.49247 8.39736 3.42587 8.34148 3.44805C8.26517 3.47833 8.29079 3.63376 8.31112 3.69426C8.34021 3.78085 8.37224 3.85783 8.40576 3.93841C8.41551 3.96184 8.42539 3.98559 8.43536 4.00996C8.47607 4.10981 8.51527 4.21086 8.55448 4.31194C8.65685 4.57581 8.75931 4.83991 8.88895 5.0836C9.05868 5.40252 9.27447 5.69029 9.48754 5.97337C9.64368 6.18063 9.80609 6.38137 9.96852 6.58211C10.1053 6.75119 10.2421 6.92029 10.3752 7.0933C10.5099 7.26844 10.628 7.46214 10.7443 7.65519C10.7642 7.68833 10.7676 7.73533 10.771 7.78344C10.7726 7.80594 10.7742 7.82869 10.7775 7.85038C10.7582 7.85506 10.7393 7.85903 10.7208 7.86292C10.6811 7.87126 10.6432 7.87922 10.6069 7.89304C10.3326 7.99693 10.2143 8.37174 10.3617 8.66356C10.4279 8.79475 10.4236 8.83742 10.331 8.9716C10.324 8.97766 10.3178 8.97427 10.3149 8.9652L10.3141 8.96278C10.1771 8.52995 9.94515 8.16614 9.71421 7.80388C9.67531 7.74286 9.63643 7.68189 9.59805 7.62063C9.38466 7.2801 9.17026 6.94039 8.95421 6.60215C8.66469 6.13848 8.37422 5.67528 8.06254 5.23293L7.97112 5.09597C7.73132 4.73781 7.45469 4.41143 7.17769 4.09102C7.08654 3.98558 6.99566 3.8797 6.90475 3.77379C6.48564 3.28555 6.06609 2.79677 5.61812 2.34818C4.96301 1.69201 4.25319 1.11668 3.49715 0.627747C3.07823 0.356828 2.61886 0.229689 2.15498 0.129001C2.08896 0.114658 2.02269 0.101256 1.95624 0.0888645L1.88394 0.0712075C1.68494 0.0227148 1.48694 -0.000509033 1.29013 0.00171393C1.12249 -0.00695823 0.957989 0.017941 0.796192 0.0614207C0.680992 0.0881347 0.566256 0.12381 0.452024 0.168482C0.282108 0.234825 0.136389 0.342552 0.0553131 0.542648C0.022527 0.623572 -0.000481801 0.689531 -0.000481801 0.778168V1.0371C-0.00111881 1.22429 0.0453185 1.41286 0.0909805 1.59827C0.111206 1.6804 0.13128 1.76191 0.147043 1.84241C0.283981 2.53999 0.420123 3.23781 0.556273 3.93567Z"></path></mask><path d="M12.355 9.12563C12.445 8.84121 12.2873 8.53773 12.0029 8.44779C11.7185 8.35786 11.415 8.51552 11.325 8.79994L12.355 9.12563ZM11.3243 8.80235C11.2344 9.08678 11.392 9.39025 11.6764 9.48019C11.9609 9.57012 12.2643 9.41246 12.3543 9.12804L11.3243 8.80235ZM3.02935 17.8956C3.23801 18.1088 3.57998 18.1125 3.79316 17.9038C4.00634 17.6951 4.01001 17.3532 3.80135 17.14L3.02935 17.8956ZM3.7809 17.1191C3.57224 16.9059 3.23027 16.9022 3.01709 17.1109C2.80391 17.3196 2.80024 17.6615 3.0089 17.8747L3.7809 17.1191ZM11.325 8.79994L11.3243 8.80235L12.3543 9.12804L12.355 9.12563L11.325 8.79994ZM3.80135 17.14L3.7809 17.1191L3.0089 17.8747L3.02935 17.8956L3.80135 17.14ZM0.821291 5.29289L-0.238865 5.50026L-0.238862 5.50028L0.821291 5.29289ZM0.556273 3.93567L1.61653 3.72882V3.72882L0.556273 3.93567ZM0.950044 5.95173L-0.110167 6.15881L0.950044 5.95173ZM1.4856 8.67019L2.5448 8.45799L2.5448 8.45795L1.4856 8.67019ZM1.82345 9.41554L0.908847 9.99037L0.909082 9.99075L1.82345 9.41554ZM2.63619 10.1596L2.28018 11.1795L2.28641 11.1817L2.63619 10.1596ZM3.3173 10.2919L3.22405 11.3681L3.22418 11.3681L3.3173 10.2919ZM3.43933 10.3008L3.37361 11.3791H3.37361L3.43933 10.3008ZM4.95651 10.2334L4.8475 9.15868L4.84728 9.1587L4.95651 10.2334ZM5.18015 10.2134L5.09444 9.1366L5.09442 9.1366L5.18015 10.2134ZM5.77193 10.1419L6.0713 11.1798C6.61482 11.023 6.94535 10.4735 6.82914 9.91991C6.71292 9.36631 6.18931 8.99612 5.62864 9.07115L5.77193 10.1419ZM5.24111 10.2979L5.53776 11.3366C5.55088 11.3328 5.56393 11.3289 5.57691 11.3246L5.24111 10.2979ZM4.0794 10.8999L3.50515 9.9849L3.50515 9.98491L4.0794 10.8999ZM3.88104 11.0229L3.32399 10.0974C3.31406 10.1033 3.30423 10.1095 3.29451 10.1157L3.88104 11.0229ZM3.58599 11.2855L4.35456 12.0446L4.36043 12.0386L3.58599 11.2855ZM2.91348 14.8171L3.96471 14.5684L2.91348 14.8171ZM3.06071 16.3087L2.00869 16.0634C1.99978 16.1016 1.99296 16.1402 1.98826 16.1792L3.06071 16.3087ZM3.04365 16.4487L1.97142 16.3173L3.04365 16.4487ZM3.00456 16.7769L1.93105 16.6564L1.93101 16.6569L3.00456 16.7769ZM3.125 17.2145L2.32625 17.9417L2.32635 17.9419L3.125 17.2145ZM3.3949 17.4969L4.1669 16.7413L4.16684 16.7412L3.3949 17.4969ZM3.41535 17.5178L2.64335 18.2734L2.64365 18.2737L3.41535 17.5178ZM3.57624 18.2132L2.55285 17.8674L2.55273 17.8678L3.57624 18.2132ZM3.35179 18.7244L4.32071 19.2021L4.32071 19.2021L3.35179 18.7244ZM3.30845 18.8127L2.33755 18.3391L2.33735 18.3395L3.30845 18.8127ZM2.92871 19.5856L3.89749 20.0635L3.89749 20.0635L2.92871 19.5856ZM2.38881 20.6893L3.36219 21.1577L3.36231 21.1575L2.38881 20.6893ZM2.10153 21.3847L1.07297 21.0545L1.0729 21.0548L2.10153 21.3847ZM2.45231 21.9692L1.97519 21L1.97518 21L2.45231 21.9692ZM2.89765 21.3002L1.85867 21.0045L1.85864 21.0046L2.89765 21.3002ZM2.97182 20.9928L4.02683 21.2249V21.2249L2.97182 20.9928ZM3.02098 20.7791L4.06885 21.0416L4.06886 21.0415L3.02098 20.7791ZM3.6918 19.6282L4.47604 20.3711L4.47655 20.3706L3.6918 19.6282ZM4.39393 19.4309L4.16538 20.4867C4.18961 20.4919 4.21401 20.4963 4.23855 20.4999L4.39393 19.4309ZM5.0477 19.661L4.57187 20.6308L4.57208 20.631L5.0477 19.661ZM5.68258 20.5463L4.62144 20.7486L4.62165 20.7497L5.68258 20.5463ZM5.69557 20.5921L4.6818 20.9652L4.68181 20.9653L5.69557 20.5921ZM5.71851 20.6434L4.76009 21.1417L4.76093 21.1434L5.71851 20.6434ZM5.75889 20.6987L5.06697 21.5282L5.06708 21.5283L5.75889 20.6987ZM5.76999 20.7063L6.28355 19.756L6.28341 19.7559L5.76999 20.7063ZM5.85683 20.641L6.84785 21.0709L6.84809 21.0704L5.85683 20.641ZM5.92028 20.4763L6.93608 20.8438L6.93608 20.8438L5.92028 20.4763ZM5.96355 20.3603L6.96789 20.7581L6.96861 20.7563L5.96355 20.3603ZM5.97829 20.3177L7.00573 20.6513L7.00574 20.6513L5.97829 20.3177ZM6.02453 20.2193L5.31761 19.4024C5.28981 19.4265 5.26325 19.452 5.23804 19.4787L6.02453 20.2193ZM6.0661 20.2006L6.28532 19.1428L6.28108 19.1419L6.0661 20.2006ZM6.14556 20.2833L5.0778 20.4471L5.07794 20.4481L6.14556 20.2833ZM6.15133 20.5355L7.2279 20.6246L7.22794 20.624L6.15133 20.5355ZM6.12791 20.7346L7.19843 20.8792L7.19843 20.8792L6.12791 20.7346ZM6.10348 20.9463L7.18053 21.0294L7.18061 21.0283L6.10348 20.9463ZM6.22482 21.0357L6.83721 21.9256L6.83772 21.9253L6.22482 21.0357ZM6.27642 20.9988L6.92127 21.8655L6.92128 21.8654L6.27642 20.9988ZM6.68257 20.2733L5.60347 20.2234L5.60345 20.2239L6.68257 20.2733ZM6.7362 19.9832L7.77655 20.274L7.7768 20.2731L6.7362 19.9832ZM7.11341 19.6594L7.16579 20.7383L7.16625 20.7383L7.11341 19.6594ZM7.54352 19.6154L7.34878 18.5529L7.34868 18.5529L7.54352 19.6154ZM7.94222 19.2609L6.93617 18.8674L6.9361 18.8676L7.94222 19.2609ZM8.26851 17.7331L7.19078 17.6593L7.19078 17.6594L8.26851 17.7331ZM8.29889 17.2898L9.37661 17.3638V17.3638L8.29889 17.2898ZM8.36222 16.364L9.43999 16.4373L9.4403 16.4324L8.36222 16.364ZM8.46265 16.0198L9.46217 16.4295L9.46217 16.4295L8.46265 16.0198ZM8.50286 15.9188L7.49117 15.5401L7.49117 15.5401L8.50286 15.9188ZM10.1155 15.508L10.8361 14.7033L10.8361 14.7033L10.1155 15.508ZM12.0387 15.508L11.318 14.7033L11.318 14.7033L12.0387 15.508ZM13.6513 15.9188L14.663 15.5401L14.663 15.5401L13.6513 15.9188ZM13.6915 16.0198L12.692 16.4295L12.692 16.4295L13.6915 16.0198ZM13.792 16.364L12.7139 16.4324L12.7142 16.4373L13.792 16.364ZM13.8553 17.2898L12.7776 17.3638V17.3638L13.8553 17.2898ZM13.8857 17.7331L14.9634 17.6594L14.9634 17.6593L13.8857 17.7331ZM14.212 19.2609L15.2181 18.8676L15.218 18.8674L14.212 19.2609ZM14.6107 19.6154L14.8055 18.5529L14.8054 18.5529L14.6107 19.6154ZM15.0408 19.6594L14.9879 20.7383L14.9884 20.7383L15.0408 19.6594ZM15.418 19.9832L14.3774 20.2731L14.3776 20.274L15.418 19.9832ZM15.4716 20.2733L16.5507 20.2239L16.5507 20.2234L15.4716 20.2733ZM15.8778 20.9988L16.5226 20.1321L15.8778 20.9988ZM15.9294 21.0357L15.3165 21.9252L15.317 21.9256L15.9294 21.0357ZM16.0507 20.9463L14.9736 21.0283L14.9737 21.0294L16.0507 20.9463ZM16.0263 20.7346L17.0968 20.5899L17.0968 20.5899L16.0263 20.7346ZM16.0029 20.5355L14.9262 20.624L14.9263 20.6246L16.0029 20.5355ZM16.0086 20.2833L17.0762 20.4481L17.0764 20.4472L16.0086 20.2833ZM16.0881 20.2006L15.8731 19.1419L15.8689 19.1428L16.0881 20.2006ZM16.1297 20.2193L16.9161 19.4787C16.8909 19.452 16.8644 19.4265 16.8366 19.4024L16.1297 20.2193ZM16.1759 20.3177L15.1484 20.6513L15.1485 20.6514L16.1759 20.3177ZM16.1906 20.3603L15.1856 20.7563L15.1863 20.7581L16.1906 20.3603ZM16.2339 20.4763L17.2497 20.1087L17.2497 20.1087L16.2339 20.4763ZM16.2974 20.641L15.3061 21.0704L15.3063 21.0709L16.2974 20.641ZM16.3842 20.7063L15.8707 19.7559L15.8706 19.756L16.3842 20.7063ZM16.3953 20.6987L17.0871 21.5283L17.0872 21.5282L16.3953 20.6987ZM16.4357 20.6434L17.3933 21.1434L17.3941 21.1417L16.4357 20.6434ZM16.4586 20.5921L17.4724 20.9653L17.4724 20.9653L16.4586 20.5921ZM16.4716 20.5463L17.5325 20.7497L17.5327 20.7486L16.4716 20.5463ZM17.1065 19.661L17.5821 20.631L17.5823 20.6308L17.1065 19.661ZM17.7603 19.4309L17.9156 20.4999C17.9402 20.4963 17.9646 20.4919 17.9888 20.4867L17.7603 19.4309ZM18.4624 19.6282L17.6776 20.3706L17.6781 20.3711L18.4624 19.6282ZM19.1332 20.7791L18.0853 21.0416L18.0853 21.0416L19.1332 20.7791ZM19.1824 20.9928L18.1273 21.2249L18.1274 21.2249L19.1824 20.9928ZM19.2565 21.3002L20.2955 21.0046L20.2955 21.0045L19.2565 21.3002ZM19.7019 21.9692L20.179 21L20.179 21L19.7019 21.9692ZM20.0527 21.3847L21.0813 21.0548L21.0812 21.0545L20.0527 21.3847ZM19.7654 20.6893L18.7919 21.1575L18.792 21.1577L19.7654 20.6893ZM19.2255 19.5856L20.1942 19.1077L19.2255 19.5856ZM18.8457 18.8127L19.8168 18.3395L19.8166 18.3391L18.8457 18.8127ZM18.8024 18.7245L19.7713 18.2468L19.7713 18.2468L18.8024 18.7245ZM18.5779 18.2132L19.6015 17.8677L19.6013 17.8674L18.5779 18.2132ZM18.7388 17.5178L19.5105 18.2737L19.5108 18.2734L18.7388 17.5178ZM18.7593 17.4969L17.9873 16.7412L17.9873 16.7413L18.7593 17.4969ZM19.0292 17.2145L19.8278 17.9419L19.8279 17.9417L19.0292 17.2145ZM19.1496 16.7769L20.2232 16.6569L20.2231 16.6564L19.1496 16.7769ZM19.1106 16.4489L18.0383 16.5802V16.5802L19.1106 16.4489ZM19.0935 16.3087L20.1659 16.1792C20.1612 16.1403 20.1544 16.1016 20.1455 16.0634L19.0935 16.3087ZM19.2407 14.8171L20.2919 15.0658V15.0658L19.2407 14.8171ZM18.5682 11.2855L17.7937 12.0386L17.7996 12.0446L18.5682 11.2855ZM18.2731 11.0229L18.8597 10.1157C18.8499 10.1095 18.8401 10.1033 18.8302 10.0973L18.2731 11.0229ZM18.0748 10.8999L17.5005 11.8149L17.5005 11.8149L18.0748 10.8999ZM16.9131 10.2979L16.5773 11.3246C16.5903 11.3289 16.6033 11.3328 16.6164 11.3366L16.9131 10.2979ZM16.3823 10.1419L16.5255 9.07115C15.9649 8.99612 15.4413 9.36631 15.325 9.91991C15.2088 10.4735 15.5394 11.023 16.0829 11.1798L16.3823 10.1419ZM16.974 10.2134L17.0598 9.1366L17.0597 9.1366L16.974 10.2134ZM17.1977 10.2334L17.3069 9.1587L17.3067 9.15868L17.1977 10.2334ZM18.7149 10.3008L18.7806 11.3791H18.7806L18.7149 10.3008ZM18.8369 10.2919L18.93 11.3681L18.9301 11.3681L18.8369 10.2919ZM19.518 10.1596L19.8678 11.1817L19.874 11.1795L19.518 10.1596ZM20.3307 9.41554L21.2451 9.99074L21.2453 9.99037L20.3307 9.41554ZM20.6686 8.67019L19.6094 8.45795L19.6094 8.45799L20.6686 8.67019ZM21.2041 5.95185L20.1439 5.74476L20.1439 5.74476L21.2041 5.95185ZM21.3329 5.29289L22.393 5.50028L22.393 5.50026L21.3329 5.29289ZM21.5978 3.93611L20.5376 3.72925L20.5376 3.72925L21.5978 3.93611ZM22.0071 1.84241L23.0672 2.0505L23.0673 2.05001L22.0071 1.84241ZM22.0632 1.59827L23.1121 1.85659L23.1121 1.85658L22.0632 1.59827ZM22.1547 1.0371H21.0744L21.0744 1.04078L22.1547 1.0371ZM22.0989 0.542648L23.1001 0.137023L23.1001 0.136983L22.0989 0.542648ZM21.7022 0.168482L21.3087 1.17453L21.3093 1.17475L21.7022 0.168482ZM21.358 0.0614207L21.0776 1.10465C21.0897 1.10789 21.1018 1.11092 21.114 1.11374L21.358 0.0614207ZM20.8641 0.00171393L20.8519 1.08189C20.8745 1.08215 20.8972 1.08169 20.9199 1.08052L20.8641 0.00171393ZM20.2702 0.0712075L20.0145 -0.978329L20.0139 -0.978195L20.2702 0.0712075ZM20.1979 0.0888645L20.396 1.15081C20.4155 1.14716 20.4349 1.14298 20.4542 1.13827L20.1979 0.0888645ZM19.9992 0.129001L20.2283 1.18467L20.2286 1.18462L19.9992 0.129001ZM18.657 0.627747L19.2437 1.53484L19.2437 1.53484L18.657 0.627747ZM16.5361 2.34818L17.3004 3.11151L17.3005 3.11141L16.5361 2.34818ZM15.2494 3.77379L14.4298 3.07019L14.4298 3.07019L15.2494 3.77379ZM14.9765 4.09102L15.7937 4.79749L15.7937 4.79748L14.9765 4.09102ZM14.1831 5.09597L13.2854 4.495L13.2846 4.49621L14.1831 5.09597ZM14.0916 5.23293L14.9747 5.85513C14.9799 5.84772 14.9851 5.84024 14.9901 5.83269L14.0916 5.23293ZM13.2 6.60215L14.1104 7.1837L14.1163 7.17429L13.2 6.60215ZM12.5561 7.62063L13.4715 8.19427L13.4715 8.19423L12.5561 7.62063ZM12.44 7.80388L13.3509 8.38459L13.3509 8.38458L12.44 7.80388ZM11.84 8.96278L10.8102 8.63669L10.8101 8.6371L11.84 8.96278ZM11.8393 8.9652L10.8093 8.63951L10.8091 8.64001L11.8393 8.9652ZM11.8232 8.9716L10.9342 9.58532C10.9864 9.66089 11.048 9.7295 11.1175 9.78949L11.8232 8.9716ZM11.7925 8.66356L12.7567 9.15062L12.7568 9.15045L11.7925 8.66356ZM11.5473 7.89304L11.1632 8.9027L11.1647 8.90326L11.5473 7.89304ZM11.4334 7.86292L11.6554 6.80575L11.6554 6.80575L11.4334 7.86292ZM11.3767 7.85038L10.309 7.68606C10.2237 8.24046 10.5769 8.76793 11.122 8.90018L11.3767 7.85038ZM11.3832 7.78344L10.3057 7.70699L10.3057 7.707L11.3832 7.78344ZM11.4099 7.65519L10.4845 7.09781L10.4842 7.09844L11.4099 7.65519ZM11.779 7.0933L10.9227 6.4347L10.9227 6.43471L11.779 7.0933ZM12.1857 6.58212L11.3459 5.90264V5.90264L12.1857 6.58212ZM12.6666 5.97337L13.5295 6.62334L13.5297 6.623L12.6666 5.97337ZM13.2652 5.0836L14.2188 5.59113L14.2189 5.59095L13.2652 5.0836ZM13.5997 4.31195L14.6068 4.70265L14.6068 4.70265L13.5997 4.31195ZM13.7188 4.00996L12.719 3.60098L12.7185 3.60212L13.7188 4.00996ZM13.7484 3.93839L12.7511 3.52345L12.751 3.52346L13.7484 3.93839ZM13.8431 3.69426L14.8671 4.03833L14.8671 4.0383L13.8431 3.69426ZM13.8127 3.44805L13.4142 4.45212L13.4143 4.45212L13.8127 3.44805ZM13.6637 3.59889L12.6314 3.2807L12.6313 3.28109L13.6637 3.59889ZM13.5303 4.08355L14.5809 4.33479L14.581 4.33435L13.5303 4.08355ZM13.0787 5.29095L12.177 4.69608L12.1769 4.69623L13.0787 5.29095ZM12.2894 6.38422L13.1443 7.04464L13.1443 7.04458L12.2894 6.38422ZM12.1547 6.55761L13.0067 7.22166L13.0067 7.22165L12.1547 6.55761ZM11.4319 7.5769L12.3622 8.12605L12.3647 8.12175L11.4319 7.5769ZM11.4071 7.60638L12.1715 8.36967L12.1716 8.3696L11.4071 7.60638ZM11.3958 7.61807L10.6628 8.4116C10.8749 8.60749 11.1566 8.71034 11.445 8.6972C11.7334 8.68406 12.0045 8.55603 12.1979 8.34166L11.3958 7.61807ZM11.0771 7.50578L11.0903 6.42561C11.0815 6.4255 11.0727 6.4255 11.0639 6.42561L11.0771 7.50578ZM10.7584 7.61807L9.95629 8.34166C10.1497 8.55603 10.4208 8.68406 10.7092 8.6972C10.9976 8.71034 11.2793 8.60749 11.4914 8.4116L10.7584 7.61807ZM10.7471 7.60638L9.98261 8.3696L9.98268 8.36967L10.7471 7.60638ZM10.7223 7.5769L9.78948 8.12176L9.79202 8.12605L10.7223 7.5769ZM9.99947 6.5576L9.14742 7.22164L9.14743 7.22164L9.99947 6.5576ZM9.86475 6.38422L9.00984 7.04458L9.00988 7.04464L9.86475 6.38422ZM9.07548 5.29095L9.97728 4.69623L9.97718 4.69608L9.07548 5.29095ZM8.62387 4.08355L7.57314 4.33435L7.57325 4.33479L8.62387 4.08355ZM8.49043 3.59889L9.52288 3.28109L9.52276 3.2807L8.49043 3.59889ZM8.34148 3.44805L7.94303 2.44397L7.94303 2.44397L8.34148 3.44805ZM8.31112 3.69426L7.28712 4.0383L7.28713 4.03833L8.31112 3.69426ZM8.40576 3.93841L9.40314 3.52347L9.40313 3.52345L8.40576 3.93841ZM8.43536 4.00996L9.43567 3.60213L9.43519 3.60097L8.43536 4.00996ZM8.55448 4.31194L7.54737 4.70264V4.70264L8.55448 4.31194ZM8.88895 5.0836L7.93526 5.59095L7.93535 5.59113L8.88895 5.0836ZM9.48754 5.97337L8.62446 6.623L8.62471 6.62334L9.48754 5.97337ZM9.96852 6.58211L9.12873 7.26159L9.12873 7.26159L9.96852 6.58211ZM10.3752 7.0933L11.2315 6.43471L11.2315 6.4347L10.3752 7.0933ZM10.7443 7.65519L11.67 7.09844L11.6696 7.09781L10.7443 7.65519ZM10.771 7.78344L11.8485 7.707L11.8485 7.70699L10.771 7.78344ZM10.7775 7.85038L11.0322 8.90018C11.5773 8.76793 11.9305 8.24046 11.8452 7.68606L10.7775 7.85038ZM10.7208 7.86292L10.4987 6.80575L10.4987 6.80575L10.7208 7.86292ZM10.6069 7.89304L10.9895 8.90326L10.991 8.9027L10.6069 7.89304ZM10.3617 8.66356L9.39737 9.15045L9.39746 9.15062L10.3617 8.66356ZM10.331 8.9716L11.0367 9.78949C11.1062 9.7295 11.1678 9.66089 11.22 9.58532L10.331 8.9716ZM10.3149 8.9652L11.345 8.64001L11.3449 8.63951L10.3149 8.9652ZM10.3141 8.96278L11.3441 8.6371L11.344 8.63669L10.3141 8.96278ZM9.71421 7.80388L8.80332 8.38458L8.80332 8.38459L9.71421 7.80388ZM9.59805 7.62063L8.68267 8.19423L8.68269 8.19427L9.59805 7.62063ZM8.95421 6.60215L8.03787 7.17432L8.04384 7.18367L8.95421 6.60215ZM8.06254 5.23293L7.16409 5.83269C7.16912 5.84024 7.17425 5.84772 7.17948 5.85513L8.06254 5.23293ZM7.97112 5.09597L8.86957 4.49621L8.86876 4.495L7.97112 5.09597ZM7.17769 4.09102L6.36048 4.79748L6.36049 4.79749L7.17769 4.09102ZM6.90475 3.77379L7.72443 3.07019L7.72443 3.07019L6.90475 3.77379ZM5.61812 2.34818L4.85364 3.11141L4.85374 3.11151L5.61812 2.34818ZM3.49715 0.627747L2.91053 1.53484L2.91053 1.53484L3.49715 0.627747ZM2.15498 0.129001L1.92562 1.18462L1.92584 1.18467L2.15498 0.129001ZM1.95624 0.0888645L1.69994 1.13827C1.71925 1.14298 1.73868 1.14716 1.75822 1.15081L1.95624 0.0888645ZM1.88394 0.0712075L2.14024 -0.978195L2.13969 -0.978328L1.88394 0.0712075ZM1.29013 0.00171393L1.23432 1.08052C1.25697 1.08169 1.27965 1.08215 1.30233 1.08189L1.29013 0.00171393ZM0.796192 0.0614207L1.04022 1.11374C1.05238 1.11092 1.06449 1.10789 1.07654 1.10466L0.796192 0.0614207ZM0.452024 0.168482L0.844916 1.17475L0.84546 1.17453L0.452024 0.168482ZM0.0553131 0.542648L-0.945871 0.136983L-0.945884 0.137016L0.0553131 0.542648ZM-0.000481801 1.0371L1.07977 1.04078V1.0371H-0.000481801ZM0.0909805 1.59827L-0.957928 1.85658L-0.957928 1.85658L0.0909805 1.59827ZM0.147043 1.84241L-0.913071 2.05L-0.912973 2.0505L0.147043 1.84241ZM1.88145 5.08552C1.79302 4.63343 1.7048 4.18127 1.61653 3.72882L-0.503984 4.14252C-0.41573 4.59488 -0.327414 5.04757 -0.238865 5.50026L1.88145 5.08552ZM2.01026 5.74464C1.96736 5.52505 1.92444 5.30528 1.88144 5.0855L-0.238862 5.50028C-0.195937 5.7197 -0.153069 5.93917 -0.110167 6.15881L2.01026 5.74464ZM2.5448 8.45795C2.36399 7.55564 2.18742 6.65165 2.01026 5.74464L-0.110167 6.15881C0.0668278 7.06497 0.244405 7.97411 0.426412 8.88243L2.5448 8.45795ZM2.73805 8.8407C2.59765 8.61731 2.55855 8.5266 2.5448 8.45799L0.426405 8.88239C0.524973 9.37439 0.762869 9.75811 0.908847 9.99037L2.73805 8.8407ZM2.9922 9.1397C2.99219 9.1397 2.99202 9.13964 2.99168 9.1395C2.99133 9.13935 2.99071 9.13908 2.98981 9.13863C2.98804 9.13775 2.98475 9.136 2.97987 9.13284C2.97 9.12645 2.95314 9.11399 2.92966 9.09132C2.87984 9.04321 2.816 8.96461 2.73782 8.84033L0.909082 9.99075C1.16309 10.3945 1.584 10.9365 2.28019 11.1795L2.9922 9.1397ZM3.41055 9.21564C3.23356 9.20031 3.08909 9.17284 2.98597 9.13755L2.28641 11.1817C2.61593 11.2944 2.95001 11.3443 3.22405 11.3681L3.41055 9.21564ZM3.50504 9.22259C3.4732 9.22065 3.44167 9.21834 3.41043 9.21563L3.22418 11.3681C3.2743 11.3724 3.32411 11.3761 3.37361 11.3791L3.50504 9.22259ZM4.84728 9.1587C4.3365 9.21062 3.91257 9.24743 3.50504 9.22259L3.37361 11.3791C3.97904 11.416 4.56628 11.3589 5.06574 11.3081L4.84728 9.1587ZM5.09442 9.1366C5.0149 9.14293 4.93213 9.15009 4.8475 9.15868L5.06552 11.3081C5.12984 11.3016 5.1962 11.2958 5.26588 11.2903L5.09442 9.1366ZM5.77193 10.1419C5.62864 9.07115 5.62865 9.07115 5.62865 9.07115C5.62865 9.07115 5.62866 9.07115 5.62865 9.07115C5.62865 9.07115 5.62864 9.07115 5.62863 9.07115C5.6286 9.07116 5.62854 9.07116 5.62845 9.07117C5.62828 9.0712 5.62801 9.07123 5.62763 9.07129C5.62686 9.07139 5.62569 9.07154 5.62412 9.07175C5.62099 9.07217 5.61628 9.0728 5.61021 9.0736C5.59804 9.07522 5.58038 9.07755 5.55871 9.08039C5.51527 9.08609 5.45615 9.09377 5.39304 9.10176C5.2545 9.11929 5.13421 9.13344 5.09444 9.1366L5.26587 11.2903C5.36638 11.2823 5.54197 11.2606 5.66426 11.2452C5.73155 11.2366 5.79408 11.2285 5.83968 11.2225C5.86252 11.2195 5.88124 11.2171 5.89431 11.2153C5.90085 11.2145 5.90599 11.2138 5.90954 11.2133C5.91131 11.2131 5.91268 11.2129 5.91364 11.2128C5.91412 11.2127 5.91449 11.2127 5.91476 11.2126C5.91489 11.2126 5.91499 11.2126 5.91507 11.2126C5.91511 11.2126 5.91514 11.2126 5.91517 11.2126C5.91518 11.2126 5.9152 11.2126 5.9152 11.2126C5.91521 11.2126 5.91522 11.2126 5.77193 10.1419ZM5.57691 11.3246C5.57385 11.3256 5.57905 11.3239 5.59854 11.318C5.61536 11.3129 5.63708 11.3064 5.6627 11.2988C5.71381 11.2837 5.77607 11.2655 5.8371 11.2477C5.89792 11.23 5.95653 11.213 6 11.2004C6.02171 11.1941 6.0396 11.1889 6.05203 11.1854C6.05825 11.1836 6.0631 11.1822 6.06638 11.1812C6.06802 11.1807 6.06926 11.1804 6.07009 11.1801C6.07051 11.18 6.07082 11.1799 6.07102 11.1799C6.07112 11.1798 6.0712 11.1798 6.07124 11.1798C6.07127 11.1798 6.07129 11.1798 6.07129 11.1798C6.0713 11.1798 6.0713 11.1798 6.0713 11.1798C6.0713 11.1798 6.0713 11.1798 5.77193 10.1419C5.47256 9.10392 5.47256 9.10392 5.47255 9.10392C5.47255 9.10392 5.47254 9.10392 5.47253 9.10392C5.47251 9.10393 5.47249 9.10394 5.47246 9.10395C5.47239 9.10396 5.4723 9.10399 5.47218 9.10402C5.47195 9.10409 5.4716 9.10419 5.47116 9.10432C5.47026 9.10458 5.46894 9.10496 5.46723 9.10545C5.4638 9.10644 5.4588 9.10789 5.45242 9.10973C5.43967 9.11341 5.4214 9.11869 5.39926 9.1251C5.35503 9.13791 5.29512 9.15528 5.23268 9.17347C5.12067 9.20611 4.96461 9.25175 4.9053 9.27115L5.57691 11.3246ZM4.65364 11.8149C5.02627 11.581 5.34616 11.3913 5.53776 11.3366L4.94446 9.25916C4.39284 9.4167 3.78604 9.80862 3.50515 9.9849L4.65364 11.8149ZM4.43809 11.9484C4.5059 11.9076 4.58231 11.8596 4.65364 11.8149L3.50515 9.98491C3.42846 10.033 3.37086 10.0691 3.32399 10.0974L4.43809 11.9484ZM3.58599 11.2855C4.36043 12.0386 4.36039 12.0386 4.36035 12.0387C4.36034 12.0387 4.36031 12.0387 4.36028 12.0388C4.36024 12.0388 4.36019 12.0388 4.36015 12.0389C4.36007 12.039 4.36 12.039 4.35994 12.0391C4.35982 12.0392 4.35974 12.0393 4.3597 12.0394C4.35963 12.0394 4.35971 12.0393 4.35996 12.0391C4.36045 12.0386 4.36155 12.0375 4.36321 12.0358C4.36655 12.0324 4.37201 12.0269 4.37911 12.0198C4.3936 12.0054 4.4134 11.986 4.43491 11.9657C4.49994 11.9043 4.50787 11.904 4.46757 11.93L3.29451 10.1157C3.14731 10.2109 3.00772 10.3419 2.95194 10.3945C2.91305 10.4312 2.87913 10.4645 2.85501 10.4885C2.8428 10.5007 2.83272 10.5108 2.82535 10.5183C2.82165 10.5221 2.81861 10.5252 2.81629 10.5275C2.81514 10.5287 2.81415 10.5297 2.81336 10.5305C2.81296 10.5309 2.81261 10.5313 2.81231 10.5316C2.81216 10.5318 2.81202 10.5319 2.81189 10.532C2.81183 10.5321 2.81177 10.5322 2.81171 10.5322C2.81168 10.5322 2.81164 10.5323 2.81162 10.5323C2.81158 10.5323 2.81154 10.5324 3.58599 11.2855ZM3.96471 14.5684C3.83264 14.0101 3.74379 13.5987 3.77571 13.1993C3.80307 12.8568 3.92544 12.479 4.35454 12.0446L2.81744 10.5264C2.02995 11.3236 1.6899 12.1784 1.62208 13.0272C1.55881 13.819 1.742 14.5575 1.86225 15.0658L3.96471 14.5684ZM4.11274 16.554C4.28436 15.818 4.07599 15.0388 3.96471 14.5684L1.86225 15.0658C2.01072 15.6934 2.04121 15.9239 2.00869 16.0634L4.11274 16.554ZM4.11588 16.58C4.12153 16.5339 4.12735 16.4864 4.13317 16.4382L1.98826 16.1792C1.98269 16.2253 1.9771 16.271 1.97142 16.3173L4.11588 16.58ZM4.07806 16.8974C4.08958 16.7948 4.10221 16.6916 4.11588 16.58L1.97142 16.3173C1.95797 16.4271 1.94399 16.5412 1.93105 16.6564L4.07806 16.8974ZM3.92374 16.4872C3.99444 16.5648 4.04071 16.6568 4.06332 16.7445C4.08419 16.8254 4.07982 16.8817 4.07811 16.897L1.93101 16.6569C1.88915 17.031 1.94855 17.5269 2.32625 17.9417L3.92374 16.4872ZM4.16684 16.7412C4.07374 16.6461 3.9964 16.567 3.92364 16.4871L2.32635 17.9419C2.42962 18.0552 2.53426 18.162 2.62295 18.2526L4.16684 16.7412ZM4.18735 16.7622L4.1669 16.7413L2.6229 18.2525L2.64335 18.2734L4.18735 16.7622ZM4.59963 18.5591C4.69986 18.2625 4.73746 17.9262 4.65213 17.5776C4.56773 17.2327 4.38457 16.9635 4.18706 16.7619L2.64365 18.2737C2.63754 18.2675 2.58186 18.2068 2.55357 18.0912C2.52435 17.9718 2.54669 17.8856 2.55285 17.8674L4.59963 18.5591ZM4.32071 19.2021C4.39753 19.0462 4.51319 18.8151 4.59975 18.5587L2.55273 17.8678C2.51959 17.9659 2.47018 18.0697 2.38287 18.2468L4.32071 19.2021ZM4.27936 19.2862C4.29255 19.2592 4.30603 19.2318 4.32071 19.2021L2.38288 18.2468C2.36854 18.2759 2.35305 18.3073 2.33755 18.3391L4.27936 19.2862ZM3.89749 20.0635C4.02428 19.8065 4.15243 19.5468 4.27956 19.2858L2.33735 18.3395C2.21292 18.5949 2.08712 18.8499 1.95993 19.1077L3.89749 20.0635ZM3.36231 21.1575C3.53727 20.7937 3.71599 20.4314 3.89749 20.0635L1.95994 19.1077C1.77923 19.474 1.59573 19.8459 1.41532 20.221L3.36231 21.1575ZM3.13008 21.7148C3.18494 21.544 3.26283 21.3642 3.36219 21.1577L1.41543 20.2208C1.29919 20.4623 1.17233 20.745 1.07298 21.0545L3.13008 21.7148ZM1.97518 21C2.13103 20.9233 2.41654 20.863 2.71812 21.0071C2.97375 21.1293 3.07836 21.3228 3.10981 21.3922C3.14609 21.4722 3.15223 21.53 3.15366 21.5573C3.15512 21.5851 3.15463 21.6383 3.13016 21.7146L1.0729 21.0548C0.949399 21.4398 0.96864 21.9016 1.14201 22.2841C1.23287 22.4846 1.42207 22.7823 1.78674 22.9566C2.19735 23.1527 2.61635 23.0925 2.92943 22.9383L1.97518 21ZM1.85864 21.0046C1.84433 21.0549 1.83254 21.0898 1.82299 21.1141C1.81345 21.1384 1.80923 21.1442 1.81278 21.1383C1.81678 21.1317 1.83124 21.1093 1.85996 21.0812C1.89003 21.0518 1.9291 21.0227 1.97519 21L2.92942 22.9383C3.62997 22.5935 3.84791 21.9078 3.93667 21.5958L1.85864 21.0046ZM1.9168 20.7606C1.89285 20.8695 1.87688 20.9405 1.85867 21.0045L3.93664 21.5959C3.97585 21.4582 4.00532 21.3226 4.02683 21.2249L1.9168 20.7606ZM1.97311 20.5166C1.95096 20.605 1.93195 20.6918 1.9168 20.7607L4.02683 21.2249C4.04312 21.1508 4.05556 21.0946 4.06885 21.0416L1.97311 20.5166ZM2.90756 18.8853C2.53025 19.2836 2.15082 19.8071 1.97311 20.5166L4.06886 21.0415C4.12624 20.8125 4.25277 20.6068 4.47604 20.3711L2.90756 18.8853ZM4.62249 18.3751C4.1039 18.2628 3.4333 18.3295 2.90704 18.8859L4.47655 20.3706C4.43934 20.4099 4.3711 20.4562 4.28336 20.4778C4.20632 20.4967 4.15993 20.4855 4.16538 20.4867L4.62249 18.3751ZM5.52353 18.6912C5.29684 18.58 4.9553 18.4209 4.54932 18.3619L4.23855 20.4999C4.28858 20.5072 4.37347 20.5335 4.57187 20.6308L5.52353 18.6912ZM6.74371 20.344C6.60756 19.6298 6.21019 19.028 5.52332 18.6911L4.57208 20.631C4.58573 20.6376 4.59005 20.6415 4.58917 20.6408C4.58894 20.6406 4.58824 20.64 4.58736 20.6391C4.58648 20.6381 4.58603 20.6375 4.58607 20.6376C4.58613 20.6376 4.58712 20.639 4.58886 20.6422C4.59062 20.6454 4.59337 20.6509 4.59673 20.6591C4.60348 20.6757 4.61299 20.7043 4.62144 20.7486L6.74371 20.344ZM6.70933 20.219C6.72014 20.2484 6.73342 20.2903 6.74351 20.343L4.62165 20.7497C4.63768 20.8333 4.65998 20.906 4.6818 20.9652L6.70933 20.219ZM6.67694 20.145C6.68409 20.1588 6.69646 20.1841 6.70932 20.219L4.68181 20.9653C4.70777 21.0358 4.73606 21.0955 4.76009 21.1417L6.67694 20.145ZM6.45082 19.8691C6.52812 19.9336 6.57979 19.9966 6.61071 20.0389C6.64262 20.0825 6.66366 20.1196 6.67609 20.1434L4.76093 21.1434C4.80447 21.2267 4.89723 21.3867 5.06697 21.5282L6.45082 19.8691ZM6.28341 19.7559C6.35195 19.7929 6.40746 19.833 6.4507 19.869L5.06708 21.5283C5.11774 21.5706 5.18065 21.6157 5.25657 21.6568L6.28341 19.7559ZM4.86581 20.2111C4.87866 20.1815 4.95806 19.9934 5.1711 19.8353C5.29392 19.7441 5.47447 19.654 5.70401 19.635C5.93613 19.6159 6.1362 19.6763 6.28355 19.756L5.25643 21.6567C5.41913 21.7446 5.63445 21.8086 5.88163 21.7882C6.12623 21.768 6.32167 21.6719 6.45909 21.5699C6.70132 21.39 6.80879 21.161 6.84785 21.0709L4.86581 20.2111ZM4.90448 20.1087C4.88243 20.1697 4.87339 20.1936 4.86557 20.2117L6.84809 21.0704C6.88681 20.981 6.91794 20.8939 6.93608 20.8438L4.90448 20.1087ZM4.95921 19.9625C4.93709 20.0184 4.9176 20.0725 4.90448 20.1087L6.93608 20.8438C6.95106 20.8024 6.95968 20.7788 6.96789 20.7581L4.95921 19.9625ZM4.95085 19.9841C4.94955 19.9881 4.94895 19.99 4.94844 19.9915C4.948 19.9928 4.94811 19.9925 4.94856 19.9912C4.94902 19.9898 4.95008 19.9868 4.95163 19.9825C4.95319 19.9782 4.95548 19.972 4.95849 19.9644L6.96861 20.7563C6.98822 20.7065 7.00324 20.659 7.00573 20.6513L4.95085 19.9841ZM5.23804 19.4787C5.10206 19.6232 5.03377 19.7703 5.00496 19.8375C4.97469 19.9081 4.95367 19.9754 4.95085 19.9841L7.00574 20.6513C7.01491 20.6231 7.00612 20.6528 6.99053 20.6891C6.98112 20.7111 6.96433 20.7476 6.9383 20.7913C6.91239 20.8349 6.87157 20.8955 6.81102 20.9598L5.23804 19.4787ZM6.28108 19.1419C5.94694 19.0741 5.6869 19.1796 5.58617 19.2271C5.46399 19.2846 5.37408 19.3536 5.31761 19.4024L6.73144 21.0361C6.68969 21.0722 6.61495 21.1306 6.50707 21.1815C6.42065 21.2222 6.17403 21.3248 5.85113 21.2592L6.28108 19.1419ZM7.21331 20.1195C7.16144 19.7814 6.97382 19.5639 6.88612 19.4746C6.7989 19.3858 6.59783 19.2075 6.28532 19.1428L5.84689 21.2583C5.68616 21.225 5.57178 21.1615 5.51141 21.1231C5.44373 21.0801 5.38889 21.0334 5.34477 20.9885C5.30081 20.9437 5.25214 20.8851 5.2074 20.81C5.16595 20.7405 5.10382 20.6167 5.0778 20.4471L7.21331 20.1195ZM7.22794 20.624C7.23939 20.4849 7.2425 20.3087 7.21317 20.1186L5.07794 20.4481C5.07673 20.4402 5.07618 20.4346 5.07592 20.4314C5.07566 20.4281 5.07566 20.4267 5.07567 20.4272C5.07569 20.4287 5.07569 20.4352 5.07472 20.4469L7.22794 20.624ZM7.19843 20.8792C7.20676 20.8176 7.21969 20.7237 7.2279 20.6246L5.07477 20.4463C5.07195 20.4804 5.06698 20.519 5.0574 20.5899L7.19843 20.8792ZM7.18061 21.0283C7.18322 20.9941 7.18821 20.9549 7.19843 20.8792L5.0574 20.5899C5.04858 20.6551 5.03454 20.7568 5.02635 20.8643L7.18061 21.0283ZM5.61244 20.1458C5.63509 20.1302 5.73576 20.0612 5.89493 20.0199C6.06934 19.9747 6.4228 19.9414 6.76082 20.1866C7.06507 20.4073 7.14377 20.7044 7.16474 20.8088C7.18855 20.9274 7.18177 21.0133 7.18053 21.0294L5.02643 20.8633C5.02041 20.9414 5.01505 21.0774 5.04652 21.2341C5.07516 21.3767 5.16775 21.7001 5.49219 21.9354C5.85039 22.1953 6.2303 22.1649 6.43748 22.1112C6.62941 22.0614 6.76915 21.9724 6.83721 21.9256L5.61244 20.1458ZM5.63157 20.1321C5.62597 20.1363 5.61946 20.141 5.61193 20.1462L6.83772 21.9253C6.86518 21.9063 6.8931 21.8864 6.92127 21.8655L5.63157 20.1321ZM5.60345 20.2239C5.60328 20.2275 5.60344 20.2176 5.60916 20.1985C5.615 20.179 5.624 20.1588 5.63503 20.1407C5.65671 20.1051 5.67026 20.1033 5.63156 20.1321L6.92128 21.8654C7.32544 21.5647 7.72705 21.0788 7.76168 20.3227L5.60345 20.2239ZM5.69584 19.6923C5.66344 19.8082 5.61373 20.0013 5.60347 20.2234L7.76166 20.3232C7.76086 20.3405 7.75907 20.346 7.76116 20.3354C7.76327 20.3247 7.76759 20.3061 7.77655 20.274L5.69584 19.6923ZM7.06102 18.5804C6.80404 18.5929 6.4734 18.667 6.17891 18.9145C5.89377 19.1541 5.7614 19.4571 5.69559 19.6932L7.7768 20.2731C7.77293 20.287 7.7303 20.4329 7.56885 20.5685C7.39805 20.7121 7.22504 20.7355 7.16579 20.7383L7.06102 18.5804ZM7.34868 18.5529C7.2778 18.5659 7.18986 18.5741 7.06056 18.5804L7.16625 20.7383C7.32442 20.7306 7.52539 20.717 7.73836 20.6779L7.34868 18.5529ZM6.9361 18.8676C6.94563 18.8432 6.98077 18.7682 7.06816 18.6915C7.1601 18.6107 7.26398 18.5684 7.34878 18.5529L7.73826 20.678C8.33817 20.568 8.75056 20.1601 8.94834 19.6541L6.9361 18.8676ZM7.19078 17.6594C7.16048 18.1026 7.07883 18.5026 6.93617 18.8674L8.94827 19.6543C9.18553 19.0476 9.30395 18.4254 9.34624 17.8067L7.19078 17.6594ZM7.22118 17.2159C7.21104 17.3637 7.20091 17.5115 7.19078 17.6593L9.34623 17.8069C9.35634 17.6592 9.36647 17.5115 9.37661 17.3638L7.22118 17.2159ZM7.28447 16.2906C7.26349 16.599 7.24234 16.9073 7.22118 17.2159L9.37661 17.3638C9.39777 17.0552 9.41895 16.7463 9.43998 16.4373L7.28447 16.2906ZM7.46314 15.61C7.43209 15.6858 7.30486 15.9693 7.28415 16.2955L9.4403 16.4324C9.4383 16.464 9.43411 16.4877 9.43112 16.5017C9.42817 16.5155 9.42585 16.5224 9.42656 16.5202C9.42731 16.5178 9.42988 16.5102 9.43607 16.4942C9.43909 16.4864 9.44265 16.4775 9.44707 16.4665C9.45159 16.4553 9.45632 16.4438 9.46217 16.4295L7.46314 15.61ZM7.49117 15.5401C7.48563 15.5549 7.47834 15.5729 7.46314 15.61L9.46217 16.4295C9.47495 16.3984 9.49528 16.349 9.51456 16.2975L7.49117 15.5401ZM10.8361 14.7033C10.7085 14.589 10.5148 14.4131 10.3082 14.2718C10.1092 14.1356 9.76523 13.9356 9.32341 13.9229C8.81406 13.9082 8.39614 14.1431 8.09895 14.4669C7.83136 14.7584 7.64167 15.1381 7.49117 15.5401L9.51456 16.2975C9.56623 16.1595 9.61079 16.0642 9.64542 16.001C9.68067 15.9368 9.69808 15.9197 9.69058 15.9279C9.68165 15.9376 9.63813 15.982 9.55368 16.0218C9.5115 16.0417 9.46356 16.0583 9.41117 16.0692C9.35884 16.08 9.30813 16.0838 9.26118 16.0825C9.16807 16.0798 9.10492 16.0574 9.08124 16.0476C9.05913 16.0384 9.06013 16.0357 9.08833 16.0549C9.11569 16.0737 9.1542 16.1031 9.20878 16.1491C9.26389 16.1956 9.32182 16.2474 9.39476 16.3127L10.8361 14.7033ZM11.0771 14.9891C11.149 14.9891 11.197 15.0047 11.2126 15.0106C11.2258 15.0156 11.2168 15.0141 11.182 14.991C11.1477 14.9683 11.1023 14.9342 11.0413 14.8832C10.9794 14.8315 10.9156 14.7744 10.8361 14.7033L9.39476 16.3127C9.53496 16.4383 9.75188 16.6354 9.9902 16.7931C10.2276 16.95 10.6036 17.1496 11.0771 17.1496V14.9891ZM11.0771 17.1496C11.5505 17.1496 11.9266 16.95 12.164 16.7931C12.4023 16.6354 12.6192 16.4383 12.7594 16.3127L11.318 14.7033C11.2386 14.7744 11.1748 14.8315 11.1129 14.8832C11.0518 14.9342 11.0065 14.9683 10.9722 14.991C10.9374 15.0141 10.9283 15.0156 10.9416 15.0106C10.9572 15.0047 11.0052 14.9891 11.0771 14.9891V17.1496ZM12.7594 16.3127C12.8324 16.2474 12.8903 16.1956 12.9454 16.1491C13 16.1031 13.0385 16.0737 13.0659 16.0549C13.0941 16.0357 13.095 16.0384 13.0729 16.0476C13.0493 16.0574 12.9861 16.0798 12.893 16.0825C12.8461 16.0838 12.7953 16.08 12.743 16.0692C12.6906 16.0583 12.6427 16.0417 12.6005 16.0218C12.5161 15.982 12.4725 15.9376 12.4636 15.9279C12.4561 15.9197 12.4735 15.9368 12.5088 16.001C12.5434 16.0642 12.588 16.1595 12.6396 16.2975L14.663 15.5401C14.5125 15.1381 14.3228 14.7584 14.0552 14.4669C13.758 14.1431 13.3401 13.9082 12.8308 13.9229C12.389 13.9356 12.045 14.1356 11.846 14.2718C11.6394 14.4131 11.4457 14.589 11.318 14.7033L12.7594 16.3127ZM12.6396 16.2975C12.6589 16.349 12.6792 16.3984 12.692 16.4295L14.691 15.61C14.6758 15.5729 14.6686 15.5549 14.663 15.5401L12.6396 16.2975ZM12.692 16.4295C12.6979 16.4438 12.7026 16.4553 12.7071 16.4665C12.7115 16.4775 12.7151 16.4864 12.7181 16.4942C12.7243 16.5102 12.7269 16.5178 12.7276 16.5202C12.7283 16.5224 12.726 16.5155 12.7231 16.5017C12.7201 16.4877 12.7159 16.464 12.7139 16.4324L14.87 16.2955C14.8493 15.9693 14.7221 15.6858 14.691 15.61L12.692 16.4295ZM12.7142 16.4373C12.7352 16.7463 12.7564 17.0552 12.7776 17.3638L14.933 17.2159C14.9118 16.9073 14.8907 16.599 14.8697 16.2906L12.7142 16.4373ZM12.7776 17.3638C12.7877 17.5115 12.7978 17.6592 12.808 17.8069L14.9634 17.6593C14.9533 17.5115 14.9431 17.3637 14.933 17.2159L12.7776 17.3638ZM12.8079 17.8067C12.8502 18.4254 12.9687 19.0476 13.2059 19.6543L15.218 18.8674C15.0754 18.5026 14.9937 18.1026 14.9634 17.6594L12.8079 17.8067ZM13.2058 19.6541C13.4036 20.1601 13.816 20.568 14.4159 20.678L14.8054 18.5529C14.8902 18.5684 14.9941 18.6107 15.086 18.6915C15.1734 18.7682 15.2086 18.8432 15.2181 18.8676L13.2058 19.6541ZM14.4158 20.6779C14.6288 20.717 14.8298 20.7306 14.9879 20.7383L15.0936 18.5804C14.9643 18.5741 14.8764 18.5659 14.8055 18.5529L14.4158 20.6779ZM14.9884 20.7383C14.9291 20.7355 14.7561 20.7121 14.5853 20.5685C14.4239 20.4329 14.3813 20.287 14.3774 20.2731L16.4586 19.6932C16.3928 19.4571 16.2604 19.1541 15.9753 18.9145C15.6808 18.667 15.3501 18.5929 15.0932 18.5804L14.9884 20.7383ZM14.3776 20.274C14.3866 20.3061 14.3909 20.3247 14.393 20.3354C14.3951 20.346 14.3933 20.3405 14.3925 20.3231L16.5507 20.2234C16.5404 20.0013 16.4907 19.8082 16.4583 19.6923L14.3776 20.274ZM14.3925 20.3227C14.4271 21.0788 14.8287 21.5647 15.2329 21.8654L16.5226 20.1321C16.4839 20.1033 16.4975 20.1051 16.5192 20.1407C16.5302 20.1588 16.5392 20.179 16.545 20.1985C16.5507 20.2176 16.5509 20.2275 16.5507 20.2239L14.3925 20.3227ZM15.2329 21.8654C15.2611 21.8864 15.289 21.9063 15.3165 21.9252L16.5423 20.1462C16.5347 20.141 16.5282 20.1363 16.5226 20.1321L15.2329 21.8654ZM15.317 21.9256C15.385 21.9724 15.5248 22.0614 15.7167 22.1112C15.9239 22.1649 16.3038 22.1953 16.662 21.9354C16.9864 21.7001 17.079 21.3767 17.1077 21.2341C17.1391 21.0774 17.1338 20.9414 17.1278 20.8633L14.9737 21.0294C14.9724 21.0133 14.9656 20.9274 14.9894 20.8088C15.0104 20.7044 15.0891 20.4073 15.3934 20.1866C15.7314 19.9414 16.0848 19.9747 16.2593 20.0199C16.4184 20.0612 16.5191 20.1302 16.5417 20.1458L15.317 21.9256ZM17.1278 20.8643C17.1196 20.7568 17.1056 20.6551 17.0968 20.5899L14.9558 20.8792C14.966 20.9549 14.971 20.9941 14.9736 21.0283L17.1278 20.8643ZM17.0968 20.5899C17.0872 20.519 17.0822 20.4804 17.0794 20.4463L14.9263 20.6246C14.9345 20.7237 14.9474 20.8176 14.9558 20.8793L17.0968 20.5899ZM17.0795 20.4469C17.0785 20.4352 17.0785 20.4287 17.0785 20.4272C17.0785 20.4267 17.0785 20.4281 17.0783 20.4314C17.078 20.4346 17.0774 20.4402 17.0762 20.4481L14.941 20.1186C14.9117 20.3087 14.9148 20.4849 14.9262 20.624L17.0795 20.4469ZM17.0764 20.4472C17.0504 20.6168 16.9882 20.7405 16.9468 20.8101C16.902 20.8851 16.8534 20.9437 16.8094 20.9885C16.7653 21.0334 16.7105 21.0801 16.6428 21.1231C16.5824 21.1615 16.468 21.225 16.3073 21.2583L15.8689 19.1428C15.5563 19.2076 15.3553 19.3858 15.2681 19.4746C15.1804 19.5639 14.9928 19.7814 14.9409 20.1195L17.0764 20.4472ZM16.303 21.2592C15.9802 21.3248 15.7335 21.2222 15.6471 21.1815C15.5392 21.1306 15.4645 21.0722 15.4227 21.0361L16.8366 19.4024C16.7801 19.3536 16.6902 19.2846 16.568 19.2271C16.4673 19.1796 16.2072 19.0741 15.8731 19.1419L16.303 21.2592ZM15.3432 20.9598C15.2826 20.8955 15.2418 20.8349 15.2159 20.7913C15.1899 20.7476 15.1731 20.7111 15.1636 20.6891C15.1481 20.6527 15.1393 20.6231 15.1484 20.6513L17.2033 19.9842C17.2005 19.9755 17.1795 19.9081 17.1492 19.8375C17.1204 19.7703 17.0521 19.6231 16.9161 19.4787L15.3432 20.9598ZM15.1485 20.6514C15.151 20.6591 15.166 20.7065 15.1856 20.7563L17.1957 19.9644C17.1987 19.972 17.201 19.9782 17.2025 19.9825C17.2041 19.9867 17.2052 19.9898 17.2056 19.9912C17.2061 19.9925 17.2062 19.9928 17.2057 19.9915C17.2052 19.99 17.2046 19.9881 17.2033 19.9841L15.1485 20.6514ZM15.1863 20.7581C15.1945 20.7788 15.2031 20.8024 15.2181 20.8438L17.2497 20.1087C17.2366 20.0725 17.2171 20.0184 17.195 19.9625L15.1863 20.7581ZM15.2181 20.8438C15.2362 20.8939 15.2674 20.981 15.3061 21.0704L17.2886 20.2117C17.2808 20.1936 17.2718 20.1697 17.2497 20.1087L15.2181 20.8438ZM15.3063 21.0709C15.3454 21.161 15.4529 21.39 15.6951 21.5699C15.8325 21.6719 16.0279 21.768 16.2726 21.7882C16.5197 21.8086 16.7351 21.7446 16.8978 21.6567L15.8706 19.756C16.018 19.6763 16.2181 19.6159 16.4502 19.635C16.6797 19.654 16.8603 19.7441 16.9831 19.8353C17.1961 19.9934 17.2755 20.1815 17.2884 20.2111L15.3063 21.0709ZM16.8977 21.6567C16.9735 21.6158 17.0364 21.5706 17.0871 21.5283L15.7035 19.869C15.7468 19.8329 15.8023 19.7929 15.8707 19.7559L16.8977 21.6567ZM17.0872 21.5282C17.2569 21.3867 17.3497 21.2268 17.3933 21.1434L15.4781 20.1434C15.4905 20.1196 15.5116 20.0825 15.5435 20.0389C15.5744 19.9966 15.6261 19.9336 15.7034 19.8691L17.0872 21.5282ZM17.3941 21.1417C17.4181 21.0955 17.4464 21.0358 17.4724 20.9653L15.4449 20.219C15.4577 20.1841 15.4701 20.1588 15.4772 20.1451L17.3941 21.1417ZM17.4724 20.9653C17.4942 20.906 17.5165 20.8333 17.5325 20.7497L15.4107 20.343C15.4208 20.2903 15.434 20.2484 15.4449 20.219L17.4724 20.9653ZM17.5327 20.7486C17.5412 20.7043 17.5507 20.6757 17.5575 20.6591C17.5608 20.6509 17.5636 20.6454 17.5653 20.6422C17.5671 20.639 17.5681 20.6376 17.5681 20.6376C17.5681 20.6375 17.5677 20.6381 17.5668 20.6391C17.5659 20.64 17.5652 20.6406 17.565 20.6408C17.5641 20.6415 17.5685 20.6376 17.5821 20.631L16.6309 18.6911C15.944 19.028 15.5466 19.6298 15.4105 20.344L17.5327 20.7486ZM17.5823 20.6308C17.7807 20.5335 17.8656 20.5072 17.9156 20.4999L17.6049 18.3619C17.1989 18.4209 16.8573 18.58 16.6307 18.6912L17.5823 20.6308ZM17.9888 20.4867C17.9943 20.4855 17.9479 20.4967 17.8708 20.4778C17.7831 20.4562 17.7148 20.4099 17.6776 20.3706L19.2471 18.8859C18.7209 18.3295 18.0503 18.2628 17.5317 18.3751L17.9888 20.4867ZM17.6781 20.3711C17.9014 20.6068 18.0279 20.8125 18.0853 21.0416L20.1811 20.5166C20.0034 19.8071 19.6239 19.2836 19.2466 18.8853L17.6781 20.3711ZM18.0853 21.0416C18.0986 21.0946 18.1111 21.1508 18.1273 21.2249L20.2374 20.7607C20.2222 20.6918 20.2032 20.605 20.1811 20.5166L18.0853 21.0416ZM18.1274 21.2249C18.1489 21.3226 18.1783 21.4582 18.2175 21.5959L20.2955 21.0045C20.2773 20.9405 20.2613 20.8695 20.2374 20.7607L18.1274 21.2249ZM18.2175 21.5958C18.3063 21.9078 18.5242 22.5935 19.2248 22.9383L20.179 21C20.2251 21.0227 20.2642 21.0518 20.2942 21.0812C20.3229 21.1093 20.3374 21.1317 20.3414 21.1383C20.345 21.1442 20.3407 21.1384 20.3312 21.1141C20.3216 21.0898 20.3098 21.0549 20.2955 21.0046L18.2175 21.5958ZM19.2248 22.9383C19.5378 23.0925 19.9568 23.1527 20.3674 22.9566C20.7321 22.7823 20.9213 22.4846 21.0122 22.2841C21.1855 21.9016 21.2048 21.4398 21.0813 21.0548L19.024 21.7146C18.9996 21.6383 18.9991 21.5851 19.0005 21.5573C19.002 21.53 19.0081 21.4722 19.0444 21.3922C19.0758 21.3228 19.1804 21.1293 19.4361 21.0071C19.7376 20.863 20.0231 20.9233 20.179 21L19.2248 22.9383ZM21.0812 21.0545C20.9819 20.745 20.855 20.4623 20.7387 20.2208L18.792 21.1577C18.8913 21.3642 18.9692 21.544 19.0241 21.7148L21.0812 21.0545ZM20.7389 20.221C20.5585 19.8459 20.3749 19.474 20.1942 19.1077L18.2567 20.0635C18.4382 20.4314 18.6169 20.7937 18.7919 21.1575L20.7389 20.221ZM20.1942 19.1077C20.0671 18.8499 19.9413 18.5949 19.8168 18.3395L17.8746 19.2858C18.0018 19.5467 18.1299 19.8065 18.2567 20.0635L20.1942 19.1077ZM19.8166 18.3391C19.8011 18.3073 19.7856 18.2759 19.7713 18.2468L17.8335 19.2021C17.8482 19.2318 17.8616 19.2592 17.8748 19.2862L19.8166 18.3391ZM19.7713 18.2468C19.684 18.0697 19.6346 17.9659 19.6015 17.8677L17.5544 18.5587C17.641 18.8152 17.7567 19.0462 17.8335 19.2021L19.7713 18.2468ZM19.6013 17.8674C19.6075 17.8856 19.6298 17.9718 19.6006 18.0912C19.5723 18.2068 19.5166 18.2675 19.5105 18.2737L17.9671 16.7619C17.7696 16.9635 17.5865 17.2327 17.5021 17.5776C17.4167 17.9262 17.4543 18.2625 17.5546 18.5591L19.6013 17.8674ZM19.5108 18.2734L19.5313 18.2525L17.9873 16.7413L17.9669 16.7622L19.5108 18.2734ZM19.5312 18.2526C19.6199 18.162 19.7246 18.0552 19.8278 17.9419L18.2305 16.4871C18.1578 16.567 18.0804 16.6461 17.9873 16.7412L19.5312 18.2526ZM19.8279 17.9417C20.2056 17.5269 20.265 17.031 20.2232 16.6569L18.0761 16.897C18.0744 16.8817 18.07 16.8254 18.0909 16.7445C18.1135 16.6568 18.1597 16.5648 18.2304 16.4872L19.8279 17.9417ZM20.2231 16.6564C20.2102 16.5412 20.1962 16.4273 20.1828 16.3176L18.0383 16.5802C18.052 16.6918 18.0646 16.7949 18.0761 16.8974L20.2231 16.6564ZM20.1828 16.3176C20.1771 16.2711 20.1715 16.2254 20.1659 16.1792L18.021 16.4382C18.0268 16.4865 18.0327 16.534 18.0383 16.5802L20.1828 16.3176ZM20.1455 16.0634C20.113 15.9239 20.1435 15.6934 20.2919 15.0658L18.1895 14.5684C18.0782 15.0388 17.8698 15.818 18.0414 16.554L20.1455 16.0634ZM20.2919 15.0658C20.4122 14.5575 20.5954 13.819 20.5321 13.0272C20.4643 12.1784 20.1242 11.3236 19.3367 10.5264L17.7996 12.0446C18.2287 12.479 18.3511 12.8568 18.3785 13.1993C18.4104 13.5987 18.3215 14.0101 18.1895 14.5684L20.2919 15.0658ZM18.5682 11.2855C19.3426 10.5324 19.3426 10.5323 19.3426 10.5323C19.3425 10.5323 19.3425 10.5322 19.3425 10.5322C19.3424 10.5322 19.3424 10.5321 19.3423 10.532C19.3422 10.5319 19.342 10.5318 19.3419 10.5316C19.3416 10.5313 19.3412 10.5309 19.3408 10.5305C19.34 10.5297 19.339 10.5287 19.3379 10.5275C19.3356 10.5252 19.3325 10.5221 19.3288 10.5183C19.3215 10.5108 19.3114 10.5007 19.2992 10.4885C19.2751 10.4645 19.2411 10.4312 19.2022 10.3945C19.1465 10.3419 19.0069 10.2109 18.8597 10.1157L17.6866 11.93C17.6463 11.904 17.6542 11.9043 17.7193 11.9657C17.7408 11.986 17.7606 12.0054 17.7751 12.0198C17.7822 12.0269 17.7876 12.0324 17.791 12.0358C17.7926 12.0375 17.7937 12.0386 17.7942 12.0391C17.7945 12.0393 17.7946 12.0394 17.7945 12.0394C17.7944 12.0393 17.7944 12.0392 17.7942 12.0391C17.7942 12.039 17.7941 12.039 17.794 12.0389C17.794 12.0388 17.7939 12.0388 17.7939 12.0388C17.7939 12.0387 17.7938 12.0387 17.7938 12.0387C17.7938 12.0386 17.7938 12.0386 18.5682 11.2855ZM18.8302 10.0973C18.7833 10.0691 18.7257 10.033 18.649 9.9849L17.5005 11.8149C17.5719 11.8596 17.6483 11.9076 17.7161 11.9484L18.8302 10.0973ZM18.649 9.98491C18.3681 9.80862 17.7613 9.4167 17.2097 9.25916L16.6164 11.3366C16.808 11.3913 17.1279 11.581 17.5005 11.8149L18.649 9.98491ZM17.2489 9.27115C17.1896 9.25175 17.0335 9.20611 16.9215 9.17347C16.8591 9.15528 16.7992 9.13791 16.7549 9.1251C16.7328 9.11869 16.7145 9.11341 16.7018 9.10973C16.6954 9.10789 16.6904 9.10644 16.687 9.10545C16.6852 9.10496 16.6839 9.10458 16.683 9.10432C16.6826 9.10419 16.6822 9.10409 16.682 9.10402C16.6819 9.10399 16.6818 9.10396 16.6817 9.10395C16.6817 9.10394 16.6817 9.10393 16.6817 9.10392C16.6816 9.10392 16.6816 9.10392 16.6816 9.10392C16.6816 9.10392 16.6816 9.10392 16.3823 10.1419C16.0829 11.1798 16.0829 11.1798 16.0829 11.1798C16.0829 11.1798 16.0829 11.1798 16.0829 11.1798C16.0829 11.1798 16.0829 11.1798 16.0829 11.1798C16.083 11.1798 16.0831 11.1798 16.0832 11.1799C16.0834 11.1799 16.0837 11.18 16.0841 11.1801C16.0849 11.1804 16.0862 11.1807 16.0878 11.1812C16.0911 11.1822 16.0959 11.1836 16.1022 11.1854C16.1146 11.1889 16.1325 11.1941 16.1542 11.2004C16.1977 11.213 16.2563 11.23 16.3171 11.2477C16.3781 11.2655 16.4404 11.2837 16.4915 11.2988C16.5171 11.3064 16.5388 11.3129 16.5556 11.318C16.5751 11.3239 16.5803 11.3256 16.5773 11.3246L17.2489 9.27115ZM16.3823 10.1419C16.239 11.2126 16.239 11.2126 16.239 11.2126C16.239 11.2126 16.239 11.2126 16.239 11.2126C16.239 11.2126 16.2391 11.2126 16.2391 11.2126C16.2392 11.2126 16.2393 11.2126 16.2394 11.2126C16.2397 11.2127 16.2401 11.2127 16.2405 11.2128C16.2415 11.2129 16.2429 11.2131 16.2446 11.2133C16.2482 11.2138 16.2533 11.2145 16.2599 11.2153C16.2729 11.2171 16.2917 11.2195 16.3145 11.2225C16.3601 11.2285 16.4226 11.2366 16.4899 11.2452C16.6122 11.2606 16.7878 11.2823 16.8883 11.2903L17.0597 9.1366C17.02 9.13344 16.8997 9.11929 16.7611 9.10176C16.698 9.09377 16.6389 9.08609 16.5955 9.08039C16.5738 9.07755 16.5561 9.07522 16.544 9.0736C16.5379 9.0728 16.5332 9.07217 16.5301 9.07175C16.5285 9.07154 16.5273 9.07139 16.5266 9.07129C16.5262 9.07123 16.5259 9.0712 16.5257 9.07117C16.5256 9.07116 16.5256 9.07116 16.5256 9.07115C16.5255 9.07115 16.5255 9.07115 16.5255 9.07115C16.5255 9.07115 16.5255 9.07115 16.5255 9.07115C16.5255 9.07115 16.5255 9.07115 16.3823 10.1419ZM16.8883 11.2903C16.958 11.2958 17.0243 11.3016 17.0887 11.3081L17.3067 9.15868C17.2221 9.15009 17.1393 9.14293 17.0598 9.1366L16.8883 11.2903ZM17.0884 11.3081C17.5879 11.3589 18.1751 11.416 18.7806 11.3791L18.6491 9.22259C18.2416 9.24743 17.8177 9.21062 17.3069 9.1587L17.0884 11.3081ZM18.7806 11.3791C18.8301 11.3761 18.8799 11.3724 18.93 11.3681L18.7438 9.21563C18.7125 9.21834 18.681 9.22065 18.6491 9.22259L18.7806 11.3791ZM18.9301 11.3681C19.2042 11.3443 19.5383 11.2944 19.8678 11.1817L19.1682 9.13755C19.0651 9.17284 18.9206 9.20031 18.7436 9.21564L18.9301 11.3681ZM19.874 11.1795C20.5702 10.9365 20.9911 10.3945 21.2451 9.99074L19.4164 8.84033C19.3382 8.96461 19.2743 9.04321 19.2245 9.09132C19.201 9.11399 19.1842 9.12645 19.1743 9.13284C19.1694 9.136 19.1661 9.13775 19.1644 9.13863C19.1635 9.13908 19.1629 9.13935 19.1625 9.1395C19.1622 9.13964 19.162 9.1397 19.162 9.1397L19.874 11.1795ZM21.2453 9.99037C21.3913 9.75811 21.6292 9.37439 21.7278 8.88239L19.6094 8.45799C19.5956 8.5266 19.5565 8.6173 19.4161 8.8407L21.2453 9.99037ZM21.7278 8.88243C21.9098 7.97415 22.0873 7.06505 22.2643 6.15893L20.1439 5.74476C19.9667 6.65173 19.7902 7.55568 19.6094 8.45795L21.7278 8.88243ZM22.2643 6.15894C22.3072 5.93925 22.3501 5.71974 22.393 5.50028L20.2727 5.0855C20.2297 5.30532 20.1868 5.52512 20.1439 5.74476L22.2643 6.15894ZM22.393 5.50026C22.4816 5.04771 22.5699 4.59517 22.6581 4.14296L20.5376 3.72925C20.4493 4.18156 20.3611 4.63357 20.2727 5.08552L22.393 5.50026ZM22.6581 4.14296C22.7943 3.44485 22.9303 2.74751 23.0672 2.0505L20.9471 1.63433C20.81 2.33277 20.6737 3.03135 20.5376 3.72925L22.6581 4.14296ZM23.0673 2.05001C23.0772 1.99941 23.0907 1.94339 23.1121 1.85659L21.0143 1.33994C20.9952 1.41741 20.9686 1.52442 20.947 1.63482L23.0673 2.05001ZM23.1121 1.85658C23.1515 1.69659 23.2361 1.37677 23.2349 1.03343L21.0744 1.04078C21.0745 1.07181 21.0662 1.12911 21.0143 1.33995L23.1121 1.85658ZM23.2349 1.0371V0.778168H21.0744V1.0371H23.2349ZM23.2349 0.778168C23.2349 0.472837 23.1446 0.246955 23.1001 0.137023L21.0977 0.948272C21.1111 0.981339 21.1027 0.964239 21.0939 0.93071C21.0825 0.886986 21.0744 0.833753 21.0744 0.778168H23.2349ZM23.1001 0.136983C22.8783 -0.410278 22.4601 -0.69526 22.0951 -0.837783L21.3093 1.17475C21.3085 1.17443 21.2677 1.15856 21.2164 1.11299C21.1598 1.06273 21.1195 1.00209 21.0977 0.948313L23.1001 0.136983ZM22.0956 -0.83757C21.9344 -0.900606 21.7698 -0.951999 21.602 -0.990903L21.114 1.11374C21.1766 1.12827 21.2414 1.14822 21.3087 1.17453L22.0956 -0.83757ZM21.6383 -0.981814C21.4008 -1.04565 21.1194 -1.09319 20.8082 -1.07709L20.9199 1.08052C20.944 1.07927 20.9916 1.08153 21.0776 1.10465L21.6383 -0.981814ZM20.8763 -1.07846C20.5853 -1.08175 20.2973 -1.04725 20.0145 -0.978328L20.526 1.12074C20.6412 1.09268 20.7492 1.08073 20.8519 1.08189L20.8763 -1.07846ZM20.0139 -0.978195L19.9417 -0.960538L20.4542 1.13827L20.5265 1.12061L20.0139 -0.978195ZM19.9999 -0.973077C19.9227 -0.958683 19.846 -0.943164 19.7698 -0.926616L20.2286 1.18462C20.2844 1.17248 20.3403 1.16119 20.396 1.15081L19.9999 -0.973077ZM19.7701 -0.926664C19.2781 -0.819875 18.6598 -0.660474 18.0704 -0.279343L19.2437 1.53484C19.4922 1.37413 19.7926 1.27925 20.2283 1.18467L19.7701 -0.926664ZM18.0704 -0.279346C17.2486 0.252112 16.4794 0.875984 15.7716 1.58496L17.3005 3.11141C17.9029 2.50803 18.5534 1.98125 19.2437 1.53484L18.0704 -0.279346ZM15.7717 1.58486C15.29 2.06718 14.8441 2.58747 14.4298 3.07019L16.0691 4.47739C16.493 3.98362 16.8862 3.52636 17.3004 3.11151L15.7717 1.58486ZM14.4298 3.07019C14.3386 3.17633 14.249 3.28078 14.1593 3.38455L15.7937 4.79748C15.8863 4.69038 15.9784 4.58306 16.0691 4.47739L14.4298 3.07019ZM14.1593 3.38454C13.8825 3.70467 13.5661 4.07574 13.2854 4.495L15.0807 5.69695C15.2796 5.39988 15.5165 5.11819 15.7937 4.79749L14.1593 3.38454ZM13.2846 4.49621L13.1932 4.63317L14.9901 5.83269L15.0815 5.69574L13.2846 4.49621ZM13.2086 4.61072C12.8771 5.08122 12.5715 5.56904 12.2837 6.03001L14.1163 7.17429C14.4075 6.70792 14.6829 6.26934 14.9747 5.85513L13.2086 4.61072ZM12.2896 6.02064C12.0715 6.36214 11.8553 6.70458 11.6408 7.04704L13.4715 8.19423C13.6837 7.85562 13.8964 7.51863 14.1103 7.18367L12.2896 6.02064ZM11.6408 7.047C11.605 7.10412 11.5684 7.16156 11.5291 7.22317L13.3509 8.38458C13.3894 8.32415 13.4305 8.25965 13.4715 8.19427L11.6408 7.047ZM11.5291 7.22317C11.3084 7.56929 10.9966 8.04798 10.8102 8.63669L12.8699 9.28888C12.9576 9.01191 13.1096 8.76298 13.3509 8.38459L11.5291 7.22317ZM10.8101 8.6371L10.8093 8.63951L12.8693 9.29088L12.87 9.28847L10.8101 8.6371ZM10.8091 8.64001C10.8479 8.51723 10.9862 8.16628 11.398 7.9852C11.9067 7.76152 12.3412 7.99175 12.5289 8.15371L11.1175 9.78949C11.3123 9.95751 11.7534 10.1891 12.2676 9.96294C12.685 9.77941 12.8278 9.42223 12.8694 9.29038L10.8091 8.64001ZM12.7122 8.35788C12.6967 8.33552 12.7145 8.35849 12.7372 8.40414C12.7639 8.45781 12.8087 8.5641 12.8232 8.7091C12.8526 9.0039 12.7269 9.20957 12.7567 9.15062L10.8283 8.17651C10.7918 8.24875 10.6352 8.54135 10.6734 8.92382C10.7087 9.27703 10.8964 9.53053 10.9342 9.58532L12.7122 8.35788ZM12.7568 9.15045C13.1302 8.41088 12.9279 7.26083 11.9299 6.88283L11.1647 8.90326C10.9345 8.81606 10.8322 8.6412 10.7984 8.5346C10.7638 8.42576 10.7666 8.29877 10.8282 8.17668L12.7568 9.15045ZM11.9314 6.88339C11.8025 6.83434 11.6803 6.81097 11.6554 6.80575L11.2113 8.92009C11.2221 8.92236 11.2268 8.92337 11.2307 8.92421C11.2339 8.92493 11.2327 8.92469 11.2288 8.92372C11.2213 8.92184 11.1967 8.91543 11.1632 8.9027L11.9314 6.88339ZM11.6554 6.80575C11.6455 6.80367 11.6403 6.80257 11.6358 6.80157C11.6317 6.80068 11.6306 6.80041 11.6313 6.80059L11.122 8.90018C11.1601 8.90942 11.1951 8.91669 11.2113 8.92009L11.6554 6.80575ZM12.4443 8.0147C12.4556 7.94161 12.4598 7.87383 12.4607 7.85987L10.3057 7.707C10.3052 7.71308 10.305 7.71604 10.3048 7.71856C10.3047 7.7208 10.3047 7.72075 10.3048 7.71932C10.3049 7.71785 10.3053 7.71413 10.3059 7.70877C10.3065 7.70339 10.3075 7.69565 10.309 7.68606L12.4443 8.0147ZM12.4607 7.85988C12.4633 7.82396 12.462 7.85561 12.4551 7.89603C12.4481 7.93665 12.4238 8.06526 12.3356 8.21194L10.4842 7.09844C10.376 7.27826 10.3401 7.44693 10.3256 7.53137C10.3112 7.61561 10.3065 7.69481 10.3057 7.70699L12.4607 7.85988ZM12.3352 8.21257C12.4544 8.01469 12.5432 7.87158 12.6352 7.75189L10.9227 6.43471C10.7453 6.6653 10.5979 6.90958 10.4845 7.09781L12.3352 8.21257ZM12.6352 7.75191C12.7588 7.59118 12.8873 7.43238 13.0254 7.2616L11.3459 5.90264C11.2104 6.07002 11.0652 6.2494 10.9227 6.4347L12.6352 7.75191ZM13.0254 7.2616C13.186 7.06323 13.3602 6.84804 13.5295 6.62334L11.8038 5.32339C11.6608 5.51324 11.5102 5.69952 11.3459 5.90264L13.0254 7.2616ZM13.5297 6.623C13.7357 6.34932 14.0032 5.99632 14.2188 5.59113L12.3116 4.57607C12.1878 4.80872 12.0237 5.03126 11.8036 5.32373L13.5297 6.623ZM14.2189 5.59095C14.384 5.28071 14.5088 4.95528 14.6068 4.70265L12.5926 3.92124C12.4859 4.19634 12.4058 4.39911 12.3115 4.57625L14.2189 5.59095ZM14.6068 4.70265C14.6466 4.6001 14.6825 4.50768 14.7191 4.41779L12.7185 3.60212C12.6737 3.71195 12.6312 3.82163 12.5926 3.92124L14.6068 4.70265ZM14.7187 4.41893C14.7272 4.39802 14.7359 4.37721 14.7458 4.35332L12.751 3.52346C12.7415 3.54646 12.7304 3.57314 12.719 3.60098L14.7187 4.41893ZM14.7458 4.35334C14.7777 4.27662 14.8241 4.1661 14.8671 4.03833L12.8191 3.3502C12.8038 3.3956 12.7862 3.43903 12.7511 3.52345L14.7458 4.35334ZM14.8671 4.0383C14.9086 3.91463 14.9466 3.73931 14.9443 3.54708C14.9432 3.451 14.9317 3.27776 14.8537 3.08516C14.7689 2.87592 14.5786 2.58977 14.2112 2.44397L13.4143 4.45212C13.085 4.32147 12.92 4.0661 12.8513 3.89641C12.7893 3.74337 12.7845 3.61844 12.784 3.57256C12.7829 3.48075 12.7978 3.41339 12.8191 3.35022L14.8671 4.0383ZM14.2112 2.44397C13.6055 2.20363 13.1307 2.53966 12.9512 2.72623C12.7683 2.91623 12.6776 3.13105 12.6314 3.2807L14.6961 3.91707C14.6827 3.9603 14.6385 4.08861 14.508 4.22426C14.4396 4.29528 14.3132 4.40345 14.1196 4.46958C13.9066 4.5423 13.655 4.54766 13.4142 4.45212L14.2112 2.44397ZM12.6313 3.28109C12.5769 3.45791 12.525 3.64235 12.4796 3.83275L14.581 4.33435C14.6136 4.19794 14.6524 4.05899 14.6962 3.91668L12.6313 3.28109ZM12.4797 3.83231C12.3759 4.26645 12.2939 4.51882 12.177 4.69608L13.9804 5.88582C14.3304 5.35528 14.48 4.75693 14.5809 4.33479L12.4797 3.83231ZM12.1769 4.69623C11.9481 5.04322 11.6986 5.38204 11.4345 5.72386L13.1443 7.04458C13.4267 6.67904 13.7113 6.29383 13.9805 5.88567L12.1769 4.69623ZM11.4346 5.72381C11.3914 5.77965 11.3479 5.83556 11.3027 5.89357L13.0067 7.22165C13.0515 7.16425 13.0979 7.10472 13.1443 7.04464L11.4346 5.72381ZM11.3027 5.89357C11.0548 6.2116 10.7556 6.59306 10.4991 7.03205L12.3647 8.12175C12.5367 7.82729 12.7457 7.55662 13.0067 7.22166L11.3027 5.89357ZM10.5017 7.02776C10.543 6.95764 10.5843 6.90737 10.6091 6.87922C10.6312 6.85412 10.651 6.83478 10.6426 6.84316L12.1716 8.3696C12.1721 8.36903 12.201 8.34059 12.2316 8.30582C12.2649 8.26799 12.3141 8.20746 12.3622 8.12605L10.5017 7.02776ZM10.6427 6.84309C10.6424 6.84337 10.6188 6.86669 10.5937 6.89448L12.1979 8.34166C12.1875 8.35318 12.1792 8.36178 12.1751 8.36595C12.1716 8.36962 12.1687 8.37245 12.1715 8.36967L10.6427 6.84309ZM12.1288 6.82455C11.8011 6.52186 11.397 6.42936 11.0903 6.42561L11.0639 8.58594C11.0189 8.58539 10.9642 8.57834 10.902 8.55703C10.8406 8.53602 10.7522 8.49417 10.6628 8.4116L12.1288 6.82455ZM11.4914 8.4116C11.402 8.49417 11.3136 8.53602 11.2522 8.55703C11.1899 8.57834 11.1353 8.58539 11.0903 8.58594L11.0639 6.42561C10.7571 6.42936 10.3531 6.52186 10.0254 6.82455L11.4914 8.4116ZM9.98268 8.36967C9.98545 8.37245 9.98261 8.36962 9.97904 8.36595C9.97497 8.36178 9.96669 8.35318 9.95629 8.34166L11.5605 6.89448C11.5354 6.86669 11.5118 6.84337 11.5115 6.84309L9.98268 8.36967ZM9.79202 8.12605C9.84008 8.20746 9.88931 8.26799 9.92257 8.30582C9.95315 8.34059 9.98204 8.36903 9.98261 8.3696L11.5116 6.84316C11.5032 6.83478 11.523 6.85412 11.5451 6.87922C11.5698 6.90737 11.6111 6.95764 11.6525 7.02776L9.79202 8.12605ZM9.14743 7.22164C9.40849 7.55661 9.61749 7.82728 9.78949 8.12175L11.655 7.03205C11.3986 6.59305 11.0994 6.21159 10.8515 5.89356L9.14743 7.22164ZM9.00988 7.04464C9.0563 7.10471 9.1027 7.16425 9.14742 7.22164L10.8515 5.89356C10.8063 5.83555 10.7627 5.77965 10.7196 5.72381L9.00988 7.04464ZM8.17368 5.88567C8.44285 6.29383 8.72748 6.67904 9.00984 7.04458L10.7196 5.72386C10.4556 5.38204 10.2061 5.04322 9.97728 4.69623L8.17368 5.88567ZM7.57325 4.33479C7.6742 4.75693 7.82377 5.35528 8.17378 5.88582L9.97718 4.69608C9.86023 4.51882 9.77832 4.26645 9.6745 3.83231L7.57325 4.33479ZM7.45799 3.91668C7.50179 4.05899 7.54058 4.19794 7.57314 4.33435L9.6746 3.83275C9.62916 3.64235 9.5773 3.45791 9.52288 3.28109L7.45799 3.91668ZM8.73993 4.45212C8.49918 4.54766 8.24758 4.5423 8.03463 4.46958C7.84098 4.40345 7.71455 4.29528 7.64621 4.22426C7.51568 4.08861 7.47143 3.9603 7.45811 3.91707L9.52276 3.2807C9.47663 3.13105 9.38584 2.91623 9.20302 2.72623C9.02348 2.53965 8.54865 2.20364 7.94303 2.44397L8.73993 4.45212ZM9.33511 3.35022C9.35634 3.41339 9.37131 3.48075 9.37023 3.57256C9.36969 3.61844 9.36489 3.74337 9.30288 3.89641C9.23413 4.0661 9.06917 4.32147 8.73993 4.45212L7.94303 2.44397C7.57563 2.58977 7.38525 2.87592 7.30048 3.08516C7.22246 3.27776 7.21102 3.451 7.20989 3.54708C7.20762 3.73931 7.24557 3.91463 7.28712 4.0383L9.33511 3.35022ZM9.40313 3.52345C9.36801 3.43904 9.35036 3.3956 9.33511 3.3502L7.28713 4.03833C7.33006 4.1661 7.37647 4.27663 7.40839 4.35336L9.40313 3.52345ZM9.43519 3.60097C9.42381 3.57314 9.41271 3.54647 9.40314 3.52347L7.40838 4.35334C7.41832 4.37722 7.42697 4.39803 7.43553 4.41894L9.43519 3.60097ZM9.5616 3.92124C9.52296 3.82162 9.48044 3.71195 9.43567 3.60213L7.43505 4.41778C7.4717 4.50767 7.50759 4.60009 7.54737 4.70264L9.5616 3.92124ZM9.84264 4.57625C9.7484 4.39911 9.66832 4.19633 9.5616 3.92124L7.54737 4.70264C7.64538 4.95528 7.77021 5.28071 7.93526 5.59095L9.84264 4.57625ZM10.3506 5.32373C10.1305 5.03126 9.96637 4.80872 9.84254 4.57607L7.93535 5.59113C8.151 5.99632 8.41846 6.34932 8.62446 6.623L10.3506 5.32373ZM10.8083 5.90263C10.644 5.69951 10.4934 5.51323 10.3504 5.32339L8.62471 6.62334C8.79398 6.84803 8.96822 7.06322 9.12873 7.26159L10.8083 5.90263ZM11.2315 6.4347C11.0889 6.24939 10.9437 6.07002 10.8083 5.90263L9.12873 7.26159C9.26691 7.43237 9.39534 7.59118 9.51896 7.75191L11.2315 6.4347ZM11.6696 7.09781C11.5563 6.90958 11.4088 6.6653 11.2315 6.43471L9.51895 7.75189C9.611 7.87158 9.69976 8.01469 9.81896 8.21257L11.6696 7.09781ZM11.8485 7.70699C11.8477 7.69481 11.843 7.61561 11.8286 7.53137C11.8141 7.44693 11.7782 7.27826 11.67 7.09844L9.81858 8.21194C9.73036 8.06526 9.70604 7.93665 9.69909 7.89603C9.69216 7.85561 9.69089 7.82396 9.69344 7.85988L11.8485 7.70699ZM11.8452 7.68606C11.8467 7.69565 11.8477 7.70339 11.8483 7.70877C11.8489 7.71413 11.8493 7.71785 11.8494 7.71932C11.8495 7.72075 11.8495 7.7208 11.8494 7.71856C11.8492 7.71604 11.8489 7.71308 11.8485 7.707L9.69344 7.85987C9.69443 7.87383 9.6986 7.94161 9.70985 8.0147L11.8452 7.68606ZM10.9429 8.92009C10.9591 8.91669 10.9941 8.90942 11.0322 8.90018L10.5228 6.80059C10.5236 6.80041 10.5225 6.80068 10.5184 6.80157C10.5138 6.80257 10.5087 6.80367 10.4987 6.80575L10.9429 8.92009ZM10.991 8.9027C10.9575 8.91543 10.9329 8.92184 10.9254 8.92372C10.9215 8.92469 10.9203 8.92493 10.9235 8.92421C10.9274 8.92337 10.9321 8.92236 10.9429 8.92009L10.4987 6.80575C10.4739 6.81097 10.3517 6.83434 10.2228 6.88339L10.991 8.9027ZM11.326 8.17668C11.3876 8.29877 11.3904 8.42576 11.3558 8.5346C11.322 8.6412 11.2197 8.81606 10.9895 8.90326L10.2243 6.88283C9.22626 7.26083 9.02396 8.41088 9.39737 9.15045L11.326 8.17668ZM11.22 9.58532C11.2578 9.53053 11.4455 9.27703 11.4808 8.92382C11.519 8.54135 11.3624 8.24875 11.3259 8.17651L9.39746 9.15062C9.42724 9.20957 9.30157 9.0039 9.33102 8.7091C9.3455 8.5641 9.39031 8.45781 9.41701 8.40414C9.43972 8.35849 9.45743 8.33552 9.442 8.35788L11.22 9.58532ZM9.28476 9.29038C9.32639 9.42223 9.46919 9.77941 9.88655 9.96294C10.4008 10.1891 10.8419 9.95751 11.0367 9.78949L9.62529 8.15371C9.81301 7.99175 10.2475 7.76152 10.7562 7.9852C11.168 8.16628 11.3063 8.51723 11.345 8.64001L9.28476 9.29038ZM9.28416 9.28847L9.28492 9.29088L11.3449 8.63951L11.3441 8.6371L9.28416 9.28847ZM8.80332 8.38459C9.04455 8.76298 9.19659 9.01191 9.28429 9.28888L11.344 8.63669C11.1576 8.04798 10.8457 7.56929 10.6251 7.22318L8.80332 8.38459ZM8.68269 8.19427C8.72367 8.25966 8.7648 8.32416 8.80332 8.38458L10.6251 7.22318C10.5858 7.16157 10.5492 7.10412 10.5134 7.047L8.68269 8.19427ZM8.04384 7.18367C8.2578 7.51863 8.47048 7.85562 8.68267 8.19423L10.5134 7.04704C10.2988 6.70458 10.0827 6.36214 9.86458 6.02064L8.04384 7.18367ZM7.17948 5.85513C7.47133 6.26934 7.74671 6.70792 8.03792 7.17429L9.8705 6.03001C9.58267 5.56904 9.27711 5.08122 8.9456 4.61072L7.17948 5.85513ZM7.07266 5.69574L7.16409 5.83269L8.96099 4.63316L8.86957 4.49621L7.07266 5.69574ZM6.36049 4.79749C6.63773 5.11819 6.87458 5.39988 7.07347 5.69695L8.86876 4.495C8.58806 4.07574 8.27165 3.70467 7.9949 3.38454L6.36049 4.79749ZM6.08507 4.4774C6.17577 4.58306 6.26789 4.69038 6.36048 4.79748L7.99491 3.38455C7.9052 3.28078 7.81554 3.17634 7.72443 3.07019L6.08507 4.4774ZM4.85374 3.11151C5.26802 3.52636 5.66122 3.98362 6.08507 4.4774L7.72443 3.07019C7.31007 2.58747 6.86415 2.06718 6.38249 1.58486L4.85374 3.11151ZM2.91053 1.53484C3.60082 1.98125 4.25125 2.50803 4.85364 3.11141L6.38259 1.58496C5.67477 0.875984 4.90556 0.252112 4.08376 -0.279346L2.91053 1.53484ZM1.92584 1.18467C2.36161 1.27925 2.66203 1.37413 2.91053 1.53484L4.08377 -0.279343C3.49442 -0.660474 2.8761 -0.819875 2.38411 -0.926664L1.92584 1.18467ZM1.75822 1.15081C1.81392 1.16119 1.86974 1.17248 1.92562 1.18462L2.38433 -0.926616C2.30818 -0.943163 2.23146 -0.958682 2.15426 -0.973078L1.75822 1.15081ZM1.62764 1.12061L1.69994 1.13827L2.21254 -0.960538L2.14024 -0.978195L1.62764 1.12061ZM1.30233 1.08189C1.40502 1.08073 1.51302 1.09268 1.62819 1.12074L2.13969 -0.978328C1.85685 -1.04725 1.56887 -1.08175 1.27793 -1.07846L1.30233 1.08189ZM1.07654 1.10466C1.16258 1.08153 1.21019 1.07927 1.23432 1.08052L1.34594 -1.07709C1.0348 -1.09319 0.753402 -1.04565 0.515844 -0.981814L1.07654 1.10466ZM0.84546 1.17453C0.912737 1.14822 0.977587 1.12827 1.04022 1.11374L0.552165 -0.990903C0.384397 -0.951998 0.219775 -0.900605 0.0585888 -0.837571L0.84546 1.17453ZM1.0565 0.948313C1.03471 1.00209 0.994383 1.06273 0.937808 1.11299C0.886511 1.15856 0.845718 1.17443 0.844916 1.17475L0.0591322 -0.837783C-0.305893 -0.69526 -0.724129 -0.410278 -0.945871 0.136983L1.0565 0.948313ZM1.07977 0.778168C1.07977 0.833746 1.07168 0.886977 1.06025 0.930702C1.05149 0.964236 1.04312 0.981338 1.05651 0.948279L-0.945884 0.137016C-0.990432 0.24697 -1.08073 0.472844 -1.08073 0.778168H1.07977ZM1.07977 1.0371V0.778168H-1.08073V1.0371H1.07977ZM1.13989 1.33996C1.08796 1.12911 1.07965 1.07181 1.07976 1.04078L-1.08072 1.03343C-1.08189 1.37677 -0.997327 1.6966 -0.957928 1.85658L1.13989 1.33996ZM1.20716 1.63483C1.18554 1.52442 1.15896 1.4174 1.13989 1.33996L-0.957928 1.85658C-0.936546 1.94341 -0.922978 1.99941 -0.913071 2.05L1.20716 1.63483ZM1.61653 3.72882C1.4804 3.03106 1.34414 2.33263 1.20706 1.63433L-0.912973 2.0505C-0.776176 2.74736 -0.640154 3.44456 -0.503984 4.14252L1.61653 3.72882Z" fill="white" mask="url(#path-12-inside-1_1625_11426)"></path></svg> 