<?xml version="1.0" encoding="UTF-8"?> <svg xmlns="http://www.w3.org/2000/svg" width="350" height="40" viewBox="0 0 350 40" fill="none"><path d="M344.051 15.1845V18.6469C343.524 18.014 342.941 17.4742 342.301 17.0274C341.737 16.6551 341.078 16.3573 340.325 16.1339C339.573 15.8733 338.726 15.8733 337.785 16.1339C337.296 16.2828 336.769 16.5434 336.205 16.9157C334.361 18.1071 333.213 19.7638 332.762 21.886V38.8072H341.849C343.167 38.8072 344.314 38.6025 345.293 38.1929C346.309 37.7462 347.155 37.2622 347.833 36.7409C348.623 36.108 349.3 35.4007 349.865 34.6188L348.905 39.4215H327.964C328.19 38.9375 328.378 38.4163 328.528 37.8579C328.679 37.3739 328.811 36.8526 328.923 36.2942C329.036 35.7357 329.093 35.14 329.093 34.5071V5.18811C329.093 4.59242 329.036 4.01535 328.923 3.45689C328.811 2.8612 328.679 2.32136 328.528 1.83736C328.378 1.27891 328.19 0.757678 327.964 0.273682H348.905L349.865 5.07642C349.3 4.3318 348.623 3.64304 347.833 3.01012C347.155 2.4889 346.309 2.0049 345.293 1.55813C344.314 1.11137 343.167 0.887983 341.849 0.887983H332.762V19.9872C333.251 18.9075 333.909 17.9954 334.737 17.2508C335.603 16.5062 336.544 15.9291 337.56 15.5196C338.576 15.11 339.648 14.8866 340.777 14.8494C341.906 14.775 342.997 14.8866 344.051 15.1845Z" fill="white"></path><path d="M321.044 33.2018C321.044 33.7572 321.1 34.3866 321.21 35.09C321.321 35.7935 321.449 36.4599 321.597 37.0893C321.744 37.7186 321.892 38.2555 322.039 38.6998C322.186 39.144 322.297 39.3847 322.37 39.4217H318.282L302.092 4.76822V33.6461C302.092 34.1644 302.166 34.7383 302.313 35.3677C302.46 35.9601 302.645 36.5524 302.866 37.1448C303.087 37.7001 303.326 38.1999 303.584 38.6442C303.842 39.0515 304.081 39.3106 304.302 39.4217H299.219C299.44 39.3106 299.679 39.0515 299.937 38.6442C300.232 38.1999 300.49 37.7001 300.711 37.1448C300.932 36.5524 301.116 35.9601 301.263 35.3677C301.411 34.7383 301.484 34.1644 301.484 33.6461V6.87853C301.484 6.13807 301.374 5.17548 301.153 3.99074C300.968 2.80601 300.619 1.6583 300.103 0.547607H304.026L320.437 35.6454V6.32319C320.437 5.80487 320.363 5.24952 320.215 4.65715C320.068 4.02777 319.884 3.4354 319.663 2.88005C319.442 2.28769 319.184 1.78788 318.889 1.38062C318.632 0.936349 318.392 0.658677 318.171 0.547607H323.31C323.089 0.658677 322.831 0.936349 322.536 1.38062C322.278 1.78788 322.039 2.28769 321.818 2.88005C321.597 3.4354 321.413 4.02777 321.265 4.65715C321.118 5.24952 321.044 5.80487 321.044 6.32319V33.2018Z" fill="white"></path><path d="M280.028 0C282.099 0 284.022 0.52394 285.797 1.57182C287.609 2.6197 289.181 4.06053 290.512 5.89433C291.954 7.84039 293.027 10.0484 293.729 12.5184C294.469 14.951 294.839 17.4397 294.839 19.9846C294.839 22.5294 294.469 25.0368 293.729 27.5069C293.027 29.9394 291.954 32.1287 290.512 34.0748C289.07 36.0583 287.424 37.5366 285.575 38.5096C283.763 39.4826 281.914 39.9691 280.028 39.9691C278.142 39.9691 276.274 39.4826 274.425 38.5096C272.613 37.5366 270.986 36.0583 269.544 34.0748C268.101 32.1287 267.029 29.9394 266.326 27.5069C265.624 25.0368 265.272 22.5294 265.272 19.9846C265.272 17.4397 265.624 14.951 266.326 12.5184C267.029 10.0484 268.101 7.84039 269.544 5.89433C270.875 4.06053 272.428 2.6197 274.203 1.57182C276.015 0.52394 277.957 0 280.028 0ZM287.905 6.23114C286.795 4.35993 285.556 2.95652 284.188 2.02091C282.82 1.0853 281.433 0.617499 280.028 0.617499C278.623 0.617499 277.236 1.0853 275.867 2.02091C274.499 2.95652 273.26 4.35993 272.151 6.23114C271.041 8.13978 270.209 10.2917 269.655 12.6868C269.1 15.0446 268.823 17.4771 268.823 19.9846C268.823 22.492 269.1 24.9433 269.655 27.3384C270.209 29.6962 271.041 31.8294 272.151 33.738C273.26 35.6092 274.499 37.0126 275.867 37.9482C277.236 38.8838 278.623 39.3516 280.028 39.3516C281.433 39.3516 282.82 38.8838 284.188 37.9482C285.556 37.0126 286.795 35.6092 287.905 33.738C289.014 31.8294 289.846 29.6962 290.401 27.3384C290.956 24.9433 291.233 22.492 291.233 19.9846C291.233 17.4771 290.956 15.0446 290.401 12.6868C289.846 10.2917 289.014 8.13978 287.905 6.23114Z" fill="white"></path><path d="M244.684 34.5347C244.684 35.1641 244.741 35.7749 244.856 36.3673C244.97 36.9597 245.104 37.478 245.257 37.9223C245.41 38.4776 245.601 38.9774 245.83 39.4217H239.812C240.042 38.9774 240.233 38.4776 240.386 37.9223C240.538 37.478 240.672 36.9597 240.787 36.3673C240.901 35.7749 240.959 35.1641 240.959 34.5347V5.3791C240.959 4.78674 240.901 4.19437 240.787 3.602C240.672 3.00963 240.538 2.49131 240.386 2.04704C240.233 1.52872 240.042 1.02891 239.812 0.547607H250.3C252.592 0.547607 254.503 1.13997 256.031 2.32471C257.559 3.50944 258.705 4.99036 259.469 6.76746C260.234 8.54457 260.616 10.4698 260.616 12.543C260.654 14.6163 260.291 16.5415 259.527 18.3186C258.763 20.0957 257.597 21.5766 256.031 22.7614C254.503 23.9461 252.592 24.5385 250.3 24.5385C248.504 24.5385 247.11 24.9087 246.116 25.6492C245.161 26.3896 244.684 27.6484 244.684 29.4255V34.5347ZM244.684 1.15849V26.5377C245.219 25.5751 245.964 24.9087 246.919 24.5385C247.912 24.1312 249.039 23.9276 250.3 23.9276C251.752 23.9276 252.936 23.3723 253.853 22.2616C254.808 21.1139 255.477 19.707 255.859 18.0409C256.279 16.3379 256.451 14.5053 256.375 12.543C256.337 10.5808 256.069 8.7667 255.572 7.10067C255.076 5.39761 254.369 3.99074 253.452 2.88005C252.573 1.73234 251.523 1.15849 250.3 1.15849H244.684Z" fill="white"></path><path d="M207.933 33.6461C207.933 34.1644 208.007 34.7383 208.155 35.3677C208.303 35.9601 208.488 36.5524 208.709 37.1448C208.931 37.7001 209.172 38.1999 209.431 38.6442C209.726 39.0515 209.985 39.3106 210.207 39.4217H205.104C205.326 39.3106 205.566 39.0515 205.825 38.6442C206.121 38.1999 206.38 37.7001 206.602 37.1448C206.824 36.5524 207.009 35.9601 207.156 35.3677C207.304 34.7383 207.378 34.1644 207.378 33.6461V4.43502C207.009 3.65754 206.602 2.93559 206.158 2.26918C205.714 1.56574 205.252 0.991884 204.771 0.547607H212.093C211.649 0.806769 211.39 1.52872 211.316 2.71345C211.279 3.89819 211.575 5.3791 212.204 7.1562L220.08 30.4807C219.821 28.2963 219.747 26.2415 219.858 24.3163C219.969 22.3911 220.209 20.577 220.579 18.874C221.023 16.6896 221.633 14.7089 222.409 12.9318C223.186 11.1177 223.999 9.54418 224.85 8.21136C225.7 6.84151 226.551 5.71231 227.401 4.82376C228.252 3.93521 228.973 3.28731 229.564 2.88005C229.379 2.21364 229.213 1.6583 229.065 1.21402C228.954 0.991885 228.862 0.769747 228.788 0.547607H234.611C234.39 1.02891 234.205 1.52872 234.057 2.04704C233.909 2.49131 233.779 3.00963 233.669 3.602C233.558 4.19437 233.502 4.78674 233.502 5.3791V34.5347C233.502 35.1641 233.558 35.7749 233.669 36.3673C233.779 36.9597 233.909 37.478 234.057 37.9223C234.205 38.4776 234.39 38.9774 234.611 39.4217H228.788C229.01 38.9774 229.194 38.4776 229.342 37.9223C229.49 37.478 229.62 36.9597 229.731 36.3673C229.841 35.7749 229.897 35.1641 229.897 34.5347V5.3791C229.897 4.74971 229.841 4.12032 229.731 3.49093C229.139 3.89818 228.436 4.54609 227.623 5.43464C226.809 6.32319 225.996 7.41536 225.182 8.71117C224.369 10.007 223.592 11.5249 222.853 13.265C222.15 14.968 221.577 16.8747 221.134 18.985C220.69 21.0953 220.449 23.3908 220.413 25.8713C220.376 28.3518 220.653 30.999 221.244 33.8127L222.187 36.7005C222.409 37.0707 222.613 37.441 222.797 37.8112C222.982 38.1074 223.167 38.4221 223.352 38.7553C223.537 39.0515 223.722 39.2736 223.907 39.4217H217.806C217.991 39.1255 218.138 38.6442 218.249 37.9778C218.397 37.3114 218.397 36.719 218.249 36.2007L207.933 5.87891V33.6461Z" fill="white"></path><path d="M196.76 34.5071C196.907 35.1028 197.11 35.6985 197.367 36.2942C197.624 36.8526 197.882 37.3739 198.139 37.8579C198.433 38.4163 198.727 38.9375 199.021 39.4215H193.231C193.305 39.1237 193.36 38.77 193.396 38.3605C193.433 38.0254 193.452 37.6345 193.452 37.1877C193.452 36.7409 193.415 36.2569 193.341 35.7357L190.749 22.5003C190.198 22.6864 189.426 23.0215 188.433 23.5055C187.477 23.9523 186.466 24.6038 185.4 25.4601C184.371 26.3164 183.36 27.3961 182.367 28.6992C181.375 29.965 180.547 31.5101 179.886 33.3344C179.665 34.7491 179.555 35.9963 179.555 37.076C179.592 38.1185 179.683 38.9003 179.83 39.4215H176.025C176.246 39.1237 176.522 38.6955 176.853 38.1371C177.183 37.5414 177.514 36.8899 177.845 36.1825C178.176 35.4751 178.489 34.7119 178.783 33.8928C179.077 33.0737 179.316 32.2547 179.5 31.4356L186.062 1.94906C185.915 1.68844 185.786 1.46506 185.676 1.27891C185.566 1.05552 185.474 0.869371 185.4 0.720448C185.29 0.571526 185.18 0.422604 185.069 0.273682H190.86C190.749 0.683216 190.676 1.33475 190.639 2.22828C190.602 3.12181 190.713 4.10842 190.97 5.18811L196.76 34.5071ZM187.33 5.13226C187.257 4.72273 187.147 4.33181 186.999 3.9595C186.852 3.58719 186.687 3.21489 186.503 2.84259L180.216 30.933C180.989 29.4438 181.853 28.1779 182.808 27.1355C183.801 26.0558 184.794 25.1623 185.786 24.4549C186.779 23.7475 187.698 23.189 188.544 22.7795C189.426 22.37 190.124 22.0721 190.639 21.886L187.33 5.13226Z" fill="white"></path><path d="M154.851 0.547607C154.625 1.02891 154.437 1.52872 154.286 2.04704C154.136 2.49131 154.004 3.00963 153.891 3.602C153.778 4.19437 153.722 4.78674 153.722 5.3791V38.8108H162.866C164.183 38.8108 165.331 38.6072 166.309 38.1999C167.287 37.7557 168.115 37.2744 168.793 36.7561C169.583 36.1267 170.26 35.4232 170.825 34.6457L169.865 39.4217H148.924C149.15 38.9774 149.338 38.4776 149.488 37.9223C149.639 37.478 149.771 36.9597 149.883 36.3673C149.996 35.7749 150.053 35.1641 150.053 34.5347V5.3791C150.053 4.78674 149.996 4.19437 149.883 3.602C149.771 3.00963 149.639 2.49131 149.488 2.04704C149.338 1.52872 149.15 1.02891 148.924 0.547607H154.851Z" fill="white"></path><path d="M131.404 34.5071C131.404 35.14 131.459 35.7357 131.568 36.2942C131.678 36.8526 131.805 37.3739 131.951 37.8579C132.097 38.4163 132.28 38.9375 132.499 39.4215H126.75C126.969 38.9375 127.152 38.4163 127.298 37.8579C127.444 37.3739 127.571 36.8526 127.681 36.2942C127.79 35.7357 127.845 35.14 127.845 34.5071V5.18811C127.845 4.59242 127.79 4.01535 127.681 3.45689C127.571 2.8612 127.444 2.32136 127.298 1.83736C127.152 1.27891 126.969 0.757678 126.75 0.273682H132.499C132.28 0.757678 132.097 1.27891 131.951 1.83736C131.805 2.32136 131.678 2.8612 131.568 3.45689C131.459 4.01535 131.404 4.59242 131.404 5.18811V34.5071Z" fill="white"></path><path d="M114.38 0.273682H119.14C119.065 0.571526 118.916 0.981062 118.692 1.50229C118.505 1.98629 118.263 2.52613 117.964 3.12181C117.703 3.68027 117.423 4.23873 117.124 4.79719C116.825 5.35564 116.564 5.85825 116.34 6.30502C115.556 7.83147 114.753 9.209 113.932 10.4376C113.148 11.629 112.178 12.9134 111.02 14.291L118.86 34.5071C119.084 35.0656 119.327 35.624 119.588 36.1825C119.886 36.7037 120.166 37.1877 120.428 37.6345C120.689 38.0812 120.913 38.4722 121.1 38.8072C121.324 39.1051 121.473 39.3098 121.548 39.4215H115.164C115.201 39.4215 115.239 39.2726 115.276 38.9748C115.351 38.6769 115.407 38.3046 115.444 37.8579C115.481 37.3739 115.463 36.834 115.388 36.2383C115.351 35.6426 115.22 35.0656 114.996 34.5071L108.389 17.6417C107.306 19.2054 106.354 21.0111 105.533 23.0587C104.749 25.1064 104.282 27.6567 104.133 30.7096V34.5071C104.133 35.14 104.189 35.7357 104.301 36.2942C104.413 36.8526 104.543 37.3739 104.693 37.8579C104.842 38.4163 105.029 38.9375 105.253 39.4215H99.373C99.597 38.9375 99.7837 38.4163 99.933 37.8579C100.082 37.3739 100.213 36.8526 100.325 36.2942C100.437 35.7357 100.493 35.14 100.493 34.5071V5.18811C100.493 4.59242 100.437 4.01535 100.325 3.45689C100.213 2.8612 100.082 2.32136 99.933 1.83736C99.7837 1.27891 99.597 0.757678 99.373 0.273682H105.253C105.029 0.757678 104.842 1.27891 104.693 1.83736C104.543 2.32136 104.413 2.8612 104.301 3.45689C104.189 4.01535 104.133 4.59242 104.133 5.18811V25.7393C104.431 24.399 104.805 23.189 105.253 22.1094C105.701 21.0297 106.205 20.0245 106.765 19.0937C107.325 18.1257 107.941 17.2136 108.612 16.3573C109.284 15.4637 110.012 14.5516 110.796 13.6208C111.132 13.174 111.543 12.6528 112.028 12.0571C112.514 11.4614 112.98 10.8285 113.428 10.1584C113.914 9.48823 114.343 8.83669 114.716 8.20378C115.089 7.53363 115.332 6.91932 115.444 6.36087C115.631 5.50457 115.668 4.70411 115.556 3.9595C115.481 3.21489 115.351 2.56336 115.164 2.0049C114.977 1.37198 114.716 0.794908 114.38 0.273682Z" fill="white"></path><path d="M92.7506 34.5071C92.7506 35.14 92.8079 35.7357 92.9226 36.2942C93.0374 36.8526 93.1712 37.3739 93.3242 37.8579C93.4771 38.4163 93.6683 38.9375 93.8977 39.4215H87.875C88.1044 38.9375 88.2956 38.4163 88.4486 37.8579C88.6016 37.3739 88.7354 36.8526 88.8501 36.2942C88.9648 35.7357 89.0222 35.14 89.0222 34.5071V5.18811C89.0222 4.59242 88.9648 4.01535 88.8501 3.45689C88.7354 2.8612 88.6016 2.32136 88.4486 1.83736C88.2956 1.2789 88.1044 0.757678 87.875 0.273682H93.8977C93.6683 0.757678 93.4771 1.2789 93.3242 1.83736C93.1712 2.32136 93.0374 2.8612 92.9226 3.45689C92.8079 4.01535 92.7506 4.59242 92.7506 5.18811V34.5071Z" fill="white"></path><path d="M62.2397 5.13226L62.1852 5.18811C62.0036 4.59242 61.7857 4.01535 61.5314 3.45689C61.3134 2.8612 61.0773 2.32136 60.823 1.83736C60.5324 1.27891 60.2418 0.757678 59.9512 0.273682H65.6726C65.5999 0.571526 65.5454 0.925216 65.5091 1.33475C65.4728 1.66982 65.4546 2.06075 65.4546 2.50751C65.4546 2.95428 65.491 3.43827 65.5636 3.9595L72.1569 37.802L78.5866 8.42716C78.6956 7.8687 78.8046 7.23578 78.9136 6.5284C79.0226 5.82102 79.0952 5.11364 79.1315 4.40627C79.2042 3.66166 79.2223 2.93566 79.186 2.22828C79.186 1.48367 79.1134 0.832138 78.9681 0.273682H82.6734C82.4554 0.571526 82.183 1.01829 81.856 1.61398C81.5654 2.17244 81.2566 2.80535 80.9297 3.51274C80.6028 4.22011 80.2758 4.98334 79.9489 5.80241C79.6583 6.62148 79.4221 7.44055 79.2405 8.25962L72.4293 39.3098V39.4215H68.833L62.2397 5.13226Z" fill="white"></path><mask id="path-12-inside-1_2611_12434" fill="white"><path fill-rule="evenodd" clip-rule="evenodd" d="M1.18723 7.15574C1.37559 7.9783 1.56397 8.8009 1.75282 9.62343C1.8445 10.0227 1.93605 10.422 2.02759 10.8213C2.40551 12.4696 2.78341 14.1179 3.17056 15.764C3.29041 16.2736 3.58598 16.7049 3.89157 17.1192C4.34322 17.7308 4.88658 18.2521 5.62609 18.472C6.08774 18.6066 6.59838 18.6769 7.07967 18.7125C7.16649 18.7189 7.25329 18.7243 7.34009 18.7288C8.42099 18.7849 9.49998 18.6995 10.578 18.6062C10.7369 18.5925 10.8961 18.5807 11.0553 18.5699C11.3547 18.5496 12.3182 18.4397 12.3182 18.4397C12.3182 18.4397 11.3468 18.6784 11.1854 18.7234C10.3923 18.9164 9.40343 19.4451 8.70608 19.818C8.54813 19.9024 8.40514 19.9789 8.28277 20.0416C8.05464 20.1673 7.65309 20.5191 7.65309 20.5191C5.05671 22.7585 5.67936 25.0009 6.21786 26.9402C6.49503 27.9384 6.74991 28.8563 6.53208 29.6522C6.51993 29.7379 6.50774 29.8226 6.49566 29.9067C6.46672 30.108 6.43832 30.3055 6.41223 30.5035C6.37215 30.8088 6.43921 31.0838 6.66927 31.299C6.85711 31.4747 7.05128 31.6437 7.24528 31.8126L7.28893 31.8506C7.69741 32.2058 7.83306 32.6088 7.63228 33.115C7.50456 33.4373 7.32842 33.7418 7.15328 34.0444C7.12233 34.0979 7.09141 34.1514 7.06079 34.2048C6.79235 34.6742 6.52136 35.1422 6.25035 35.6102C5.86387 36.2777 5.47734 36.9452 5.09814 37.6168C4.86808 38.0241 4.64959 38.4445 4.48504 38.8812C4.29673 39.3814 4.56254 40.2254 5.23364 39.9439C5.76464 39.7212 6.00958 39.2502 6.18408 38.7277C6.24536 38.5443 6.29385 38.3565 6.34235 38.1686C6.37591 38.0387 6.40947 37.9088 6.44728 37.7801C6.69815 36.9269 7.23805 36.264 7.8789 35.6877C8.3124 35.2972 8.84505 35.2307 9.37736 35.3289C9.86396 35.3891 10.319 35.5577 10.7726 35.7473C11.5032 36.0526 11.9541 36.582 12.1275 37.357C12.1339 37.3851 12.1435 37.413 12.1552 37.4402C12.1692 37.4726 12.1862 37.5039 12.2042 37.5334C12.2327 37.58 12.2616 37.6136 12.2904 37.634C12.2983 37.6396 12.3062 37.6442 12.3141 37.6478C12.3796 37.678 12.4435 37.639 12.4994 37.5292C12.5491 37.4315 12.5919 37.3306 12.6348 37.2296C12.6648 37.159 12.6948 37.0883 12.7271 37.0187C12.7383 36.9947 12.7484 36.9682 12.7586 36.9413C12.7842 36.8742 12.8108 36.8043 12.8573 36.7623C12.8887 36.7391 12.922 36.7241 12.946 36.7283C13.0119 36.7399 13.1044 36.8167 13.1156 36.8788C13.1426 37.0277 13.1426 37.1856 13.1279 37.3372C13.1161 37.4583 13.097 37.5787 13.0779 37.6992C13.0576 37.8273 13.0373 37.9553 13.0258 38.0842C13.0054 38.31 13.0909 38.3604 13.2848 38.2467C13.3221 38.2248 13.3588 38.2025 13.3949 38.1796C13.8727 37.8767 14.228 37.487 14.2616 36.8605C14.2713 36.6829 14.3202 36.5033 14.3761 36.333C14.5083 35.9289 14.7591 35.7617 15.1811 35.7443C15.4879 35.7315 15.7962 35.7117 16.099 35.6644C16.489 35.6035 16.7777 35.3952 16.9499 35.0198C17.3553 34.1366 17.5688 33.2073 17.6463 32.2419C17.6679 31.9732 17.6895 31.7044 17.7112 31.4356C17.7563 30.8747 17.8015 30.3138 17.8463 29.7527C17.8622 29.5392 17.9635 29.3288 18.0606 29.1269C18.0905 29.0648 18.1199 29.0036 18.1464 28.9433C19.2563 26.4173 20.3821 27.2764 21.5879 28.1964C22.2448 28.6976 22.9255 29.217 23.6402 29.217C24.3549 29.217 25.0356 28.6976 25.6925 28.1964C26.8983 27.2764 28.0241 26.4173 29.134 28.9433C29.1605 29.0036 29.1899 29.0648 29.2198 29.1269C29.3169 29.3288 29.4182 29.5392 29.4341 29.7527C29.4789 30.3138 29.5241 30.8747 29.5692 31.4356C29.5909 31.7044 29.6125 31.9732 29.6341 32.2419C29.7116 33.2073 29.9251 34.1366 30.3305 35.0198C30.5027 35.3952 30.7914 35.6035 31.1814 35.6644C31.4842 35.7117 31.7925 35.7315 32.0993 35.7443C32.5213 35.7617 32.7721 35.9289 32.9043 36.333C32.9602 36.5033 33.0091 36.6829 33.0188 36.8605C33.0524 37.487 33.4077 37.8767 33.8855 38.1796C33.9216 38.2025 33.9583 38.2248 33.9956 38.2467C34.1895 38.3604 34.275 38.31 34.2546 38.0842C34.2431 37.9553 34.2228 37.8273 34.2025 37.6992C34.1834 37.5787 34.1643 37.4583 34.1525 37.3372C34.1378 37.1856 34.1378 37.0277 34.1648 36.8788C34.176 36.8167 34.2685 36.7399 34.3344 36.7283C34.3584 36.7241 34.3917 36.7391 34.4231 36.7623C34.4696 36.8043 34.4962 36.8742 34.5218 36.9413C34.532 36.9682 34.5421 36.9947 34.5532 37.0187C34.5856 37.0883 34.6156 37.159 34.6456 37.2296C34.6885 37.3306 34.7313 37.4315 34.781 37.5292C34.8369 37.639 34.9008 37.678 34.9663 37.6478C34.9742 37.6442 34.9821 37.6396 34.99 37.634C35.0187 37.6136 35.0477 37.58 35.0762 37.5334C35.0942 37.5039 35.1112 37.4726 35.1252 37.4402C35.1369 37.413 35.1465 37.3851 35.1529 37.357C35.3263 36.582 35.7772 36.0526 36.5078 35.7473C36.9614 35.5577 37.4164 35.3891 37.903 35.3289C38.4353 35.2307 38.968 35.2972 39.4015 35.6877C40.0424 36.264 40.5822 36.9269 40.8331 37.7801C40.8709 37.9088 40.9045 38.0387 40.938 38.1686C40.9866 38.3565 41.035 38.5443 41.0963 38.7277C41.2708 39.2502 41.5158 39.7212 42.0468 39.9439C42.7179 40.2254 42.9837 39.3814 42.7954 38.8812C42.6308 38.4445 42.4123 38.0241 42.1823 37.6168C41.8031 36.9452 41.4166 36.2777 41.0301 35.6103C40.7591 35.1422 40.4881 34.6742 40.2196 34.2048C40.189 34.1514 40.1581 34.0979 40.1271 34.0445C39.952 33.7418 39.7758 33.4373 39.6481 33.115C39.4473 32.6088 39.583 32.2058 39.9915 31.8506L40.0351 31.8126C40.2291 31.6437 40.4233 31.4747 40.6111 31.299C40.8412 31.0838 40.9082 30.8088 40.8682 30.5035C40.8421 30.3054 40.8137 30.1079 40.7847 29.9066C40.7726 29.8226 40.7605 29.7379 40.7483 29.6522C40.5305 28.8563 40.7854 27.9384 41.0625 26.9402C41.601 25.0009 42.2237 22.7585 39.6273 20.5191C39.6273 20.5191 39.2258 20.1673 38.9976 20.0416C38.8753 19.9789 38.7323 19.9024 38.5743 19.818C37.877 19.4451 36.8881 18.9164 36.095 18.7234C35.9336 18.6784 34.9622 18.4397 34.9622 18.4397C34.9622 18.4397 35.9257 18.5496 36.2251 18.5699C36.3843 18.5807 36.5435 18.5925 36.7024 18.6062C37.7804 18.6995 38.8594 18.7849 39.9403 18.7288C40.0271 18.7243 40.1139 18.7189 40.2007 18.7125C40.682 18.6769 41.1927 18.6066 41.6543 18.472C42.3938 18.2521 42.9372 17.7308 43.3888 17.1192C43.6944 16.7049 43.99 16.2736 44.1098 15.764C44.497 14.118 44.8748 12.4698 45.2527 10.8216C45.3443 10.4222 45.4359 10.0228 45.5276 9.62343C45.7164 8.80093 45.9048 7.97837 46.0931 7.15585C46.3837 5.88698 46.6743 4.6182 46.9665 3.34984C47.0002 3.20348 47.043 3.05528 47.0862 2.90595C47.1836 2.56883 47.2827 2.22598 47.2814 1.88564V1.41485C47.2814 1.25369 47.2323 1.13377 47.1623 0.986632C46.9893 0.622822 46.6783 0.426955 46.3156 0.306331C46.0719 0.225108 45.827 0.160245 45.5811 0.111674C45.2358 0.0326199 44.8848 -0.0126513 44.527 0.00311624C44.107 -0.000925514 43.6844 0.0412996 43.2597 0.129468L43.1054 0.161572C42.9636 0.184102 42.8222 0.208469 42.6813 0.234548C41.6913 0.417616 40.7109 0.648779 39.8169 1.14136C38.2034 2.03033 36.6885 3.07638 35.2905 4.26942C34.3344 5.08503 33.439 5.9737 32.5446 6.86141C32.3506 7.05398 32.1566 7.2465 31.9621 7.43822C31.3709 8.02078 30.7806 8.6142 30.2688 9.26541C30.2037 9.34833 30.1386 9.43133 30.0737 9.51442C29.4085 10.3187 28.7886 11.1609 28.1707 12.0039C27.7097 12.6189 27.2521 13.2365 26.7967 13.8557C26.7148 13.9671 26.6318 14.0779 26.5488 14.1889C26.0559 14.8475 25.5609 15.509 25.2684 16.296L25.2668 16.3004C25.2607 16.3168 25.2475 16.323 25.2325 16.312C25.0348 16.068 25.0256 15.9905 25.167 15.7519C25.4815 15.2213 25.229 14.5399 24.6437 14.351C24.5662 14.3259 24.4852 14.3114 24.4005 14.2962C24.361 14.2891 24.3207 14.2819 24.2795 14.2734C24.2866 14.234 24.2901 14.1926 24.2935 14.1517C24.3008 14.0642 24.3079 13.9788 24.3504 13.9185C24.5986 13.5675 24.8506 13.2153 25.1381 12.8969C25.4221 12.5823 25.7141 12.2749 26.0061 11.9675C26.3527 11.6025 26.6993 11.2375 27.0325 10.8607C27.4873 10.346 27.9478 9.82276 28.31 9.24291C28.5867 8.79984 28.8053 8.31965 29.0238 7.83989C29.1075 7.65611 29.1912 7.47238 29.278 7.29083C29.2993 7.24651 29.3204 7.20334 29.3412 7.16072C29.4128 7.01423 29.4811 6.87427 29.5432 6.71684C29.5866 6.60684 29.6413 6.32424 29.4784 6.26917C29.3591 6.22886 29.2305 6.34994 29.1605 6.54343C29.0557 6.83355 28.959 7.12754 28.8757 7.42464C28.6572 8.20307 28.4102 8.97645 27.9119 9.61991C27.3805 10.3064 26.8106 10.9646 26.2275 11.6077C26.132 11.7131 26.036 11.818 25.94 11.9229C25.3969 12.5166 24.8546 13.1094 24.3974 13.7762C24.3832 13.7967 24.3636 13.8135 24.3445 13.8298C24.3362 13.8369 24.328 13.8439 24.3204 13.851C24.1511 13.7178 23.897 13.6495 23.6402 13.6469C23.3834 13.6495 23.1293 13.7178 22.96 13.851C22.9524 13.8439 22.9442 13.8369 22.9359 13.8298C22.9168 13.8135 22.8972 13.7967 22.883 13.7762C22.4258 13.1094 21.8835 12.5166 21.3404 11.9229C21.2444 11.818 21.1484 11.7131 21.0529 11.6077C20.4698 10.9646 19.8999 10.3064 19.3685 9.61991C18.8702 8.97645 18.6232 8.20307 18.4047 7.42464C18.3214 7.12754 18.2247 6.83355 18.1199 6.54343C18.0499 6.34994 17.9213 6.22886 17.802 6.26917C17.6391 6.32424 17.6938 6.60684 17.7372 6.71684C17.7993 6.87427 17.8676 7.01423 17.9392 7.16072C17.96 7.20334 17.9811 7.24651 18.0024 7.29083C18.0892 7.47238 18.1729 7.65611 18.2566 7.83989C18.4751 8.31965 18.6937 8.79984 18.9704 9.24291C19.3326 9.82276 19.7931 10.346 20.2479 10.8607C20.5811 11.2375 20.9277 11.6025 21.2743 11.9675C21.5663 12.2749 21.8583 12.5823 22.1423 12.8969C22.4298 13.2153 22.6818 13.5675 22.93 13.9185C22.9725 13.9788 22.9796 14.0642 22.9869 14.1517C22.9903 14.1926 22.9938 14.234 23.0009 14.2734C22.9597 14.2819 22.9194 14.2891 22.8799 14.2962C22.7952 14.3114 22.7142 14.3259 22.6367 14.351C22.0514 14.5399 21.7989 15.2213 22.1134 15.7519C22.2548 15.9905 22.2456 16.068 22.0479 16.312C22.0329 16.323 22.0197 16.3168 22.0136 16.3004L22.012 16.296C21.7195 15.509 21.2245 14.8475 20.7316 14.1889C20.6486 14.0779 20.5656 13.9671 20.4837 13.8557C20.0283 13.2365 19.5707 12.6189 19.1097 12.0039C18.4918 11.1609 17.8719 10.3187 17.2067 9.51442C17.1418 9.43133 17.0767 9.34833 17.0116 9.26541C16.4998 8.6142 15.9095 8.02078 15.3183 7.43822C15.1238 7.2465 14.9298 7.05399 14.7358 6.86143C13.8414 5.97371 12.946 5.08503 11.9899 4.26942C10.5919 3.07638 9.077 2.03033 7.46349 1.14136C6.56945 0.648779 5.58909 0.417616 4.5991 0.234548C4.45821 0.208469 4.31678 0.184102 4.17496 0.161572L4.02067 0.129468C3.59597 0.0412996 3.17342 -0.000925514 2.75339 0.00311624C2.39563 -0.0126513 2.04455 0.0326199 1.69926 0.111674C1.4534 0.160245 1.20854 0.225108 0.964751 0.306331C0.602126 0.426955 0.291139 0.622822 0.118112 0.986632C0.0481414 1.13377 -0.000962733 1.25369 -0.000962733 1.41485V1.88564C-0.0023222 2.22598 0.0967818 2.56883 0.194231 2.90595C0.237396 3.05528 0.280236 3.20348 0.313877 3.34984C0.606122 4.61816 0.896665 5.88691 1.18723 7.15574Z"></path></mask><path d="M25.7747 16.4842C25.8787 16.2046 25.7363 15.8936 25.4566 15.7897C25.177 15.6858 24.8661 15.8282 24.7622 16.1078L25.7747 16.4842ZM24.7605 16.1122C24.6566 16.3918 24.799 16.7027 25.0786 16.8066C25.3582 16.9106 25.6691 16.7682 25.7731 16.4886L24.7605 16.1122ZM6.9343 32.2579C7.1593 32.4538 7.50047 32.4302 7.69633 32.2052C7.89218 31.9802 7.86856 31.639 7.64356 31.4432L6.9343 32.2579ZM7.5999 31.4052C7.3749 31.2093 7.03373 31.2329 6.83788 31.4579C6.64202 31.6829 6.66565 32.0241 6.89065 32.22L7.5999 31.4052ZM24.7622 16.1078L24.7605 16.1122L25.7731 16.4886L25.7747 16.4842L24.7622 16.1078ZM7.64356 31.4432L7.5999 31.4052L6.89065 32.22L6.9343 32.2579L7.64356 31.4432ZM1.75282 9.62343L0.699967 9.86516L0.699972 9.86518L1.75282 9.62343ZM1.18723 7.15574L2.24022 6.91461H2.24022L1.18723 7.15574ZM2.02759 10.8213L3.08052 10.5799L2.02759 10.8213ZM3.17056 15.764L4.22213 15.5167L4.22212 15.5167L3.17056 15.764ZM3.89157 17.1192L3.02228 17.7605L3.02256 17.7608L3.89157 17.1192ZM5.62609 18.472L5.31817 19.5075L5.32371 19.5091L5.62609 18.472ZM7.07967 18.7125L7.00015 19.7898L7.00027 19.7898L7.07967 18.7125ZM7.34009 18.7288L7.3961 17.65H7.39608L7.34009 18.7288ZM10.578 18.6062L10.485 17.53L10.4848 17.53L10.578 18.6062ZM11.0553 18.5699L10.9822 17.4921L10.9822 17.4921L11.0553 18.5699ZM12.3182 18.4397L12.576 19.4888C13.1294 19.3528 13.482 18.8102 13.3815 18.2493C13.2811 17.6883 12.7621 17.3019 12.1958 17.3664L12.3182 18.4397ZM11.1854 18.7234L11.4407 19.773C11.4523 19.7702 11.4638 19.7672 11.4753 19.764L11.1854 18.7234ZM8.70608 19.818L8.19672 18.8653L8.19672 18.8654L8.70608 19.818ZM8.28277 20.0416L7.78989 19.0804C7.78037 19.0853 7.77093 19.0903 7.76157 19.0954L8.28277 20.0416ZM7.65309 20.5191L8.35866 21.3371L8.36493 21.3316L7.65309 20.5191ZM6.21786 26.9402L5.177 27.2293L5.177 27.2293L6.21786 26.9402ZM6.53208 29.6522L5.49015 29.367C5.47814 29.4109 5.46891 29.4555 5.46252 29.5006L6.53208 29.6522ZM6.49566 29.9067L7.56491 30.0604V30.0604L6.49566 29.9067ZM6.41223 30.5035L5.34124 30.3624L5.34118 30.3629L6.41223 30.5035ZM6.66927 31.299L5.93121 32.0878L5.93132 32.0879L6.66927 31.299ZM7.24528 31.8126L7.95453 30.9978L7.95445 30.9977L7.24528 31.8126ZM7.28893 31.8506L6.57967 32.6653L6.58001 32.6656L7.28893 31.8506ZM7.63228 33.115L6.62815 32.7167L6.62799 32.7171L7.63228 33.115ZM7.15328 34.0444L8.08828 34.5855L8.08829 34.5855L7.15328 34.0444ZM7.06079 34.2048L6.12333 33.6681L6.12307 33.6686L7.06079 34.2048ZM6.25035 35.6102L7.18518 36.1515L7.18518 36.1515L6.25035 35.6102ZM5.09814 37.6168L6.03869 38.1482L6.03883 38.1479L5.09814 37.6168ZM4.48504 38.8812L3.47416 38.5004L3.47406 38.5006L4.48504 38.8812ZM5.23364 39.9439L4.81584 38.9478L4.81582 38.9478L5.23364 39.9439ZM6.18408 38.7277L5.1595 38.3854L5.15946 38.3855L6.18408 38.7277ZM6.34235 38.1686L7.38829 38.4387H7.38829L6.34235 38.1686ZM6.44728 37.7801L7.48366 38.0849L7.48366 38.0849L6.44728 37.7801ZM7.8789 35.6877L8.60126 36.4909L8.60182 36.4904L7.8789 35.6877ZM9.37736 35.3289L9.18143 36.3912C9.20239 36.3951 9.22346 36.3983 9.24461 36.4009L9.37736 35.3289ZM10.7726 35.7473L10.356 36.744L10.3562 36.7441L10.7726 35.7473ZM12.1275 37.357L11.0733 37.5929L11.0736 37.5941L12.1275 37.357ZM12.1552 37.4402L13.1469 37.0118L13.1469 37.0117L12.1552 37.4402ZM12.2042 37.5334L11.2821 38.0962L11.2832 38.0979L12.2042 37.5334ZM12.2904 37.634L11.6646 38.5145L11.665 38.5148L12.2904 37.634ZM12.3141 37.6478L12.7658 36.6666L12.7657 36.6665L12.3141 37.6478ZM12.4994 37.5292L13.462 38.0193L13.4623 38.0187L12.4994 37.5292ZM12.6348 37.2296L13.6291 37.6519L12.6348 37.2296ZM12.7271 37.0187L13.7067 37.4741L13.7076 37.4722L12.7271 37.0187ZM12.7586 36.9413L13.768 37.3261L13.768 37.326L12.7586 36.9413ZM12.8573 36.7623L12.2162 35.8928C12.1872 35.9142 12.1592 35.9371 12.1325 35.9613L12.8573 36.7623ZM12.946 36.7283L13.1338 35.6645L13.1303 35.6639L12.946 36.7283ZM13.1156 36.8788L12.0524 37.0702L12.0526 37.0713L13.1156 36.8788ZM13.1279 37.3372L14.2031 37.4417L14.2032 37.441L13.1279 37.3372ZM13.0779 37.6992L12.011 37.53L12.011 37.53L13.0779 37.6992ZM13.0258 38.0842L14.1016 38.1816L14.1017 38.1804L13.0258 38.0842ZM13.2848 38.2467L13.8311 39.1786L13.8316 39.1784L13.2848 38.2467ZM13.3949 38.1796L13.9732 39.092L13.9732 39.092L13.3949 38.1796ZM14.2616 36.8605L13.183 36.802L13.183 36.8025L14.2616 36.8605ZM14.3761 36.333L15.4025 36.6699L15.4028 36.6688L14.3761 36.333ZM15.1811 35.7443L15.2258 36.8236L15.2261 36.8236L15.1811 35.7443ZM16.099 35.6644L15.9324 34.5971L15.9323 34.5971L16.099 35.6644ZM16.9499 35.0198L15.9682 34.5691L15.9681 34.5693L16.9499 35.0198ZM17.6463 32.2419L16.5695 32.1554L16.5695 32.1555L17.6463 32.2419ZM17.7112 31.4356L16.6344 31.3489V31.3489L17.7112 31.4356ZM17.8463 29.7527L18.9231 29.8387L18.9235 29.8329L17.8463 29.7527ZM18.0606 29.1269L19.034 29.5953L19.034 29.5953L18.0606 29.1269ZM18.1464 28.9433L19.1354 29.3778L19.1354 29.3778L18.1464 28.9433ZM21.5879 28.1964L20.9326 29.0552L21.5879 28.1964ZM25.6925 28.1964L26.3478 29.0552L25.6925 28.1964ZM29.134 28.9433L28.145 29.3778L28.145 29.3778L29.134 28.9433ZM29.2198 29.1269L28.2464 29.5953L28.2464 29.5953L29.2198 29.1269ZM29.4341 29.7527L28.3568 29.8329L28.3573 29.8387L29.4341 29.7527ZM29.5692 31.4356L30.646 31.3489V31.3489L29.5692 31.4356ZM29.6341 32.2419L30.7109 32.1555L30.7109 32.1554L29.6341 32.2419ZM30.3305 35.0198L31.3123 34.5693L31.3122 34.5691L30.3305 35.0198ZM31.1814 35.6644L31.3481 34.5971L31.348 34.5971L31.1814 35.6644ZM32.0993 35.7443L32.0543 36.8236L32.0546 36.8236L32.0993 35.7443ZM32.9043 36.333L31.8776 36.6688L31.8779 36.6699L32.9043 36.333ZM33.0188 36.8605L34.0974 36.8025L34.0974 36.802L33.0188 36.8605ZM33.8855 38.1796L33.3072 39.092L33.3072 39.092L33.8855 38.1796ZM33.9956 38.2467L33.4488 39.1784L33.4493 39.1786L33.9956 38.2467ZM34.2546 38.0842L33.1786 38.1804L33.1788 38.1816L34.2546 38.0842ZM34.2025 37.6992L35.2694 37.53L35.2694 37.53L34.2025 37.6992ZM34.1525 37.3372L33.0772 37.441L33.0773 37.4417L34.1525 37.3372ZM34.1648 36.8788L35.2278 37.0713L35.228 37.0702L34.1648 36.8788ZM34.3344 36.7283L34.1501 35.6639L34.1466 35.6645L34.3344 36.7283ZM34.4231 36.7623L35.1479 35.9613C35.1211 35.9371 35.0932 35.9142 35.0641 35.8928L34.4231 36.7623ZM34.5218 36.9413L33.5123 37.326L33.5124 37.326L34.5218 36.9413ZM34.5532 37.0187L33.5728 37.4722L33.5737 37.4741L34.5532 37.0187ZM34.6456 37.2296L35.6399 36.8073L35.6399 36.8073L34.6456 37.2296ZM34.781 37.5292L33.8181 38.0187L33.8184 38.0193L34.781 37.5292ZM34.9663 37.6478L34.5148 36.6665L34.5146 36.6666L34.9663 37.6478ZM34.99 37.634L35.6153 38.5148L35.6158 38.5145L34.99 37.634ZM35.0762 37.5334L35.9972 38.0979L35.9983 38.0962L35.0762 37.5334ZM35.1252 37.4402L34.1336 37.0117L34.1335 37.0118L35.1252 37.4402ZM35.1529 37.357L36.2068 37.5941L36.2071 37.5929L35.1529 37.357ZM36.5078 35.7473L36.9242 36.7441L36.9244 36.744L36.5078 35.7473ZM37.903 35.3289L38.0358 36.4009C38.0569 36.3983 38.078 36.3951 38.099 36.3912L37.903 35.3289ZM39.4015 35.6877L38.6786 36.4904L38.6791 36.4909L39.4015 35.6877ZM40.8331 37.7801L39.7967 38.0849L39.7967 38.0849L40.8331 37.7801ZM40.938 38.1686L41.984 37.8986V37.8986L40.938 38.1686ZM41.0963 38.7277L42.1209 38.3855L42.1209 38.3854L41.0963 38.7277ZM42.0468 39.9439L42.4646 38.9478L42.4646 38.9478L42.0468 39.9439ZM42.7954 38.8812L43.8063 38.5006L43.8062 38.5004L42.7954 38.8812ZM42.1823 37.6168L41.2416 38.1479L41.2417 38.1482L42.1823 37.6168ZM41.0301 35.6103L41.9649 35.069H41.9649L41.0301 35.6103ZM40.2196 34.2048L41.1573 33.6686L41.1571 33.6681L40.2196 34.2048ZM40.1271 34.0445L39.1921 34.5855L39.1921 34.5855L40.1271 34.0445ZM39.6481 33.115L40.6524 32.7171L40.6522 32.7167L39.6481 33.115ZM39.9915 31.8506L40.7004 32.6656L40.7007 32.6654L39.9915 31.8506ZM40.0351 31.8126L39.326 30.9977L39.3259 30.9978L40.0351 31.8126ZM40.6111 31.299L41.3491 32.0879L41.3492 32.0878L40.6111 31.299ZM40.8682 30.5035L41.9392 30.3629L41.9392 30.3624L40.8682 30.5035ZM40.7847 29.9066L41.854 29.7529L41.854 29.7529L40.7847 29.9066ZM40.7483 29.6522L41.8179 29.5006C41.8115 29.4555 41.8023 29.4109 41.7902 29.367L40.7483 29.6522ZM41.0625 26.9402L40.0217 26.6512V26.6512L41.0625 26.9402ZM39.6273 20.5191L38.9154 21.3316L38.9218 21.3371L39.6273 20.5191ZM38.9976 20.0416L39.5188 19.0954C39.5095 19.0903 39.5 19.0853 39.4905 19.0804L38.9976 20.0416ZM38.5743 19.818L39.0837 18.8654L39.0837 18.8653L38.5743 19.818ZM36.095 18.7234L35.8051 19.764C35.8166 19.7672 35.8281 19.7702 35.8397 19.773L36.095 18.7234ZM34.9622 18.4397L35.0846 17.3664C34.5183 17.3019 33.9993 17.6883 33.8989 18.2493C33.7984 18.8102 34.151 19.3528 34.7044 19.4888L34.9622 18.4397ZM36.2251 18.5699L36.2982 17.4921L36.2982 17.4921L36.2251 18.5699ZM36.7024 18.6062L36.7956 17.53L36.7954 17.53L36.7024 18.6062ZM39.9403 18.7288L39.8843 17.65H39.8843L39.9403 18.7288ZM40.2007 18.7125L40.2801 19.7898L40.2803 19.7898L40.2007 18.7125ZM41.6543 18.472L41.9567 19.5091L41.9622 19.5074L41.6543 18.472ZM43.3888 17.1192L44.2578 17.7608L44.2581 17.7605L43.3888 17.1192ZM44.1098 15.764L43.0583 15.5167L43.0583 15.5167L44.1098 15.764ZM45.2527 10.8216L46.3057 11.063V11.063L45.2527 10.8216ZM45.5276 9.62343L46.5804 9.86518L46.5804 9.86516L45.5276 9.62343ZM46.0931 7.15585L45.0402 6.91471V6.91471L46.0931 7.15585ZM46.9665 3.34984L48.0192 3.5924L48.0193 3.59183L46.9665 3.34984ZM47.0862 2.90595L46.0484 2.60597L46.0484 2.60598L47.0862 2.90595ZM47.2814 1.88564H46.2011L46.2011 1.88996L47.2814 1.88564ZM47.1623 0.986632L48.1378 0.522711L48.1378 0.522669L47.1623 0.986632ZM46.3156 0.306331L45.9742 1.33119L45.9747 1.33136L46.3156 0.306331ZM45.5811 0.111674L45.3401 1.16468C45.3506 1.16709 45.3612 1.16934 45.3718 1.17144L45.5811 0.111674ZM44.527 0.00311624L44.5166 1.08331C44.5359 1.0835 44.5553 1.08317 44.5746 1.08232L44.527 0.00311624ZM43.2597 0.129468L43.0401 -0.928227L43.0397 -0.928127L43.2597 0.129468ZM43.1054 0.161572L43.2749 1.22844C43.2919 1.22575 43.3087 1.22266 43.3255 1.21917L43.1054 0.161572ZM42.6813 0.234548L42.8777 1.29679L42.8779 1.29675L42.6813 0.234548ZM39.8169 1.14136L40.3382 2.08751V2.0875L39.8169 1.14136ZM35.2905 4.26942L35.9916 5.09124L35.9917 5.09115L35.2905 4.26942ZM32.5446 6.86141L33.3056 7.62813L33.3056 7.62813L32.5446 6.86141ZM31.9621 7.43822L32.7203 8.20763L32.7203 8.20762L31.9621 7.43822ZM30.2688 9.26541L29.4195 8.59793L29.4193 8.59807L30.2688 9.26541ZM30.0737 9.51442L30.9061 10.2029C30.9125 10.1952 30.9187 10.1875 30.9248 10.1796L30.0737 9.51442ZM28.1707 12.0039L29.0351 12.652L29.042 12.6425L28.1707 12.0039ZM26.7967 13.8557L27.6669 14.4958L27.6669 14.4957L26.7967 13.8557ZM26.5488 14.1889L25.6839 13.5417L25.6839 13.5417L26.5488 14.1889ZM25.2684 16.296L26.281 16.6724L26.281 16.6723L25.2684 16.296ZM25.2668 16.3004L24.2543 15.924L24.2539 15.925L25.2668 16.3004ZM25.2325 16.312L24.3932 16.9921C24.4513 17.0638 24.5184 17.1278 24.5928 17.1824L25.2325 16.312ZM25.167 15.7519L26.0962 16.3029L26.0963 16.3027L25.167 15.7519ZM24.6437 14.351L24.3106 15.3786L24.3119 15.379L24.6437 14.351ZM24.4005 14.2962L24.5908 13.2329L24.5908 13.2329L24.4005 14.2962ZM24.2795 14.2734L23.2165 14.0814C23.1123 14.6581 23.487 15.2127 24.0609 15.3313L24.2795 14.2734ZM24.2935 14.1517L23.217 14.0621L23.217 14.0621L24.2935 14.1517ZM24.3504 13.9185L23.4684 13.2949L23.4679 13.2955L24.3504 13.9185ZM25.1381 12.8969L24.3363 12.173L24.3363 12.173L25.1381 12.8969ZM26.0061 11.9675L25.2228 11.2236V11.2236L26.0061 11.9675ZM27.0325 10.8607L27.8418 11.5762L27.8421 11.5759L27.0325 10.8607ZM28.31 9.24291L29.2262 9.81526L29.2263 9.81507L28.31 9.24291ZM29.0238 7.83989L30.0069 8.28757L30.0069 8.28756L29.0238 7.83989ZM29.278 7.29083L28.3042 6.82329L28.3036 6.82452L29.278 7.29083ZM29.3412 7.16072L30.3119 7.63476L30.3119 7.63475L29.3412 7.16072ZM29.5432 6.71684L30.5481 7.11317L30.5481 7.11314L29.5432 6.71684ZM29.4784 6.26917L29.1324 7.29252L29.1324 7.29252L29.4784 6.26917ZM29.1605 6.54343L28.1447 6.17592L28.1445 6.17636L29.1605 6.54343ZM28.8757 7.42464L29.9158 7.71658L29.9159 7.71607L28.8757 7.42464ZM27.9119 9.61991L27.0578 8.95852L27.0577 8.95867L27.9119 9.61991ZM26.2275 11.6077L27.0278 12.3333L27.0278 12.3333L26.2275 11.6077ZM25.94 11.9229L26.737 12.6521L26.737 12.652L25.94 11.9229ZM24.3974 13.7762L25.2854 14.3914L25.2884 14.387L24.3974 13.7762ZM24.3445 13.8298L23.6433 13.008L23.6432 13.0081L24.3445 13.8298ZM24.3204 13.851L23.6523 14.7C24.0731 15.0311 24.6729 15.004 25.0621 14.6364L24.3204 13.851ZM23.6402 13.6469L23.6514 12.5667C23.6439 12.5666 23.6365 12.5666 23.629 12.5667L23.6402 13.6469ZM22.96 13.851L22.2183 14.6364C22.6075 15.004 23.2073 15.0311 23.6281 14.7L22.96 13.851ZM22.9359 13.8298L23.6372 13.0081L23.6371 13.008L22.9359 13.8298ZM22.883 13.7762L21.992 14.3871L21.995 14.3914L22.883 13.7762ZM21.3404 11.9229L20.5434 12.652L20.5434 12.6521L21.3404 11.9229ZM21.0529 11.6077L20.2526 12.3333L20.2526 12.3333L21.0529 11.6077ZM19.3685 9.61991L20.2227 8.95867L20.2226 8.95852L19.3685 9.61991ZM18.4047 7.42464L17.3645 7.71607L17.3646 7.71658L18.4047 7.42464ZM18.1199 6.54343L19.1359 6.17636L19.1357 6.17592L18.1199 6.54343ZM17.802 6.26917L18.148 7.29252L18.148 7.29252L17.802 6.26917ZM17.7372 6.71684L16.7323 7.11314L16.7323 7.11317L17.7372 6.71684ZM17.9392 7.16072L16.9685 7.63475L16.9685 7.63476L17.9392 7.16072ZM18.0024 7.29083L18.9768 6.82451L18.9762 6.82329L18.0024 7.29083ZM18.2566 7.83989L17.2735 8.28756L17.2735 8.28757L18.2566 7.83989ZM18.9704 9.24291L18.0541 9.81507L18.0542 9.81526L18.9704 9.24291ZM20.2479 10.8607L19.4383 11.5759L19.4386 11.5762L20.2479 10.8607ZM21.2743 11.9675L22.0576 11.2236V11.2236L21.2743 11.9675ZM22.1423 12.8969L22.9441 12.173L22.9441 12.173L22.1423 12.8969ZM22.93 13.9185L23.8125 13.2955L23.812 13.2949L22.93 13.9185ZM22.9869 14.1517L24.0634 14.0621L24.0634 14.0621L22.9869 14.1517ZM23.0009 14.2734L23.2195 15.3313C23.7934 15.2127 24.1681 14.6581 24.0639 14.0814L23.0009 14.2734ZM22.8799 14.2962L22.6896 13.2329L22.6896 13.2329L22.8799 14.2962ZM22.6367 14.351L22.9685 15.379L22.9698 15.3786L22.6367 14.351ZM22.1134 15.7519L21.1841 16.3027L21.1842 16.3029L22.1134 15.7519ZM22.0479 16.312L22.6876 17.1824C22.762 17.1278 22.8291 17.0638 22.8872 16.9921L22.0479 16.312ZM22.0136 16.3004L23.0265 15.925L23.0261 15.924L22.0136 16.3004ZM22.012 16.296L20.9994 16.6723L20.9994 16.6724L22.012 16.296ZM20.7316 14.1889L21.5965 13.5417L21.5965 13.5417L20.7316 14.1889ZM20.4837 13.8557L19.6135 14.4957L19.6135 14.4958L20.4837 13.8557ZM19.1097 12.0039L18.2383 12.6425L18.2454 12.6519L19.1097 12.0039ZM17.2067 9.51442L16.3556 10.1796C16.3617 10.1875 16.3679 10.1952 16.3743 10.2029L17.2067 9.51442ZM17.0116 9.26541L17.8611 8.59807L17.8609 8.59793L17.0116 9.26541ZM15.3183 7.43822L14.5601 8.20762L14.5601 8.20763L15.3183 7.43822ZM14.7358 6.86143L15.4968 6.09471L15.4968 6.09471L14.7358 6.86143ZM11.9899 4.26942L11.2887 5.09115L11.2888 5.09124L11.9899 4.26942ZM7.46349 1.14136L6.9422 2.0875L6.9422 2.08751L7.46349 1.14136ZM4.5991 0.234548L4.40248 1.29675L4.40267 1.29679L4.5991 0.234548ZM4.17496 0.161572L3.9549 1.21917C3.97169 1.22266 3.98855 1.22575 4.00548 1.22844L4.17496 0.161572ZM4.02067 0.129468L4.24073 -0.928127L4.24025 -0.928227L4.02067 0.129468ZM2.75339 0.00311624L2.70583 1.08232C2.72514 1.08317 2.74446 1.0835 2.76379 1.08331L2.75339 0.00311624ZM1.69926 0.111674L1.90862 1.17144C1.91923 1.16934 1.9298 1.16709 1.94033 1.16468L1.69926 0.111674ZM0.964751 0.306331L1.30572 1.33136L1.30621 1.33119L0.964751 0.306331ZM0.118112 0.986632L-0.857425 0.522669L-0.857442 0.522705L0.118112 0.986632ZM-0.000962733 1.88564L1.07928 1.88995V1.88564H-0.000962733ZM0.194231 2.90595L-0.843529 3.20593L-0.843529 3.20593L0.194231 2.90595ZM0.313877 3.34984L-0.73892 3.59182L-0.738787 3.5924L0.313877 3.34984ZM2.80567 9.3817C2.6169 8.55951 2.4286 7.73722 2.24022 6.91461L0.134238 7.39688C0.322593 8.21939 0.511036 9.04228 0.699967 9.86516L2.80567 9.3817ZM3.08052 10.5799C2.98898 10.1806 2.89739 9.78115 2.80567 9.38168L0.699972 9.86518C0.791605 10.2642 0.883112 10.6634 0.974666 11.0627L3.08052 10.5799ZM4.22212 15.5167C3.83578 13.8741 3.45855 12.2287 3.08052 10.5799L0.974666 11.0627C1.35247 12.7105 1.73105 14.3618 2.11901 16.0113L4.22212 15.5167ZM4.76086 16.4779C4.45375 16.0616 4.28604 15.7885 4.22213 15.5167L2.119 16.0113C2.29478 16.7588 2.71821 17.3483 3.02228 17.7605L4.76086 16.4779ZM5.934 17.4366C5.51791 17.3128 5.1498 17.0046 4.76058 16.4775L3.02256 17.7608C3.53663 18.457 4.25525 19.1913 5.31817 19.5074L5.934 17.4366ZM7.1592 17.6352C6.71872 17.6026 6.29032 17.5404 5.92846 17.4349L5.32371 19.5091C5.88516 19.6728 6.47804 19.7512 7.00015 19.7898L7.1592 17.6352ZM7.39608 17.65C7.31685 17.6459 7.23786 17.641 7.15908 17.6351L7.00027 19.7898C7.09512 19.7968 7.18974 19.8027 7.28409 19.8076L7.39608 17.65ZM10.4848 17.53C9.40207 17.6237 8.39267 17.7017 7.3961 17.65L7.28408 19.8076C8.44931 19.8681 9.59789 19.7754 10.6712 19.6824L10.4848 17.53ZM10.9822 17.4921C10.8188 17.5032 10.6526 17.5155 10.485 17.53L10.671 19.6824C10.8212 19.6694 10.9734 19.6582 11.1284 19.6477L10.9822 17.4921ZM12.3182 18.4397C12.1958 17.3664 12.1958 17.3664 12.1958 17.3664C12.1958 17.3664 12.1958 17.3664 12.1958 17.3664C12.1958 17.3664 12.1958 17.3664 12.1957 17.3664C12.1956 17.3665 12.1955 17.3665 12.1953 17.3665C12.1948 17.3666 12.1942 17.3666 12.1933 17.3667C12.1916 17.3669 12.1889 17.3672 12.1855 17.3676C12.1785 17.3684 12.1682 17.3696 12.1549 17.3711C12.1284 17.3741 12.09 17.3784 12.043 17.3836C11.9489 17.3942 11.8206 17.4084 11.6832 17.4232C11.398 17.4539 11.1059 17.4837 10.9822 17.4921L11.1284 19.6477C11.304 19.6358 11.6434 19.6005 11.9148 19.5712C12.0557 19.556 12.187 19.5415 12.2829 19.5308C12.331 19.5254 12.3702 19.521 12.3975 19.5179C12.4112 19.5164 12.4219 19.5151 12.4292 19.5143C12.4328 19.5139 12.4357 19.5136 12.4376 19.5134C12.4385 19.5133 12.4393 19.5132 12.4398 19.5131C12.44 19.5131 12.4402 19.5131 12.4404 19.5131C12.4404 19.513 12.4405 19.513 12.4405 19.513C12.4405 19.513 12.4406 19.513 12.4406 19.513C12.4406 19.513 12.4406 19.513 12.3182 18.4397ZM11.4753 19.764C11.537 19.7468 11.7996 19.6809 12.0726 19.6131C12.2034 19.5807 12.3293 19.5496 12.4226 19.5266C12.4692 19.5151 12.5076 19.5056 12.5343 19.499C12.5477 19.4957 12.5581 19.4932 12.5652 19.4914C12.5688 19.4905 12.5715 19.4899 12.5733 19.4894C12.5742 19.4892 12.5749 19.489 12.5753 19.4889C12.5756 19.4889 12.5757 19.4888 12.5758 19.4888C12.5759 19.4888 12.5759 19.4888 12.576 19.4888C12.576 19.4888 12.576 19.4888 12.576 19.4888C12.576 19.4888 12.576 19.4888 12.3182 18.4397C12.0604 17.3907 12.0604 17.3907 12.0604 17.3907C12.0604 17.3907 12.0604 17.3907 12.0604 17.3907C12.0604 17.3907 12.0603 17.3907 12.0602 17.3907C12.0601 17.3908 12.0599 17.3908 12.0597 17.3909C12.0592 17.391 12.0585 17.3912 12.0576 17.3914C12.0557 17.3919 12.0529 17.3925 12.0493 17.3934C12.0421 17.3952 12.0315 17.3978 12.018 17.4011C11.991 17.4078 11.9522 17.4173 11.9053 17.4289C11.8113 17.4521 11.6843 17.4835 11.5521 17.5163C11.299 17.5791 10.9951 17.655 10.8954 17.6828L11.4753 19.764ZM9.21544 20.7706C9.95267 20.3764 10.8093 19.9267 11.4407 19.773L10.93 17.6738C9.97528 17.9061 8.85419 18.5138 8.19672 18.8653L9.21544 20.7706ZM8.77565 21.0029C8.90804 20.935 9.06004 20.8537 9.21544 20.7706L8.19672 18.8654C8.03623 18.9512 7.90225 19.0228 7.78989 19.0804L8.77565 21.0029ZM7.65309 20.5191C8.36493 21.3316 8.36489 21.3316 8.36486 21.3317C8.36485 21.3317 8.36481 21.3317 8.36479 21.3317C8.36474 21.3318 8.36471 21.3318 8.36467 21.3318C8.36461 21.3319 8.36457 21.3319 8.36455 21.3319C8.36452 21.332 8.36458 21.3319 8.36473 21.3318C8.36504 21.3315 8.3657 21.3309 8.36671 21.3301C8.36873 21.3283 8.37212 21.3254 8.37675 21.3214C8.38602 21.3134 8.40014 21.3012 8.41803 21.2861C8.45412 21.2555 8.50399 21.2138 8.55932 21.1693C8.61543 21.1242 8.67227 21.0801 8.72303 21.0432C8.77936 21.0023 8.80512 20.9872 8.80397 20.9878L7.76157 19.0954C7.55513 19.2091 7.33118 19.3845 7.20543 19.4856C7.13186 19.5448 7.06709 19.5989 7.02075 19.6382C6.99743 19.658 6.9784 19.6743 6.96483 19.6861C6.95803 19.6919 6.95257 19.6967 6.9486 19.7001C6.94661 19.7019 6.94499 19.7033 6.94376 19.7043C6.94314 19.7049 6.94262 19.7053 6.9422 19.7057C6.94199 19.7059 6.94181 19.7061 6.94165 19.7062C6.94157 19.7063 6.94149 19.7063 6.94142 19.7064C6.94139 19.7064 6.94134 19.7065 6.94133 19.7065C6.94128 19.7065 6.94124 19.7066 7.65309 20.5191ZM7.25873 26.6512C6.98085 25.6505 6.75542 24.796 6.83542 23.9431C6.90858 23.1631 7.25188 22.2917 8.35864 21.3371L6.94754 19.7011C5.45792 20.9859 4.81435 22.3554 4.68437 23.7413C4.56122 25.0543 4.91637 26.2907 5.177 27.2293L7.25873 26.6512ZM7.574 29.9374C7.73877 29.3354 7.71139 28.7379 7.62781 28.2048C7.54519 27.6778 7.39336 27.136 7.25873 26.6512L5.177 27.2293C5.31954 27.7426 5.43373 28.1589 5.49339 28.5394C5.55208 28.9137 5.54322 29.1731 5.49015 29.367L7.574 29.9374ZM7.56491 30.0604C7.57697 29.9765 7.58931 29.8907 7.60163 29.8038L5.46252 29.5006C5.45055 29.585 5.43852 29.6687 5.4264 29.753L7.56491 30.0604ZM7.48322 30.6446C7.50834 30.4539 7.53582 30.2628 7.56491 30.0604L5.4264 29.753C5.39762 29.9532 5.3683 30.157 5.34124 30.3624L7.48322 30.6446ZM7.40732 30.5102C7.41518 30.5176 7.42859 30.5321 7.44247 30.5543C7.4564 30.5766 7.46672 30.6001 7.47335 30.622C7.48655 30.6656 7.4786 30.6798 7.48328 30.6441L5.34118 30.3629C5.26681 30.9293 5.3905 31.5819 5.93121 32.0878L7.40732 30.5102ZM7.95445 30.9977C7.75802 30.8267 7.57854 30.6704 7.40721 30.5101L5.93132 32.0879C6.13567 32.2791 6.34453 32.4607 6.5361 32.6274L7.95445 30.9977ZM7.99819 31.0358L7.95453 30.9978L6.53602 32.6273L6.57967 32.6653L7.99819 31.0358ZM8.63642 33.5133C8.8069 33.0835 8.86546 32.6087 8.72733 32.1279C8.59304 31.6604 8.30608 31.3036 7.99785 31.0355L6.58001 32.6656C6.62918 32.7084 6.6511 32.7362 6.65846 32.7467C6.66465 32.7556 6.65748 32.7476 6.65082 32.7244C6.64769 32.7135 6.64552 32.7021 6.64444 32.6911C6.64337 32.6801 6.64363 32.672 6.64395 32.6679C6.64461 32.6596 6.64493 32.6744 6.62815 32.7167L8.63642 33.5133ZM8.08829 34.5855C8.2563 34.2951 8.47451 33.9219 8.63658 33.5129L6.62799 32.7171C6.53462 32.9527 6.40053 33.1884 6.21827 33.5034L8.08829 34.5855ZM7.99825 34.7416C8.02744 34.6906 8.05712 34.6393 8.08828 34.5855L6.21828 33.5034C6.18753 33.5566 6.15538 33.6121 6.12333 33.6681L7.99825 34.7416ZM7.18518 36.1515C7.45595 35.6839 7.7284 35.2134 7.99851 34.7411L6.12307 33.6686C5.85631 34.135 5.58677 34.6005 5.31552 35.0689L7.18518 36.1515ZM6.03883 38.1479C6.41464 37.4822 6.7982 36.8198 7.18518 36.1515L5.31552 35.0689C4.92953 35.7355 4.54004 36.4081 4.15746 37.0857L6.03883 38.1479ZM5.49591 39.2621C5.63159 38.902 5.81874 38.5375 6.03869 38.1482L4.1576 37.0855C3.91742 37.5107 3.66758 37.987 3.47416 38.5004L5.49591 39.2621ZM4.81582 38.9478C4.85891 38.9297 5.01725 38.8862 5.21433 38.9664C5.39242 39.0389 5.46993 39.1592 5.49074 39.1983C5.51145 39.2372 5.50747 39.2489 5.5064 39.2315C5.50533 39.2142 5.51059 39.2231 5.49601 39.2619L3.47406 38.5006C3.27222 39.0368 3.30859 39.6966 3.58339 40.2131C3.731 40.4905 3.98903 40.8003 4.39982 40.9675C4.8296 41.1424 5.27283 41.0989 5.65146 40.9401L4.81582 38.9478ZM5.15946 38.3855C5.08626 38.6047 5.02155 38.7384 4.96109 38.8238C4.91142 38.8939 4.86968 38.9252 4.81584 38.9478L5.65145 40.9401C6.63307 40.5284 7.0109 39.6622 7.2087 39.0699L5.15946 38.3855ZM5.29642 37.8985C5.24631 38.0926 5.20684 38.2437 5.1595 38.3854L7.20866 39.07C7.28387 38.8448 7.34138 38.6204 7.38829 38.4387L5.29642 37.8985ZM5.4109 37.4754C5.36718 37.6241 5.32922 37.7715 5.29642 37.8985L7.38829 38.4387C7.42259 38.3059 7.45176 38.1934 7.48366 38.0849L5.4109 37.4754ZM7.15654 34.8845C6.43922 35.5296 5.74052 36.3543 5.4109 37.4754L7.48366 38.0849C7.65579 37.4994 8.03687 36.9984 8.60126 36.4909L7.15654 34.8845ZM9.57329 34.2665C8.82739 34.129 7.91526 34.2011 7.15598 34.885L8.60182 36.4904C8.70954 36.3933 8.86271 36.3324 9.18143 36.3912L9.57329 34.2665ZM11.1892 34.7507C10.7199 34.5545 10.1512 34.3362 9.51011 34.2568L9.24461 36.4009C9.57677 36.4421 9.91806 36.561 10.356 36.744L11.1892 34.7507ZM13.1817 37.1211C12.9305 35.9985 12.2378 35.1888 11.189 34.7506L10.3562 36.7441C10.7687 36.9164 10.9777 37.1655 11.0733 37.5929L13.1817 37.1211ZM13.1469 37.0117C13.1561 37.0331 13.1702 37.0698 13.1814 37.1199L11.0736 37.5941C11.0976 37.7004 11.1309 37.7929 11.1636 37.8687L13.1469 37.0117ZM13.1263 36.9707C13.1273 36.9722 13.1359 36.9865 13.1469 37.0118L11.1636 37.8687C11.2025 37.9587 11.2451 38.0356 11.2821 38.0962L13.1263 36.9707ZM12.9161 36.7534C12.9883 36.8047 13.0374 36.8556 13.067 36.89C13.0971 36.9251 13.1158 36.9536 13.1253 36.969L11.2832 38.0979C11.3521 38.2103 11.4718 38.3775 11.6646 38.5145L12.9161 36.7534ZM12.7657 36.6665C12.8259 36.6942 12.8758 36.7248 12.9158 36.7532L11.665 38.5148C11.7208 38.5544 11.7865 38.5942 11.8625 38.6292L12.7657 36.6665ZM11.5368 37.039C11.5476 37.0176 11.6277 36.8579 11.8328 36.7281C11.9475 36.6555 12.1018 36.5929 12.2871 36.5799C12.473 36.5668 12.6373 36.6074 12.7658 36.6666L11.8623 38.6291C12.2333 38.7999 12.6527 38.7659 12.9878 38.5539C13.2553 38.3848 13.3952 38.1506 13.462 38.0193L11.5368 37.039ZM11.6405 36.8073C11.5952 36.914 11.5665 36.9805 11.5364 37.0396L13.4623 38.0187C13.5316 37.8824 13.5886 37.7471 13.6291 37.6519L11.6405 36.8073ZM11.7476 36.5634C11.7063 36.6521 11.6693 36.7395 11.6405 36.8073L13.6291 37.6519C13.6603 37.5785 13.6833 37.5246 13.7067 37.4741L11.7476 36.5634ZM11.7492 36.5565C11.7465 36.5636 11.7447 36.5683 11.7431 36.5726C11.7415 36.5767 11.7406 36.5789 11.7402 36.5799C11.7398 36.5809 11.7401 36.5801 11.7411 36.5778C11.7421 36.5755 11.7439 36.5712 11.7467 36.5653L13.7076 37.4722C13.7373 37.408 13.7607 37.3452 13.768 37.3261L11.7492 36.5565ZM12.1325 35.9613C11.9704 36.1079 11.8805 36.2668 11.8353 36.3566C11.7903 36.4459 11.758 36.5334 11.7492 36.5566L13.768 37.326C13.7848 37.2821 13.7786 37.3011 13.765 37.3281C13.7511 37.3557 13.6977 37.4587 13.5821 37.5633L12.1325 35.9613ZM13.1303 35.6639C12.8385 35.6133 12.6065 35.6906 12.502 35.7325C12.3799 35.7816 12.2836 35.8431 12.2162 35.8928L13.4983 37.6318C13.4624 37.6583 13.3985 37.7007 13.3069 37.7375C13.2329 37.7672 13.0296 37.8391 12.7617 37.7927L13.1303 35.6639ZM14.1787 36.6873C14.1076 36.2921 13.8564 36.0529 13.7591 35.9686C13.6423 35.8672 13.4282 35.7164 13.1338 35.6645L12.7582 37.7921C12.6278 37.769 12.5344 37.725 12.4844 37.6979C12.4289 37.6679 12.3826 37.6346 12.3435 37.6007C12.3054 37.5676 12.2567 37.5188 12.2086 37.45C12.1658 37.3889 12.0866 37.2597 12.0524 37.0702L14.1787 36.6873ZM14.2032 37.441C14.2241 37.224 14.2283 36.9612 14.1785 36.6862L12.0526 37.0713C12.0568 37.0942 12.061 37.1472 12.0527 37.2334L14.2032 37.441ZM14.1448 37.8685C14.1631 37.7534 14.1876 37.6007 14.2031 37.4417L12.0527 37.2327C12.0446 37.3159 12.031 37.4041 12.011 37.53L14.1448 37.8685ZM14.1017 38.1804C14.1094 38.0943 14.1236 38.0026 14.1448 37.8684L12.011 37.53C11.9917 37.6519 11.9652 37.8164 11.9498 37.9881L14.1017 38.1804ZM12.7384 37.3148C12.743 37.3121 12.7596 37.3026 12.7868 37.2908C12.8129 37.2795 12.8608 37.2608 12.9265 37.2462C13.0489 37.2192 13.3395 37.1864 13.6428 37.3738C13.9496 37.5634 14.0512 37.8431 14.0818 37.973C14.0979 38.0411 14.1017 38.0946 14.1027 38.1245C14.1038 38.1555 14.1022 38.1757 14.1016 38.1816L11.9499 37.9869C11.9398 38.0989 11.9331 38.2743 11.9789 38.4686C12.0259 38.668 12.1572 38.9955 12.507 39.2117C12.8534 39.4257 13.2005 39.3983 13.3928 39.3558C13.5832 39.3137 13.7355 39.2347 13.8311 39.1786L12.7384 37.3148ZM12.8165 37.2672C12.7917 37.283 12.7655 37.2989 12.7379 37.3151L13.8316 39.1784C13.8787 39.1507 13.926 39.122 13.9732 39.092L12.8165 37.2672ZM13.183 36.8025C13.1772 36.909 13.1502 36.9654 13.1161 37.013C13.072 37.0748 12.9863 37.1596 12.8165 37.2673L13.9732 39.092C14.6108 38.6878 15.2807 38.0281 15.3403 36.9185L13.183 36.8025ZM13.3497 35.9962C13.286 36.1904 13.2005 36.479 13.183 36.802L15.3403 36.919C15.3421 36.8868 15.3544 36.8163 15.4025 36.6699L13.3497 35.9962ZM15.1365 34.665C14.7986 34.6789 14.4012 34.7575 14.0411 35.0153C13.6726 35.2792 13.4653 35.6427 13.3494 35.9972L15.4028 36.6688C15.4117 36.6417 15.4128 36.6488 15.3961 36.6738C15.3774 36.7017 15.3452 36.7388 15.2988 36.772C15.2026 36.8408 15.1416 36.8271 15.2258 36.8236L15.1365 34.665ZM15.9323 34.5971C15.6905 34.6348 15.4306 34.6527 15.1361 34.665L15.2261 36.8236C15.5451 36.8103 15.9018 36.7886 16.2658 36.7317L15.9323 34.5971ZM15.9681 34.5693C15.957 34.5934 15.9494 34.6033 15.9486 34.6043C15.9482 34.6049 15.9516 34.6006 15.9588 34.5952C15.966 34.5898 15.9709 34.5879 15.9699 34.5883C15.9684 34.5889 15.9571 34.5932 15.9324 34.5971L16.2657 36.7317C17.0051 36.6162 17.6049 36.1828 17.9318 35.4702L15.9681 34.5693ZM16.5695 32.1555C16.5004 33.0169 16.3123 33.8194 15.9682 34.5691L17.9317 35.4704C18.3983 34.4538 18.6373 33.3977 18.7231 32.3283L16.5695 32.1555ZM16.6344 31.3489C16.6128 31.6177 16.5911 31.8865 16.5695 32.1554L18.7231 32.3285C18.7446 32.0598 18.7663 31.7911 18.7879 31.5223L16.6344 31.3489ZM16.7695 29.6667C16.7247 30.2274 16.6795 30.788 16.6344 31.3489L18.7879 31.5223C18.8331 30.9615 18.8783 30.4002 18.9231 29.8387L16.7695 29.6667ZM17.0872 28.6585C17.0112 28.8165 16.8029 29.2173 16.769 29.6724L18.9235 29.8329C18.9211 29.8657 18.915 29.8662 18.9336 29.8169C18.9535 29.7642 18.9817 29.7039 19.034 29.5953L17.0872 28.6585ZM17.1574 28.5087C17.1398 28.549 17.1186 28.5932 17.0872 28.6585L19.034 29.5953C19.0623 29.5365 19.1001 29.4582 19.1354 29.3778L17.1574 28.5087ZM22.2432 27.3376C21.9548 27.1175 21.603 26.8471 21.2415 26.6364C20.8819 26.4268 20.4069 26.2112 19.8577 26.1977C18.5776 26.1663 17.7452 27.1711 17.1574 28.5088L19.1354 29.3778C19.3839 28.8122 19.5898 28.542 19.7177 28.4233C19.7756 28.3696 19.8064 28.3573 19.8081 28.3566C19.8096 28.356 19.8083 28.3566 19.8052 28.3572C19.8023 28.3577 19.8016 28.3574 19.8047 28.3575C19.8264 28.3581 19.9283 28.3718 20.1536 28.5031C20.377 28.6333 20.6182 28.8153 20.9326 29.0552L22.2432 27.3376ZM23.6402 28.1367C23.5437 28.1367 23.3836 28.1006 23.1227 27.9535C22.8583 27.8046 22.5846 27.5981 22.2432 27.3376L20.9326 29.0552C21.2482 29.296 21.6432 29.5998 22.0621 29.8358C22.4844 30.0737 23.022 30.2972 23.6402 30.2972V28.1367ZM23.6402 30.2972C24.2584 30.2972 24.796 30.0737 25.2183 29.8358C25.6372 29.5998 26.0322 29.296 26.3478 29.0552L25.0372 27.3376C24.6958 27.5981 24.4221 27.8046 24.1577 27.9535C23.8968 28.1006 23.7367 28.1367 23.6402 28.1367V30.2972ZM26.3478 29.0552C26.6622 28.8153 26.9034 28.6333 27.1268 28.5031C27.3521 28.3718 27.454 28.3581 27.4757 28.3575C27.4788 28.3574 27.4781 28.3577 27.4752 28.3572C27.4721 28.3566 27.4708 28.356 27.4723 28.3566C27.474 28.3573 27.5048 28.3696 27.5627 28.4233C27.6906 28.542 27.8965 28.8122 28.145 29.3778L30.123 28.5088C29.5352 27.1711 28.7028 26.1663 27.4227 26.1977C26.8735 26.2112 26.3985 26.4268 26.0389 26.6364C25.6774 26.8471 25.3256 27.1175 25.0372 27.3376L26.3478 29.0552ZM28.145 29.3778C28.1803 29.4582 28.2181 29.5365 28.2464 29.5953L30.1932 28.6585C30.1618 28.5932 30.1406 28.549 30.123 28.5087L28.145 29.3778ZM28.2464 29.5953C28.2987 29.7039 28.3269 29.7642 28.3468 29.8169C28.3654 29.8662 28.3593 29.8657 28.3569 29.8329L30.5114 29.6724C30.4775 29.2173 30.2692 28.8165 30.1932 28.6585L28.2464 29.5953ZM28.3573 29.8387C28.4021 30.4002 28.4473 30.9615 28.4925 31.5223L30.646 31.3489C30.6009 30.788 30.5557 30.2274 30.5109 29.6667L28.3573 29.8387ZM28.4925 31.5223C28.5141 31.7911 28.5358 32.0598 28.5574 32.3285L30.7109 32.1554C30.6893 31.8865 30.6676 31.6177 30.646 31.3489L28.4925 31.5223ZM28.5573 32.3283C28.6431 33.3977 28.8821 34.4538 29.3487 35.4704L31.3122 34.5691C30.9681 33.8194 30.78 33.0169 30.7109 32.1555L28.5573 32.3283ZM29.3486 35.4702C29.6755 36.1828 30.2753 36.6162 31.0147 36.7317L31.348 34.5971C31.3233 34.5932 31.312 34.5889 31.3105 34.5883C31.3095 34.5879 31.3144 34.5898 31.3216 34.5952C31.3288 34.6006 31.3322 34.6049 31.3318 34.6043C31.331 34.6033 31.3234 34.5934 31.3123 34.5693L29.3486 35.4702ZM31.0146 36.7317C31.3786 36.7886 31.7353 36.8103 32.0543 36.8236L32.1443 34.665C31.8498 34.6527 31.5899 34.6348 31.3481 34.5971L31.0146 36.7317ZM32.0546 36.8236C32.1388 36.8271 32.0778 36.8408 31.9816 36.772C31.9352 36.7388 31.903 36.7017 31.8843 36.6738C31.8676 36.6488 31.8687 36.6417 31.8776 36.6688L33.931 35.9972C33.8151 35.6426 33.6078 35.2792 33.2393 35.0153C32.8792 34.7575 32.4818 34.6789 32.1439 34.665L32.0546 36.8236ZM31.8779 36.6699C31.9259 36.8162 31.9383 36.8868 31.9401 36.919L34.0974 36.802C34.0799 36.479 33.9944 36.1904 33.9307 35.9962L31.8779 36.6699ZM31.9401 36.9185C31.9997 38.0281 32.6696 38.6878 33.3072 39.092L34.4639 37.2673C34.2941 37.1596 34.2084 37.0748 34.1643 37.013C34.1302 36.9654 34.1032 36.909 34.0974 36.8025L31.9401 36.9185ZM33.3072 39.092C33.3544 39.1219 33.4017 39.1507 33.4488 39.1784L34.5424 37.3151C34.5149 37.2989 34.4887 37.283 34.4639 37.2672L33.3072 39.092ZM33.4493 39.1786C33.5449 39.2347 33.6972 39.3137 33.8876 39.3558C34.0799 39.3983 34.427 39.4257 34.7734 39.2117C35.1232 38.9955 35.2545 38.668 35.3015 38.4686C35.3473 38.2743 35.3406 38.0989 35.3305 37.9869L33.1788 38.1816C33.1782 38.1757 33.1766 38.1555 33.1777 38.1245C33.1787 38.0946 33.1825 38.0411 33.1986 37.973C33.2292 37.8431 33.3308 37.5634 33.6376 37.3738C33.9409 37.1864 34.2315 37.2192 34.3539 37.2462C34.4196 37.2608 34.4675 37.2795 34.4936 37.2908C34.5208 37.3026 34.5374 37.3121 34.542 37.3148L33.4493 39.1786ZM35.3306 37.9881C35.3152 37.8164 35.2887 37.6519 35.2694 37.53L33.1356 37.8685C33.1568 38.0026 33.171 38.0943 33.1786 38.1804L35.3306 37.9881ZM35.2694 37.53C35.2494 37.4041 35.2358 37.3159 35.2277 37.2327L33.0773 37.4417C33.0928 37.6007 33.1173 37.7534 33.1356 37.8685L35.2694 37.53ZM35.2277 37.2334C35.2194 37.1472 35.2236 37.0942 35.2278 37.0713L33.1019 36.6862C33.0521 36.9612 33.0563 37.224 33.0772 37.441L35.2277 37.2334ZM35.228 37.0702C35.1939 37.2597 35.1146 37.3889 35.0718 37.45C35.0237 37.5188 34.975 37.5676 34.9369 37.6007C34.8978 37.6346 34.8515 37.6679 34.796 37.6979C34.746 37.725 34.6526 37.769 34.5222 37.7921L34.1466 35.6645C33.8522 35.7164 33.6381 35.8672 33.5213 35.9686C33.424 36.0529 33.1728 36.2921 33.1017 36.6874L35.228 37.0702ZM34.5186 37.7927C34.2508 37.8391 34.0475 37.7672 33.9735 37.7375C33.8819 37.7007 33.818 37.6583 33.7821 37.6318L35.0641 35.8928C34.9968 35.8431 34.9005 35.7816 34.7784 35.7326C34.6739 35.6906 34.4419 35.6133 34.1501 35.6639L34.5186 37.7927ZM33.6983 37.5633C33.5827 37.4587 33.5293 37.3557 33.5154 37.3281C33.5018 37.3011 33.4956 37.282 33.5123 37.326L35.5312 36.5566C35.5224 36.5334 35.4901 36.4459 35.4451 36.3566C35.3999 36.2668 35.31 36.1079 35.1479 35.9613L33.6983 37.5633ZM33.5124 37.326C33.5197 37.3453 33.5431 37.408 33.5728 37.4722L35.5337 36.5653C35.5365 36.5712 35.5383 36.5756 35.5393 36.5778C35.5402 36.5801 35.5406 36.5809 35.5402 36.5799C35.5397 36.5788 35.5389 36.5767 35.5373 36.5726C35.5357 36.5683 35.5339 36.5637 35.5312 36.5566L33.5124 37.326ZM33.5737 37.4741C33.5971 37.5246 33.6201 37.5785 33.6513 37.6519L35.6399 36.8073C35.6111 36.7395 35.5741 36.6521 35.5328 36.5634L33.5737 37.4741ZM33.6513 37.6519C33.6917 37.7471 33.7487 37.8824 33.8181 38.0187L35.7439 37.0396C35.7139 36.9806 35.6852 36.914 35.6399 36.8073L33.6513 37.6519ZM33.8184 38.0193C33.8852 38.1506 34.0251 38.3848 34.2926 38.5539C34.6277 38.7659 35.0471 38.7999 35.4181 38.6291L34.5146 36.6666C34.6431 36.6074 34.8074 36.5668 34.9933 36.5799C35.1786 36.5929 35.3329 36.6555 35.4476 36.7281C35.6527 36.8579 35.7327 37.0176 35.7436 37.039L33.8184 38.0193ZM35.4178 38.6292C35.4939 38.5942 35.5597 38.5544 35.6153 38.5148L34.3647 36.7531C34.4045 36.7248 34.4545 36.6942 34.5148 36.6665L35.4178 38.6292ZM35.6158 38.5145C35.8086 38.3775 35.9283 38.2104 35.9972 38.0979L34.1552 36.9689C34.1646 36.9536 34.1833 36.9251 34.2134 36.89C34.243 36.8556 34.2921 36.8047 34.3642 36.7534L35.6158 38.5145ZM35.9983 38.0962C36.0353 38.0356 36.0779 37.9587 36.1168 37.8686L34.1335 37.0118C34.1444 36.9865 34.1531 36.9723 34.1541 36.9707L35.9983 38.0962ZM36.1168 37.8688C36.1495 37.7929 36.1828 37.7004 36.2068 37.5941L34.099 37.1198C34.1102 37.0698 34.1243 37.0332 34.1336 37.0117L36.1168 37.8688ZM36.2071 37.5929C36.3027 37.1655 36.5117 36.9164 36.9242 36.7441L36.0914 34.7506C35.0426 35.1888 34.3499 35.9985 34.0987 37.1211L36.2071 37.5929ZM36.9244 36.744C37.3623 36.561 37.7036 36.4421 38.0358 36.4009L37.7703 34.2568C37.1292 34.3362 36.5605 34.5545 36.0912 34.7507L36.9244 36.744ZM38.099 36.3912C38.4177 36.3324 38.5709 36.3933 38.6786 36.4904L40.1244 34.885C39.3651 34.2011 38.453 34.129 37.7071 34.2665L38.099 36.3912ZM38.6791 36.4909C39.2435 36.9984 39.6246 37.4994 39.7967 38.0849L41.8695 37.4754C41.5399 36.3543 40.8412 35.5296 40.1239 34.8845L38.6791 36.4909ZM39.7967 38.0849C39.8286 38.1934 39.8578 38.3059 39.8921 38.4387L41.984 37.8986C41.9512 37.7715 41.9132 37.6241 41.8695 37.4754L39.7967 38.0849ZM39.8921 38.4387C39.939 38.6204 39.9965 38.8448 40.0717 39.07L42.1209 38.3854C42.0736 38.2437 42.0341 38.0926 41.984 37.8986L39.8921 38.4387ZM40.0717 39.0699C40.2695 39.6622 40.6473 40.5284 41.629 40.9401L42.4646 38.9478C42.4107 38.9252 42.369 38.8939 42.3193 38.8238C42.2589 38.7384 42.1941 38.6047 42.1209 38.3855L40.0717 39.0699ZM41.6289 40.9401C42.0076 41.0989 42.4508 41.1424 42.8806 40.9675C43.2914 40.8003 43.5494 40.4905 43.697 40.2131C43.9718 39.6966 44.0082 39.0368 43.8063 38.5006L41.7844 39.2619C41.7698 39.2231 41.7751 39.2142 41.774 39.2315C41.7729 39.2489 41.769 39.2372 41.7897 39.1983C41.8105 39.1592 41.888 39.0389 42.0661 38.9664C42.2631 38.8862 42.4215 38.9297 42.4646 38.9478L41.6289 40.9401ZM43.8062 38.5004C43.6128 37.987 43.363 37.5107 43.1228 37.0855L41.2417 38.1482C41.4617 38.5375 41.6488 38.902 41.7845 39.2621L43.8062 38.5004ZM43.1229 37.0857C42.7404 36.4081 42.3509 35.7355 41.9649 35.069L40.0952 36.1516C40.4822 36.8199 40.8658 37.4823 41.2416 38.1479L43.1229 37.0857ZM41.9649 35.069C41.6936 34.6005 41.4241 34.135 41.1573 33.6686L39.2819 34.7411C39.552 35.2135 39.8245 35.684 40.0952 36.1516L41.9649 35.069ZM41.1571 33.6681C41.125 33.6121 41.0929 33.5566 41.0621 33.5034L39.1921 34.5855C39.2233 34.6393 39.253 34.6906 39.2822 34.7416L41.1571 33.6681ZM41.0621 33.5035C40.8799 33.1884 40.7458 32.9527 40.6524 32.7171L38.6438 33.5129C38.8059 33.9219 39.0241 34.2951 39.1921 34.5855L41.0621 33.5035ZM40.6522 32.7167C40.6355 32.6744 40.6358 32.6596 40.6364 32.6679C40.6368 32.672 40.637 32.6801 40.636 32.6911C40.6349 32.7021 40.6327 32.7136 40.6296 32.7244C40.6229 32.7476 40.6157 32.7556 40.6219 32.7467C40.6293 32.7362 40.6512 32.7084 40.7004 32.6656L39.2826 31.0355C38.9743 31.3036 38.6874 31.6604 38.5531 32.1279C38.4149 32.6087 38.4735 33.0835 38.644 33.5133L40.6522 32.7167ZM40.7007 32.6654L40.7444 32.6274L39.3259 30.9978L39.2822 31.0358L40.7007 32.6654ZM40.7443 32.6274C40.9359 32.4607 41.1447 32.2791 41.3491 32.0879L39.8732 30.5101C39.7019 30.6704 39.5224 30.8267 39.326 30.9977L40.7443 32.6274ZM41.3492 32.0878C41.8899 31.5819 42.0136 30.9293 41.9392 30.3629L39.7971 30.6441C39.8018 30.6798 39.7938 30.6656 39.807 30.622C39.8137 30.6001 39.824 30.5766 39.8379 30.5543C39.8518 30.5321 39.8652 30.5176 39.8731 30.5102L41.3492 32.0878ZM41.9392 30.3624C41.9121 30.1569 41.8828 29.9531 41.854 29.7529L39.7155 30.0603C39.7446 30.2627 39.7721 30.4539 39.7972 30.6446L41.9392 30.3624ZM41.854 29.7529C41.8419 29.6687 41.8299 29.585 41.8179 29.5006L39.6788 29.8038C39.6911 29.8907 39.7034 29.9764 39.7155 30.0604L41.854 29.7529ZM41.7902 29.367C41.7372 29.1731 41.7283 28.9137 41.787 28.5394C41.8467 28.1589 41.9609 27.7426 42.1034 27.2293L40.0217 26.6512C39.887 27.136 39.7352 27.6778 39.6526 28.2048C39.569 28.7379 39.5416 29.3354 39.7064 29.9374L41.7902 29.367ZM42.1034 27.2293C42.364 26.2907 42.7192 25.0543 42.596 23.7413C42.466 22.3554 41.8225 20.9859 40.3329 19.7011L38.9218 21.3371C40.0285 22.2917 40.3718 23.1631 40.445 23.9431C40.525 24.796 40.2995 25.6505 40.0217 26.6512L42.1034 27.2293ZM39.6273 20.5191C40.3392 19.7066 40.3391 19.7065 40.3391 19.7065C40.3391 19.7065 40.339 19.7064 40.339 19.7064C40.3389 19.7063 40.3388 19.7063 40.3388 19.7062C40.3386 19.7061 40.3384 19.7059 40.3382 19.7057C40.3378 19.7053 40.3373 19.7049 40.3366 19.7044C40.3354 19.7033 40.3338 19.7019 40.3318 19.7001C40.3278 19.6967 40.3224 19.6919 40.3156 19.6861C40.302 19.6743 40.283 19.658 40.2596 19.6382C40.2133 19.5989 40.1485 19.5448 40.075 19.4856C39.9492 19.3845 39.7253 19.2091 39.5188 19.0954L38.4764 20.9878C38.4753 20.9872 38.501 21.0023 38.5574 21.0432C38.6081 21.0801 38.665 21.1242 38.7211 21.1693C38.7764 21.2138 38.8263 21.2555 38.8624 21.2861C38.8803 21.3012 38.8944 21.3134 38.9036 21.3214C38.9083 21.3254 38.9117 21.3283 38.9137 21.3301C38.9147 21.3309 38.9154 21.3315 38.9157 21.3318C38.9158 21.3319 38.9159 21.332 38.9158 21.3319C38.9158 21.3319 38.9158 21.3319 38.9157 21.3318C38.9157 21.3318 38.9157 21.3318 38.9156 21.3317C38.9156 21.3317 38.9156 21.3317 38.9155 21.3317C38.9155 21.3316 38.9155 21.3316 39.6273 20.5191ZM39.4905 19.0804C39.3782 19.0228 39.2442 18.9512 39.0837 18.8654L38.065 20.7706C38.2203 20.8537 38.3724 20.935 38.5047 21.0029L39.4905 19.0804ZM39.0837 18.8653C38.4262 18.5138 37.3051 17.9061 36.3504 17.6738L35.8397 19.773C36.4711 19.9267 37.3277 20.3764 38.065 20.7706L39.0837 18.8653ZM36.385 17.6828C36.2853 17.655 35.9814 17.5791 35.7283 17.5163C35.5961 17.4835 35.4691 17.4521 35.3751 17.4289C35.3282 17.4173 35.2894 17.4078 35.2624 17.4011C35.2489 17.3978 35.2383 17.3952 35.2311 17.3934C35.2275 17.3925 35.2247 17.3919 35.2228 17.3914C35.2219 17.3912 35.2212 17.391 35.2207 17.3909C35.2205 17.3908 35.2203 17.3908 35.2202 17.3907C35.2201 17.3907 35.2201 17.3907 35.22 17.3907C35.22 17.3907 35.22 17.3907 35.22 17.3907C35.22 17.3907 35.22 17.3907 34.9622 18.4397C34.7044 19.4888 34.7044 19.4888 34.7044 19.4888C34.7044 19.4888 34.7044 19.4888 34.7044 19.4888C34.7045 19.4888 34.7045 19.4888 34.7046 19.4888C34.7047 19.4888 34.7048 19.4889 34.7051 19.4889C34.7055 19.489 34.7062 19.4892 34.7071 19.4894C34.7089 19.4899 34.7116 19.4905 34.7152 19.4914C34.7223 19.4932 34.7327 19.4957 34.7461 19.499C34.7728 19.5056 34.8112 19.5151 34.8578 19.5266C34.9511 19.5496 35.077 19.5807 35.2078 19.6131C35.4808 19.6809 35.7434 19.7468 35.8051 19.764L36.385 17.6828ZM34.9622 18.4397C34.8398 19.513 34.8398 19.513 34.8398 19.513C34.8398 19.513 34.8399 19.513 34.8399 19.513C34.8399 19.513 34.84 19.513 34.84 19.5131C34.8402 19.5131 34.8404 19.5131 34.8406 19.5131C34.8411 19.5132 34.8419 19.5133 34.8428 19.5134C34.8447 19.5136 34.8476 19.5139 34.8512 19.5143C34.8585 19.5151 34.8692 19.5164 34.8829 19.5179C34.9102 19.521 34.9494 19.5254 34.9975 19.5308C35.0934 19.5415 35.2247 19.556 35.3656 19.5712C35.637 19.6005 35.9764 19.6358 36.152 19.6477L36.2982 17.4921C36.1745 17.4837 35.8824 17.4539 35.5972 17.4232C35.4598 17.4084 35.3315 17.3942 35.2374 17.3836C35.1904 17.3784 35.152 17.3741 35.1255 17.3711C35.1122 17.3696 35.1019 17.3684 35.095 17.3676C35.0915 17.3672 35.0888 17.3669 35.0871 17.3667C35.0862 17.3666 35.0856 17.3666 35.0851 17.3665C35.0849 17.3665 35.0848 17.3665 35.0847 17.3664C35.0846 17.3664 35.0846 17.3664 35.0846 17.3664C35.0846 17.3664 35.0846 17.3664 35.0846 17.3664C35.0846 17.3664 35.0846 17.3664 34.9622 18.4397ZM36.152 19.6477C36.307 19.6582 36.4592 19.6694 36.6094 19.6824L36.7954 17.53C36.6278 17.5155 36.4616 17.5032 36.2982 17.4921L36.152 19.6477ZM36.6092 19.6824C37.6825 19.7754 38.8311 19.8681 39.9963 19.8076L39.8843 17.65C38.8877 17.7017 37.8783 17.6237 36.7956 17.53L36.6092 19.6824ZM39.9963 19.8076C40.0907 19.8027 40.1853 19.7968 40.2801 19.7898L40.1213 17.6351C40.0425 17.641 39.9636 17.6459 39.8843 17.65L39.9963 19.8076ZM40.2803 19.7898C40.8024 19.7512 41.3952 19.6728 41.9567 19.5091L41.3519 17.4349C40.9901 17.5404 40.5617 17.6026 40.1212 17.6352L40.2803 19.7898ZM41.9622 19.5074C43.0252 19.1913 43.7438 18.457 44.2578 17.7608L42.5198 16.4775C42.1306 17.0046 41.7625 17.3128 41.3464 17.4366L41.9622 19.5074ZM44.2581 17.7605C44.5622 17.3483 44.9856 16.7588 45.1614 16.0113L43.0583 15.5167C42.9944 15.7885 42.8267 16.0616 42.5195 16.4779L44.2581 17.7605ZM45.1614 16.0113C45.5493 14.3619 45.9279 12.7107 46.3057 11.063L44.1998 10.5802C43.8218 12.2289 43.4446 13.8742 43.0583 15.5167L45.1614 16.0113ZM46.3057 11.063C46.3972 10.6636 46.4888 10.2643 46.5804 9.86518L44.4747 9.38168C44.383 9.78125 44.2914 10.1808 44.1998 10.5802L46.3057 11.063ZM46.5804 9.86516C46.7694 9.04231 46.9578 8.21946 47.1461 7.39698L45.0402 6.91471C44.8518 7.73729 44.6635 8.55955 44.4747 9.3817L46.5804 9.86516ZM47.1461 7.39698C47.4367 6.128 47.7271 4.85993 48.0192 3.5924L45.9139 3.10729C45.6214 4.37647 45.3307 5.64597 45.0402 6.91471L47.1461 7.39698ZM48.0193 3.59183C48.0451 3.47974 48.0792 3.36069 48.1239 3.20592L46.0484 2.60598C46.0068 2.74987 45.9552 2.92722 45.9137 3.10786L48.0193 3.59183ZM48.1239 3.20593C48.2124 2.89976 48.3637 2.40442 48.3616 1.88132L46.2011 1.88996C46.2018 2.04755 46.1548 2.2379 46.0484 2.60597L48.1239 3.20593ZM48.3616 1.88564V1.41485H46.2011V1.88564H48.3616ZM48.3616 1.41485C48.3616 1.00022 48.2207 0.696942 48.1378 0.522711L46.1867 1.45055C46.2015 1.48157 46.2093 1.49909 46.2142 1.51059C46.2186 1.52113 46.2178 1.52051 46.2153 1.51233C46.2126 1.5033 46.2086 1.4881 46.2055 1.46855C46.2024 1.4488 46.2011 1.43037 46.2011 1.41485H48.3616ZM48.1378 0.522669C47.7919 -0.204659 47.1753 -0.546171 46.6566 -0.718694L45.9747 1.33136C46.0812 1.36678 46.1342 1.39855 46.1581 1.41664C46.1747 1.4292 46.1799 1.43622 46.1868 1.4506L48.1378 0.522669ZM46.6571 -0.718531C46.371 -0.813839 46.0821 -0.890486 45.7905 -0.948089L45.3718 1.17144C45.5719 1.21098 45.7727 1.26406 45.9742 1.33119L46.6571 -0.718531ZM45.8222 -0.941329C45.4104 -1.03562 44.9592 -1.09723 44.4794 -1.07608L44.5746 1.08232C44.8103 1.07193 45.0613 1.10086 45.3401 1.16468L45.8222 -0.941329ZM44.5374 -1.07708C44.0374 -1.08189 43.5378 -1.03153 43.0401 -0.928227L43.4793 1.18716C43.8311 1.11413 44.1765 1.08004 44.5166 1.08331L44.5374 -1.07708ZM43.0397 -0.928127L42.8854 -0.896024L43.3255 1.21917L43.4798 1.18706L43.0397 -0.928127ZM42.936 -0.905297C42.7848 -0.881291 42.6344 -0.855363 42.4847 -0.827655L42.8779 1.29675C43.01 1.2723 43.1424 1.2495 43.2749 1.22844L42.936 -0.905297ZM42.4849 -0.82769C41.4742 -0.640802 40.3497 -0.385549 39.2956 0.195211L40.3382 2.0875C41.0722 1.68311 41.9084 1.47603 42.8777 1.29679L42.4849 -0.82769ZM39.2956 0.195209C37.6186 1.11918 36.0434 2.20683 34.5892 3.4477L35.9917 5.09115C37.3337 3.94592 38.7882 2.94147 40.3382 2.08751L39.2956 0.195209ZM34.5893 3.44761C33.5972 4.29406 32.6732 5.21185 31.7837 6.09469L33.3056 7.62813C34.2049 6.73555 35.0717 5.87599 35.9916 5.09124L34.5893 3.44761ZM31.7837 6.09469C31.5894 6.28748 31.3968 6.47865 31.2038 6.66881L32.7203 8.20762C32.9165 8.01434 33.1118 7.82047 33.3056 7.62813L31.7837 6.09469ZM31.2038 6.6688C30.6137 7.25035 29.9783 7.8868 29.4195 8.59793L31.1182 9.93288C31.5828 9.34159 32.1282 8.79121 32.7203 8.20763L31.2038 6.6688ZM29.4193 8.59807C29.3536 8.68172 29.288 8.76544 29.2226 8.8492L30.9248 10.1796C30.9892 10.0972 31.0537 10.0149 31.1183 9.93275L29.4193 8.59807ZM29.2413 8.82595C28.553 9.65809 27.9155 10.5248 27.2995 11.3653L29.042 12.6425C29.6618 11.7969 30.264 10.9793 30.9061 10.2029L29.2413 8.82595ZM27.3065 11.3559C26.8429 11.9741 26.3833 12.5946 25.9265 13.2156L27.6669 14.4957C28.1209 13.8785 28.5764 13.2636 29.035 12.6519L27.3065 11.3559ZM25.9265 13.2156C25.8477 13.3228 25.7674 13.4301 25.6839 13.5417L27.4137 14.8361C27.4963 14.7257 27.5819 14.6113 27.6669 14.4958L25.9265 13.2156ZM25.6839 13.5417C25.2063 14.18 24.6115 14.9628 24.2559 15.9196L26.281 16.6723C26.5104 16.0552 26.9056 15.5151 27.4137 14.8361L25.6839 13.5417ZM24.2559 15.9196L24.2543 15.924L26.2794 16.6768L26.281 16.6724L24.2559 15.9196ZM24.2539 15.925C24.3147 15.7609 24.4834 15.4513 24.874 15.3049C25.3057 15.1432 25.6793 15.2997 25.8723 15.4416L24.5928 17.1824C24.8008 17.3353 25.1884 17.4943 25.632 17.3281C26.0345 17.1773 26.2128 16.8563 26.2798 16.6757L24.2539 15.925ZM26.0718 15.6319C26.0306 15.5811 26.0354 15.5823 26.0518 15.6104C26.0726 15.6459 26.1274 15.7498 26.1455 15.9041C26.1646 16.0668 26.1329 16.1969 26.1071 16.269C26.0873 16.3244 26.0703 16.3466 26.0962 16.3029L24.2378 15.201C24.1701 15.3152 23.9438 15.6794 23.9997 16.1557C24.0504 16.5881 24.315 16.8956 24.3932 16.9921L26.0718 15.6319ZM26.0963 16.3027C26.7579 15.1864 26.2317 13.7283 24.9754 13.3229L24.3119 15.379C24.2264 15.3514 24.205 15.2563 24.2377 15.2012L26.0963 16.3027ZM24.9767 13.3234C24.8169 13.2716 24.662 13.2456 24.5908 13.2329L24.2102 15.3596C24.2558 15.3677 24.2792 15.372 24.299 15.3763C24.3166 15.38 24.318 15.381 24.3106 15.3786L24.9767 13.3234ZM24.5908 13.2329C24.5493 13.2254 24.523 13.2207 24.4982 13.2155L24.0609 15.3313C24.1184 15.3432 24.1727 15.3529 24.2102 15.3596L24.5908 13.2329ZM25.3426 14.4654C25.3605 14.3663 25.3674 14.2724 25.37 14.2413L23.217 14.0621C23.2161 14.0728 23.2155 14.08 23.2149 14.0866C23.2143 14.0928 23.214 14.0964 23.2138 14.0984C23.2136 14.1003 23.2136 14.0996 23.214 14.097C23.2143 14.0943 23.2151 14.0889 23.2165 14.0814L25.3426 14.4654ZM25.37 14.2414C25.3721 14.2168 25.3727 14.2099 25.3731 14.2059C25.3735 14.203 25.3722 14.2159 25.3678 14.2378C25.3604 14.2746 25.3322 14.4009 25.2329 14.5415L23.4679 13.2955C23.3261 13.4964 23.2731 13.6955 23.2497 13.812C23.2271 13.9242 23.2195 14.032 23.217 14.0621L25.37 14.2414ZM25.2325 14.5422C25.4836 14.187 25.7014 13.8851 25.9399 13.6208L24.3363 12.173C23.9999 12.5456 23.7136 12.948 23.4684 13.2949L25.2325 14.5422ZM25.9399 13.6208C26.2133 13.3181 26.4958 13.0205 26.7893 12.7114L25.2228 11.2236C24.9324 11.5294 24.631 11.8466 24.3363 12.173L25.9399 13.6208ZM26.7893 12.7114C27.1338 12.3487 27.4937 11.9699 27.8418 11.5762L26.2233 10.1451C25.9049 10.5052 25.5716 10.8563 25.2228 11.2236L26.7893 12.7114ZM27.8421 11.5759C28.2875 11.0718 28.8088 10.4833 29.2262 9.81526L27.3939 8.67057C27.0867 9.16221 26.687 9.62018 26.223 10.1454L27.8421 11.5759ZM29.2263 9.81507C29.5468 9.30178 29.7936 8.75599 30.0069 8.28757L28.0407 7.39222C27.8171 7.88332 27.6266 8.29789 27.3937 8.67075L29.2263 9.81507ZM30.0069 8.28756C30.0913 8.10219 30.1708 7.92786 30.2525 7.75714L28.3036 6.82452C28.2116 7.0169 28.1237 7.21002 28.0407 7.39222L30.0069 8.28756ZM30.2519 7.75837C30.2713 7.71782 30.2909 7.67783 30.3119 7.63476L28.3705 6.68669C28.3499 6.72885 28.3273 6.77521 28.3042 6.82329L30.2519 7.75837ZM30.3119 7.63475C30.3813 7.4927 30.4681 7.31602 30.5481 7.11317L28.5383 6.3205C28.4941 6.43252 28.4442 6.53576 28.3705 6.68669L30.3119 7.63475ZM30.5481 7.11314C30.6106 6.95467 30.6719 6.71614 30.6683 6.45745C30.6658 6.27638 30.607 5.51044 29.8244 5.24583L29.1324 7.29252C28.8537 7.1983 28.6755 6.99534 28.5878 6.8108C28.5136 6.65491 28.5086 6.52777 28.508 6.48736C28.5069 6.41123 28.5192 6.36901 28.5383 6.32054L30.5481 7.11314ZM29.8244 5.24583C29.2754 5.06024 28.8188 5.30271 28.5849 5.50983C28.3558 5.71269 28.2211 5.96463 28.1447 6.17592L30.1763 6.91094C30.1699 6.92874 30.1346 7.0234 30.0171 7.12742C29.8948 7.2357 29.5621 7.43779 29.1324 7.29252L29.8244 5.24583ZM28.1445 6.17636C28.0328 6.48572 27.9274 6.80541 27.8355 7.13321L29.9159 7.71607C29.9906 7.44968 30.0786 7.18137 30.1765 6.91049L28.1445 6.17636ZM27.8357 7.1327C27.6171 7.91128 27.4144 8.49811 27.0578 8.95852L28.766 10.2813C29.4061 9.4548 29.6973 8.49485 29.9158 7.71658L27.8357 7.1327ZM27.0577 8.95867C26.5498 9.61482 26.0001 10.2503 25.4272 10.8821L27.0278 12.3333C27.6211 11.6789 28.2112 10.998 28.7662 10.2811L27.0577 8.95867ZM25.4273 10.882C25.3336 10.9854 25.2392 11.0886 25.1429 11.1938L26.737 12.652C26.8328 12.5474 26.9304 12.4407 27.0278 12.3333L25.4273 10.882ZM25.1429 11.1938C24.6083 11.7782 24.0135 12.4258 23.5065 13.1653L25.2884 14.387C25.6957 13.793 26.1856 13.2549 26.737 12.6521L25.1429 11.1938ZM23.5095 13.161C23.5554 13.0947 23.5991 13.0501 23.6211 13.0288C23.6406 13.0098 23.6572 12.9961 23.6433 13.008L25.0456 14.6515C25.0508 14.6471 25.0868 14.6169 25.1245 14.5804C25.1646 14.5415 25.2252 14.4782 25.2854 14.3914L23.5095 13.161ZM23.6432 13.0081C23.639 13.0117 23.6095 13.0365 23.5786 13.0657L25.0621 14.6364C25.0527 14.6453 25.0457 14.6514 25.0434 14.6535C25.0421 14.6546 25.0415 14.6551 25.042 14.6547C25.0426 14.6542 25.0434 14.6535 25.0457 14.6515L23.6432 13.0081ZM24.9884 13.0021C24.5715 12.6741 24.0566 12.5709 23.6514 12.5667L23.629 14.7271C23.6475 14.7272 23.6646 14.7286 23.6796 14.7307C23.6946 14.7329 23.705 14.7354 23.7107 14.737C23.7164 14.7387 23.7142 14.7386 23.7054 14.7343C23.6967 14.7301 23.6775 14.7198 23.6523 14.7L24.9884 13.0021ZM23.6281 14.7C23.6029 14.7198 23.5837 14.7301 23.575 14.7343C23.5662 14.7386 23.564 14.7387 23.5697 14.737C23.5754 14.7354 23.5858 14.7329 23.6008 14.7307C23.6158 14.7286 23.6329 14.7272 23.6514 14.7271L23.629 12.5667C23.2238 12.5709 22.7089 12.6741 22.292 13.0021L23.6281 14.7ZM22.2347 14.6515C22.237 14.6535 22.2378 14.6542 22.2384 14.6547C22.2389 14.6551 22.2383 14.6546 22.237 14.6535C22.2347 14.6514 22.2277 14.6453 22.2183 14.6364L23.7018 13.0657C23.6709 13.0365 23.6414 13.0117 23.6372 13.0081L22.2347 14.6515ZM21.995 14.3914C22.0552 14.4782 22.1158 14.5415 22.1559 14.5804C22.1936 14.6169 22.2296 14.6471 22.2348 14.6515L23.6371 13.008C23.6232 12.9961 23.6398 13.0098 23.6593 13.0288C23.6813 13.0501 23.725 13.0947 23.7709 13.161L21.995 14.3914ZM20.5434 12.6521C21.0948 13.2549 21.5847 13.793 21.992 14.387L23.7739 13.1653C23.2669 12.4258 22.6721 11.7782 22.1375 11.1938L20.5434 12.6521ZM20.2526 12.3333C20.35 12.4407 20.4476 12.5474 20.5434 12.652L22.1375 11.1938C22.0412 11.0886 21.9468 10.9854 21.8531 10.882L20.2526 12.3333ZM18.5142 10.2811C19.0692 10.998 19.6593 11.6789 20.2526 12.3333L21.8532 10.8821C21.2803 10.2503 20.7306 9.61482 20.2227 8.95867L18.5142 10.2811ZM17.3646 7.71658C17.5831 8.49485 17.8743 9.4548 18.5144 10.2813L20.2226 8.95852C19.866 8.49811 19.6633 7.91128 19.4447 7.1327L17.3646 7.71658ZM17.1039 6.91049C17.2018 7.18137 17.2898 7.44968 17.3645 7.71607L19.4449 7.13321C19.353 6.80541 19.2476 6.48572 19.1359 6.17636L17.1039 6.91049ZM18.148 7.29252C17.7183 7.43779 17.3856 7.2357 17.2633 7.12742C17.1458 7.0234 17.1105 6.92874 17.1041 6.91094L19.1357 6.17592C19.0593 5.96463 18.9246 5.71269 18.6955 5.50983C18.4616 5.30271 18.005 5.06024 17.456 5.24583L18.148 7.29252ZM18.7421 6.32054C18.7612 6.36901 18.7735 6.41123 18.7724 6.48736C18.7718 6.52777 18.7668 6.65491 18.6926 6.8108C18.6049 6.99534 18.4267 7.1983 18.148 7.29252L17.456 5.24583C16.6734 5.51044 16.6146 6.27638 16.6121 6.45745C16.6085 6.71614 16.6698 6.95467 16.7323 7.11314L18.7421 6.32054ZM18.9099 6.68669C18.8362 6.53576 18.7863 6.43252 18.7421 6.3205L16.7323 7.11317C16.8123 7.31602 16.8991 7.4927 16.9685 7.63475L18.9099 6.68669ZM18.9762 6.82329C18.9531 6.77521 18.9305 6.72885 18.9099 6.68669L16.9685 7.63476C16.9895 7.67783 17.0091 7.71782 17.0285 7.75837L18.9762 6.82329ZM19.2397 7.39222C19.1567 7.21002 19.0688 7.0169 18.9768 6.82452L17.0279 7.75714C17.1096 7.92786 17.1891 8.10219 17.2735 8.28756L19.2397 7.39222ZM19.8867 8.67075C19.6538 8.29789 19.4633 7.88332 19.2397 7.39222L17.2735 8.28757C17.4868 8.75599 17.7336 9.30178 18.0541 9.81507L19.8867 8.67075ZM21.0574 10.1454C20.5933 9.62018 20.1937 9.16221 19.8865 8.67057L18.0542 9.81526C18.4716 10.4833 18.9929 11.0718 19.4383 11.5759L21.0574 10.1454ZM22.0576 11.2236C21.7088 10.8563 21.3755 10.5052 21.0571 10.1451L19.4386 11.5762C19.7867 11.9699 20.1466 12.3487 20.4911 12.7114L22.0576 11.2236ZM22.9441 12.173C22.6494 11.8466 22.348 11.5294 22.0576 11.2236L20.4911 12.7114C20.7846 13.0205 21.0671 13.3181 21.3405 13.6208L22.9441 12.173ZM23.812 13.2949C23.5668 12.948 23.2805 12.5456 22.9441 12.173L21.3405 13.6208C21.579 13.8851 21.7968 14.187 22.0479 14.5422L23.812 13.2949ZM24.0634 14.0621C24.0609 14.032 24.0533 13.9242 24.0307 13.812C24.0073 13.6955 23.9543 13.4964 23.8125 13.2955L22.0475 14.5415C21.9482 14.4009 21.92 14.2746 21.9126 14.2378C21.9082 14.2159 21.9069 14.203 21.9073 14.2059C21.9077 14.2099 21.9083 14.2168 21.9104 14.2414L24.0634 14.0621ZM24.0639 14.0814C24.0653 14.0889 24.0661 14.0943 24.0664 14.097C24.0668 14.0996 24.0668 14.1003 24.0666 14.0984C24.0664 14.0964 24.0661 14.0928 24.0655 14.0866C24.0649 14.08 24.0643 14.0728 24.0634 14.0621L21.9104 14.2413C21.913 14.2724 21.9199 14.3663 21.9378 14.4654L24.0639 14.0814ZM23.0702 15.3596C23.1077 15.3529 23.162 15.3432 23.2195 15.3313L22.7822 13.2155C22.7574 13.2207 22.7311 13.2254 22.6896 13.2329L23.0702 15.3596ZM22.9698 15.3786C22.9624 15.381 22.9638 15.38 22.9813 15.3763C23.0012 15.372 23.0246 15.3677 23.0702 15.3596L22.6896 13.2329C22.6184 13.2456 22.4635 13.2716 22.3037 13.3234L22.9698 15.3786ZM23.0427 15.2012C23.0754 15.2563 23.054 15.3514 22.9685 15.379L22.305 13.3229C21.0487 13.7283 20.5225 15.1864 21.1841 16.3027L23.0427 15.2012ZM22.8872 16.9921C22.9654 16.8956 23.23 16.5881 23.2807 16.1557C23.3366 15.6794 23.1103 15.3152 23.0426 15.201L21.1842 16.3029C21.2101 16.3466 21.1931 16.3244 21.1733 16.269C21.1475 16.1969 21.1158 16.0668 21.1349 15.9041C21.153 15.7498 21.2078 15.6459 21.2286 15.6104C21.245 15.5823 21.2498 15.5811 21.2086 15.6319L22.8872 16.9921ZM21.0006 16.6757C21.0676 16.8563 21.2459 17.1773 21.6484 17.3281C22.092 17.4943 22.4796 17.3353 22.6876 17.1824L21.4081 15.4416C21.6011 15.2997 21.9747 15.1432 22.4064 15.3049C22.797 15.4513 22.9657 15.7609 23.0265 15.925L21.0006 16.6757ZM20.9994 16.6724L21.001 16.6768L23.0261 15.924L23.0245 15.9196L20.9994 16.6724ZM19.8667 14.8361C20.3748 15.5151 20.77 16.0552 20.9994 16.6723L23.0245 15.9196C22.6689 14.9628 22.0741 14.18 21.5965 13.5417L19.8667 14.8361ZM19.6135 14.4958C19.6985 14.6113 19.7841 14.7257 19.8667 14.8361L21.5965 13.5417C21.513 13.4301 21.4327 13.3228 21.3539 13.2156L19.6135 14.4958ZM18.2454 12.6519C18.704 13.2636 19.1595 13.8785 19.6135 14.4957L21.3539 13.2156C20.8971 12.5946 20.4375 11.9741 19.9739 11.3559L18.2454 12.6519ZM16.3743 10.2029C17.0164 10.9793 17.6186 11.7969 18.2384 12.6425L19.9809 11.3653C19.3649 10.5248 18.7274 9.65809 18.0391 8.82595L16.3743 10.2029ZM16.1621 9.93275C16.2267 10.0149 16.2912 10.0972 16.3556 10.1796L18.0578 8.8492C17.9924 8.76544 17.9268 8.68172 17.8611 8.59807L16.1621 9.93275ZM14.5601 8.20763C15.1522 8.79121 15.6976 9.34159 16.1622 9.93288L17.8609 8.59793C17.3021 7.8868 16.6667 7.25035 16.0766 6.6688L14.5601 8.20763ZM13.9748 7.62815C14.1686 7.82048 14.3639 8.01434 14.5601 8.20762L16.0766 6.66881C15.8836 6.47866 15.691 6.28749 15.4968 6.09471L13.9748 7.62815ZM11.2888 5.09124C12.2087 5.876 13.0755 6.73556 13.9748 7.62815L15.4968 6.09471C14.6073 5.21186 13.6832 4.29406 12.6911 3.44761L11.2888 5.09124ZM6.9422 2.08751C8.49218 2.94147 9.94668 3.94592 11.2887 5.09115L12.6912 3.4477C11.237 2.20683 9.66182 1.11918 7.98477 0.195209L6.9422 2.08751ZM4.40267 1.29679C5.37201 1.47603 6.20821 1.68311 6.9422 2.0875L7.98478 0.195211C6.93069 -0.385549 5.80618 -0.640802 4.79553 -0.82769L4.40267 1.29679ZM4.00548 1.22844C4.13801 1.2495 4.2704 1.2723 4.40248 1.29675L4.79572 -0.827655C4.64603 -0.855363 4.49555 -0.881292 4.34445 -0.905297L4.00548 1.22844ZM3.80061 1.18706L3.9549 1.21917L4.39502 -0.896024L4.24073 -0.928127L3.80061 1.18706ZM2.76379 1.08331C3.10385 1.08004 3.44931 1.11413 3.80109 1.18716L4.24025 -0.928227C3.74263 -1.03153 3.24299 -1.08189 2.743 -1.07708L2.76379 1.08331ZM1.94033 1.16468C2.21907 1.10086 2.47008 1.07193 2.70583 1.08232L2.80096 -1.07608C2.32118 -1.09723 1.87004 -1.03562 1.45818 -0.941329L1.94033 1.16468ZM1.30621 1.33119C1.50772 1.26405 1.70849 1.21098 1.90862 1.17144L1.48989 -0.948089C1.19832 -0.890487 0.909359 -0.813838 0.623298 -0.718531L1.30621 1.33119ZM1.09365 1.4506C1.10048 1.43622 1.10566 1.4292 1.12226 1.41664C1.14616 1.39855 1.19923 1.36678 1.30572 1.33136L0.623787 -0.718694C0.105136 -0.54617 -0.51151 -0.204657 -0.857425 0.522669L1.09365 1.4506ZM1.07928 1.41485C1.07928 1.43037 1.07803 1.4488 1.07492 1.46855C1.07184 1.48811 1.06784 1.5033 1.06507 1.51234C1.06256 1.52051 1.06181 1.52114 1.06623 1.5106C1.07105 1.4991 1.07891 1.48158 1.09367 1.45056L-0.857442 0.522705C-0.940296 0.696933 -1.08121 1.00022 -1.08121 1.41485H1.07928ZM1.07928 1.88564V1.41485H-1.08121V1.88564H1.07928ZM1.23199 2.60597C1.1256 2.23791 1.07865 2.04755 1.07928 1.88995L-1.0812 1.88133C-1.08329 2.40442 -0.932034 2.89975 -0.843529 3.20593L1.23199 2.60597ZM1.36667 3.10787C1.32515 2.92721 1.27358 2.74986 1.23199 2.60597L-0.843529 3.20593C-0.798792 3.3607 -0.76468 3.47975 -0.73892 3.59182L1.36667 3.10787ZM2.24022 6.91461C1.94968 5.64589 1.65898 4.37644 1.36654 3.10729L-0.738787 3.5924C-0.446733 4.85989 -0.156351 6.12793 0.134238 7.39688L2.24022 6.91461Z" fill="white" mask="url(#path-12-inside-1_2611_12434)"></path></svg> 