<?xml version="1.0" encoding="UTF-8"?> <svg xmlns="http://www.w3.org/2000/svg" width="47" height="44" viewBox="0 0 47 44" fill="none"><path d="M9.22765 9.16667H36.965C37.74 9.16667 38.2204 10.0102 37.8251 10.6768L31.6907 21.0202C31.3305 21.6276 30.6766 22 29.9705 22H15.8874M15.8874 22L12.1321 27.7891C11.7005 28.4544 12.178 29.3333 12.9711 29.3333H34.9151M15.8874 22L7.88469 6.57878C7.54074 5.91598 6.85621 5.5 6.10949 5.5H4.4707M15.8874 36.6667C15.8874 37.6792 15.0355 38.5 13.9846 38.5C12.9337 38.5 12.0818 37.6792 12.0818 36.6667C12.0818 35.6541 12.9337 34.8333 13.9846 34.8333C15.0355 34.8333 15.8874 35.6541 15.8874 36.6667ZM34.9151 36.6667C34.9151 37.6792 34.0632 38.5 33.0124 38.5C31.9615 38.5 31.1096 37.6792 31.1096 36.6667C31.1096 35.6541 31.9615 34.8333 33.0124 34.8333C34.0632 34.8333 34.9151 35.6541 34.9151 36.6667Z" stroke="white" stroke-linecap="round" stroke-linejoin="round"></path></svg> 