<?xml version="1.0" encoding="UTF-8"?> <svg xmlns="http://www.w3.org/2000/svg" width="46" height="44" viewBox="0 0 46 44" fill="none"><path d="M34.5846 34.2986C33.6014 30.0208 29.8955 27.5 23.1682 27.5C16.4409 27.5 12.7346 30.0208 11.7513 34.2986M23.168 38.5C32.6258 38.5 40.293 31.1127 40.293 22C40.293 12.8873 32.6258 5.5 23.168 5.5C13.7101 5.5 6.04297 12.8873 6.04297 22C6.04297 31.1127 13.7101 38.5 23.168 38.5ZM23.168 22C25.705 22 26.9735 20.6905 26.9735 17.4167C26.9735 14.1429 25.705 12.8333 23.168 12.8333C20.6309 12.8333 19.3624 14.1429 19.3624 17.4167C19.3624 20.6905 20.6309 22 23.168 22Z" stroke="white" stroke-linecap="round" stroke-linejoin="round"></path></svg> 