<?xml version="1.0" encoding="UTF-8"?> <svg xmlns="http://www.w3.org/2000/svg" width="1296" height="148" viewBox="0 0 1296 148" fill="none"><path d="M1273.97 56.1837V68.9947C1272.02 66.6529 1269.86 64.6555 1267.49 63.0024C1265.4 61.6249 1262.96 60.5229 1260.18 59.6964C1257.39 58.7321 1254.26 58.7321 1250.77 59.6964C1248.96 60.2474 1247.01 61.2117 1244.92 62.5892C1238.09 66.9973 1233.84 73.1273 1232.17 80.9792V143.588H1265.82C1270.7 143.588 1274.95 142.83 1278.57 141.315C1282.33 139.662 1285.47 137.871 1287.98 135.943C1290.9 133.601 1293.41 130.983 1295.5 128.091L1291.95 145.861H1214.4C1215.24 144.07 1215.94 142.141 1216.49 140.075C1217.05 138.284 1217.54 136.356 1217.96 134.29C1218.37 132.223 1218.58 130.019 1218.58 127.677V19.197C1218.58 16.993 1218.37 14.8578 1217.96 12.7915C1217.54 10.5875 1217.05 8.59008 1216.49 6.79929C1215.94 4.733 1215.24 2.80446 1214.4 1.01367H1291.95L1295.5 18.7838C1293.41 16.0287 1290.9 13.4803 1287.98 11.1385C1285.47 9.20997 1282.33 7.41918 1278.57 5.76614C1274.95 4.11311 1270.7 3.28659 1265.82 3.28659H1232.17V73.9538C1233.98 69.959 1236.42 66.584 1239.48 63.829C1242.69 61.0739 1246.17 58.9387 1249.94 57.4234C1253.7 55.9082 1257.67 55.0817 1261.85 54.9439C1266.03 54.6684 1270.07 55.0816 1273.97 56.1837Z" fill="white"></path><path d="M1188.78 122.847C1188.78 124.901 1188.99 127.23 1189.4 129.833C1189.8 132.436 1190.28 134.901 1190.83 137.23C1191.37 139.559 1191.92 141.545 1192.46 143.189C1193.01 144.833 1193.42 145.723 1193.69 145.86H1178.55L1118.6 17.6422V124.49C1118.6 126.408 1118.88 128.531 1119.42 130.86C1119.97 133.052 1120.65 135.244 1121.47 137.435C1122.29 139.49 1123.17 141.34 1124.13 142.983C1125.08 144.49 1125.97 145.449 1126.79 145.86H1107.96C1108.78 145.449 1109.67 144.49 1110.62 142.983C1111.72 141.34 1112.67 139.49 1113.49 137.435C1114.31 135.244 1114.99 133.052 1115.53 130.86C1116.08 128.531 1116.35 126.408 1116.35 124.49V25.4503C1116.35 22.7106 1115.94 19.149 1115.13 14.7655C1114.44 10.382 1113.15 6.13543 1111.24 2.02588H1125.76L1186.53 131.888V23.3955C1186.53 21.4777 1186.26 19.423 1185.71 17.2312C1185.17 14.9025 1184.48 12.7107 1183.67 10.6559C1182.85 8.46417 1181.89 6.61488 1180.8 5.10804C1179.85 3.46422 1178.96 2.43684 1178.14 2.02588H1197.17C1196.35 2.43684 1195.4 3.46422 1194.31 5.10804C1193.35 6.61488 1192.46 8.46417 1191.65 10.6559C1190.83 12.7107 1190.15 14.9025 1189.6 17.2312C1189.05 19.423 1188.78 21.4777 1188.78 23.3955V122.847Z" fill="white"></path><path d="M1036.91 0C1044.58 0 1051.7 1.93858 1058.27 5.81573C1064.98 9.69289 1070.8 15.024 1075.73 21.809C1081.07 29.0094 1085.04 37.1792 1087.64 46.3182C1090.38 55.3187 1091.75 64.5269 1091.75 73.9429C1091.75 83.3588 1090.38 92.6363 1087.64 101.775C1085.04 110.776 1081.07 118.876 1075.73 126.077C1070.39 133.416 1064.29 138.885 1057.45 142.485C1050.74 146.086 1043.89 147.886 1036.91 147.886C1029.92 147.886 1023.01 146.086 1016.16 142.485C1009.45 138.885 1003.43 133.416 998.086 126.077C992.746 118.876 988.774 110.776 986.173 101.775C983.571 92.6363 982.27 83.3588 982.27 73.9429C982.27 64.5269 983.571 55.3187 986.173 46.3182C988.774 37.1792 992.746 29.0094 998.086 21.809C1003.02 15.024 1008.77 9.69289 1015.34 5.81573C1022.05 1.93858 1029.24 0 1036.91 0ZM1066.07 23.0552C1061.97 16.1317 1057.38 10.9391 1052.31 7.47737C1047.25 4.01562 1042.11 2.28475 1036.91 2.28475C1031.7 2.28475 1026.57 4.01562 1021.5 7.47737C1016.44 10.9391 1011.85 16.1317 1007.74 23.0552C1003.63 30.1172 1000.55 38.0792 998.497 46.9413C996.443 55.6649 995.416 64.6654 995.416 73.9429C995.416 83.2204 996.443 92.2902 998.497 101.152C1000.55 109.876 1003.63 117.769 1007.74 124.831C1011.85 131.754 1016.44 136.947 1021.5 140.408C1026.57 143.87 1031.7 145.601 1036.91 145.601C1042.11 145.601 1047.25 143.87 1052.31 140.408C1057.38 136.947 1061.97 131.754 1066.07 124.831C1070.18 117.769 1073.26 109.876 1075.32 101.152C1077.37 92.2902 1078.4 83.2204 1078.4 73.9429C1078.4 64.6654 1077.37 55.6649 1075.32 46.9413C1073.26 38.0792 1070.18 30.1172 1066.07 23.0552Z" fill="white"></path><path d="M906.029 127.778C906.029 130.107 906.241 132.367 906.666 134.559C907.09 136.751 907.585 138.668 908.151 140.312C908.717 142.367 909.425 144.216 910.273 145.86H887.992C888.841 144.216 889.548 142.367 890.114 140.312C890.68 138.668 891.175 136.751 891.599 134.559C892.024 132.367 892.236 130.107 892.236 127.778V19.9024C892.236 17.7107 892.024 15.5189 891.599 13.3271C891.175 11.1354 890.68 9.21759 890.114 7.57377C889.548 5.65598 888.841 3.80668 887.992 2.02588H926.826C935.314 2.02588 942.387 4.21764 948.046 8.60115C953.705 12.9847 957.949 18.4641 960.779 25.0394C963.608 31.6146 965.023 38.7378 965.023 46.409C965.164 54.0801 963.82 61.2034 960.991 67.7786C958.161 74.3539 953.847 79.8333 948.046 84.2168C942.387 88.6003 935.314 90.7921 926.826 90.7921C920.176 90.7921 915.013 92.1619 911.334 94.9016C907.798 97.6413 906.029 102.299 906.029 108.874V127.778ZM906.029 4.28614V98.1893C908.01 94.6277 910.769 92.1619 914.305 90.7921C917.984 89.2853 922.157 88.5318 926.826 88.5318C932.201 88.5318 936.587 86.4771 939.982 82.3675C943.519 78.121 945.995 72.9156 947.41 66.7512C948.966 60.4499 949.602 53.6692 949.319 46.409C949.178 39.1488 948.188 32.4365 946.349 26.2722C944.509 19.9709 941.892 14.7655 938.497 10.6559C935.243 6.4094 931.353 4.28614 926.826 4.28614H906.029Z" fill="white"></path><path d="M769.946 124.49C769.946 126.408 770.22 128.531 770.768 130.86C771.315 133.052 772 135.244 772.822 137.435C773.643 139.49 774.533 141.34 775.491 142.983C776.587 144.49 777.545 145.449 778.367 145.86H759.472C760.294 145.449 761.183 144.49 762.142 142.983C763.237 141.34 764.196 139.49 765.017 137.435C765.839 135.244 766.523 133.052 767.071 130.86C767.619 128.531 767.893 126.408 767.893 124.49V16.4093C766.523 13.5326 765.017 10.8614 763.374 8.39568C761.731 5.79297 760.02 3.6697 758.24 2.02588H785.35C783.707 2.98478 782.748 5.65598 782.474 10.0395C782.337 14.423 783.433 19.9024 785.76 26.4777L814.924 112.778C813.966 104.696 813.692 97.0934 814.102 89.9702C814.513 82.847 815.403 76.1347 816.772 69.8334C818.415 61.7513 820.675 54.4226 823.55 47.8473C826.425 41.1351 829.437 35.3132 832.586 30.3818C835.736 25.3133 838.885 21.1353 842.034 17.8476C845.183 14.56 847.853 12.1628 850.044 10.6559C849.359 8.1902 848.743 6.13543 848.195 4.49161C847.784 3.6697 847.442 2.84779 847.168 2.02588H868.733C867.911 3.80668 867.227 5.65598 866.679 7.57377C866.132 9.21759 865.652 11.1354 865.242 13.3271C864.831 15.5189 864.625 17.7107 864.625 19.9024V127.778C864.625 130.107 864.831 132.367 865.242 134.559C865.652 136.751 866.132 138.668 866.679 140.312C867.227 142.367 867.911 144.216 868.733 145.86H847.168C847.99 144.216 848.674 142.367 849.222 140.312C849.77 138.668 850.249 136.751 850.66 134.559C851.07 132.367 851.276 130.107 851.276 127.778V19.9024C851.276 17.5737 851.07 15.2449 850.66 12.9162C848.469 14.423 845.868 16.8202 842.855 20.1079C839.843 23.3955 836.831 27.4366 833.819 32.231C830.807 37.0255 827.931 42.6419 825.193 49.0802C822.591 55.3815 820.469 62.4362 818.826 70.2444C817.183 78.0525 816.293 86.5456 816.156 95.7235C816.019 104.902 817.046 114.696 819.237 125.107L822.728 135.792C823.55 137.161 824.303 138.531 824.987 139.901C825.672 140.997 826.357 142.161 827.041 143.394C827.726 144.49 828.41 145.312 829.095 145.86H806.503C807.188 144.764 807.736 142.983 808.147 140.518C808.694 138.052 808.694 135.86 808.147 133.942L769.946 21.7517V124.49Z" fill="white"></path><path d="M728.576 127.677C729.121 129.881 729.869 132.085 730.822 134.29C731.775 136.356 732.728 138.284 733.681 140.075C734.77 142.141 735.859 144.07 736.948 145.861H715.507C715.78 144.759 715.984 143.45 716.12 141.935C716.256 140.695 716.324 139.249 716.324 137.596C716.324 135.943 716.188 134.152 715.916 132.223L706.318 83.2521C704.276 83.9409 701.418 85.1806 697.742 86.9714C694.203 88.6245 690.459 91.0351 686.511 94.2035C682.699 97.3718 678.956 101.367 675.28 106.188C671.605 110.872 668.542 116.588 666.091 123.338C665.274 128.573 664.866 133.188 664.866 137.182C665.002 141.039 665.343 143.932 665.887 145.861H651.797C652.614 144.759 653.635 143.175 654.86 141.108C656.086 138.904 657.311 136.494 658.536 133.876C659.761 131.259 660.918 128.435 662.007 125.404C663.096 122.374 663.981 119.343 664.662 116.313L688.961 7.21255C688.417 6.24828 687.941 5.42176 687.532 4.733C687.124 3.90648 686.783 3.21772 686.511 2.66671C686.103 2.1157 685.694 1.56468 685.286 1.01367H706.727C706.318 2.52895 706.046 4.93963 705.91 8.2457C705.774 11.5518 706.182 15.2022 707.135 19.197L728.576 127.677ZM693.658 18.9904C693.386 17.4751 692.977 16.0287 692.433 14.6512C691.888 13.2737 691.276 11.8961 690.595 10.5186L667.316 114.453C670.175 108.943 673.374 104.259 676.914 100.402C680.589 96.4075 684.265 93.1014 687.94 90.4841C691.616 87.8668 695.019 85.8005 698.15 84.2852C701.418 82.77 704.004 81.6679 705.91 80.9792L693.658 18.9904Z" fill="white"></path><path d="M573.39 2.02588C572.554 3.80668 571.857 5.65598 571.3 7.57377C570.743 9.21759 570.255 11.1354 569.837 13.3271C569.419 15.5189 569.21 17.7107 569.21 19.9024V143.6H603.07C607.946 143.6 612.196 142.846 615.819 141.34C619.442 139.696 622.507 137.915 625.016 135.997C627.942 133.668 630.45 131.066 632.54 128.189L628.987 145.86H551.444C552.28 144.216 552.977 142.367 553.534 140.312C554.092 138.668 554.579 136.751 554.997 134.559C555.415 132.367 555.624 130.107 555.624 127.778V19.9024C555.624 17.7107 555.415 15.5189 554.997 13.3271C554.579 11.1354 554.092 9.21759 553.534 7.57377C552.977 5.65598 552.28 3.80668 551.444 2.02588H573.39Z" fill="white"></path><path d="M486.57 127.677C486.57 130.019 486.773 132.223 487.178 134.29C487.584 136.356 488.057 138.284 488.598 140.075C489.138 142.141 489.814 144.07 490.625 145.861H469.337C470.148 144.07 470.824 142.141 471.365 140.075C471.905 138.284 472.379 136.356 472.784 134.29C473.189 132.223 473.392 130.019 473.392 127.677V19.197C473.392 16.993 473.189 14.8578 472.784 12.7915C472.379 10.5875 471.905 8.59008 471.365 6.79929C470.824 4.733 470.148 2.80446 469.337 1.01367H490.625C489.814 2.80446 489.138 4.733 488.598 6.79929C488.057 8.59008 487.584 10.5875 487.178 12.7915C486.773 14.8578 486.57 16.993 486.57 19.197V127.677Z" fill="white"></path><path d="M423.534 1.01367H441.158C440.882 2.1157 440.329 3.63098 439.499 5.55952C438.808 7.35031 437.91 9.34772 436.804 11.5518C435.836 13.6181 434.8 15.6843 433.694 17.7506C432.588 19.8169 431.62 21.6766 430.791 23.3296C427.888 28.9775 424.916 34.0743 421.875 38.6202C418.972 43.0283 415.378 47.7808 411.093 52.8776L440.122 127.677C440.951 129.744 441.849 131.81 442.817 133.876C443.923 135.805 444.96 137.596 445.927 139.249C446.895 140.902 447.724 142.348 448.415 143.588C449.245 144.69 449.798 145.448 450.074 145.861H426.437C426.575 145.861 426.713 145.31 426.851 144.208C427.128 143.106 427.335 141.728 427.473 140.075C427.612 138.284 427.542 136.287 427.266 134.083C427.128 131.879 426.644 129.744 425.815 127.677L401.348 65.2754C397.339 71.061 393.814 77.742 390.773 85.3184C387.87 92.8948 386.142 102.331 385.589 113.627V127.677C385.589 130.019 385.796 132.223 386.211 134.29C386.626 136.356 387.11 138.284 387.663 140.075C388.216 142.141 388.907 144.07 389.736 145.861H367.965C368.794 144.07 369.485 142.141 370.038 140.075C370.591 138.284 371.075 136.356 371.49 134.29C371.904 132.223 372.112 130.019 372.112 127.677V19.197C372.112 16.993 371.904 14.8578 371.49 12.7915C371.075 10.5875 370.591 8.59008 370.038 6.79929C369.485 4.733 368.794 2.80446 367.965 1.01367H389.736C388.907 2.80446 388.216 4.733 387.663 6.79929C387.11 8.59008 386.626 10.5875 386.211 12.7915C385.796 14.8578 385.589 16.993 385.589 19.197V95.2366C386.695 90.2775 388.077 85.8005 389.736 81.8057C391.395 77.8109 393.261 74.0915 395.334 70.6477C397.408 67.0661 399.689 63.6912 402.177 60.5229C404.665 57.2168 407.361 53.8419 410.263 50.3981C411.508 48.745 413.028 46.8165 414.825 44.6124C416.622 42.4084 418.35 40.0666 420.009 37.587C421.806 35.1075 423.395 32.6968 424.778 30.355C426.16 27.8755 427.059 25.6026 427.473 23.5363C428.164 20.3679 428.303 17.4063 427.888 14.6512C427.612 11.8961 427.128 9.48547 426.437 7.41918C425.745 5.07738 424.778 2.94221 423.534 1.01367Z" fill="white"></path><path d="M343.442 127.677C343.442 130.019 343.655 132.223 344.08 134.29C344.504 136.356 345 138.284 345.566 140.075C346.133 142.141 346.841 144.07 347.69 145.861H325.389C326.238 144.07 326.946 142.141 327.513 140.075C328.079 138.284 328.575 136.356 329 134.29C329.424 132.223 329.637 130.019 329.637 127.677V19.197C329.637 16.993 329.424 14.8578 329 12.7915C328.575 10.5875 328.079 8.59008 327.513 6.79929C326.946 4.733 326.238 2.80446 325.389 1.01367H347.69C346.841 2.80446 346.133 4.733 345.566 6.79929C345 8.59008 344.504 10.5875 344.08 12.7915C343.655 14.8578 343.442 16.993 343.442 19.197V127.677Z" fill="white"></path><path d="M230.465 18.9904L230.263 19.197C229.591 16.993 228.784 14.8578 227.842 12.7915C227.035 10.5875 226.161 8.59008 225.219 6.79929C224.143 4.733 223.067 2.80446 221.991 1.01367H243.177C242.908 2.1157 242.706 3.42435 242.571 4.93963C242.437 6.1794 242.369 7.62581 242.369 9.27884C242.369 10.9319 242.504 12.7227 242.773 14.6512L267.187 139.869L290.995 31.1815C291.399 29.1152 291.802 26.7734 292.206 24.1561C292.61 21.5388 292.879 18.9215 293.013 16.3042C293.282 13.5492 293.349 10.863 293.215 8.2457C293.215 5.49064 292.946 3.07996 292.408 1.01367H306.128C305.321 2.1157 304.312 3.76873 303.101 5.97277C302.025 8.03906 300.882 10.3809 299.671 12.9982C298.461 15.6155 297.25 18.4394 296.04 21.47C294.964 24.5005 294.089 27.5311 293.417 30.5617L268.196 145.448V145.861H254.879L230.465 18.9904Z" fill="white"></path><mask id="path-12-inside-1_2109_57378" fill="white"><path fill-rule="evenodd" clip-rule="evenodd" d="M4.3978 26.4763C5.0953 29.5197 5.79282 32.5633 6.49211 35.6067C6.83158 37.084 7.17056 38.5614 7.50954 40.0387C8.90891 46.1376 10.3082 52.2364 11.7418 58.3267C12.1856 60.2124 13.28 61.8082 14.4116 63.3409C16.084 65.604 18.096 67.5327 20.8343 68.3464C22.5437 68.8444 24.4345 69.1047 26.2167 69.2361C26.5382 69.2598 26.8596 69.2799 27.181 69.2965C31.1834 69.5042 35.1787 69.1883 39.1704 68.8429C39.759 68.7921 40.3482 68.7486 40.9377 68.7086C42.0463 68.6335 45.6143 68.227 45.6143 68.227C45.6143 68.227 42.0173 69.1102 41.4194 69.2766C38.4828 69.9906 34.8212 71.9469 32.239 73.3265C31.6542 73.639 31.1247 73.9219 30.6716 74.154C29.8268 74.619 28.34 75.9206 28.34 75.9206C18.7259 84.2066 21.0315 92.5034 23.0255 99.6789C24.0518 103.372 24.9956 106.768 24.189 109.713C24.144 110.03 24.0989 110.344 24.0542 110.655C23.947 111.399 23.8419 112.13 23.7452 112.863C23.5968 113.992 23.8451 115.01 24.697 115.806C25.3925 116.456 26.1115 117.082 26.8299 117.706L26.9915 117.847C28.5041 119.162 29.0064 120.653 28.2629 122.525C27.79 123.718 27.1378 124.844 26.4892 125.964C26.3746 126.162 26.2601 126.36 26.1468 126.558C25.1527 128.295 24.1493 130.026 23.1457 131.758C21.7147 134.227 20.2834 136.697 18.8794 139.182C18.0275 140.689 17.2184 142.245 16.6091 143.861C15.9119 145.711 16.8961 148.834 19.3811 147.793C21.3473 146.969 22.2543 145.226 22.9004 143.292C23.1273 142.614 23.3069 141.919 23.4865 141.224C23.6107 140.743 23.735 140.262 23.875 139.787C24.804 136.629 26.8031 134.177 29.1761 132.044C30.7813 130.6 32.7536 130.354 34.7247 130.717C36.5265 130.94 38.2114 131.564 39.891 132.265C42.5965 133.395 44.266 135.353 44.9081 138.221C44.9316 138.325 44.9673 138.428 45.0108 138.529C45.0625 138.649 45.1254 138.765 45.1921 138.874C45.2978 139.046 45.4048 139.17 45.5112 139.246C45.5405 139.266 45.5697 139.284 45.5989 139.297C45.8415 139.409 46.078 139.264 46.2852 138.858C46.4691 138.496 46.6277 138.123 46.7865 137.75C46.8976 137.488 47.0087 137.227 47.1285 136.969C47.1697 136.88 47.2071 136.782 47.245 136.683C47.3398 136.434 47.4383 136.176 47.6104 136.02C47.7266 135.935 47.8501 135.879 47.9389 135.895C48.1829 135.938 48.5254 136.222 48.5668 136.451C48.6667 137.003 48.6667 137.587 48.6124 138.148C48.5689 138.596 48.4981 139.041 48.4274 139.487C48.3522 139.961 48.2769 140.435 48.2343 140.912C48.1587 141.747 48.4755 141.933 49.1932 141.513C49.3315 141.432 49.4675 141.349 49.6009 141.265C51.3704 140.144 52.6858 138.702 52.8105 136.384C52.8462 135.727 53.0274 135.062 53.2343 134.432C53.7237 132.937 54.6527 132.318 56.2152 132.254C57.351 132.206 58.4926 132.133 59.6141 131.958C61.0582 131.733 62.127 130.962 62.7648 129.573C64.2659 126.305 65.0565 122.867 65.3433 119.295C65.4234 118.299 65.5037 117.303 65.584 116.306C65.751 114.233 65.9181 112.159 66.0839 110.085C66.1428 109.295 66.5178 108.516 66.8775 107.769C66.9881 107.54 67.0972 107.313 67.1953 107.09C71.3048 97.7442 75.4737 100.923 79.9386 104.327C82.3711 106.181 84.8914 108.103 87.5379 108.103C90.1845 108.103 92.7048 106.181 95.1373 104.327C99.6022 100.923 103.771 97.7442 107.881 107.09C107.979 107.313 108.088 107.54 108.198 107.769C108.558 108.516 108.933 109.295 108.992 110.085C109.158 112.159 109.325 114.233 109.492 116.306C109.572 117.303 109.652 118.299 109.733 119.295C110.019 122.867 110.81 126.305 112.311 129.573C112.949 130.962 114.018 131.733 115.462 131.958C116.583 132.133 117.725 132.206 118.861 132.254C120.423 132.318 121.352 132.937 121.842 134.432C122.049 135.062 122.23 135.727 122.265 136.384C122.39 138.702 123.706 140.144 125.475 141.265C125.608 141.349 125.744 141.432 125.883 141.513C126.6 141.933 126.917 141.747 126.842 140.912C126.799 140.435 126.724 139.961 126.649 139.487C126.578 139.041 126.507 138.596 126.463 138.148C126.409 137.587 126.409 137.003 126.509 136.451C126.55 136.222 126.893 135.938 127.137 135.895C127.226 135.879 127.349 135.935 127.466 136.02C127.638 136.176 127.736 136.434 127.831 136.683C127.869 136.782 127.906 136.88 127.947 136.969C128.067 137.227 128.178 137.488 128.289 137.75C128.448 138.123 128.607 138.496 128.791 138.858C128.998 139.264 129.234 139.409 129.477 139.297C129.506 139.284 129.535 139.266 129.565 139.246C129.671 139.17 129.778 139.046 129.884 138.874C129.95 138.765 130.013 138.649 130.065 138.529C130.109 138.428 130.144 138.325 130.168 138.221C130.81 135.353 132.479 133.395 135.185 132.265C136.864 131.564 138.549 130.94 140.351 130.717C142.322 130.354 144.295 130.6 145.9 132.044C148.273 134.177 150.272 136.629 151.201 139.787C151.341 140.262 151.465 140.743 151.589 141.224C151.769 141.919 151.949 142.614 152.175 143.292C152.822 145.226 153.729 146.969 155.695 147.793C158.18 148.834 159.164 145.711 158.467 143.861C157.857 142.245 157.048 140.689 156.197 139.182C154.792 136.697 153.361 134.228 151.93 131.758C150.927 130.026 149.923 128.295 148.929 126.558C148.816 126.36 148.701 126.162 148.587 125.964C147.938 124.845 147.286 123.718 146.813 122.525C146.07 120.653 146.572 119.162 148.084 117.847L148.246 117.706C148.964 117.082 149.683 116.456 150.379 115.806C151.231 115.01 151.479 113.992 151.331 112.863C151.234 112.13 151.129 111.4 151.022 110.655C150.977 110.344 150.932 110.03 150.887 109.713C150.08 106.768 151.024 103.372 152.05 99.6789C154.044 92.5034 156.35 84.2066 146.736 75.9206C146.736 75.9206 145.249 74.619 144.404 74.154C143.951 73.9219 143.422 73.639 142.837 73.3265C140.255 71.9469 136.593 69.9906 133.656 69.2766C133.059 69.1102 129.462 68.227 129.462 68.227C129.462 68.227 133.03 68.6335 134.138 68.7086C134.728 68.7486 135.317 68.7921 135.905 68.8429C139.897 69.1883 143.893 69.5042 147.895 69.2965C148.216 69.2799 148.538 69.2598 148.859 69.2361C150.641 69.1047 152.532 68.8444 154.242 68.3464C156.98 67.5327 158.992 65.604 160.664 63.3409C161.796 61.8082 162.89 60.2124 163.334 58.3267C164.768 52.2359 166.167 46.1367 167.567 40.0374C167.906 38.5604 168.244 37.0835 168.584 35.6067C169.283 32.5627 169.981 29.5186 170.678 26.4745C171.754 21.7804 172.83 17.0866 173.912 12.3944C174.037 11.8529 174.195 11.3045 174.355 10.752C174.716 9.50467 175.083 8.23614 175.078 6.97687V5.23495C175.078 4.63866 174.896 4.19494 174.637 3.65054C173.996 2.30444 172.845 1.57973 171.502 1.13342C170.599 0.832901 169.692 0.592906 168.782 0.413194C167.504 0.120694 166.204 -0.0468099 164.879 0.0115301C163.324 -0.0034244 161.759 0.152808 160.186 0.479033C159.996 0.518516 159.805 0.558103 159.615 0.597815C159.09 0.681177 158.566 0.771334 158.044 0.867826C154.379 1.54518 150.748 2.40048 147.438 4.22302C141.463 7.5122 135.854 11.3826 130.677 15.7969C127.137 18.8146 123.822 22.1027 120.51 25.3872C119.791 26.0997 119.073 26.812 118.353 27.5214C116.164 29.6769 113.978 31.8725 112.083 34.282C111.842 34.5888 111.601 34.8959 111.36 35.2033C108.897 38.1792 106.602 41.2952 104.314 44.4145C102.607 46.6899 100.912 48.9752 99.226 51.2661C98.9227 51.6781 98.6155 52.0883 98.3081 52.4988C96.483 54.9358 94.6502 57.3833 93.5671 60.2951L93.5611 60.3113C93.5385 60.3723 93.4895 60.3951 93.4341 60.3544C92.702 59.4517 92.6678 59.1647 93.1915 58.2821C94.3559 56.319 93.4212 53.7975 91.2537 53.0987C90.9666 53.0057 90.667 52.9521 90.3533 52.896C90.207 52.8699 90.0577 52.8432 89.9052 52.8117C89.9316 52.6658 89.9444 52.5127 89.957 52.3613C89.984 52.0377 90.0103 51.7215 90.1678 51.4986C91.0867 50.1998 92.02 48.8968 93.0845 47.7186C94.1361 46.5547 95.2172 45.4172 96.2983 44.2797C97.5819 42.9292 98.8654 41.5788 100.099 40.1845C101.783 38.2801 103.488 36.3442 104.83 34.1988C105.854 32.5594 106.664 30.7827 107.473 29.0076C107.783 28.3276 108.092 27.6478 108.414 26.9761C108.493 26.8121 108.571 26.6524 108.648 26.4947C108.913 25.9527 109.166 25.4348 109.396 24.8523C109.557 24.4453 109.759 23.3997 109.156 23.1959C108.714 23.0468 108.238 23.4948 107.979 24.2107C107.591 25.2841 107.233 26.3719 106.924 27.4712C106.115 30.3514 105.201 33.2129 103.356 35.5937C101.388 38.1337 99.2774 40.5691 97.1184 42.9484C96.7646 43.3383 96.4091 43.7266 96.0537 44.1148C94.0429 46.3113 92.0347 48.5048 90.3419 50.9719C90.2892 51.0479 90.2164 51.1099 90.1458 51.1702C90.115 51.1964 90.0846 51.2223 90.0565 51.2489C89.4297 50.756 88.4887 50.5033 87.5379 50.4934C86.5872 50.5033 85.6462 50.756 85.0194 51.2489C84.9913 51.2223 84.9609 51.1964 84.9301 51.1702C84.8595 51.1099 84.7867 51.0479 84.734 50.9719C83.0412 48.5048 81.033 46.3113 79.0222 44.1148C78.6668 43.7266 78.3113 43.3383 77.9575 42.9484C75.7985 40.5691 73.6881 38.1337 71.7203 35.5937C69.8753 33.2129 68.9606 30.3514 68.1515 27.4712C67.8433 26.3719 67.4852 25.2841 67.097 24.2107C66.8378 23.4948 66.3615 23.0468 65.9199 23.1959C65.3169 23.3997 65.5194 24.4453 65.68 24.8523C65.9099 25.4348 66.163 25.9527 66.4279 26.4947C66.505 26.6524 66.583 26.8121 66.6618 26.9761C66.9835 27.6478 67.2933 28.3276 67.6032 29.0076C68.4121 30.7827 69.2218 32.5594 70.2463 34.1988C71.5876 36.3442 73.2928 38.2801 74.9766 40.1845C76.2105 41.5788 77.4939 42.9292 78.7775 44.2797C79.8586 45.4171 80.9398 46.5547 81.9914 47.7186C83.0559 48.8968 83.9892 50.1998 84.9081 51.4986C85.0656 51.7215 85.0919 52.0377 85.1189 52.3613C85.1315 52.5127 85.1443 52.6658 85.1707 52.8117C85.0182 52.8432 84.8689 52.8699 84.7226 52.896C84.4089 52.9521 84.1093 53.0057 83.8222 53.0987C81.6547 53.7975 80.72 56.319 81.8844 58.2821C82.4081 59.1647 82.3738 59.4517 81.6418 60.3544C81.5863 60.3951 81.5374 60.3723 81.5148 60.3113L81.5088 60.2951C80.4257 57.3833 78.5929 54.9358 76.7678 52.4988C76.4604 52.0883 76.1532 51.6781 75.8499 51.2661C74.1636 48.9752 72.4693 46.6899 70.762 44.4145C68.4741 41.2952 66.1787 38.1792 63.7156 35.2033C63.4752 34.8959 63.2344 34.5888 62.9932 34.282C61.0982 31.8725 58.9121 29.6769 56.7232 27.5214C56.0029 26.8121 55.2846 26.0998 54.5662 25.3873C51.2543 22.1027 47.9388 18.8146 44.3987 15.7969C39.2218 11.3826 33.6125 7.5122 27.6379 4.22302C24.3274 2.40048 20.6973 1.54518 17.0315 0.867826C16.5098 0.771334 15.9861 0.681177 15.4609 0.597815C15.2705 0.558103 15.0801 0.518516 14.8896 0.479033C13.317 0.152808 11.7524 -0.0034244 10.1971 0.0115301C8.87235 -0.0468099 7.57236 0.120694 6.29376 0.413194C5.3834 0.592906 4.47671 0.832901 3.574 1.13342C2.23125 1.57973 1.07971 2.30444 0.439014 3.65054C0.179924 4.19494 -0.00190192 4.63866 -0.00190192 5.23495V6.97687C-0.00693583 8.23614 0.360032 9.50466 0.720873 10.752C0.880706 11.3045 1.03934 11.8529 1.1639 12.3944C2.24605 17.0872 3.32189 21.7816 4.3978 26.4763Z"></path></mask><path d="M95.4417 60.9921C95.8267 59.9568 95.2994 58.8054 94.2641 58.4205C93.2288 58.0355 92.0774 58.5628 91.6925 59.5981L95.4417 60.9921ZM91.6864 59.6143C91.3015 60.6497 91.8288 61.801 92.8641 62.186C93.8994 62.5709 95.0508 62.0436 95.4357 61.0083L91.6864 59.6143ZM25.679 119.356C26.5124 120.081 27.7757 119.993 28.5006 119.16C29.2255 118.326 29.1375 117.063 28.3041 116.338L25.679 119.356ZM28.1424 116.197C27.309 115.473 26.0457 115.56 25.3208 116.394C24.5959 117.227 24.6839 118.491 25.5174 119.216L28.1424 116.197ZM91.6925 59.5981L91.6864 59.6143L95.4357 61.0083L95.4417 60.9921L91.6925 59.5981ZM28.3041 116.338L28.1424 116.197L25.5174 119.216L25.679 119.356L28.3041 116.338ZM6.49211 35.6067L2.59369 36.5024L2.59371 36.5025L6.49211 35.6067ZM4.3978 26.4763L0.498881 27.3698L0.498881 27.3698L4.3978 26.4763ZM7.50954 40.0387L3.61085 40.9333L3.61085 40.9333L7.50954 40.0387ZM11.7418 58.3267L15.6354 57.4104L15.6354 57.4103L11.7418 58.3267ZM14.4116 63.3409L11.1936 65.7167L11.1947 65.7181L14.4116 63.3409ZM20.8343 68.3464L19.6949 72.1807C19.7017 72.1827 19.7086 72.1848 19.7154 72.1867L20.8343 68.3464ZM26.2167 69.2361L25.9224 73.2253L25.9228 73.2253L26.2167 69.2361ZM27.181 69.2965L27.3882 65.3019L27.3882 65.3019L27.181 69.2965ZM39.1704 68.8429L38.8263 64.8578L38.8256 64.8578L39.1704 68.8429ZM40.9377 68.7086L41.2082 72.6995L41.2082 72.6995L40.9377 68.7086ZM45.6143 68.227L46.5681 72.1116C48.6175 71.6084 49.9235 69.5996 49.5517 67.5223C49.1799 65.445 47.2582 64.0138 45.1615 64.2527L45.6143 68.227ZM41.4194 69.2766L42.3644 73.1634C42.4072 73.153 42.4499 73.1419 42.4924 73.1301L41.4194 69.2766ZM32.239 73.3265L34.124 76.8545L34.124 76.8545L32.239 73.3265ZM30.6716 74.154L28.8476 70.5941C28.8124 70.6121 28.7774 70.6307 28.7428 70.6498L30.6716 74.154ZM28.34 75.9206L30.9514 78.9506C30.9591 78.9438 30.9669 78.9371 30.9747 78.9303L28.34 75.9206ZM23.0255 99.6789L19.1716 100.75L19.1716 100.75L23.0255 99.6789ZM24.189 109.713L20.3311 108.656C20.2866 108.819 20.2523 108.984 20.2287 109.151L24.189 109.713ZM24.0542 110.655L28.0134 111.224L28.0134 111.224L24.0542 110.655ZM23.7452 112.863L19.7796 112.34L19.7793 112.342L23.7452 112.863ZM24.697 115.806L21.9652 118.728L21.9656 118.729L24.697 115.806ZM26.8299 117.706L29.4549 114.688L29.4547 114.688L26.8299 117.706ZM26.9915 117.847L24.3665 120.865L24.3676 120.866L26.9915 117.847ZM28.2629 122.525L24.5451 121.05L24.5446 121.051L28.2629 122.525ZM26.4892 125.964L29.9508 127.969L29.9508 127.969L26.4892 125.964ZM26.1468 126.558L22.6761 124.569L22.6752 124.571L26.1468 126.558ZM23.1457 131.758L19.6849 129.752L19.6849 129.752L23.1457 131.758ZM18.8794 139.182L22.3614 141.151L22.3619 141.15L18.8794 139.182ZM16.6091 143.861L12.8664 142.449L12.866 142.45L16.6091 143.861ZM19.3811 147.793L17.835 144.103L17.835 144.103L19.3811 147.793ZM22.9004 143.292L19.1068 142.024L19.1067 142.025L22.9004 143.292ZM23.4865 141.224L19.6137 140.223L19.6137 140.223L23.4865 141.224ZM23.875 139.787L27.7123 140.916L27.7124 140.916L23.875 139.787ZM29.1761 132.044L31.8498 135.02L31.8518 135.018L29.1761 132.044ZM34.7247 130.717L33.9997 134.651C34.0773 134.665 34.1552 134.677 34.2335 134.687L34.7247 130.717ZM39.891 132.265L38.3494 135.956L38.3501 135.956L39.891 132.265ZM44.9081 138.221L41.0048 139.095L41.0059 139.099L44.9081 138.221ZM45.0108 138.529L48.6823 136.941L48.6822 136.941L45.0108 138.529ZM45.1921 138.874L41.7786 140.959L41.7824 140.965L45.1921 138.874ZM45.5112 139.246L43.1955 142.507L43.1959 142.508L45.5112 139.246ZM45.5989 139.297L47.2705 135.663L47.2704 135.663L45.5989 139.297ZM46.2852 138.858L49.8491 140.674L49.8502 140.672L46.2852 138.858ZM46.7865 137.75L43.1053 136.185L43.1052 136.185L46.7865 137.75ZM47.1285 136.969L50.7552 138.657L50.7585 138.65L47.1285 136.969ZM47.245 136.683L50.9824 138.108L50.9824 138.108L47.245 136.683ZM47.6104 136.02L45.2378 132.8C45.1302 132.879 45.0267 132.964 44.9277 133.053L47.6104 136.02ZM47.9389 135.895L48.6338 131.955L48.6205 131.953L47.9389 135.895ZM48.5668 136.451L44.6302 137.161L44.6309 137.165L48.5668 136.451ZM48.6124 138.148L52.5937 138.535L52.5939 138.532L48.6124 138.148ZM48.4274 139.487L44.4768 138.86L44.4768 138.86L48.4274 139.487ZM48.2343 140.912L52.218 141.272L52.2184 141.268L48.2343 140.912ZM49.1932 141.513L51.2151 144.964L51.2168 144.963L49.1932 141.513ZM49.6009 141.265L47.4605 137.885L47.4605 137.885L49.6009 141.265ZM52.8105 136.384L48.8164 136.167L48.8163 136.169L52.8105 136.384ZM53.2343 134.432L57.0346 135.68L57.0358 135.677L53.2343 134.432ZM56.2152 132.254L56.3803 136.25L56.3818 136.25L56.2152 132.254ZM59.6141 131.958L58.9975 128.006L58.9972 128.006L59.6141 131.958ZM62.7648 129.573L59.13 127.903L59.1297 127.904L62.7648 129.573ZM65.3433 119.295L61.3562 118.975L61.3561 118.975L65.3433 119.295ZM65.584 116.306L69.571 116.627L69.571 116.627L65.584 116.306ZM66.0839 110.085L70.0712 110.404C70.0717 110.396 70.0723 110.389 70.0728 110.382L66.0839 110.085ZM66.8775 107.769L70.4814 109.505L70.4814 109.505L66.8775 107.769ZM67.1953 107.09L70.8569 108.7L70.8569 108.7L67.1953 107.09ZM79.9386 104.327L82.3638 101.146L82.3638 101.146L79.9386 104.327ZM95.1373 104.327L92.7121 101.146L92.7121 101.146L95.1373 104.327ZM107.881 107.09L104.219 108.7L104.219 108.7L107.881 107.09ZM108.198 107.769L111.802 106.034L111.802 106.034L108.198 107.769ZM108.992 110.085L105.003 110.382C105.004 110.389 105.004 110.396 105.005 110.404L108.992 110.085ZM109.492 116.306L105.505 116.627L105.505 116.627L109.492 116.306ZM109.733 119.295L113.72 118.975L113.72 118.975L109.733 119.295ZM112.311 129.573L115.946 127.904L115.946 127.903L112.311 129.573ZM115.462 131.958L116.079 128.006L116.078 128.006L115.462 131.958ZM118.861 132.254L118.694 136.25L118.696 136.25L118.861 132.254ZM121.842 134.432L118.04 135.677L118.041 135.68L121.842 134.432ZM122.265 136.384L126.26 136.169L126.26 136.167L122.265 136.384ZM125.475 141.265L127.615 137.885L127.615 137.885L125.475 141.265ZM125.883 141.513L123.859 144.963L123.861 144.964L125.883 141.513ZM126.842 140.912L122.857 141.268L122.858 141.272L126.842 140.912ZM126.649 139.487L122.698 140.114L122.698 140.114L126.649 139.487ZM126.463 138.148L122.482 138.532L122.482 138.535L126.463 138.148ZM126.509 136.451L130.445 137.165L130.446 137.161L126.509 136.451ZM127.137 135.895L126.455 131.953L126.442 131.955L127.137 135.895ZM127.466 136.02L130.148 133.053C130.049 132.964 129.946 132.879 129.838 132.8L127.466 136.02ZM127.831 136.683L124.093 138.108L124.094 138.108L127.831 136.683ZM127.947 136.969L124.317 138.65L124.321 138.657L127.947 136.969ZM128.289 137.75L124.608 139.314L124.608 139.314L128.289 137.75ZM128.791 138.858L125.226 140.672L125.227 140.674L128.791 138.858ZM129.477 139.297L127.805 135.663L127.805 135.663L129.477 139.297ZM129.565 139.246L131.88 142.507L131.88 142.507L129.565 139.246ZM129.884 138.874L133.293 140.965L133.297 140.959L129.884 138.874ZM130.065 138.529L133.737 140.117L133.737 140.116L130.065 138.529ZM130.168 138.221L134.07 139.099L134.071 139.095L130.168 138.221ZM135.185 132.265L136.726 135.956L136.726 135.956L135.185 132.265ZM140.351 130.717L140.842 134.687C140.921 134.677 140.999 134.665 141.076 134.651L140.351 130.717ZM145.9 132.044L143.224 135.018L143.226 135.02L145.9 132.044ZM151.201 139.787L147.364 140.916L147.364 140.916L151.201 139.787ZM151.589 141.224L147.717 142.225L147.717 142.225L151.589 141.224ZM152.175 143.292L155.969 142.025L155.969 142.024L152.175 143.292ZM155.695 147.793L157.241 144.103L157.241 144.103L155.695 147.793ZM158.467 143.861L162.21 142.45L162.21 142.449L158.467 143.861ZM156.197 139.182L152.714 141.15L152.714 141.151L156.197 139.182ZM151.93 131.758L148.469 133.764L148.469 133.764L151.93 131.758ZM148.929 126.558L152.401 124.571L152.4 124.569L148.929 126.558ZM148.587 125.964L152.048 123.96L152.048 123.96L148.587 125.964ZM146.813 122.525L150.531 121.051L150.531 121.05L146.813 122.525ZM148.084 117.847L150.708 120.866L150.709 120.865L148.084 117.847ZM148.246 117.706L145.621 114.688L145.621 114.688L148.246 117.706ZM150.379 115.806L153.11 118.729L153.111 118.728L150.379 115.806ZM151.331 112.863L155.297 112.342L155.296 112.34L151.331 112.863ZM151.022 110.655L154.981 110.085L154.981 110.085L151.022 110.655ZM150.887 109.713L154.847 109.151C154.824 108.984 154.789 108.819 154.745 108.656L150.887 109.713ZM152.05 99.6789L155.904 100.75L155.904 100.75L152.05 99.6789ZM146.736 75.9206L144.101 78.9303C144.109 78.9371 144.117 78.9438 144.125 78.9506L146.736 75.9206ZM144.404 74.154L146.333 70.6498C146.298 70.6307 146.263 70.6121 146.228 70.5941L144.404 74.154ZM142.837 73.3265L144.722 69.7985L144.722 69.7985L142.837 73.3265ZM133.656 69.2766L132.584 73.1301C132.626 73.1419 132.669 73.153 132.712 73.1634L133.656 69.2766ZM129.462 68.227L129.914 64.2527C127.818 64.0138 125.896 65.445 125.524 67.5223C125.152 69.5996 126.458 71.6084 128.508 72.1116L129.462 68.227ZM134.138 68.7086L133.868 72.6995L133.868 72.6995L134.138 68.7086ZM135.905 68.8429L136.25 64.8578L136.25 64.8578L135.905 68.8429ZM147.895 69.2965L147.688 65.3019L147.688 65.3019L147.895 69.2965ZM148.859 69.2361L149.153 73.2253L149.153 73.2253L148.859 69.2361ZM154.242 68.3464L155.36 72.1867C155.367 72.1848 155.374 72.1827 155.381 72.1807L154.242 68.3464ZM160.664 63.3409L163.881 65.7181L163.882 65.7167L160.664 63.3409ZM163.334 58.3267L159.44 57.4103L159.44 57.4104L163.334 58.3267ZM167.567 40.0374L171.465 40.9319L171.465 40.9319L167.567 40.0374ZM168.584 35.6067L172.482 36.5025L172.482 36.5024L168.584 35.6067ZM170.678 26.4745L174.577 27.368L174.577 27.368L170.678 26.4745ZM173.912 12.3944L177.81 13.2932L177.81 13.2911L173.912 12.3944ZM174.355 10.752L178.197 11.8636L178.197 11.8636L174.355 10.752ZM175.078 6.97687H171.078C171.078 6.9822 171.078 6.98753 171.078 6.99286L175.078 6.97687ZM174.637 3.65054L178.249 1.93158L178.249 1.93149L174.637 3.65054ZM171.502 1.13342L170.238 4.92864L170.24 4.92924L171.502 1.13342ZM168.782 0.413194L167.89 4.31246C167.929 4.32138 167.968 4.32971 168.007 4.33746L168.782 0.413194ZM164.879 0.0115301L164.84 4.01135C164.912 4.01203 164.983 4.0108 165.055 4.00766L164.879 0.0115301ZM160.186 0.479033L160.998 4.39574L160.999 4.39565L160.186 0.479033ZM159.615 0.597815L160.242 4.54835C160.305 4.53828 160.369 4.52669 160.432 4.51357L159.615 0.597815ZM158.044 0.867826L158.771 4.80124L158.772 4.80111L158.044 0.867826ZM147.438 4.22302L149.367 7.7271L149.367 7.72709L147.438 4.22302ZM130.677 15.7969L133.272 18.8409L133.272 18.8406L130.677 15.7969ZM120.51 25.3872L117.693 22.5471L117.693 22.5471L120.51 25.3872ZM118.353 27.5214L121.159 30.3715L121.159 30.3715L118.353 27.5214ZM112.083 34.282L108.939 31.8093L108.938 31.8098L112.083 34.282ZM111.36 35.2033L114.442 37.7538C114.465 37.7254 114.488 37.6967 114.511 37.6677L111.36 35.2033ZM104.314 44.4145L107.513 46.8152C107.522 46.8036 107.531 46.792 107.539 46.7803L104.314 44.4145ZM99.226 51.2661L102.447 53.6374L102.447 53.6373L99.226 51.2661ZM98.3081 52.4988L95.1064 50.1011L95.1064 50.1011L98.3081 52.4988ZM93.5671 60.2951L89.8181 58.9006L89.8179 58.9011L93.5671 60.2951ZM93.5611 60.3113L89.8118 58.9174L89.8106 58.9207L93.5611 60.3113ZM93.4341 60.3544L90.3273 62.8739C90.5425 63.1393 90.7908 63.376 91.0662 63.5783L93.4341 60.3544ZM93.1915 58.2821L96.6315 60.3233L96.6319 60.3227L93.1915 58.2821ZM91.2537 53.0987L90.0212 56.9041L90.0262 56.9057L91.2537 53.0987ZM90.3533 52.896L91.0575 48.9585L91.0574 48.9585L90.3533 52.896ZM89.9052 52.8117L85.969 52.1001C85.5829 54.2359 86.9706 56.29 89.0962 56.729L89.9052 52.8117ZM89.957 52.3613L85.9708 52.0292L85.9708 52.0293L89.957 52.3613ZM90.1678 51.4986L86.9025 49.1882L86.9009 49.1905L90.1678 51.4986ZM93.0845 47.7186L90.1165 45.0369L90.1165 45.037L93.0845 47.7186ZM96.2983 44.2797L93.399 41.524L93.399 41.524L96.2983 44.2797ZM100.099 40.1845L103.095 42.8352L103.096 42.834L100.099 40.1845ZM104.83 34.1988L108.221 36.3193L108.222 36.3186L104.83 34.1988ZM107.473 29.0076L103.833 27.3489L103.833 27.3489L107.473 29.0076ZM108.414 26.9761L104.809 25.2437L104.806 25.2483L108.414 26.9761ZM108.648 26.4947L112.242 28.2511L112.242 28.251L108.648 26.4947ZM109.396 24.8523L113.117 26.3208L113.117 26.3207L109.396 24.8523ZM109.156 23.1959L107.876 26.9855L107.876 26.9855L109.156 23.1959ZM107.979 24.2107L104.218 22.8489L104.217 22.8506L107.979 24.2107ZM106.924 27.4712L110.775 28.5529L110.776 28.5511L106.924 27.4712ZM103.356 35.5937L100.194 33.1434L100.193 33.144L103.356 35.5937ZM97.1184 42.9484L100.081 45.6365L100.081 45.6363L97.1184 42.9484ZM96.0537 44.1148L99.004 46.8159L99.0041 46.8158L96.0537 44.1148ZM90.3419 50.9719L93.629 53.2512C93.6327 53.2458 93.6364 53.2404 93.6401 53.235L90.3419 50.9719ZM90.1458 51.1702L92.7411 54.2139L92.7412 54.2138L90.1458 51.1702ZM90.0565 51.2489L87.584 54.3932C89.1415 55.6179 91.3609 55.5179 92.8019 54.1579L90.0565 51.2489ZM87.5379 50.4934L87.5795 46.4936C87.5518 46.4933 87.5241 46.4933 87.4964 46.4936L87.5379 50.4934ZM85.0194 51.2489L82.274 54.1579C83.715 55.5179 85.9344 55.6179 87.4919 54.3932L85.0194 51.2489ZM84.9301 51.1702L82.3347 54.2138L82.3348 54.2139L84.9301 51.1702ZM84.734 50.9719L81.4358 53.235C81.4395 53.2404 81.4432 53.2458 81.4469 53.2512L84.734 50.9719ZM79.0222 44.1148L76.0718 46.8158L76.0718 46.8158L79.0222 44.1148ZM77.9575 42.9484L74.9952 45.6363L74.9953 45.6365L77.9575 42.9484ZM71.7203 35.5937L74.8825 33.144L74.882 33.1434L71.7203 35.5937ZM68.1515 27.4712L64.3001 28.551L64.3006 28.5529L68.1515 27.4712ZM67.097 24.2107L70.8587 22.8506L70.8581 22.8489L67.097 24.2107ZM65.9199 23.1959L64.6398 19.4063L64.6397 19.4063L65.9199 23.1959ZM65.68 24.8523L61.9593 26.3207L61.9593 26.3208L65.68 24.8523ZM66.4279 26.4947L62.8341 28.251L62.8342 28.2511L66.4279 26.4947ZM66.6618 26.9761L70.2694 25.2483L70.2672 25.2437L66.6618 26.9761ZM67.6032 29.0076L71.2431 27.3488L71.243 27.3488L67.6032 29.0076ZM70.2463 34.1988L66.8542 36.3186L66.8546 36.3193L70.2463 34.1988ZM74.9766 40.1845L71.98 42.834L71.981 42.8352L74.9766 40.1845ZM78.7775 44.2797L81.6769 41.524L81.6768 41.524L78.7775 44.2797ZM81.9914 47.7186L84.9594 45.037L84.9594 45.0369L81.9914 47.7186ZM84.9081 51.4986L88.175 49.1904L88.1734 49.1882L84.9081 51.4986ZM85.1189 52.3613L89.1051 52.0293L89.1051 52.0292L85.1189 52.3613ZM85.1707 52.8117L85.9797 56.729C88.1053 56.29 89.493 54.2359 89.1069 52.1001L85.1707 52.8117ZM84.7226 52.896L84.0185 48.9585L84.0184 48.9585L84.7226 52.896ZM83.8222 53.0987L85.0497 56.9057L85.0547 56.9041L83.8222 53.0987ZM81.8844 58.2821L78.444 60.3227L78.4444 60.3233L81.8844 58.2821ZM81.6418 60.3544L84.0096 63.5783C84.2851 63.376 84.5334 63.1393 84.7486 62.8739L81.6418 60.3544ZM81.5148 60.3113L85.2653 58.9207L85.2641 58.9174L81.5148 60.3113ZM81.5088 60.2951L85.258 58.9011L85.2578 58.9006L81.5088 60.2951ZM76.7678 52.4988L79.9695 50.1011L79.9695 50.1011L76.7678 52.4988ZM75.8499 51.2661L72.6285 53.6373L72.6286 53.6374L75.8499 51.2661ZM70.762 44.4145L67.5366 46.7803C67.5452 46.792 67.5538 46.8036 67.5625 46.8152L70.762 44.4145ZM63.7156 35.2033L60.5649 37.6677C60.5876 37.6967 60.6107 37.7254 60.6342 37.7538L63.7156 35.2033ZM62.9932 34.282L66.1377 31.8098L66.1373 31.8093L62.9932 34.282ZM56.7232 27.5214L53.9166 30.3715L53.9166 30.3715L56.7232 27.5214ZM54.5662 25.3873L57.3829 22.5472L57.3829 22.5472L54.5662 25.3873ZM44.3987 15.7969L41.8034 18.8406L41.8038 18.8409L44.3987 15.7969ZM27.6379 4.22302L25.7088 7.7271L25.7088 7.7271L27.6379 4.22302ZM17.0315 0.867826L16.304 4.80111L16.3047 4.80124L17.0315 0.867826ZM15.4609 0.597815L14.6444 4.51358C14.7072 4.52669 14.7704 4.53828 14.8338 4.54835L15.4609 0.597815ZM14.8896 0.479033L14.0772 4.39565L14.0776 4.39574L14.8896 0.479033ZM10.1971 0.0115301L10.0211 4.00766C10.0925 4.0108 10.164 4.01203 10.2355 4.01135L10.1971 0.0115301ZM6.29376 0.413194L7.06845 4.33746C7.10768 4.32971 7.1468 4.32138 7.18578 4.31246L6.29376 0.413194ZM3.574 1.13342L4.83566 4.92924L4.83748 4.92864L3.574 1.13342ZM0.439014 3.65054L-3.17274 1.93147L-3.17281 1.9316L0.439014 3.65054ZM-0.00190192 6.97687L3.99807 6.99286C3.99809 6.98753 3.9981 6.9822 3.9981 6.97687L-0.00190192 6.97687ZM0.720873 10.752L4.56332 9.64045L4.56332 9.64045L0.720873 10.752ZM1.1639 12.3944L-2.7343 13.2911L-2.73381 13.2932L1.1639 12.3944ZM10.3905 34.7109C9.69153 31.6689 8.99426 28.6264 8.29672 25.5827L0.498881 27.3698C1.19633 30.4131 1.89411 33.4578 2.59369 36.5024L10.3905 34.7109ZM11.4082 39.1442C11.0693 37.6669 10.7301 36.1889 10.3905 34.7109L2.59371 36.5025C2.93301 37.9791 3.27184 39.4558 3.61085 40.9333L11.4082 39.1442ZM15.6354 57.4103C14.2048 51.3327 12.808 45.2449 11.4082 39.1442L3.61085 40.9333C5.0098 47.0303 6.41164 53.14 7.84821 59.2432L15.6354 57.4103ZM17.6296 60.965C16.4923 59.4246 15.8718 58.4149 15.6354 57.4104L7.84817 59.2431C8.49934 62.01 10.0678 64.1918 11.1936 65.7167L17.6296 60.965ZM21.9736 64.5121C20.4324 64.0541 19.0694 62.9135 17.6285 60.9636L11.1947 65.7181C13.0985 68.2945 15.7596 71.0113 19.6949 72.1807L21.9736 64.5121ZM26.5109 65.247C24.8798 65.1267 23.2932 64.8965 21.9531 64.5061L19.7154 72.1867C21.7942 72.7924 23.9893 73.0827 25.9224 73.2253L26.5109 65.247ZM27.3882 65.3019C27.0947 65.2867 26.8022 65.2684 26.5105 65.247L25.9228 73.2253C26.2741 73.2512 26.6245 73.2731 26.9738 73.2912L27.3882 65.3019ZM38.8256 64.8578C34.8165 65.2047 31.0786 65.4934 27.3882 65.3019L26.9737 73.2912C31.2882 73.515 35.541 73.1719 39.5152 72.828L38.8256 64.8578ZM40.6673 64.7178C40.0622 64.7588 39.447 64.8042 38.8263 64.8578L39.5145 72.8281C40.071 72.7801 40.6342 72.7383 41.2082 72.6995L40.6673 64.7178ZM45.6143 68.227C45.1615 64.2527 45.1615 64.2527 45.1615 64.2527C45.1615 64.2527 45.1615 64.2527 45.1614 64.2527C45.1614 64.2527 45.1612 64.2527 45.1611 64.2528C45.1607 64.2528 45.1601 64.2529 45.1593 64.253C45.1578 64.2531 45.1554 64.2534 45.1521 64.2538C45.1456 64.2545 45.1359 64.2556 45.123 64.2571C45.0972 64.26 45.0591 64.2643 45.0099 64.2699C44.9117 64.281 44.7696 64.297 44.5956 64.3164C44.2472 64.3553 43.772 64.4079 43.2633 64.4626C42.2071 64.5764 41.1255 64.6867 40.6673 64.7178L41.2082 72.6995C41.8585 72.6554 43.1152 72.5249 44.1201 72.4166C44.642 72.3604 45.1281 72.3067 45.4833 72.267C45.6611 72.2471 45.8064 72.2308 45.9076 72.2194C45.9582 72.2136 45.9978 72.2092 46.0248 72.2061C46.0384 72.2046 46.0488 72.2034 46.0559 72.2026C46.0594 72.2022 46.0621 72.2019 46.064 72.2016C46.0649 72.2015 46.0657 72.2015 46.0662 72.2014C46.0664 72.2014 46.0666 72.2013 46.0668 72.2013C46.0668 72.2013 46.0669 72.2013 46.0669 72.2013C46.067 72.2013 46.067 72.2013 45.6143 68.227ZM42.4924 73.1301C42.7209 73.0664 43.6933 72.8225 44.7041 72.5717C45.1884 72.4516 45.6546 72.3365 45.9999 72.2514C46.1725 72.2089 46.3148 72.1739 46.4138 72.1495C46.4632 72.1374 46.5019 72.1279 46.5282 72.1214C46.5413 72.1182 46.5513 72.1157 46.558 72.1141C46.5614 72.1133 46.5639 72.1126 46.5656 72.1122C46.5664 72.112 46.5671 72.1119 46.5675 72.1118C46.5677 72.1117 46.5678 72.1117 46.5679 72.1117C46.568 72.1116 46.568 72.1116 46.568 72.1116C46.5681 72.1116 46.5681 72.1116 45.6143 68.227C44.6604 64.3424 44.6604 64.3424 44.6604 64.3424C44.6604 64.3424 44.6603 64.3424 44.6602 64.3424C44.6601 64.3425 44.6599 64.3425 44.6597 64.3426C44.6593 64.3427 44.6586 64.3428 44.6577 64.3431C44.6559 64.3435 44.6533 64.3442 44.6498 64.345C44.6429 64.3467 44.6326 64.3492 44.6192 64.3525C44.5925 64.3591 44.5533 64.3687 44.5033 64.381C44.4033 64.4056 44.2598 64.4409 44.0858 64.4838C43.738 64.5695 43.2676 64.6856 42.778 64.8071C41.8408 65.0395 40.7158 65.3204 40.3465 65.4232L42.4924 73.1301ZM34.124 76.8545C36.8538 75.3961 40.026 73.7319 42.3644 73.1634L40.4745 65.3899C36.9397 66.2492 32.7887 68.4977 30.3541 69.7985L34.124 76.8545ZM32.4955 77.714C32.9857 77.4628 33.5486 77.162 34.124 76.8545L30.3541 69.7985C29.7598 70.116 29.2637 70.3809 28.8476 70.5941L32.4955 77.714ZM28.34 75.9206C30.9747 78.9303 30.9745 78.9304 30.9744 78.9306C30.9743 78.9306 30.9742 78.9307 30.9741 78.9308C30.974 78.9309 30.9738 78.9311 30.9737 78.9312C30.9735 78.9314 30.9733 78.9315 30.9733 78.9315C30.9731 78.9316 30.9734 78.9315 30.9739 78.931C30.975 78.93 30.9775 78.9278 30.9812 78.9246C30.9887 78.9181 31.0013 78.9072 31.0184 78.8924C31.0527 78.8628 31.105 78.8179 31.1713 78.7618C31.3049 78.6486 31.4896 78.4944 31.6944 78.3298C31.9022 78.1629 32.1126 77.9997 32.3006 77.8633C32.5092 77.7119 32.6046 77.656 32.6004 77.6583L28.7428 70.6498C27.9784 71.0705 27.1492 71.7194 26.6835 72.0935C26.4111 72.3125 26.1713 72.5128 25.9997 72.6581C25.9133 72.7313 25.8429 72.7917 25.7926 72.8351C25.7674 72.8568 25.7472 72.8744 25.7325 72.8872C25.7251 72.8936 25.7191 72.8988 25.7146 72.9028C25.7123 72.9047 25.7104 72.9064 25.7088 72.9078C25.708 72.9085 25.7073 72.9091 25.7068 72.9096C25.7065 72.9098 25.7062 72.9101 25.7059 72.9103C25.7058 72.9104 25.7056 72.9106 25.7056 72.9106C25.7054 72.9108 25.7052 72.9109 28.34 75.9206ZM26.8795 98.6079C25.8505 94.905 25.0161 91.7445 25.3122 88.59C25.5829 85.7059 26.8533 82.4825 30.9514 78.9506L25.7286 72.8907C20.2126 77.6447 17.8287 82.7127 17.3472 87.8424C16.8911 92.7016 18.2066 97.2772 19.1716 100.75L26.8795 98.6079ZM28.0469 110.77C28.6573 108.541 28.5558 106.33 28.2463 104.357C27.9403 102.406 27.378 100.402 26.8795 98.6079L19.1716 100.75C19.6994 102.649 20.1221 104.189 20.343 105.597C20.5602 106.981 20.5273 107.94 20.3311 108.656L28.0469 110.77ZM28.0134 111.224C28.0581 110.914 28.1037 110.596 28.1494 110.275L20.2287 109.151C20.1843 109.464 20.1398 109.773 20.095 110.085L28.0134 111.224ZM27.7109 113.386C27.8039 112.68 27.9057 111.973 28.0134 111.224L20.095 110.085C19.9884 110.826 19.8798 111.58 19.7796 112.34L27.7109 113.386ZM27.4288 112.885C27.458 112.912 27.5078 112.966 27.5593 113.048C27.6111 113.131 27.6495 113.218 27.6742 113.3C27.7233 113.462 27.6939 113.515 27.7111 113.384L19.7793 112.342C19.5037 114.439 19.9624 116.856 21.9652 118.728L27.4288 112.885ZM29.4547 114.688C28.7274 114.056 28.0628 113.477 27.4284 112.884L21.9656 118.729C22.7223 119.436 23.4957 120.108 24.2051 120.725L29.4547 114.688ZM29.6166 114.829L29.4549 114.688L24.2048 120.725L24.3665 120.865L29.6166 114.829ZM31.9807 124.001C32.6123 122.41 32.8294 120.652 32.3175 118.872C31.8199 117.141 30.7567 115.82 29.6154 114.828L24.3676 120.866C24.5497 121.024 24.6307 121.127 24.6578 121.166C24.6806 121.198 24.6538 121.168 24.6289 121.082C24.6173 121.041 24.6091 120.999 24.6051 120.958C24.6011 120.916 24.6021 120.886 24.6033 120.871C24.6058 120.839 24.6071 120.893 24.5451 121.05L31.9807 124.001ZM29.9508 127.969C30.5729 126.895 31.381 125.514 31.9813 124L24.5446 121.051C24.199 121.923 23.7026 122.794 23.0277 123.96L29.9508 127.969ZM29.6174 128.547C29.7255 128.358 29.8354 128.168 29.9508 127.969L23.0277 123.96C22.9139 124.157 22.7948 124.362 22.6761 124.569L29.6174 128.547ZM26.6066 133.764C27.6092 132.033 28.6181 130.293 29.6184 128.545L22.6752 124.571C21.6874 126.297 20.6893 128.019 19.6849 129.752L26.6066 133.764ZM22.3619 141.15C23.7535 138.687 25.1737 136.236 26.6066 133.764L19.6849 129.752C18.2556 132.219 16.8134 134.707 15.3968 137.215L22.3619 141.15ZM20.3519 145.272C20.8542 143.94 21.547 142.591 22.3614 141.151L15.3973 137.214C14.5079 138.787 13.5827 140.55 12.8664 142.449L20.3519 145.272ZM17.835 144.103C17.9941 144.037 18.5796 143.876 19.3086 144.173C19.9676 144.441 20.255 144.886 20.3325 145.031C20.4095 145.176 20.395 145.22 20.3911 145.156C20.3872 145.093 20.4065 145.127 20.3522 145.271L12.866 142.45C12.118 144.436 12.2528 146.879 13.271 148.791C13.818 149.818 14.7738 150.965 16.2946 151.583C17.8852 152.23 19.5256 152.069 20.9272 151.482L17.835 144.103ZM19.1067 142.025C18.8357 142.835 18.5963 143.33 18.3727 143.645C18.1891 143.904 18.0347 144.02 17.835 144.103L20.9272 151.482C24.5618 149.959 25.9614 146.753 26.6942 144.56L19.1067 142.025ZM19.6137 140.223C19.4282 140.941 19.2821 141.5 19.1068 142.024L26.694 144.561C26.9726 143.728 27.1856 142.897 27.3593 142.225L19.6137 140.223ZM20.0377 138.657C19.8758 139.208 19.7352 139.753 19.6137 140.223L27.3593 142.225C27.4863 141.733 27.5943 141.317 27.7123 140.916L20.0377 138.657ZM26.5025 129.069C23.8464 131.456 21.2586 134.508 20.0377 138.657L27.7124 140.916C28.3494 138.751 29.7599 136.898 31.8498 135.02L26.5025 129.069ZM35.4496 126.783C32.6886 126.274 29.3118 126.541 26.5004 129.071L31.8518 135.018C32.2508 134.659 32.8187 134.433 33.9997 134.651L35.4496 126.783ZM41.4327 128.574C39.695 127.848 37.5892 127.041 35.2159 126.747L34.2335 134.687C35.4638 134.839 36.7278 135.279 38.3494 135.956L41.4327 128.574ZM48.8115 137.347C47.8808 133.191 45.3149 130.195 41.432 128.574L38.3501 135.956C39.8781 136.594 40.6512 137.516 41.0048 139.095L48.8115 137.347ZM48.6822 136.941C48.7165 137.021 48.7686 137.156 48.8104 137.342L41.0059 139.099C41.0946 139.493 41.218 139.836 41.3393 140.116L48.6822 136.941ZM48.6057 136.789C48.6093 136.795 48.6416 136.847 48.6823 136.941L41.3393 140.116C41.4834 140.45 41.6415 140.734 41.7786 140.959L48.6057 136.789ZM47.8269 135.984C48.0943 136.174 48.2764 136.362 48.3859 136.49C48.4976 136.62 48.567 136.725 48.6019 136.782L41.7824 140.965C42.0376 141.381 42.4813 142 43.1955 142.507L47.8269 135.984ZM47.2704 135.663C47.493 135.765 47.678 135.879 47.8265 135.984L43.1959 142.508C43.403 142.654 43.6465 142.802 43.9274 142.931L47.2704 135.663ZM42.7212 137.042C42.7618 136.962 43.0584 136.371 43.818 135.891C44.2428 135.622 44.8138 135.391 45.499 135.342C46.1868 135.294 46.795 135.444 47.2705 135.663L43.9273 142.931C45.3002 143.563 46.8521 143.437 48.0926 142.653C49.0829 142.027 49.6014 141.16 49.8491 140.674L42.7212 137.042ZM43.1052 136.185C42.9374 136.58 42.8312 136.826 42.7201 137.044L49.8502 140.672C50.1069 140.167 50.318 139.667 50.4678 139.314L43.1052 136.185ZM43.5018 135.282C43.3489 135.611 43.2119 135.934 43.1053 136.185L50.4678 139.314C50.5832 139.043 50.6684 138.843 50.7552 138.657L43.5018 135.282ZM43.5076 135.257C43.5028 135.27 43.4988 135.281 43.4949 135.291C43.491 135.301 43.4878 135.309 43.485 135.317C43.4792 135.332 43.476 135.34 43.4744 135.344C43.4729 135.347 43.4742 135.344 43.4778 135.336C43.4814 135.327 43.4883 135.311 43.4985 135.289L50.7585 138.65C50.8685 138.412 50.9553 138.179 50.9824 138.108L43.5076 135.257ZM44.9277 133.053C44.3274 133.596 43.994 134.184 43.8265 134.517C43.66 134.848 43.5404 135.172 43.5076 135.257L50.9824 138.108C51.0444 137.946 51.0215 138.016 50.971 138.117C50.9194 138.219 50.7213 138.6 50.2931 138.987L44.9277 133.053ZM48.6205 131.953C47.5409 131.766 46.6827 132.052 46.2958 132.207C45.8437 132.389 45.4872 132.616 45.2378 132.8L49.983 139.241C49.8498 139.339 49.6132 139.496 49.2741 139.632C49.0002 139.742 48.2482 140.007 47.2574 139.836L48.6205 131.953ZM52.5034 135.742C52.2395 134.278 51.3086 133.392 50.9486 133.08C50.5159 132.705 49.7231 132.148 48.6338 131.955L47.244 139.834C46.7615 139.749 46.4158 139.586 46.2309 139.486C46.0255 139.375 45.854 139.251 45.709 139.126C45.5678 139.003 45.3875 138.823 45.209 138.568C45.0506 138.342 44.7568 137.863 44.6302 137.161L52.5034 135.742ZM52.5939 138.532C52.6716 137.729 52.6872 136.756 52.5026 135.738L44.6309 137.165C44.6461 137.249 44.6618 137.444 44.631 137.763L52.5939 138.532ZM52.3779 140.114C52.4454 139.689 52.5364 139.123 52.5937 138.535L44.6312 137.76C44.6013 138.068 44.5508 138.394 44.4768 138.86L52.3779 140.114ZM52.2184 141.268C52.2468 140.95 52.2991 140.611 52.3779 140.114L44.4768 138.86C44.4052 139.311 44.307 139.92 44.2502 140.555L52.2184 141.268ZM47.1713 138.062C47.1883 138.052 47.2497 138.016 47.3503 137.973C47.4471 137.931 47.6241 137.862 47.8673 137.808C48.3198 137.708 49.3954 137.587 50.518 138.28C51.654 138.981 52.0308 140.017 52.1444 140.499C52.204 140.751 52.2184 140.949 52.2221 141.06C52.226 141.176 52.22 141.25 52.218 141.272L44.2506 140.551C44.213 140.966 44.1883 141.615 44.3581 142.335C44.5324 143.074 45.019 144.286 46.3145 145.087C47.5966 145.878 48.8812 145.777 49.5926 145.62C50.2972 145.464 50.8612 145.172 51.2151 144.964L47.1713 138.062ZM47.4605 137.885C47.3685 137.944 47.2717 138.003 47.1696 138.063L51.2168 144.963C51.3913 144.861 51.5665 144.755 51.7414 144.644L47.4605 137.885ZM48.8163 136.169C48.7951 136.562 48.6954 136.77 48.5697 136.945C48.4065 137.173 48.0894 137.487 47.4605 137.885L51.7414 144.644C54.1017 143.149 56.5837 140.707 56.8047 136.599L48.8163 136.169ZM49.434 133.184C49.198 133.903 48.8813 134.971 48.8164 136.167L56.8046 136.601C56.8111 136.482 56.8568 136.222 57.0346 135.68L49.434 133.184ZM56.05 128.257C54.7995 128.309 53.3283 128.6 51.995 129.553C50.6302 130.53 49.8625 131.875 49.4327 133.188L57.0358 135.677C57.0686 135.577 57.0725 135.603 57.0104 135.696C56.9409 135.8 56.8217 135.937 56.6496 136.06C56.2938 136.314 56.0683 136.263 56.3803 136.25L56.05 128.257ZM58.9972 128.006C58.1018 128.146 57.1393 128.212 56.0485 128.257L56.3818 136.25C57.5627 136.201 58.8833 136.121 60.2311 135.91L58.9972 128.006ZM59.1297 127.904C59.0888 127.993 59.0609 128.029 59.0581 128.033C59.0566 128.035 59.0694 128.019 59.0961 127.999C59.1226 127.979 59.1406 127.972 59.1369 127.973C59.1311 127.976 59.0893 127.992 58.9975 128.006L60.2308 135.91C62.9676 135.483 65.1888 133.88 66.3999 131.242L59.1297 127.904ZM61.3561 118.975C61.1003 122.162 60.404 125.13 59.13 127.903L66.3996 131.243C68.1278 127.481 69.0127 123.573 69.3305 119.615L61.3561 118.975ZM61.5969 115.985C61.5166 116.981 61.4363 117.978 61.3562 118.975L69.3304 119.616C69.4105 118.62 69.4908 117.624 69.571 116.627L61.5969 115.985ZM62.0966 109.766C61.9309 111.839 61.764 113.911 61.5969 115.985L69.571 116.627C69.7381 114.554 69.9053 112.479 70.0712 110.404L62.0966 109.766ZM63.2736 106.034C62.9922 106.618 62.2206 108.102 62.0949 109.787L70.0728 110.382C70.0637 110.504 70.041 110.507 70.1099 110.324C70.1834 110.13 70.2878 109.907 70.4814 109.505L63.2736 106.034ZM63.5336 105.48C63.4683 105.629 63.39 105.792 63.2736 106.034L70.4814 109.505C70.5862 109.287 70.7262 108.998 70.8569 108.7L63.5336 105.48ZM82.3638 101.146C81.2958 100.331 79.9933 99.331 78.6547 98.5515C77.323 97.776 75.5647 96.9782 73.5318 96.9283C68.7936 96.8121 65.7107 100.529 63.5336 105.48L70.8569 108.7C71.777 106.608 72.5389 105.609 73.0122 105.17C73.2265 104.971 73.3407 104.925 73.3472 104.923C73.3529 104.92 73.3482 104.923 73.337 104.925C73.3264 104.927 73.3241 104.926 73.3356 104.926C73.4167 104.928 73.7946 104.979 74.6288 105.465C75.4561 105.946 76.349 106.62 77.5134 107.508L82.3638 101.146ZM87.5379 104.103C87.1798 104.103 86.5867 103.969 85.6205 103.425C84.6415 102.874 83.6279 102.109 82.3638 101.146L77.5134 107.508C78.6818 108.398 80.1446 109.522 81.6956 110.396C83.2592 111.276 85.2495 112.103 87.5379 112.103V104.103ZM87.5379 112.103C89.8264 112.103 91.8167 111.276 93.3803 110.396C94.9313 109.522 96.3941 108.398 97.5625 107.508L92.7121 101.146C91.448 102.109 90.4344 102.874 89.4554 103.425C88.4892 103.969 87.8961 104.103 87.5379 104.103V112.103ZM97.5625 107.508C98.7269 106.62 99.6198 105.946 100.447 105.465C101.281 104.979 101.659 104.928 101.74 104.926C101.752 104.926 101.75 104.927 101.739 104.925C101.728 104.923 101.723 104.92 101.729 104.923C101.735 104.925 101.849 104.971 102.064 105.17C102.537 105.609 103.299 106.608 104.219 108.7L111.542 105.48C109.365 100.529 106.282 96.8121 101.544 96.9283C99.5112 96.9782 97.7529 97.776 96.4212 98.5515C95.0826 99.331 93.7801 100.331 92.7121 101.146L97.5625 107.508ZM104.219 108.7C104.35 108.998 104.49 109.287 104.595 109.505L111.802 106.034C111.686 105.792 111.608 105.629 111.542 105.48L104.219 108.7ZM104.595 109.505C104.788 109.907 104.893 110.13 104.966 110.324C105.035 110.507 105.012 110.504 105.003 110.382L112.981 109.787C112.855 108.102 112.084 106.618 111.802 106.034L104.595 109.505ZM105.005 110.404C105.171 112.479 105.338 114.554 105.505 116.627L113.479 115.985C113.312 113.911 113.145 111.839 112.979 109.766L105.005 110.404ZM105.505 116.627C105.585 117.624 105.665 118.62 105.745 119.616L113.72 118.975C113.64 117.978 113.559 116.981 113.479 115.985L105.505 116.627ZM105.745 119.615C106.063 123.573 106.948 127.481 108.676 131.243L115.946 127.903C114.672 125.13 113.976 122.162 113.72 118.975L105.745 119.615ZM108.676 131.242C109.887 133.88 112.108 135.483 114.845 135.91L116.078 128.006C115.987 127.992 115.945 127.976 115.939 127.973C115.935 127.972 115.953 127.979 115.98 127.999C116.006 128.019 116.019 128.035 116.018 128.033C116.015 128.029 115.987 127.993 115.946 127.904L108.676 131.242ZM114.845 135.91C116.193 136.121 117.513 136.201 118.694 136.25L119.027 128.257C117.937 128.212 116.974 128.146 116.079 128.006L114.845 135.91ZM118.696 136.25C119.008 136.263 118.782 136.314 118.426 136.06C118.254 135.937 118.135 135.8 118.066 135.696C118.003 135.603 118.007 135.577 118.04 135.677L125.643 133.188C125.213 131.875 124.446 130.53 123.081 129.553C121.748 128.6 120.276 128.309 119.026 128.257L118.696 136.25ZM118.041 135.68C118.219 136.222 118.265 136.482 118.271 136.601L126.26 136.167C126.195 134.971 125.878 133.903 125.642 133.184L118.041 135.68ZM118.271 136.599C118.492 140.707 120.974 143.149 123.335 144.644L127.615 137.885C126.986 137.487 126.669 137.173 126.506 136.945C126.381 136.77 126.281 136.562 126.26 136.169L118.271 136.599ZM123.335 144.644C123.509 144.755 123.685 144.861 123.859 144.963L127.906 138.063C127.804 138.003 127.707 137.944 127.615 137.885L123.335 144.644ZM123.861 144.964C124.215 145.172 124.779 145.464 125.483 145.62C126.195 145.777 127.479 145.878 128.761 145.086C130.057 144.286 130.544 143.074 130.718 142.335C130.888 141.615 130.863 140.966 130.825 140.551L122.858 141.272C122.856 141.25 122.85 141.176 122.854 141.06C122.858 140.949 122.872 140.751 122.931 140.499C123.045 140.017 123.422 138.981 124.558 138.28C125.681 137.587 126.756 137.708 127.209 137.808C127.452 137.862 127.629 137.931 127.726 137.973C127.826 138.016 127.888 138.052 127.905 138.062L123.861 144.964ZM130.826 140.555C130.769 139.92 130.671 139.311 130.599 138.86L122.698 140.114C122.777 140.611 122.829 140.95 122.857 141.268L130.826 140.555ZM130.599 138.86C130.525 138.394 130.475 138.068 130.445 137.76L122.482 138.535C122.539 139.123 122.63 139.689 122.698 140.114L130.599 138.86ZM130.445 137.763C130.414 137.444 130.43 137.249 130.445 137.165L122.573 135.738C122.389 136.756 122.404 137.729 122.482 138.532L130.445 137.763ZM130.446 137.161C130.319 137.863 130.025 138.342 129.867 138.568C129.688 138.823 129.508 139.003 129.367 139.126C129.222 139.251 129.05 139.375 128.845 139.486C128.66 139.586 128.314 139.749 127.832 139.834L126.442 131.955C125.353 132.148 124.56 132.705 124.127 133.08C123.767 133.392 122.836 134.278 122.573 135.742L130.446 137.161ZM127.819 139.836C126.828 140.007 126.076 139.742 125.802 139.632C125.463 139.496 125.226 139.339 125.093 139.241L129.838 132.8C129.589 132.616 129.232 132.389 128.78 132.207C128.393 132.052 127.535 131.766 126.455 131.953L127.819 139.836ZM124.783 138.987C124.355 138.6 124.157 138.219 124.105 138.117C124.054 138.016 124.031 137.946 124.093 138.108L131.568 135.257C131.536 135.172 131.416 134.848 131.249 134.517C131.082 134.185 130.748 133.596 130.148 133.053L124.783 138.987ZM124.094 138.108C124.121 138.179 124.207 138.412 124.317 138.65L131.577 135.289C131.588 135.311 131.594 135.327 131.598 135.336C131.602 135.344 131.603 135.347 131.601 135.344C131.6 135.34 131.597 135.332 131.591 135.317C131.588 135.309 131.585 135.301 131.581 135.291C131.577 135.281 131.573 135.27 131.568 135.257L124.094 138.108ZM124.321 138.657C124.407 138.843 124.493 139.043 124.608 139.314L131.971 136.185C131.864 135.934 131.727 135.611 131.574 135.282L124.321 138.657ZM124.608 139.314C124.758 139.667 124.969 140.167 125.226 140.672L132.356 137.044C132.245 136.826 132.138 136.58 131.971 136.185L124.608 139.314ZM125.227 140.674C125.474 141.16 125.993 142.027 126.983 142.653C128.224 143.437 129.776 143.563 131.149 142.931L127.805 135.663C128.281 135.444 128.889 135.294 129.577 135.342C130.262 135.391 130.833 135.622 131.258 135.891C132.017 136.371 132.314 136.962 132.355 137.042L125.227 140.674ZM131.149 142.931C131.429 142.802 131.673 142.655 131.88 142.507L127.249 135.984C127.398 135.878 127.583 135.765 127.805 135.663L131.149 142.931ZM131.88 142.507C132.595 142 133.038 141.381 133.293 140.965L126.474 136.782C126.509 136.725 126.578 136.62 126.69 136.49C126.8 136.362 126.982 136.174 127.249 135.984L131.88 142.507ZM133.297 140.959C133.434 140.734 133.592 140.45 133.737 140.117L126.394 136.941C126.434 136.847 126.467 136.795 126.47 136.789L133.297 140.959ZM133.737 140.116C133.858 139.836 133.981 139.493 134.07 139.099L126.265 137.342C126.307 137.156 126.359 137.021 126.394 136.942L133.737 140.116ZM134.071 139.095C134.425 137.516 135.198 136.594 136.726 135.956L133.644 128.574C129.761 130.195 127.195 133.191 126.264 137.347L134.071 139.095ZM136.726 135.956C138.348 135.279 139.612 134.839 140.842 134.687L139.86 126.747C137.487 127.041 135.381 127.848 133.643 128.574L136.726 135.956ZM141.076 134.651C142.257 134.433 142.825 134.659 143.224 135.018L148.576 129.071C145.764 126.541 142.387 126.274 139.626 126.783L141.076 134.651ZM143.226 135.02C145.316 136.898 146.727 138.751 147.364 140.916L155.038 138.657C153.817 134.508 151.23 131.456 148.573 129.069L143.226 135.02ZM147.364 140.916C147.482 141.317 147.59 141.733 147.717 142.225L155.462 140.223C155.341 139.753 155.2 139.208 155.038 138.657L147.364 140.916ZM147.717 142.225C147.89 142.897 148.103 143.728 148.382 144.561L155.969 142.024C155.794 141.5 155.648 140.941 155.462 140.223L147.717 142.225ZM148.382 144.56C149.114 146.753 150.514 149.959 154.149 151.482L157.241 144.103C157.041 144.02 156.887 143.904 156.703 143.645C156.48 143.33 156.24 142.835 155.969 142.025L148.382 144.56ZM154.149 151.482C155.55 152.069 157.191 152.23 158.781 151.583C160.302 150.965 161.258 149.818 161.805 148.791C162.823 146.879 162.958 144.436 162.21 142.45L154.724 145.271C154.669 145.127 154.689 145.093 154.685 145.156C154.681 145.22 154.666 145.176 154.743 145.031C154.821 144.886 155.108 144.441 155.767 144.173C156.496 143.876 157.082 144.037 157.241 144.103L154.149 151.482ZM162.21 142.449C161.493 140.55 160.568 138.787 159.679 137.214L152.714 141.151C153.529 142.591 154.222 143.94 154.724 145.272L162.21 142.449ZM159.679 137.215C158.262 134.707 156.82 132.219 155.391 129.752L148.469 133.764C149.902 136.236 151.322 138.687 152.714 141.15L159.679 137.215ZM155.391 129.753C154.387 128.019 153.389 126.297 152.401 124.571L145.458 128.545C146.458 130.293 147.467 132.033 148.469 133.764L155.391 129.753ZM152.4 124.569C152.281 124.362 152.162 124.157 152.048 123.96L145.125 127.969C145.241 128.168 145.35 128.358 145.458 128.547L152.4 124.569ZM152.048 123.96C151.373 122.794 150.877 121.923 150.531 121.051L143.095 124C143.695 125.514 144.503 126.895 145.125 127.969L152.048 123.96ZM150.531 121.05C150.469 120.893 150.47 120.839 150.473 120.871C150.474 120.886 150.475 120.916 150.471 120.957C150.467 120.999 150.459 121.041 150.447 121.082C150.422 121.168 150.395 121.198 150.418 121.166C150.445 121.127 150.526 121.024 150.708 120.866L145.46 114.828C144.319 115.82 143.256 117.141 142.758 118.872C142.246 120.652 142.464 122.41 143.095 124.001L150.531 121.05ZM150.709 120.865L150.871 120.725L145.621 114.688L145.459 114.829L150.709 120.865ZM150.871 120.725C151.58 120.108 152.354 119.436 153.11 118.729L147.648 112.884C147.013 113.477 146.349 114.056 145.621 114.688L150.871 120.725ZM153.111 118.728C155.113 116.856 155.572 114.439 155.297 112.342L147.365 113.384C147.382 113.516 147.353 113.462 147.402 113.3C147.426 113.218 147.465 113.131 147.517 113.048C147.568 112.966 147.618 112.912 147.647 112.885L153.111 118.728ZM155.296 112.34C155.196 111.58 155.088 110.826 154.981 110.085L147.063 111.225C147.17 111.973 147.272 112.68 147.365 113.386L155.296 112.34ZM154.981 110.085C154.936 109.774 154.892 109.464 154.847 109.151L146.927 110.275C146.972 110.597 147.018 110.914 147.063 111.225L154.981 110.085ZM154.745 108.656C154.549 107.94 154.516 106.981 154.733 105.597C154.954 104.189 155.376 102.649 155.904 100.75L148.196 98.6079C147.698 100.402 147.136 102.406 146.83 104.357C146.52 106.33 146.419 108.541 147.029 110.77L154.745 108.656ZM155.904 100.75C156.869 97.2772 158.185 92.7016 157.729 87.8424C157.247 82.7127 154.863 77.6447 149.347 72.8907L144.125 78.9506C148.223 82.4825 149.493 85.7059 149.764 88.59C150.06 91.7445 149.225 94.905 148.196 98.6079L155.904 100.75ZM146.736 75.9206C149.371 72.9109 149.37 72.9108 149.37 72.9106C149.37 72.9106 149.37 72.9104 149.37 72.9103C149.37 72.9101 149.369 72.9098 149.369 72.9096C149.369 72.9091 149.368 72.9085 149.367 72.9078C149.366 72.9064 149.364 72.9047 149.361 72.9028C149.357 72.8988 149.351 72.8936 149.343 72.8872C149.329 72.8744 149.308 72.8568 149.283 72.8351C149.233 72.7917 149.163 72.7313 149.076 72.6581C148.905 72.5128 148.665 72.3125 148.392 72.0935C147.927 71.7194 147.097 71.0705 146.333 70.6498L142.476 77.6583C142.471 77.656 142.567 77.7119 142.775 77.8633C142.963 77.9998 143.174 78.1629 143.381 78.3298C143.586 78.4944 143.771 78.6486 143.905 78.7618C143.971 78.8179 144.023 78.8628 144.057 78.8924C144.075 78.9072 144.087 78.9181 144.095 78.9246C144.098 78.9278 144.101 78.93 144.102 78.931C144.103 78.9315 144.103 78.9316 144.103 78.9315C144.103 78.9315 144.102 78.9314 144.102 78.9312C144.102 78.9311 144.102 78.9309 144.102 78.9308C144.102 78.9307 144.102 78.9306 144.102 78.9306C144.101 78.9304 144.101 78.9303 146.736 75.9206ZM146.228 70.5941C145.812 70.3809 145.316 70.116 144.722 69.7985L140.952 76.8545C141.527 77.162 142.09 77.4628 142.58 77.714L146.228 70.5941ZM144.722 69.7985C142.287 68.4977 138.136 66.2492 134.601 65.3899L132.712 73.1634C135.05 73.7319 138.222 75.3961 140.952 76.8545L144.722 69.7985ZM134.729 65.4232C134.36 65.3204 133.235 65.0395 132.298 64.8071C131.808 64.6856 131.338 64.5695 130.99 64.4838C130.816 64.4409 130.673 64.4056 130.573 64.381C130.523 64.3687 130.483 64.3591 130.457 64.3525C130.443 64.3492 130.433 64.3467 130.426 64.345C130.423 64.3442 130.42 64.3435 130.418 64.3431C130.417 64.3428 130.417 64.3427 130.416 64.3426C130.416 64.3425 130.416 64.3425 130.416 64.3424C130.416 64.3424 130.416 64.3424 130.416 64.3424C130.415 64.3424 130.415 64.3424 129.462 68.227C128.508 72.1116 128.508 72.1116 128.508 72.1116C128.508 72.1116 128.508 72.1116 128.508 72.1117C128.508 72.1117 128.508 72.1117 128.508 72.1118C128.509 72.1119 128.509 72.112 128.51 72.1122C128.512 72.1126 128.514 72.1133 128.518 72.1141C128.525 72.1157 128.535 72.1182 128.548 72.1214C128.574 72.1279 128.613 72.1374 128.662 72.1495C128.761 72.1739 128.903 72.2089 129.076 72.2514C129.421 72.3365 129.887 72.4516 130.372 72.5717C131.383 72.8225 132.355 73.0664 132.584 73.1301L134.729 65.4232ZM129.462 68.227C129.009 72.2013 129.009 72.2013 129.009 72.2013C129.009 72.2013 129.009 72.2013 129.009 72.2013C129.009 72.2013 129.009 72.2014 129.01 72.2014C129.01 72.2015 129.011 72.2015 129.012 72.2016C129.014 72.2019 129.016 72.2022 129.02 72.2026C129.027 72.2034 129.038 72.2046 129.051 72.2061C129.078 72.2092 129.118 72.2136 129.168 72.2194C129.269 72.2308 129.415 72.2471 129.593 72.267C129.948 72.3067 130.434 72.3604 130.956 72.4166C131.961 72.5249 133.217 72.6554 133.868 72.6995L134.409 64.7178C133.95 64.6867 132.869 64.5764 131.813 64.4626C131.304 64.4079 130.829 64.3553 130.48 64.3164C130.306 64.297 130.164 64.281 130.066 64.2699C130.017 64.2643 129.979 64.26 129.953 64.2571C129.94 64.2556 129.93 64.2545 129.924 64.2538C129.921 64.2534 129.918 64.2531 129.917 64.253C129.916 64.2529 129.915 64.2528 129.915 64.2528C129.915 64.2527 129.915 64.2527 129.914 64.2527C129.914 64.2527 129.914 64.2527 129.914 64.2527C129.914 64.2527 129.914 64.2527 129.462 68.227ZM133.868 72.6995C134.442 72.7383 135.005 72.7801 135.561 72.8281L136.25 64.8578C135.629 64.8042 135.014 64.7588 134.409 64.7178L133.868 72.6995ZM135.561 72.828C139.535 73.1719 143.788 73.515 148.102 73.2912L147.688 65.3019C143.997 65.4934 140.259 65.2047 136.25 64.8578L135.561 72.828ZM148.102 73.2912C148.451 73.2731 148.802 73.2512 149.153 73.2253L148.565 65.247C148.274 65.2684 147.981 65.2867 147.688 65.3019L148.102 73.2912ZM149.153 73.2253C151.087 73.0827 153.282 72.7924 155.36 72.1867L153.123 64.5061C151.783 64.8965 150.196 65.1267 148.565 65.247L149.153 73.2253ZM155.381 72.1807C159.316 71.0113 161.977 68.2945 163.881 65.7181L157.447 60.9636C156.006 62.9135 154.644 64.0541 153.102 64.5121L155.381 72.1807ZM163.882 65.7167C165.008 64.1918 166.577 62.01 167.228 59.2431L159.44 57.4104C159.204 58.4149 158.584 59.4246 157.446 60.965L163.882 65.7167ZM167.228 59.2432C168.664 53.1396 170.066 47.0294 171.465 40.9319L163.668 39.1428C162.268 45.244 160.871 51.3322 159.44 57.4103L167.228 59.2432ZM171.465 40.9319C171.804 39.4548 172.143 37.9786 172.482 36.5025L164.685 34.7108C164.346 36.1884 164.007 37.666 163.668 39.1428L171.465 40.9319ZM172.482 36.5024C173.182 33.4572 173.88 30.4119 174.577 27.368L166.78 25.5809C166.082 28.6252 165.384 31.6683 164.685 34.7109L172.482 36.5024ZM174.577 27.368C175.653 22.6735 176.728 17.9824 177.81 13.2932L170.014 11.4956C168.932 16.1909 167.855 20.8873 166.78 25.581L174.577 27.368ZM177.81 13.2911C177.906 12.8766 178.032 12.4363 178.197 11.8636L170.513 9.64043C170.359 10.1728 170.168 10.8291 170.014 11.4977L177.81 13.2911ZM178.197 11.8636C178.525 10.7309 179.086 8.89735 179.078 6.96087L171.078 6.99286C171.08 7.57493 170.907 8.27844 170.513 9.64046L178.197 11.8636ZM179.078 6.97687V5.23495H171.078V6.97687H179.078ZM179.078 5.23495C179.078 3.69937 178.556 2.57627 178.249 1.93158L171.025 5.3695C171.08 5.48425 171.109 5.54899 171.127 5.59144C171.143 5.63031 171.14 5.62785 171.131 5.59739C171.12 5.56374 171.105 5.50725 171.094 5.43459C171.082 5.3612 171.078 5.29268 171.078 5.23495H179.078ZM178.249 1.93149C176.967 -0.760852 174.683 -2.0243 172.764 -2.66239L170.24 4.92924C170.635 5.06037 170.831 5.17798 170.92 5.24492C170.981 5.29139 171 5.31712 171.025 5.36959L178.249 1.93149ZM172.765 -2.66179C171.706 -3.01439 170.636 -3.29796 169.557 -3.51107L168.007 4.33746C168.749 4.48378 169.492 4.68019 170.238 4.92864L172.765 -2.66179ZM169.674 -3.48607C168.149 -3.83492 166.479 -4.06282 164.703 -3.9846L165.055 4.00766C165.928 3.9692 166.858 4.07631 167.89 4.31246L169.674 -3.48607ZM164.917 -3.98829C163.066 -4.00608 161.216 -3.81978 159.374 -3.43759L160.999 4.39565C162.302 4.1254 163.581 3.99924 164.84 4.01135L164.917 -3.98829ZM159.374 -3.43768C159.182 -3.39791 158.99 -3.358 158.798 -3.31794L160.432 4.51357C160.62 4.47421 160.809 4.43494 160.998 4.39574L159.374 -3.43768ZM158.988 -3.35272C158.428 -3.26391 157.871 -3.16798 157.317 -3.06546L158.772 4.80111C159.261 4.71064 159.751 4.62626 160.242 4.54835L158.988 -3.35272ZM157.318 -3.06559C153.575 -2.37412 149.412 -1.42975 145.509 0.718951L149.367 7.72709C152.085 6.23071 155.182 5.46448 158.771 4.80124L157.318 -3.06559ZM145.509 0.71894C139.299 4.13761 133.466 8.16189 128.082 12.7531L133.272 18.8406C138.242 14.6033 143.628 10.8868 149.367 7.7271L145.509 0.71894ZM128.082 12.7528C124.408 15.8847 120.987 19.2806 117.693 22.5471L123.326 28.2274C126.656 24.9248 129.866 21.7445 133.272 18.8409L128.082 12.7528ZM117.693 22.5471C116.974 23.2604 116.261 23.9678 115.546 24.6713L121.159 30.3715C121.886 29.6563 122.609 28.939 123.326 28.2274L117.693 22.5471ZM115.546 24.6713C113.361 26.823 111.008 29.1779 108.939 31.8093L115.227 36.7548C116.947 34.5671 118.967 32.5308 121.159 30.3715L115.546 24.6713ZM108.938 31.8098C108.695 32.1193 108.452 32.429 108.21 32.739L114.511 37.6677C114.749 37.3629 114.988 37.0584 115.227 36.7543L108.938 31.8098ZM108.279 32.6529C105.73 35.7319 103.37 38.9388 101.089 42.0487L107.539 46.7803C109.834 43.6516 112.064 40.6265 114.442 37.7538L108.279 32.6529ZM101.114 42.0138C99.398 44.3013 97.6962 46.5968 96.0046 48.8949L102.447 53.6373C104.128 51.3536 105.815 49.0784 107.513 46.8152L101.114 42.0138ZM96.0047 48.8947C95.7127 49.2914 95.4154 49.6884 95.1064 50.1011L101.51 54.8966C101.816 54.4883 102.133 54.0649 102.447 53.6374L96.0047 48.8947ZM95.1064 50.1011C93.3378 52.4627 91.1352 55.3595 89.8181 58.9006L97.3162 61.6896C98.1652 59.407 99.6283 57.409 101.51 54.8965L95.1064 50.1011ZM89.8179 58.9011L89.8118 58.9174L97.3103 61.7053L97.3164 61.6891L89.8179 58.9011ZM89.8106 58.9207C90.0362 58.3121 90.6615 57.1662 92.1075 56.6249C93.7049 56.0269 95.0872 56.6056 95.8019 57.1305L91.0662 63.5783C91.8364 64.1439 93.2709 64.7316 94.9123 64.1171C96.4023 63.5593 97.0633 62.3715 97.3116 61.702L89.8106 58.9207ZM96.5409 57.8349C96.3885 57.647 96.4063 57.6514 96.4672 57.7556C96.5442 57.8874 96.7475 58.2723 96.8146 58.8446C96.8854 59.4476 96.7678 59.9298 96.6723 60.1971C96.5988 60.4028 96.5355 60.4851 96.6315 60.3233L89.7515 56.241C89.5009 56.6632 88.6621 58.0122 88.8691 59.7769C89.057 61.3783 90.038 62.5172 90.3273 62.8739L96.5409 57.8349ZM96.6319 60.3227C99.0841 56.1881 97.1317 50.7911 92.4812 49.2917L90.0262 56.9057C89.7108 56.804 89.6276 56.4498 89.7511 56.2416L96.6319 60.3227ZM92.4862 49.2933C91.8946 49.1017 91.3209 49.0056 91.0575 48.9585L89.6492 56.8335C89.8181 56.8637 89.9048 56.8796 89.9782 56.8953C90.0433 56.9092 90.0486 56.9129 90.0212 56.9041L92.4862 49.2933ZM91.0574 48.9585C90.9038 48.931 90.8062 48.9133 90.7143 48.8943L89.0962 56.729C89.3093 56.773 89.5103 56.8087 89.6492 56.8336L91.0574 48.9585ZM93.8414 53.5232C93.9078 53.1559 93.9336 52.8084 93.9432 52.6934L85.9708 52.0293C85.9675 52.069 85.9653 52.0954 85.9631 52.1197C85.961 52.1429 85.9597 52.1561 85.9589 52.1634C85.9582 52.1704 85.9584 52.1678 85.9597 52.158C85.9611 52.1481 85.964 52.1281 85.969 52.1001L93.8414 53.5232ZM93.9432 52.6935C93.9507 52.6026 93.9531 52.5773 93.9548 52.5623C93.9559 52.5517 93.9512 52.5999 93.9349 52.681C93.9074 52.8178 93.8026 53.2859 93.4347 53.8067L86.9009 49.1905C86.3755 49.9341 86.1788 50.6718 86.092 51.1033C86.0084 51.5187 85.9801 51.918 85.9708 52.0292L93.9432 52.6935ZM93.4331 53.809C94.3628 52.495 95.1692 51.3778 96.0525 50.4002L90.1165 45.037C88.8707 46.4158 87.8107 47.9046 86.9025 49.1882L93.4331 53.809ZM96.0524 50.4002C97.0646 49.28 98.1108 48.179 99.1977 47.0354L93.399 41.524C92.3237 42.6554 91.2076 43.8293 90.1165 45.0369L96.0524 50.4002ZM99.1977 47.0354C100.473 45.6935 101.806 44.2918 103.095 42.8352L97.1037 37.5337C95.9249 38.8658 94.6908 40.1649 93.399 41.524L99.1977 47.0354ZM103.096 42.834C104.745 40.9688 106.676 38.7913 108.221 36.3193L101.438 32.0783C100.301 33.8971 98.8211 35.5914 97.1027 37.5349L103.096 42.834ZM108.222 36.3186C109.409 34.4192 110.323 32.3995 111.113 30.6664L103.833 27.3489C103.005 29.166 102.299 30.6997 101.437 32.079L108.222 36.3186ZM111.113 30.6664C111.425 29.9805 111.719 29.3355 112.022 28.7039L104.806 25.2483C104.466 25.9602 104.14 26.6747 103.833 27.3489L111.113 30.6664ZM112.019 28.7085C112.092 28.5584 112.164 28.4104 112.242 28.2511L105.054 24.7382C104.978 24.8943 104.894 25.0658 104.809 25.2437L112.019 28.7085ZM112.242 28.251C112.499 27.7254 112.82 27.0716 113.117 26.3208L105.675 23.3838C105.512 23.798 105.327 24.1799 105.054 24.7383L112.242 28.251ZM113.117 26.3207C113.348 25.7339 113.575 24.8506 113.562 23.8925C113.553 23.2206 113.334 20.3853 110.436 19.4063L107.876 26.9855C106.844 26.6371 106.184 25.8863 105.859 25.2024C105.584 24.6247 105.565 24.1534 105.563 24.0033C105.559 23.7207 105.604 23.5637 105.675 23.3839L113.117 26.3207ZM110.436 19.4063C108.405 18.7202 106.715 19.6164 105.849 20.383C105 21.1338 104.501 22.0665 104.218 22.8489L111.74 25.5724C111.716 25.639 111.585 25.9897 111.149 26.3748C110.696 26.7757 109.465 27.5226 107.876 26.9855L110.436 19.4063ZM104.217 22.8506C103.803 23.9953 103.413 25.1782 103.073 26.3913L110.776 28.5511C111.052 27.5656 111.378 26.5729 111.741 25.5708L104.217 22.8506ZM103.073 26.3894C102.264 29.27 101.514 31.4405 100.194 33.1434L106.517 38.0439C108.888 34.9852 109.966 31.4327 110.775 28.5529L103.073 26.3894ZM100.193 33.144C98.3128 35.5717 96.2772 37.9229 94.1561 40.2605L100.081 45.6363C102.278 43.2153 104.463 40.6958 106.518 38.0433L100.193 33.144ZM94.1563 40.2603C93.8093 40.6427 93.4598 41.0245 93.1033 41.4138L99.0041 46.8158C99.3584 46.4287 99.7199 46.034 100.081 45.6365L94.1563 40.2603ZM93.1034 41.4138C91.1237 43.5762 88.9213 45.9723 87.0436 48.7088L93.6401 53.235C95.1481 51.0373 96.962 49.0464 99.004 46.8159L93.1034 41.4138ZM87.0548 48.6926C87.225 48.4472 87.3869 48.2819 87.4682 48.2032C87.5406 48.1331 87.602 48.0825 87.5504 48.1265L92.7412 54.2138C92.7602 54.1976 92.8933 54.0859 93.0329 53.9507C93.1815 53.8069 93.4061 53.5726 93.629 53.2512L87.0548 48.6926ZM87.5504 48.1265C87.5346 48.14 87.4255 48.2319 87.3111 48.3398L92.8019 54.1579C92.767 54.1909 92.7411 54.2137 92.7326 54.2211C92.7279 54.2252 92.7256 54.2272 92.7273 54.2257C92.7296 54.2237 92.7326 54.2212 92.7411 54.2139L87.5504 48.1265ZM92.529 48.1045C90.9854 46.8907 89.0793 46.5092 87.5795 46.4936L87.4964 54.4932C87.565 54.4939 87.6287 54.499 87.6841 54.5069C87.7399 54.5148 87.7787 54.5242 87.7996 54.5303C87.8212 54.5366 87.8131 54.5362 87.7804 54.5202C87.7482 54.5046 87.6772 54.4665 87.584 54.3932L92.529 48.1045ZM87.4919 54.3932C87.3986 54.4665 87.3277 54.5046 87.2955 54.5202C87.2628 54.5362 87.2547 54.5366 87.2763 54.5303C87.2972 54.5242 87.336 54.5148 87.3918 54.5069C87.4472 54.499 87.5109 54.4939 87.5795 54.4932L87.4964 46.4936C85.9966 46.5092 84.0905 46.8907 82.5469 48.1045L87.4919 54.3932ZM82.3348 54.2139C82.3433 54.2212 82.3463 54.2237 82.3486 54.2257C82.3503 54.2272 82.348 54.2252 82.3433 54.2211C82.3348 54.2137 82.3089 54.1909 82.274 54.1579L87.7648 48.3398C87.6504 48.2319 87.5413 48.14 87.5255 48.1265L82.3348 54.2139ZM81.4469 53.2512C81.6698 53.5726 81.8944 53.8069 82.043 53.9507C82.1826 54.0859 82.3157 54.1976 82.3347 54.2138L87.5255 48.1265C87.4739 48.0825 87.5353 48.1331 87.6077 48.2032C87.689 48.2819 87.8509 48.4472 88.0211 48.6926L81.4469 53.2512ZM76.0718 46.8158C78.1139 49.0463 79.9278 51.0373 81.4358 53.235L88.0322 48.7088C86.1546 45.9723 83.9522 43.5762 81.9725 41.4138L76.0718 46.8158ZM74.9953 45.6365C75.356 46.034 75.7174 46.4287 76.0718 46.8158L81.9725 41.4138C81.6161 41.0245 81.2666 40.6427 80.9196 40.2603L74.9953 45.6365ZM68.5582 38.0433C70.613 40.6958 72.7984 43.2153 74.9952 45.6363L80.9198 40.2605C78.7987 37.9229 76.7631 35.5717 74.8825 33.144L68.5582 38.0433ZM64.3006 28.5529C65.1096 31.4327 66.1882 34.9852 68.5586 38.0439L74.882 33.1434C73.5623 31.4405 72.8117 29.27 72.0025 26.3894L64.3006 28.5529ZM63.3354 25.5708C63.6977 26.5729 64.0238 27.5656 64.3001 28.551L72.003 26.3913C71.6629 25.1782 71.2726 23.9953 70.8587 22.8506L63.3354 25.5708ZM67.2001 26.9856C65.6105 27.5225 64.3796 26.7757 63.9265 26.3748C63.4912 25.9897 63.3601 25.639 63.336 25.5725L70.8581 22.8489C70.5748 22.0665 70.076 21.1338 69.2273 20.383C68.3608 19.6164 66.6709 18.7202 64.6398 19.4063L67.2001 26.9856ZM69.4007 23.3839C69.4717 23.5637 69.5171 23.7207 69.5132 24.0033C69.5111 24.1534 69.4922 24.6247 69.2173 25.2023C68.8918 25.8862 68.2316 26.6371 67.2002 26.9855L64.6397 19.4063C61.7417 20.3854 61.5233 23.2206 61.514 23.8925C61.5007 24.8506 61.7277 25.7339 61.9593 26.3207L69.4007 23.3839ZM70.0217 24.7383C69.7487 24.1799 69.5642 23.798 69.4007 23.3838L61.9593 26.3208C62.2556 27.0716 62.5773 27.7254 62.8341 28.251L70.0217 24.7383ZM70.2672 25.2437C70.1817 25.0658 70.0979 24.8943 70.0216 24.7382L62.8342 28.2511C62.912 28.4104 62.9843 28.5584 63.0564 28.7085L70.2672 25.2437ZM71.243 27.3488C70.9358 26.6747 70.6103 25.9601 70.2694 25.2483L63.0542 28.7038C63.3567 29.3355 63.6508 29.9804 63.9633 30.6663L71.243 27.3488ZM73.6384 32.079C72.7764 30.6996 72.0711 29.1659 71.2431 27.3488L63.9633 30.6663C64.7531 32.3994 65.6672 34.4191 66.8542 36.3186L73.6384 32.079ZM77.9732 37.5349C76.2548 35.5914 74.7751 33.8971 73.638 32.0783L66.8546 36.3193C68.4001 38.7913 70.3308 40.9688 71.98 42.834L77.9732 37.5349ZM81.6768 41.524C80.3851 40.1649 79.151 38.8658 77.9722 37.5337L71.981 42.8352C73.27 44.2918 74.6028 45.6935 75.8782 47.0354L81.6768 41.524ZM84.9594 45.0369C83.8683 43.8293 82.7522 42.6553 81.6769 41.524L75.8782 47.0354C76.9651 48.1789 78.0113 49.28 79.0235 50.4002L84.9594 45.0369ZM88.1734 49.1882C87.2652 47.9046 86.2052 46.4158 84.9594 45.037L79.0234 50.4002C79.9067 51.3778 80.7131 52.495 81.6428 53.809L88.1734 49.1882ZM89.1051 52.0292C89.0958 51.918 89.0675 51.5187 88.9839 51.1033C88.8971 50.6718 88.7004 49.9341 88.175 49.1905L81.6412 53.8067C81.2733 53.2859 81.1685 52.8178 81.141 52.681C81.1247 52.5999 81.12 52.5517 81.1211 52.5623C81.1228 52.5773 81.1252 52.6026 81.1327 52.6935L89.1051 52.0292ZM89.1069 52.1001C89.1119 52.1281 89.1148 52.1481 89.1162 52.158C89.1175 52.1678 89.1177 52.1704 89.117 52.1634C89.1162 52.1561 89.1149 52.1429 89.1128 52.1197C89.1106 52.0954 89.1084 52.069 89.1051 52.0293L81.1327 52.6934C81.1423 52.8084 81.1681 53.1559 81.2345 53.5232L89.1069 52.1001ZM85.4267 56.8336C85.5656 56.8087 85.7666 56.773 85.9797 56.729L84.3616 48.8943C84.2697 48.9133 84.1721 48.931 84.0185 48.9585L85.4267 56.8336ZM85.0547 56.9041C85.0273 56.9129 85.0326 56.9092 85.0977 56.8953C85.1711 56.8796 85.2578 56.8637 85.4267 56.8335L84.0184 48.9585C83.755 49.0056 83.1813 49.1017 82.5897 49.2933L85.0547 56.9041ZM85.3248 56.2416C85.4483 56.4499 85.3651 56.804 85.0497 56.9057L82.5947 49.2917C77.9442 50.7911 75.9918 56.1881 78.444 60.3227L85.3248 56.2416ZM84.7486 62.8739C85.0378 62.5172 86.0189 61.3783 86.2068 59.7769C86.4138 58.0122 85.5749 56.6632 85.3244 56.241L78.4444 60.3233C78.5404 60.4851 78.4771 60.4029 78.4036 60.1972C78.3081 59.9298 78.1905 59.4476 78.2613 58.8446C78.3284 58.2723 78.5317 57.8874 78.6087 57.7556C78.6696 57.6514 78.6874 57.647 78.535 57.8349L84.7486 62.8739ZM77.7643 61.702C78.0126 62.3715 78.6736 63.5593 80.1636 64.1171C81.805 64.7316 83.2395 64.1439 84.0096 63.5783L79.274 57.1305C79.9887 56.6056 81.371 56.0269 82.9684 56.6249C84.4144 57.1662 85.0397 58.3121 85.2653 58.9207L77.7643 61.702ZM77.7595 61.6891L77.7656 61.7053L85.2641 58.9174L85.258 58.9011L77.7595 61.6891ZM73.5661 54.8965C75.4476 57.409 76.9107 59.407 77.7597 61.6896L85.2578 58.9006C83.9407 55.3595 81.7381 52.4627 79.9695 50.1011L73.5661 54.8965ZM72.6286 53.6374C72.9433 54.0649 73.2604 54.4883 73.5661 54.8966L79.9695 50.1011C79.6605 49.6884 79.3632 49.2914 79.0712 48.8947L72.6286 53.6374ZM67.5625 46.8152C69.2608 49.0784 70.9475 51.3536 72.6285 53.6373L79.0713 48.8949C77.3797 46.5968 75.6779 44.3013 73.9615 42.0138L67.5625 46.8152ZM60.6342 37.7538C63.0119 40.6265 65.2418 43.6516 67.5366 46.7803L73.9874 42.0487C71.7064 38.9388 69.3455 35.7319 66.7971 32.6529L60.6342 37.7538ZM59.8486 36.7543C60.0877 37.0584 60.3265 37.3628 60.5649 37.6677L66.8663 32.739C66.6239 32.429 66.381 32.1193 66.1377 31.8098L59.8486 36.7543ZM53.9166 30.3715C56.1094 32.5308 58.1285 34.5671 59.849 36.7548L66.1373 31.8093C64.0678 29.1779 61.7149 26.823 59.5298 24.6713L53.9166 30.3715ZM51.7496 28.2274C52.4671 28.9391 53.1904 29.6564 53.9166 30.3715L59.5298 24.6713C58.8154 23.9678 58.1021 23.2604 57.3829 22.5472L51.7496 28.2274ZM41.8038 18.8409C45.2099 21.7445 48.4194 24.9249 51.7496 28.2274L57.3829 22.5472C54.0891 19.2806 50.6676 15.8847 46.9937 12.7528L41.8038 18.8409ZM25.7088 7.7271C31.4482 10.8868 36.834 14.6033 41.8034 18.8406L46.9941 12.7531C41.6096 8.16189 35.7768 4.13761 29.567 0.71894L25.7088 7.7271ZM16.3047 4.80124C19.8941 5.46448 22.9907 6.23071 25.7088 7.7271L29.567 0.718948C25.6641 -1.42975 21.5005 -2.37412 17.7583 -3.06559L16.3047 4.80124ZM14.8338 4.54835C15.3246 4.62626 15.8148 4.71064 16.304 4.80111L17.759 -3.06546C17.2047 -3.16798 16.6476 -3.26391 16.0881 -3.35272L14.8338 4.54835ZM14.0776 4.39574C14.2667 4.43494 14.4556 4.47421 14.6444 4.51358L16.2775 -3.31795C16.0855 -3.358 15.8935 -3.3979 15.7017 -3.43768L14.0776 4.39574ZM10.2355 4.01135C11.495 3.99924 12.7744 4.1254 14.0772 4.39565L15.7021 -3.43758C13.8597 -3.81978 12.0098 -4.00608 10.1586 -3.98829L10.2355 4.01135ZM7.18578 4.31246C8.21808 4.07631 9.14781 3.9692 10.0211 4.00766L10.3731 -3.9846C8.59689 -4.06282 6.92663 -3.83492 5.40174 -3.48607L7.18578 4.31246ZM4.83748 4.92864C5.58374 4.6802 6.32726 4.48378 7.06845 4.33746L5.51908 -3.51107C4.43955 -3.29796 3.36968 -3.01439 2.31052 -2.66179L4.83748 4.92864ZM4.05077 5.36961C4.07575 5.31712 4.09459 5.29139 4.15605 5.24491C4.24455 5.17798 4.44116 5.06037 4.83566 4.92924L2.31234 -2.66239C0.392573 -2.02429 -1.8913 -0.760847 -3.17274 1.93147L4.05077 5.36961ZM3.9981 5.23495C3.9981 5.29268 3.99342 5.36121 3.98187 5.43459C3.97042 5.50726 3.95553 5.56374 3.9452 5.59739C3.93585 5.62784 3.93303 5.63031 3.94934 5.59143C3.96715 5.54898 3.99622 5.48423 4.05083 5.36948L-3.17281 1.9316C-3.47961 2.57626 -4.0019 3.69937 -4.0019 5.23495H3.9981ZM3.9981 6.97687V5.23495H-4.0019V6.97687H3.9981ZM4.56332 9.64045C4.1693 8.2784 3.99574 7.57492 3.99807 6.99286L-4.00187 6.96088C-4.00961 8.89736 -3.44924 10.7309 -3.12158 11.8636L4.56332 9.64045ZM5.06211 11.4978C4.90832 10.8292 4.71732 10.1728 4.56332 9.64045L-3.12158 11.8636C-2.95591 12.4363 -2.82964 12.8766 -2.7343 13.2911L5.06211 11.4978ZM8.29672 25.5827C7.22091 20.8885 6.14446 16.1915 5.06162 11.4956L-2.73381 13.2932C-1.65237 17.9829 -0.577132 22.6747 0.498881 27.3698L8.29672 25.5827Z" fill="white" mask="url(#path-12-inside-1_2109_57378)"></path></svg> 