<svg width="199" height="24" viewBox="0 0 199 24" fill="none" xmlns="http://www.w3.org/2000/svg">
<rect x="0.5" y="0.5" width="23" height="23" rx="3.5" stroke="white"/>
<path d="M18.2493 7.83325L9.49935 16.5833L6.16602 13.2499" stroke="white" stroke-linecap="round" stroke-linejoin="round"/>
<path d="M42.178 6.516V17.028H42.754C44.398 17.028 45.658 16.566 46.534 15.642C47.422 14.706 47.866 13.416 47.866 11.772C47.866 10.14 47.422 8.856 46.534 7.92C45.658 6.984 44.398 6.516 42.754 6.516H42.178ZM41.116 5.544H42.754C44.698 5.544 46.222 6.114 47.326 7.254C48.43 8.382 48.982 9.888 48.982 11.772C48.982 13.644 48.424 15.15 47.308 16.29C46.204 17.43 44.68 18 42.736 18H41.116V5.544ZM52.1532 8.37V18H51.1092V8.37H52.1532ZM52.2252 6.876C52.0692 7.032 51.8712 7.11 51.6312 7.11C51.3912 7.11 51.1872 7.032 51.0192 6.876C50.8632 6.708 50.7852 6.504 50.7852 6.264C50.7852 6.024 50.8632 5.826 51.0192 5.67C51.1872 5.502 51.3912 5.418 51.6312 5.418C51.8712 5.418 52.0692 5.502 52.2252 5.67C52.3932 5.826 52.4772 6.024 52.4772 6.264C52.4772 6.504 52.3932 6.708 52.2252 6.876ZM55.3181 10.638C55.3181 11.334 55.6721 11.844 56.3801 12.168C56.5841 12.264 56.8841 12.372 57.2801 12.492C57.6761 12.6 57.9761 12.696 58.1801 12.78C58.8041 13.032 59.2721 13.368 59.5841 13.788C59.8961 14.208 60.0521 14.754 60.0521 15.426C60.0521 16.242 59.7641 16.896 59.1881 17.388C58.6121 17.868 57.8861 18.108 57.0101 18.108C55.9901 18.108 55.2341 17.826 54.7421 17.262C54.2501 16.686 54.0041 15.954 54.0041 15.066H55.0301C55.0781 16.494 55.7561 17.214 57.0641 17.226C57.6041 17.238 58.0601 17.094 58.4321 16.794C58.8161 16.482 59.0081 16.05 59.0081 15.498C59.0081 14.634 58.5761 14.034 57.7121 13.698C57.5441 13.626 57.2441 13.524 56.8121 13.392C56.3921 13.26 56.0681 13.14 55.8401 13.032C54.8081 12.528 54.2921 11.748 54.2921 10.692C54.2921 9.96 54.5441 9.372 55.0481 8.928C55.5521 8.484 56.2121 8.262 57.0281 8.262C57.9641 8.262 58.6481 8.526 59.0801 9.054C59.5241 9.57 59.7521 10.236 59.7641 11.052H58.7741C58.7141 9.768 58.1261 9.126 57.0101 9.126C56.4941 9.126 56.0801 9.258 55.7681 9.522C55.4681 9.786 55.3181 10.158 55.3181 10.638ZM66.3852 17.226C67.5732 17.226 68.6052 16.758 69.4812 15.822L70.1292 16.38C69.7692 16.86 69.2712 17.28 68.6352 17.64C67.9992 17.988 67.2432 18.162 66.3672 18.162C64.9272 18.162 63.7512 17.694 62.8392 16.758C61.9272 15.81 61.4712 14.622 61.4712 13.194C61.4712 11.766 61.9332 10.578 62.8572 9.63C63.7932 8.682 64.9632 8.208 66.3672 8.208C67.2792 8.208 68.0472 8.382 68.6712 8.73C69.2952 9.066 69.7692 9.468 70.0932 9.936L69.3732 10.53C68.5812 9.606 67.5732 9.144 66.3492 9.144C65.2452 9.144 64.3392 9.528 63.6312 10.296C62.9232 11.064 62.5692 12.03 62.5692 13.194C62.5692 14.37 62.9352 15.336 63.6672 16.092C64.3992 16.848 65.3052 17.226 66.3852 17.226ZM72.1242 13.194C72.1242 14.382 72.4842 15.354 73.2042 16.11C73.9242 16.854 74.8422 17.226 75.9582 17.226C77.0742 17.226 77.9922 16.848 78.7122 16.092C79.4442 15.336 79.8102 14.37 79.8102 13.194C79.8102 12.018 79.4442 11.052 78.7122 10.296C77.9922 9.528 77.0742 9.144 75.9582 9.144C74.8422 9.144 73.9242 9.528 73.2042 10.296C72.4842 11.052 72.1242 12.018 72.1242 13.194ZM71.0442 13.194C71.0442 11.73 71.5182 10.536 72.4662 9.612C73.4142 8.676 74.5842 8.208 75.9762 8.208C77.3682 8.208 78.5322 8.676 79.4682 9.612C80.4162 10.548 80.8902 11.742 80.8902 13.194C80.8902 14.634 80.4102 15.822 79.4502 16.758C78.5022 17.694 77.3322 18.162 75.9402 18.162C74.5362 18.162 73.3662 17.706 72.4302 16.794C71.5062 15.87 71.0442 14.67 71.0442 13.194ZM82.5301 8.37L85.9321 16.794L89.2981 8.37H90.3961L86.4721 18H85.3381L81.3781 8.37H82.5301ZM100.271 13.482H91.9735C92.0335 14.634 92.3995 15.546 93.0715 16.218C93.7555 16.89 94.6435 17.226 95.7355 17.226C97.3555 17.226 98.5495 16.428 99.3175 14.832L100.127 15.192C99.7675 16.08 99.2095 16.8 98.4535 17.352C97.6975 17.892 96.7915 18.162 95.7355 18.162C94.2955 18.162 93.1255 17.706 92.2255 16.794C91.3375 15.87 90.8935 14.67 90.8935 13.194C90.8935 11.742 91.3315 10.548 92.2075 9.612C93.0955 8.676 94.2235 8.208 95.5915 8.208C96.9835 8.208 98.1055 8.628 98.9575 9.468C99.8095 10.308 100.253 11.448 100.289 12.888C100.289 13.152 100.283 13.35 100.271 13.482ZM95.5555 9.144C94.5835 9.144 93.7735 9.45 93.1255 10.062C92.4895 10.662 92.1175 11.502 92.0095 12.582H99.1915C99.1435 11.502 98.7835 10.662 98.1115 10.062C97.4515 9.45 96.5995 9.144 95.5555 9.144ZM105.658 8.37V9.396H105.316C104.632 9.396 104.116 9.606 103.768 10.026C103.42 10.434 103.246 11.016 103.246 11.772V18H102.202V8.37H103.246V9.45C103.678 8.718 104.482 8.358 105.658 8.37ZM116.094 18V11.718C116.094 10.038 115.398 9.198 114.006 9.198C113.298 9.198 112.752 9.432 112.368 9.9C111.996 10.368 111.81 11.004 111.81 11.808V18H110.766V8.37H111.81V9.378C111.99 9.078 112.278 8.82 112.674 8.604C113.07 8.376 113.55 8.262 114.114 8.262C115.134 8.262 115.89 8.574 116.382 9.198C116.886 9.81 117.138 10.62 117.138 11.628V18H116.094ZM128.474 13.482H120.176C120.236 14.634 120.602 15.546 121.274 16.218C121.958 16.89 122.846 17.226 123.938 17.226C125.558 17.226 126.752 16.428 127.52 14.832L128.33 15.192C127.97 16.08 127.412 16.8 126.656 17.352C125.9 17.892 124.994 18.162 123.938 18.162C122.498 18.162 121.328 17.706 120.428 16.794C119.54 15.87 119.096 14.67 119.096 13.194C119.096 11.742 119.534 10.548 120.41 9.612C121.298 8.676 122.426 8.208 123.794 8.208C125.186 8.208 126.308 8.628 127.16 9.468C128.012 10.308 128.456 11.448 128.492 12.888C128.492 13.152 128.486 13.35 128.474 13.482ZM123.758 9.144C122.786 9.144 121.976 9.45 121.328 10.062C120.692 10.662 120.32 11.502 120.212 12.582H127.394C127.346 11.502 126.986 10.662 126.314 10.062C125.654 9.45 124.802 9.144 123.758 9.144ZM137.145 8.37L140.079 16.722L143.013 8.37H144.093L140.619 18H139.485L136.551 9.738L133.599 18H132.465L129.009 8.37H130.125L133.059 16.722L135.993 8.37H137.145ZM148.361 15.048C148.361 14.136 148.655 13.386 149.243 12.798C149.843 12.21 150.617 11.916 151.565 11.916C152.069 11.916 152.525 12.012 152.933 12.204C153.341 12.384 153.647 12.606 153.851 12.87V11.592C153.851 10.788 153.665 10.176 153.293 9.756C152.921 9.336 152.387 9.126 151.691 9.126C151.019 9.126 150.521 9.306 150.197 9.666C149.873 10.026 149.699 10.488 149.675 11.052H148.685C148.697 10.248 148.961 9.582 149.477 9.054C150.005 8.526 150.755 8.262 151.727 8.262C152.771 8.262 153.557 8.562 154.085 9.162C154.613 9.762 154.877 10.59 154.877 11.646V18H153.851V17.118C153.323 17.814 152.561 18.162 151.565 18.162C150.641 18.162 149.873 17.88 149.261 17.316C148.661 16.74 148.361 15.984 148.361 15.048ZM149.387 15.048C149.387 15.696 149.591 16.236 149.999 16.668C150.419 17.088 150.959 17.298 151.619 17.298C152.279 17.298 152.819 17.088 153.239 16.668C153.671 16.236 153.887 15.696 153.887 15.048C153.887 14.4 153.671 13.86 153.239 13.428C152.807 12.996 152.261 12.78 151.601 12.78C150.929 12.78 150.389 12.996 149.981 13.428C149.585 13.848 149.387 14.388 149.387 15.048ZM160.839 8.37V9.396H160.497C159.813 9.396 159.297 9.606 158.949 10.026C158.601 10.434 158.427 11.016 158.427 11.772V18H157.383V8.37H158.427V9.45C158.859 8.718 159.663 8.358 160.839 8.37ZM166.141 8.37V9.396H165.799C165.115 9.396 164.599 9.606 164.251 10.026C163.903 10.434 163.729 11.016 163.729 11.772V18H162.685V8.37H163.729V9.45C164.161 8.718 164.965 8.358 166.141 8.37ZM169.03 8.37V18H167.986V8.37H169.03ZM169.102 6.876C168.946 7.032 168.748 7.11 168.508 7.11C168.268 7.11 168.064 7.032 167.896 6.876C167.74 6.708 167.662 6.504 167.662 6.264C167.662 6.024 167.74 5.826 167.896 5.67C168.064 5.502 168.268 5.418 168.508 5.418C168.748 5.418 168.946 5.502 169.102 5.67C169.27 5.826 169.354 6.024 169.354 6.264C169.354 6.504 169.27 6.708 169.102 6.876ZM171.637 8.37L175.039 16.794L178.405 8.37H179.503L175.579 18H174.445L170.485 8.37H171.637ZM180.213 15.048C180.213 14.136 180.507 13.386 181.095 12.798C181.695 12.21 182.469 11.916 183.417 11.916C183.921 11.916 184.377 12.012 184.785 12.204C185.193 12.384 185.499 12.606 185.703 12.87V11.592C185.703 10.788 185.517 10.176 185.145 9.756C184.773 9.336 184.239 9.126 183.543 9.126C182.871 9.126 182.373 9.306 182.049 9.666C181.725 10.026 181.551 10.488 181.527 11.052H180.537C180.549 10.248 180.813 9.582 181.329 9.054C181.857 8.526 182.607 8.262 183.579 8.262C184.623 8.262 185.409 8.562 185.937 9.162C186.465 9.762 186.729 10.59 186.729 11.646V18H185.703V17.118C185.175 17.814 184.413 18.162 183.417 18.162C182.493 18.162 181.725 17.88 181.113 17.316C180.513 16.74 180.213 15.984 180.213 15.048ZM181.239 15.048C181.239 15.696 181.443 16.236 181.851 16.668C182.271 17.088 182.811 17.298 183.471 17.298C184.131 17.298 184.671 17.088 185.091 16.668C185.523 16.236 185.739 15.696 185.739 15.048C185.739 14.4 185.523 13.86 185.091 13.428C184.659 12.996 184.113 12.78 183.453 12.78C182.781 12.78 182.241 12.996 181.833 13.428C181.437 13.848 181.239 14.388 181.239 15.048ZM190.279 4.842V18H189.235V4.842H190.279ZM193.444 10.638C193.444 11.334 193.798 11.844 194.506 12.168C194.71 12.264 195.01 12.372 195.406 12.492C195.802 12.6 196.102 12.696 196.306 12.78C196.93 13.032 197.398 13.368 197.71 13.788C198.022 14.208 198.178 14.754 198.178 15.426C198.178 16.242 197.89 16.896 197.314 17.388C196.738 17.868 196.012 18.108 195.136 18.108C194.116 18.108 193.36 17.826 192.868 17.262C192.376 16.686 192.13 15.954 192.13 15.066H193.156C193.204 16.494 193.882 17.214 195.19 17.226C195.73 17.238 196.186 17.094 196.558 16.794C196.942 16.482 197.134 16.05 197.134 15.498C197.134 14.634 196.702 14.034 195.838 13.698C195.67 13.626 195.37 13.524 194.938 13.392C194.518 13.26 194.194 13.14 193.966 13.032C192.934 12.528 192.418 11.748 192.418 10.692C192.418 9.96 192.67 9.372 193.174 8.928C193.678 8.484 194.338 8.262 195.154 8.262C196.09 8.262 196.774 8.526 197.206 9.054C197.65 9.57 197.878 10.236 197.89 11.052H196.9C196.84 9.768 196.252 9.126 195.136 9.126C194.62 9.126 194.206 9.258 193.894 9.522C193.594 9.786 193.444 10.158 193.444 10.638Z" fill="white"/>
</svg>
